M48
;DRILL file {KiCad 4.0.7} date 11/09/18 11:24:21
;FORMAT={-:-/ absolute / metric / decimal}
FMAT,2
METRIC,TZ
T1C0.400
T2C0.800
T3C0.900
T4C1.000
%
G90
G05
M71
T1
X115.57Y-84.455
X122.555Y-81.915
X125.73Y-113.03
X127.Y-120.65
X127.Y-121.92
X127.635Y-115.57
X127.635Y-117.475
X128.905Y-119.38
X129.54Y-132.08
X130.81Y-86.36
X142.24Y-99.06
X144.145Y-116.205
X144.78Y-102.235
X144.78Y-109.22
X144.78Y-123.19
X146.05Y-96.52
X146.05Y-116.84
X146.05Y-126.365
X146.685Y-113.665
X152.4Y-81.28
X154.94Y-100.33
X156.21Y-102.87
X163.195Y-118.745
X168.91Y-101.6
X170.18Y-93.345
X172.085Y-90.805
X173.355Y-104.14
X175.26Y-93.345
X177.8Y-122.555
X181.61Y-85.09
X182.88Y-95.885
T2
X111.76Y-105.41
X111.76Y-109.22
X116.84Y-113.57
X116.84Y-115.57
X119.38Y-105.41
X119.38Y-109.22
X123.19Y-107.95
X123.19Y-110.49
X123.19Y-113.03
X123.19Y-115.57
X123.19Y-118.11
X123.19Y-120.65
X123.19Y-123.19
X123.19Y-125.73
X130.81Y-107.95
X130.81Y-110.49
X130.81Y-113.03
X130.81Y-115.57
X130.81Y-118.11
X130.81Y-120.65
X130.81Y-123.19
X130.81Y-125.73
X134.62Y-107.95
X134.62Y-111.76
X134.62Y-115.57
X134.62Y-119.38
X134.62Y-123.19
X134.62Y-127.
X134.62Y-130.81
X134.62Y-134.62
X142.24Y-107.95
X142.24Y-111.76
X142.24Y-115.57
X142.24Y-119.38
X142.24Y-123.19
X142.24Y-127.
X142.24Y-130.81
X142.24Y-134.62
X156.21Y-80.01
X156.21Y-87.63
X157.48Y-119.38
X157.48Y-121.92
X157.48Y-124.46
X157.48Y-127.
X158.75Y-80.01
X158.75Y-87.63
X158.75Y-130.81
X161.25Y-130.81
X161.29Y-80.01
X161.29Y-87.63
X163.83Y-80.01
X163.83Y-87.63
X163.83Y-109.22
X163.83Y-113.03
X165.1Y-119.38
X165.1Y-121.92
X165.1Y-124.46
X165.1Y-127.
X166.37Y-80.01
X166.37Y-87.63
X167.64Y-73.66
X168.91Y-80.01
X168.91Y-87.63
X171.45Y-80.01
X171.45Y-87.63
X171.45Y-109.22
X171.45Y-113.03
X171.45Y-118.11
X171.45Y-125.73
X175.26Y-73.66
X175.26Y-118.11
X175.26Y-125.73
X176.53Y-105.41
X176.53Y-109.22
X176.53Y-113.03
X184.15Y-105.41
X184.15Y-109.22
X184.15Y-113.03
T3
X148.59Y-82.55
X148.59Y-85.09
X148.59Y-90.17
X148.59Y-92.71
X148.59Y-97.79
X148.59Y-100.33
X148.59Y-105.41
X148.59Y-107.95
X148.59Y-113.03
X148.59Y-115.57
X148.59Y-120.65
X148.59Y-123.19
X148.59Y-128.27
X148.59Y-130.81
X148.59Y-135.89
X148.59Y-138.43
X154.94Y-109.22
X157.44Y-114.22
X159.94Y-109.22
T4
X121.92Y-78.74
X124.46Y-78.74
X124.59Y-90.755
X124.59Y-103.555
X127.Y-73.66
X127.Y-78.74
X129.54Y-73.66
X134.62Y-80.01
X137.16Y-80.01
X139.7Y-80.01
T0
M30
