G04 #@! TF.FileFunction,Legend,Top*
%FSLAX46Y46*%
G04 Gerber Fmt 4.6, Leading zero omitted, Abs format (unit mm)*
G04 Created by KiCad (PCBNEW 4.0.7) date 11/09/18 11:24:19*
%MOMM*%
%LPD*%
G01*
G04 APERTURE LIST*
%ADD10C,0.100000*%
%ADD11C,0.300000*%
%ADD12C,0.150000*%
%ADD13C,0.120000*%
%ADD14C,0.010000*%
G04 APERTURE END LIST*
D10*
D11*
X127107143Y-70548572D02*
X127107143Y-71691429D01*
X127678571Y-71120000D02*
X126535714Y-71120000D01*
X130111428Y-71227143D02*
X128968571Y-71227143D01*
D10*
X149092301Y-78771685D02*
X149124258Y-78727400D01*
X149060344Y-78815736D02*
X149092301Y-78771685D01*
X149028388Y-78859320D02*
X149060344Y-78815736D01*
X148996431Y-78902206D02*
X149028388Y-78859320D01*
X148964474Y-78944159D02*
X148996431Y-78902206D01*
X148932517Y-78984946D02*
X148964474Y-78944159D01*
X148900560Y-79024335D02*
X148932517Y-78984946D01*
X148868603Y-79062091D02*
X148900560Y-79024335D01*
X148836647Y-79097983D02*
X148868603Y-79062091D01*
X148804690Y-79131777D02*
X148836647Y-79097983D01*
X148772733Y-79163239D02*
X148804690Y-79131777D01*
X148740776Y-79192137D02*
X148772733Y-79163239D01*
X148708819Y-79218237D02*
X148740776Y-79192137D01*
X148676863Y-79241307D02*
X148708819Y-79218237D01*
X148644906Y-79261113D02*
X148676863Y-79241307D01*
X148612949Y-79277422D02*
X148644906Y-79261113D01*
X148580992Y-79290001D02*
X148612949Y-79277422D01*
X148549035Y-79298617D02*
X148580992Y-79290001D01*
X148517078Y-79303037D02*
X148549035Y-79298617D01*
X148485122Y-79303037D02*
X148517078Y-79303037D01*
X148453165Y-79298617D02*
X148485122Y-79303037D01*
X148421208Y-79290001D02*
X148453165Y-79298617D01*
X148389251Y-79277422D02*
X148421208Y-79290001D01*
X148357294Y-79261113D02*
X148389251Y-79277422D01*
X148325337Y-79241307D02*
X148357294Y-79261113D01*
X148293381Y-79218237D02*
X148325337Y-79241307D01*
X148261424Y-79192137D02*
X148293381Y-79218237D01*
X148229467Y-79163239D02*
X148261424Y-79192137D01*
X148197510Y-79131777D02*
X148229467Y-79163239D01*
X148165553Y-79097983D02*
X148197510Y-79131777D01*
X148133597Y-79062091D02*
X148165553Y-79097983D01*
X148101640Y-79024335D02*
X148133597Y-79062091D01*
X148069683Y-78984946D02*
X148101640Y-79024335D01*
X148037726Y-78944159D02*
X148069683Y-78984946D01*
X148005769Y-78902206D02*
X148037726Y-78944159D01*
X147973812Y-78859320D02*
X148005769Y-78902206D01*
X147941856Y-78815736D02*
X147973812Y-78859320D01*
X147909899Y-78771685D02*
X147941856Y-78815736D01*
X147877942Y-78727400D02*
X147909899Y-78771685D01*
X146024691Y-76265210D02*
X147877942Y-78727400D01*
X144066980Y-74126681D02*
X146024691Y-76265210D01*
X142021176Y-72299991D02*
X144066980Y-74126681D01*
X139903649Y-70773315D02*
X142021176Y-72299991D01*
X137730764Y-69534830D02*
X139903649Y-70773315D01*
X135518890Y-68572714D02*
X137730764Y-69534830D01*
X133284394Y-67875143D02*
X135518890Y-68572714D01*
X131043644Y-67430294D02*
X133284394Y-67875143D01*
X128813008Y-67226344D02*
X131043644Y-67430294D01*
X126608853Y-67251469D02*
X128813008Y-67226344D01*
X124447546Y-67493847D02*
X126608853Y-67251469D01*
X122345456Y-67941653D02*
X124447546Y-67493847D01*
X120318950Y-68583065D02*
X122345456Y-67941653D01*
X118384396Y-69406260D02*
X120318950Y-68583065D01*
X116558161Y-70399414D02*
X118384396Y-69406260D01*
X114856518Y-71550739D02*
X116558161Y-70399414D01*
X113290051Y-72850505D02*
X114856518Y-71550739D01*
X111860524Y-74292176D02*
X113290051Y-72850505D01*
X110568943Y-75869492D02*
X111860524Y-74292176D01*
X109416314Y-77576191D02*
X110568943Y-75869492D01*
X108403644Y-79406012D02*
X109416314Y-77576191D01*
X107531938Y-81352693D02*
X108403644Y-79406012D01*
X106802203Y-83409973D02*
X107531938Y-81352693D01*
X106215445Y-85571591D02*
X106802203Y-83409973D01*
X105772670Y-87831286D02*
X106215445Y-85571591D01*
X105474884Y-90182796D02*
X105772670Y-87831286D01*
X105323093Y-92619860D02*
X105474884Y-90182796D01*
X105318303Y-95136217D02*
X105323093Y-92619860D01*
X105461521Y-97725605D02*
X105318303Y-95136217D01*
X105753752Y-100381763D02*
X105461521Y-97725605D01*
X106196003Y-103098430D02*
X105753752Y-100381763D01*
X106790359Y-105868984D02*
X106196003Y-103098430D01*
X107551450Y-108682610D02*
X106790359Y-105868984D01*
X108502001Y-111525785D02*
X107551450Y-108682610D01*
X109664872Y-114384945D02*
X108502001Y-111525785D01*
X111062923Y-117246524D02*
X109664872Y-114384945D01*
X112719011Y-120096954D02*
X111062923Y-117246524D01*
X114655998Y-122922671D02*
X112719011Y-120096954D01*
X116896742Y-125710108D02*
X114655998Y-122922671D01*
X119464104Y-128445699D02*
X116896742Y-125710108D01*
X122380941Y-131115878D02*
X119464104Y-128445699D01*
X125670114Y-133707078D02*
X122380941Y-131115878D01*
X129354483Y-136205735D02*
X125670114Y-133707078D01*
X133456907Y-138598282D02*
X129354483Y-136205735D01*
X138000244Y-140871152D02*
X133456907Y-138598282D01*
X143007356Y-143010780D02*
X138000244Y-140871152D01*
X148501100Y-145003600D02*
X143007356Y-143010780D01*
X150977509Y-76265210D02*
X149124258Y-78727400D01*
X152935220Y-74126681D02*
X150977509Y-76265210D01*
X154981024Y-72299991D02*
X152935220Y-74126681D01*
X157098551Y-70773315D02*
X154981024Y-72299991D01*
X159271436Y-69534830D02*
X157098551Y-70773315D01*
X161483310Y-68572714D02*
X159271436Y-69534830D01*
X163717806Y-67875143D02*
X161483310Y-68572714D01*
X165958556Y-67430294D02*
X163717806Y-67875143D01*
X168189192Y-67226344D02*
X165958556Y-67430294D01*
X170393347Y-67251469D02*
X168189192Y-67226344D01*
X172554654Y-67493847D02*
X170393347Y-67251469D01*
X174656744Y-67941653D02*
X172554654Y-67493847D01*
X176683250Y-68583065D02*
X174656744Y-67941653D01*
X178617804Y-69406260D02*
X176683250Y-68583065D01*
X180444039Y-70399414D02*
X178617804Y-69406260D01*
X182145682Y-71550739D02*
X180444039Y-70399414D01*
X183712149Y-72850505D02*
X182145682Y-71550739D01*
X185141676Y-74292176D02*
X183712149Y-72850505D01*
X186433257Y-75869492D02*
X185141676Y-74292176D01*
X187585886Y-77576191D02*
X186433257Y-75869492D01*
X188598556Y-79406012D02*
X187585886Y-77576191D01*
X189470262Y-81352693D02*
X188598556Y-79406012D01*
X190199997Y-83409973D02*
X189470262Y-81352693D01*
X190786755Y-85571591D02*
X190199997Y-83409973D01*
X191229530Y-87831286D02*
X190786755Y-85571591D01*
X191527316Y-90182796D02*
X191229530Y-87831286D01*
X191679107Y-92619860D02*
X191527316Y-90182796D01*
X191683897Y-95136217D02*
X191679107Y-92619860D01*
X191540679Y-97725605D02*
X191683897Y-95136217D01*
X191248448Y-100381763D02*
X191540679Y-97725605D01*
X190806197Y-103098430D02*
X191248448Y-100381763D01*
X190211841Y-105868984D02*
X190806197Y-103098430D01*
X189450750Y-108682610D02*
X190211841Y-105868984D01*
X188500199Y-111525785D02*
X189450750Y-108682610D01*
X187337328Y-114384945D02*
X188500199Y-111525785D01*
X185939277Y-117246524D02*
X187337328Y-114384945D01*
X184283189Y-120096954D02*
X185939277Y-117246524D01*
X182346202Y-122922671D02*
X184283189Y-120096954D01*
X180105458Y-125710108D02*
X182346202Y-122922671D01*
X177538096Y-128445699D02*
X180105458Y-125710108D01*
X174621259Y-131115878D02*
X177538096Y-128445699D01*
X171332086Y-133707078D02*
X174621259Y-131115878D01*
X167647717Y-136205735D02*
X171332086Y-133707078D01*
X163545293Y-138598282D02*
X167647717Y-136205735D01*
X159001956Y-140871152D02*
X163545293Y-138598282D01*
X153994844Y-143010780D02*
X159001956Y-140871152D01*
X148501100Y-145003600D02*
X153994844Y-143010780D01*
D12*
X132080000Y-78740000D02*
X133350000Y-78740000D01*
X132080000Y-78740000D02*
X132080000Y-88900000D01*
X132080000Y-88900000D02*
X142240000Y-88900000D01*
X142240000Y-88900000D02*
X142240000Y-78740000D01*
X142240000Y-78740000D02*
X140970000Y-78740000D01*
D13*
X120590000Y-77410000D02*
X120590000Y-80070000D01*
X125730000Y-77410000D02*
X120590000Y-77410000D01*
X125730000Y-80070000D02*
X120590000Y-80070000D01*
X125730000Y-77410000D02*
X125730000Y-80070000D01*
X127000000Y-77410000D02*
X128330000Y-77410000D01*
X128330000Y-77410000D02*
X128330000Y-78740000D01*
X158340000Y-111720000D02*
G75*
G03X158340000Y-111720000I-900000J0D01*
G01*
X160650000Y-110093000D02*
X160650000Y-114930000D01*
X154230000Y-110093000D02*
X154230000Y-114930000D01*
X159182000Y-108510000D02*
X155697000Y-108510000D01*
X160650000Y-114930000D02*
X158197000Y-114930000D01*
X156682000Y-114930000D02*
X154230000Y-114930000D01*
X172430000Y-118710000D02*
X172760000Y-118710000D01*
X172760000Y-118710000D02*
X172760000Y-125130000D01*
X172760000Y-125130000D02*
X172430000Y-125130000D01*
X170470000Y-118710000D02*
X170140000Y-118710000D01*
X170140000Y-118710000D02*
X170140000Y-125130000D01*
X170140000Y-125130000D02*
X170470000Y-125130000D01*
X177130000Y-104430000D02*
X177130000Y-104100000D01*
X177130000Y-104100000D02*
X183550000Y-104100000D01*
X183550000Y-104100000D02*
X183550000Y-104430000D01*
X177130000Y-106390000D02*
X177130000Y-106720000D01*
X177130000Y-106720000D02*
X183550000Y-106720000D01*
X183550000Y-106720000D02*
X183550000Y-106390000D01*
X135220000Y-106970000D02*
X135220000Y-106640000D01*
X135220000Y-106640000D02*
X141640000Y-106640000D01*
X141640000Y-106640000D02*
X141640000Y-106970000D01*
X135220000Y-108930000D02*
X135220000Y-109260000D01*
X135220000Y-109260000D02*
X141640000Y-109260000D01*
X141640000Y-109260000D02*
X141640000Y-108930000D01*
X135220000Y-110780000D02*
X135220000Y-110450000D01*
X135220000Y-110450000D02*
X141640000Y-110450000D01*
X141640000Y-110450000D02*
X141640000Y-110780000D01*
X135220000Y-112740000D02*
X135220000Y-113070000D01*
X135220000Y-113070000D02*
X141640000Y-113070000D01*
X141640000Y-113070000D02*
X141640000Y-112740000D01*
X135220000Y-114590000D02*
X135220000Y-114260000D01*
X135220000Y-114260000D02*
X141640000Y-114260000D01*
X141640000Y-114260000D02*
X141640000Y-114590000D01*
X135220000Y-116550000D02*
X135220000Y-116880000D01*
X135220000Y-116880000D02*
X141640000Y-116880000D01*
X141640000Y-116880000D02*
X141640000Y-116550000D01*
X135220000Y-118400000D02*
X135220000Y-118070000D01*
X135220000Y-118070000D02*
X141640000Y-118070000D01*
X141640000Y-118070000D02*
X141640000Y-118400000D01*
X135220000Y-120360000D02*
X135220000Y-120690000D01*
X135220000Y-120690000D02*
X141640000Y-120690000D01*
X141640000Y-120690000D02*
X141640000Y-120360000D01*
X135220000Y-122210000D02*
X135220000Y-121880000D01*
X135220000Y-121880000D02*
X141640000Y-121880000D01*
X141640000Y-121880000D02*
X141640000Y-122210000D01*
X135220000Y-124170000D02*
X135220000Y-124500000D01*
X135220000Y-124500000D02*
X141640000Y-124500000D01*
X141640000Y-124500000D02*
X141640000Y-124170000D01*
X135220000Y-126020000D02*
X135220000Y-125690000D01*
X135220000Y-125690000D02*
X141640000Y-125690000D01*
X141640000Y-125690000D02*
X141640000Y-126020000D01*
X135220000Y-127980000D02*
X135220000Y-128310000D01*
X135220000Y-128310000D02*
X141640000Y-128310000D01*
X141640000Y-128310000D02*
X141640000Y-127980000D01*
X135220000Y-129830000D02*
X135220000Y-129500000D01*
X135220000Y-129500000D02*
X141640000Y-129500000D01*
X141640000Y-129500000D02*
X141640000Y-129830000D01*
X135220000Y-131790000D02*
X135220000Y-132120000D01*
X135220000Y-132120000D02*
X141640000Y-132120000D01*
X141640000Y-132120000D02*
X141640000Y-131790000D01*
X135220000Y-133640000D02*
X135220000Y-133310000D01*
X135220000Y-133310000D02*
X141640000Y-133310000D01*
X141640000Y-133310000D02*
X141640000Y-133640000D01*
X135220000Y-135600000D02*
X135220000Y-135930000D01*
X135220000Y-135930000D02*
X141640000Y-135930000D01*
X141640000Y-135930000D02*
X141640000Y-135600000D01*
X183550000Y-110200000D02*
X183550000Y-110530000D01*
X183550000Y-110530000D02*
X177130000Y-110530000D01*
X177130000Y-110530000D02*
X177130000Y-110200000D01*
X183550000Y-108240000D02*
X183550000Y-107910000D01*
X183550000Y-107910000D02*
X177130000Y-107910000D01*
X177130000Y-107910000D02*
X177130000Y-108240000D01*
X174280000Y-125130000D02*
X173950000Y-125130000D01*
X173950000Y-125130000D02*
X173950000Y-118710000D01*
X173950000Y-118710000D02*
X174280000Y-118710000D01*
X176240000Y-125130000D02*
X176570000Y-125130000D01*
X176570000Y-125130000D02*
X176570000Y-118710000D01*
X176570000Y-118710000D02*
X176240000Y-118710000D01*
X183550000Y-114010000D02*
X183550000Y-114340000D01*
X183550000Y-114340000D02*
X177130000Y-114340000D01*
X177130000Y-114340000D02*
X177130000Y-114010000D01*
X183550000Y-112050000D02*
X183550000Y-111720000D01*
X183550000Y-111720000D02*
X177130000Y-111720000D01*
X177130000Y-111720000D02*
X177130000Y-112050000D01*
X170850000Y-114010000D02*
X170850000Y-114340000D01*
X170850000Y-114340000D02*
X164430000Y-114340000D01*
X164430000Y-114340000D02*
X164430000Y-114010000D01*
X170850000Y-112050000D02*
X170850000Y-111720000D01*
X170850000Y-111720000D02*
X164430000Y-111720000D01*
X164430000Y-111720000D02*
X164430000Y-112050000D01*
X170850000Y-110200000D02*
X170850000Y-110530000D01*
X170850000Y-110530000D02*
X164430000Y-110530000D01*
X164430000Y-110530000D02*
X164430000Y-110200000D01*
X170850000Y-108240000D02*
X170850000Y-107910000D01*
X170850000Y-107910000D02*
X164430000Y-107910000D01*
X164430000Y-107910000D02*
X164430000Y-108240000D01*
X112360000Y-104430000D02*
X112360000Y-104100000D01*
X112360000Y-104100000D02*
X118780000Y-104100000D01*
X118780000Y-104100000D02*
X118780000Y-104430000D01*
X112360000Y-106390000D02*
X112360000Y-106720000D01*
X112360000Y-106720000D02*
X118780000Y-106720000D01*
X118780000Y-106720000D02*
X118780000Y-106390000D01*
X118780000Y-110200000D02*
X118780000Y-110530000D01*
X118780000Y-110530000D02*
X112360000Y-110530000D01*
X112360000Y-110530000D02*
X112360000Y-110200000D01*
X118780000Y-108240000D02*
X118780000Y-107910000D01*
X118780000Y-107910000D02*
X112360000Y-107910000D01*
X112360000Y-107910000D02*
X112360000Y-108240000D01*
X174660000Y-74640000D02*
X174660000Y-74970000D01*
X174660000Y-74970000D02*
X168240000Y-74970000D01*
X168240000Y-74970000D02*
X168240000Y-74640000D01*
X174660000Y-72680000D02*
X174660000Y-72350000D01*
X174660000Y-72350000D02*
X168240000Y-72350000D01*
X168240000Y-72350000D02*
X168240000Y-72680000D01*
X148589538Y-86810000D02*
G75*
G03X150134830Y-81260000I462J2990000D01*
G01*
X148590462Y-86810000D02*
G75*
G02X147045170Y-81260000I-462J2990000D01*
G01*
X151090000Y-83820000D02*
G75*
G03X151090000Y-83820000I-2500000J0D01*
G01*
X150135000Y-81260000D02*
X147045000Y-81260000D01*
X148589538Y-94430000D02*
G75*
G03X150134830Y-88880000I462J2990000D01*
G01*
X148590462Y-94430000D02*
G75*
G02X147045170Y-88880000I-462J2990000D01*
G01*
X151090000Y-91440000D02*
G75*
G03X151090000Y-91440000I-2500000J0D01*
G01*
X150135000Y-88880000D02*
X147045000Y-88880000D01*
X148589538Y-102050000D02*
G75*
G03X150134830Y-96500000I462J2990000D01*
G01*
X148590462Y-102050000D02*
G75*
G02X147045170Y-96500000I-462J2990000D01*
G01*
X151090000Y-99060000D02*
G75*
G03X151090000Y-99060000I-2500000J0D01*
G01*
X150135000Y-96500000D02*
X147045000Y-96500000D01*
X148589538Y-109670000D02*
G75*
G03X150134830Y-104120000I462J2990000D01*
G01*
X148590462Y-109670000D02*
G75*
G02X147045170Y-104120000I-462J2990000D01*
G01*
X151090000Y-106680000D02*
G75*
G03X151090000Y-106680000I-2500000J0D01*
G01*
X150135000Y-104120000D02*
X147045000Y-104120000D01*
X148589538Y-117290000D02*
G75*
G03X150134830Y-111740000I462J2990000D01*
G01*
X148590462Y-117290000D02*
G75*
G02X147045170Y-111740000I-462J2990000D01*
G01*
X151090000Y-114300000D02*
G75*
G03X151090000Y-114300000I-2500000J0D01*
G01*
X150135000Y-111740000D02*
X147045000Y-111740000D01*
X148589538Y-124910000D02*
G75*
G03X150134830Y-119360000I462J2990000D01*
G01*
X148590462Y-124910000D02*
G75*
G02X147045170Y-119360000I-462J2990000D01*
G01*
X151090000Y-121920000D02*
G75*
G03X151090000Y-121920000I-2500000J0D01*
G01*
X150135000Y-119360000D02*
X147045000Y-119360000D01*
X148589538Y-132530000D02*
G75*
G03X150134830Y-126980000I462J2990000D01*
G01*
X148590462Y-132530000D02*
G75*
G02X147045170Y-126980000I-462J2990000D01*
G01*
X151090000Y-129540000D02*
G75*
G03X151090000Y-129540000I-2500000J0D01*
G01*
X150135000Y-126980000D02*
X147045000Y-126980000D01*
X148589538Y-140150000D02*
G75*
G03X150134830Y-134600000I462J2990000D01*
G01*
X148590462Y-140150000D02*
G75*
G02X147045170Y-134600000I-462J2990000D01*
G01*
X151090000Y-137160000D02*
G75*
G03X151090000Y-137160000I-2500000J0D01*
G01*
X150135000Y-134600000D02*
X147045000Y-134600000D01*
X159413000Y-129949000D02*
X160587000Y-129949000D01*
X159413000Y-131671000D02*
X160587000Y-131671000D01*
X115660277Y-112264278D02*
G75*
G03X115660000Y-116875580I1179723J-2305722D01*
G01*
X118019723Y-112264278D02*
G75*
G02X118020000Y-116875580I-1179723J-2305722D01*
G01*
X118019723Y-112264278D02*
G75*
G03X115660000Y-112264420I-1179723J-2305722D01*
G01*
X114290000Y-114570000D02*
X119390000Y-114570000D01*
X114290000Y-114530000D02*
X115860000Y-114530000D01*
X117820000Y-114530000D02*
X119390000Y-114530000D01*
X114291000Y-114490000D02*
X115860000Y-114490000D01*
X117820000Y-114490000D02*
X119389000Y-114490000D01*
X114292000Y-114450000D02*
X115860000Y-114450000D01*
X117820000Y-114450000D02*
X119388000Y-114450000D01*
X114294000Y-114410000D02*
X115860000Y-114410000D01*
X117820000Y-114410000D02*
X119386000Y-114410000D01*
X114297000Y-114370000D02*
X115860000Y-114370000D01*
X117820000Y-114370000D02*
X119383000Y-114370000D01*
X114301000Y-114330000D02*
X115860000Y-114330000D01*
X117820000Y-114330000D02*
X119379000Y-114330000D01*
X114305000Y-114290000D02*
X115860000Y-114290000D01*
X117820000Y-114290000D02*
X119375000Y-114290000D01*
X114309000Y-114250000D02*
X115860000Y-114250000D01*
X117820000Y-114250000D02*
X119371000Y-114250000D01*
X114315000Y-114210000D02*
X115860000Y-114210000D01*
X117820000Y-114210000D02*
X119365000Y-114210000D01*
X114321000Y-114170000D02*
X115860000Y-114170000D01*
X117820000Y-114170000D02*
X119359000Y-114170000D01*
X114327000Y-114130000D02*
X115860000Y-114130000D01*
X117820000Y-114130000D02*
X119353000Y-114130000D01*
X114334000Y-114090000D02*
X115860000Y-114090000D01*
X117820000Y-114090000D02*
X119346000Y-114090000D01*
X114342000Y-114050000D02*
X115860000Y-114050000D01*
X117820000Y-114050000D02*
X119338000Y-114050000D01*
X114351000Y-114010000D02*
X115860000Y-114010000D01*
X117820000Y-114010000D02*
X119329000Y-114010000D01*
X114360000Y-113970000D02*
X115860000Y-113970000D01*
X117820000Y-113970000D02*
X119320000Y-113970000D01*
X114370000Y-113930000D02*
X115860000Y-113930000D01*
X117820000Y-113930000D02*
X119310000Y-113930000D01*
X114380000Y-113890000D02*
X115860000Y-113890000D01*
X117820000Y-113890000D02*
X119300000Y-113890000D01*
X114392000Y-113849000D02*
X115860000Y-113849000D01*
X117820000Y-113849000D02*
X119288000Y-113849000D01*
X114404000Y-113809000D02*
X115860000Y-113809000D01*
X117820000Y-113809000D02*
X119276000Y-113809000D01*
X114416000Y-113769000D02*
X115860000Y-113769000D01*
X117820000Y-113769000D02*
X119264000Y-113769000D01*
X114430000Y-113729000D02*
X115860000Y-113729000D01*
X117820000Y-113729000D02*
X119250000Y-113729000D01*
X114444000Y-113689000D02*
X115860000Y-113689000D01*
X117820000Y-113689000D02*
X119236000Y-113689000D01*
X114458000Y-113649000D02*
X115860000Y-113649000D01*
X117820000Y-113649000D02*
X119222000Y-113649000D01*
X114474000Y-113609000D02*
X115860000Y-113609000D01*
X117820000Y-113609000D02*
X119206000Y-113609000D01*
X114490000Y-113569000D02*
X115860000Y-113569000D01*
X117820000Y-113569000D02*
X119190000Y-113569000D01*
X114507000Y-113529000D02*
X115860000Y-113529000D01*
X117820000Y-113529000D02*
X119173000Y-113529000D01*
X114525000Y-113489000D02*
X115860000Y-113489000D01*
X117820000Y-113489000D02*
X119155000Y-113489000D01*
X114544000Y-113449000D02*
X115860000Y-113449000D01*
X117820000Y-113449000D02*
X119136000Y-113449000D01*
X114564000Y-113409000D02*
X115860000Y-113409000D01*
X117820000Y-113409000D02*
X119116000Y-113409000D01*
X114584000Y-113369000D02*
X115860000Y-113369000D01*
X117820000Y-113369000D02*
X119096000Y-113369000D01*
X114606000Y-113329000D02*
X115860000Y-113329000D01*
X117820000Y-113329000D02*
X119074000Y-113329000D01*
X114628000Y-113289000D02*
X115860000Y-113289000D01*
X117820000Y-113289000D02*
X119052000Y-113289000D01*
X114651000Y-113249000D02*
X115860000Y-113249000D01*
X117820000Y-113249000D02*
X119029000Y-113249000D01*
X114675000Y-113209000D02*
X115860000Y-113209000D01*
X117820000Y-113209000D02*
X119005000Y-113209000D01*
X114700000Y-113169000D02*
X115860000Y-113169000D01*
X117820000Y-113169000D02*
X118980000Y-113169000D01*
X114727000Y-113129000D02*
X115860000Y-113129000D01*
X117820000Y-113129000D02*
X118953000Y-113129000D01*
X114754000Y-113089000D02*
X115860000Y-113089000D01*
X117820000Y-113089000D02*
X118926000Y-113089000D01*
X114782000Y-113049000D02*
X115860000Y-113049000D01*
X117820000Y-113049000D02*
X118898000Y-113049000D01*
X114812000Y-113009000D02*
X115860000Y-113009000D01*
X117820000Y-113009000D02*
X118868000Y-113009000D01*
X114843000Y-112969000D02*
X115860000Y-112969000D01*
X117820000Y-112969000D02*
X118837000Y-112969000D01*
X114875000Y-112929000D02*
X115860000Y-112929000D01*
X117820000Y-112929000D02*
X118805000Y-112929000D01*
X114908000Y-112889000D02*
X115860000Y-112889000D01*
X117820000Y-112889000D02*
X118772000Y-112889000D01*
X114943000Y-112849000D02*
X115860000Y-112849000D01*
X117820000Y-112849000D02*
X118737000Y-112849000D01*
X114979000Y-112809000D02*
X115860000Y-112809000D01*
X117820000Y-112809000D02*
X118701000Y-112809000D01*
X115017000Y-112769000D02*
X115860000Y-112769000D01*
X117820000Y-112769000D02*
X118663000Y-112769000D01*
X115057000Y-112729000D02*
X115860000Y-112729000D01*
X117820000Y-112729000D02*
X118623000Y-112729000D01*
X115098000Y-112689000D02*
X115860000Y-112689000D01*
X117820000Y-112689000D02*
X118582000Y-112689000D01*
X115141000Y-112649000D02*
X115860000Y-112649000D01*
X117820000Y-112649000D02*
X118539000Y-112649000D01*
X115186000Y-112609000D02*
X115860000Y-112609000D01*
X117820000Y-112609000D02*
X118494000Y-112609000D01*
X115234000Y-112569000D02*
X118446000Y-112569000D01*
X115284000Y-112529000D02*
X118396000Y-112529000D01*
X115336000Y-112489000D02*
X118344000Y-112489000D01*
X115392000Y-112449000D02*
X118288000Y-112449000D01*
X115450000Y-112409000D02*
X118230000Y-112409000D01*
X115513000Y-112369000D02*
X118167000Y-112369000D01*
X115579000Y-112329000D02*
X118101000Y-112329000D01*
X115651000Y-112289000D02*
X118029000Y-112289000D01*
X115728000Y-112249000D02*
X117952000Y-112249000D01*
X115812000Y-112209000D02*
X117868000Y-112209000D01*
X115906000Y-112169000D02*
X117774000Y-112169000D01*
X116011000Y-112129000D02*
X117669000Y-112129000D01*
X116133000Y-112089000D02*
X117547000Y-112089000D01*
X116281000Y-112049000D02*
X117399000Y-112049000D01*
X116486000Y-112009000D02*
X117194000Y-112009000D01*
X116840000Y-117770000D02*
X116840000Y-116570000D01*
X116190000Y-117170000D02*
X117490000Y-117170000D01*
X125670000Y-72330000D02*
X125670000Y-74990000D01*
X128270000Y-72330000D02*
X125670000Y-72330000D01*
X128270000Y-74990000D02*
X125670000Y-74990000D01*
X128270000Y-72330000D02*
X128270000Y-74990000D01*
X129540000Y-72330000D02*
X130870000Y-72330000D01*
X130870000Y-72330000D02*
X130870000Y-73660000D01*
X160290000Y-128330000D02*
G75*
G02X162290000Y-128330000I1000000J0D01*
G01*
X162290000Y-128330000D02*
X163940000Y-128330000D01*
X163940000Y-128330000D02*
X163940000Y-118050000D01*
X163940000Y-118050000D02*
X158640000Y-118050000D01*
X158640000Y-118050000D02*
X158640000Y-128330000D01*
X158640000Y-128330000D02*
X160290000Y-128330000D01*
X172780000Y-84820000D02*
G75*
G02X172780000Y-82820000I0J1000000D01*
G01*
X172780000Y-82820000D02*
X172780000Y-81570000D01*
X172780000Y-81570000D02*
X154880000Y-81570000D01*
X154880000Y-81570000D02*
X154880000Y-86070000D01*
X154880000Y-86070000D02*
X172780000Y-86070000D01*
X172780000Y-86070000D02*
X172780000Y-84820000D01*
X126000000Y-127060000D02*
G75*
G02X128000000Y-127060000I1000000J0D01*
G01*
X128000000Y-127060000D02*
X129250000Y-127060000D01*
X129250000Y-127060000D02*
X129250000Y-106620000D01*
X129250000Y-106620000D02*
X124750000Y-106620000D01*
X124750000Y-106620000D02*
X124750000Y-127060000D01*
X124750000Y-127060000D02*
X126000000Y-127060000D01*
D14*
G36*
X180007260Y-75996800D02*
X180007260Y-76088240D01*
X179997100Y-76116180D01*
X179986940Y-76136500D01*
X179956460Y-76166980D01*
X179925980Y-76177140D01*
X179895500Y-76177140D01*
X179816760Y-76156820D01*
X179776120Y-76136500D01*
X179745640Y-76116180D01*
X179707540Y-76088240D01*
X179646580Y-76027280D01*
X179605940Y-75966320D01*
X179595780Y-75928220D01*
X179595780Y-75867260D01*
X179605940Y-75836780D01*
X179616100Y-75816460D01*
X179636420Y-75788520D01*
X179677060Y-75758040D01*
X179717700Y-75737720D01*
X179765960Y-75727560D01*
X179806600Y-75717400D01*
X179867560Y-75717400D01*
X179887880Y-75727560D01*
X179895500Y-75727560D01*
X179887880Y-75717400D01*
X179847240Y-75686920D01*
X179707540Y-75618340D01*
X179616100Y-75598020D01*
X179517040Y-75598020D01*
X179407820Y-75618340D01*
X179296060Y-75676760D01*
X179207160Y-75747880D01*
X179156360Y-75826620D01*
X179125880Y-75918060D01*
X179125880Y-75996800D01*
X179146200Y-76088240D01*
X179197000Y-76177140D01*
X179265580Y-76258420D01*
X179346860Y-76347320D01*
X179417980Y-76418440D01*
X179445920Y-76497180D01*
X179445920Y-76568300D01*
X179425600Y-76626720D01*
X179387500Y-76677520D01*
X179326540Y-76718160D01*
X179247800Y-76738480D01*
X179166520Y-76738480D01*
X179115720Y-76728320D01*
X179067460Y-76708000D01*
X179006500Y-76647040D01*
X178986180Y-76616560D01*
X178976020Y-76586080D01*
X178976020Y-76547980D01*
X178986180Y-76517500D01*
X179047140Y-76456540D01*
X179077620Y-76446380D01*
X179115720Y-76426060D01*
X179125880Y-76418440D01*
X179087780Y-76398120D01*
X178965860Y-76398120D01*
X178907440Y-76408280D01*
X178856640Y-76418440D01*
X178805840Y-76436220D01*
X178767740Y-76466700D01*
X178716940Y-76507340D01*
X178655980Y-76606400D01*
X178635660Y-76677520D01*
X178625500Y-76756260D01*
X178625500Y-78127860D01*
X178676300Y-78077060D01*
X178706780Y-78026260D01*
X178757580Y-77978000D01*
X178805840Y-77917040D01*
X178927760Y-77797660D01*
X179047140Y-77657960D01*
X179146200Y-77556360D01*
X179247800Y-77497940D01*
X179306220Y-77487780D01*
X179496720Y-77487780D01*
X179616100Y-77467460D01*
X179727860Y-77436980D01*
X179826920Y-77396340D01*
X179925980Y-77337920D01*
X180007260Y-77266800D01*
X180086000Y-77188060D01*
X180157120Y-77096620D01*
X180256180Y-76916280D01*
X180306980Y-76728320D01*
X180317140Y-76558140D01*
X180286660Y-76398120D01*
X180235860Y-76248260D01*
X180167280Y-76136500D01*
X180086000Y-76047600D01*
X180007260Y-75996800D01*
G37*
X180007260Y-75996800D02*
X180007260Y-76088240D01*
X179997100Y-76116180D01*
X179986940Y-76136500D01*
X179956460Y-76166980D01*
X179925980Y-76177140D01*
X179895500Y-76177140D01*
X179816760Y-76156820D01*
X179776120Y-76136500D01*
X179745640Y-76116180D01*
X179707540Y-76088240D01*
X179646580Y-76027280D01*
X179605940Y-75966320D01*
X179595780Y-75928220D01*
X179595780Y-75867260D01*
X179605940Y-75836780D01*
X179616100Y-75816460D01*
X179636420Y-75788520D01*
X179677060Y-75758040D01*
X179717700Y-75737720D01*
X179765960Y-75727560D01*
X179806600Y-75717400D01*
X179867560Y-75717400D01*
X179887880Y-75727560D01*
X179895500Y-75727560D01*
X179887880Y-75717400D01*
X179847240Y-75686920D01*
X179707540Y-75618340D01*
X179616100Y-75598020D01*
X179517040Y-75598020D01*
X179407820Y-75618340D01*
X179296060Y-75676760D01*
X179207160Y-75747880D01*
X179156360Y-75826620D01*
X179125880Y-75918060D01*
X179125880Y-75996800D01*
X179146200Y-76088240D01*
X179197000Y-76177140D01*
X179265580Y-76258420D01*
X179346860Y-76347320D01*
X179417980Y-76418440D01*
X179445920Y-76497180D01*
X179445920Y-76568300D01*
X179425600Y-76626720D01*
X179387500Y-76677520D01*
X179326540Y-76718160D01*
X179247800Y-76738480D01*
X179166520Y-76738480D01*
X179115720Y-76728320D01*
X179067460Y-76708000D01*
X179006500Y-76647040D01*
X178986180Y-76616560D01*
X178976020Y-76586080D01*
X178976020Y-76547980D01*
X178986180Y-76517500D01*
X179047140Y-76456540D01*
X179077620Y-76446380D01*
X179115720Y-76426060D01*
X179125880Y-76418440D01*
X179087780Y-76398120D01*
X178965860Y-76398120D01*
X178907440Y-76408280D01*
X178856640Y-76418440D01*
X178805840Y-76436220D01*
X178767740Y-76466700D01*
X178716940Y-76507340D01*
X178655980Y-76606400D01*
X178635660Y-76677520D01*
X178625500Y-76756260D01*
X178625500Y-78127860D01*
X178676300Y-78077060D01*
X178706780Y-78026260D01*
X178757580Y-77978000D01*
X178805840Y-77917040D01*
X178927760Y-77797660D01*
X179047140Y-77657960D01*
X179146200Y-77556360D01*
X179247800Y-77497940D01*
X179306220Y-77487780D01*
X179496720Y-77487780D01*
X179616100Y-77467460D01*
X179727860Y-77436980D01*
X179826920Y-77396340D01*
X179925980Y-77337920D01*
X180007260Y-77266800D01*
X180086000Y-77188060D01*
X180157120Y-77096620D01*
X180256180Y-76916280D01*
X180306980Y-76728320D01*
X180317140Y-76558140D01*
X180286660Y-76398120D01*
X180235860Y-76248260D01*
X180167280Y-76136500D01*
X180086000Y-76047600D01*
X180007260Y-75996800D01*
D12*
X136398095Y-86447381D02*
X136398095Y-87256905D01*
X136445714Y-87352143D01*
X136493333Y-87399762D01*
X136588571Y-87447381D01*
X136779048Y-87447381D01*
X136874286Y-87399762D01*
X136921905Y-87352143D01*
X136969524Y-87256905D01*
X136969524Y-86447381D01*
X137969524Y-87447381D02*
X137398095Y-87447381D01*
X137683809Y-87447381D02*
X137683809Y-86447381D01*
X137588571Y-86590238D01*
X137493333Y-86685476D01*
X137398095Y-86733095D01*
X134072381Y-83335714D02*
X135072381Y-83002381D01*
X134072381Y-82669047D01*
X135072381Y-82192857D02*
X135024762Y-82288095D01*
X134977143Y-82335714D01*
X134881905Y-82383333D01*
X134596190Y-82383333D01*
X134500952Y-82335714D01*
X134453333Y-82288095D01*
X134405714Y-82192857D01*
X134405714Y-82049999D01*
X134453333Y-81954761D01*
X134500952Y-81907142D01*
X134596190Y-81859523D01*
X134881905Y-81859523D01*
X134977143Y-81907142D01*
X135024762Y-81954761D01*
X135072381Y-82049999D01*
X135072381Y-82192857D01*
X136660000Y-83946904D02*
X136612381Y-84042142D01*
X136612381Y-84184999D01*
X136660000Y-84327857D01*
X136755238Y-84423095D01*
X136850476Y-84470714D01*
X137040952Y-84518333D01*
X137183810Y-84518333D01*
X137374286Y-84470714D01*
X137469524Y-84423095D01*
X137564762Y-84327857D01*
X137612381Y-84184999D01*
X137612381Y-84089761D01*
X137564762Y-83946904D01*
X137517143Y-83899285D01*
X137183810Y-83899285D01*
X137183810Y-84089761D01*
X137612381Y-83470714D02*
X136612381Y-83470714D01*
X137612381Y-82899285D01*
X136612381Y-82899285D01*
X137612381Y-82423095D02*
X136612381Y-82423095D01*
X136612381Y-82185000D01*
X136660000Y-82042142D01*
X136755238Y-81946904D01*
X136850476Y-81899285D01*
X137040952Y-81851666D01*
X137183810Y-81851666D01*
X137374286Y-81899285D01*
X137469524Y-81946904D01*
X137564762Y-82042142D01*
X137612381Y-82185000D01*
X137612381Y-82423095D01*
X139152381Y-83121428D02*
X140152381Y-82788095D01*
X139152381Y-82454761D01*
X140152381Y-82121428D02*
X139485714Y-82121428D01*
X139152381Y-82121428D02*
X139200000Y-82169047D01*
X139247619Y-82121428D01*
X139200000Y-82073809D01*
X139152381Y-82121428D01*
X139247619Y-82121428D01*
X119784762Y-80073333D02*
X119832381Y-79930476D01*
X119832381Y-79692380D01*
X119784762Y-79597142D01*
X119737143Y-79549523D01*
X119641905Y-79501904D01*
X119546667Y-79501904D01*
X119451429Y-79549523D01*
X119403810Y-79597142D01*
X119356190Y-79692380D01*
X119308571Y-79882857D01*
X119260952Y-79978095D01*
X119213333Y-80025714D01*
X119118095Y-80073333D01*
X119022857Y-80073333D01*
X118927619Y-80025714D01*
X118880000Y-79978095D01*
X118832381Y-79882857D01*
X118832381Y-79644761D01*
X118880000Y-79501904D01*
X118832381Y-79168571D02*
X119832381Y-78930476D01*
X119118095Y-78739999D01*
X119832381Y-78549523D01*
X118832381Y-78311428D01*
X119832381Y-77406666D02*
X119832381Y-77978095D01*
X119832381Y-77692381D02*
X118832381Y-77692381D01*
X118975238Y-77787619D01*
X119070476Y-77882857D01*
X119118095Y-77978095D01*
X156884762Y-107767381D02*
X156551428Y-107291190D01*
X156313333Y-107767381D02*
X156313333Y-106767381D01*
X156694286Y-106767381D01*
X156789524Y-106815000D01*
X156837143Y-106862619D01*
X156884762Y-106957857D01*
X156884762Y-107100714D01*
X156837143Y-107195952D01*
X156789524Y-107243571D01*
X156694286Y-107291190D01*
X156313333Y-107291190D01*
X157170476Y-106767381D02*
X157503809Y-107767381D01*
X157837143Y-106767381D01*
X158694286Y-107767381D02*
X158122857Y-107767381D01*
X158408571Y-107767381D02*
X158408571Y-106767381D01*
X158313333Y-106910238D01*
X158218095Y-107005476D01*
X158122857Y-107053095D01*
X171902381Y-122562857D02*
X171426190Y-122896191D01*
X171902381Y-123134286D02*
X170902381Y-123134286D01*
X170902381Y-122753333D01*
X170950000Y-122658095D01*
X170997619Y-122610476D01*
X171092857Y-122562857D01*
X171235714Y-122562857D01*
X171330952Y-122610476D01*
X171378571Y-122658095D01*
X171426190Y-122753333D01*
X171426190Y-123134286D01*
X171902381Y-121610476D02*
X171902381Y-122181905D01*
X171902381Y-121896191D02*
X170902381Y-121896191D01*
X171045238Y-121991429D01*
X171140476Y-122086667D01*
X171188095Y-122181905D01*
X171330952Y-121039048D02*
X171283333Y-121134286D01*
X171235714Y-121181905D01*
X171140476Y-121229524D01*
X171092857Y-121229524D01*
X170997619Y-121181905D01*
X170950000Y-121134286D01*
X170902381Y-121039048D01*
X170902381Y-120848571D01*
X170950000Y-120753333D01*
X170997619Y-120705714D01*
X171092857Y-120658095D01*
X171140476Y-120658095D01*
X171235714Y-120705714D01*
X171283333Y-120753333D01*
X171330952Y-120848571D01*
X171330952Y-121039048D01*
X171378571Y-121134286D01*
X171426190Y-121181905D01*
X171521429Y-121229524D01*
X171711905Y-121229524D01*
X171807143Y-121181905D01*
X171854762Y-121134286D01*
X171902381Y-121039048D01*
X171902381Y-120848571D01*
X171854762Y-120753333D01*
X171807143Y-120705714D01*
X171711905Y-120658095D01*
X171521429Y-120658095D01*
X171426190Y-120705714D01*
X171378571Y-120753333D01*
X171330952Y-120848571D01*
X179697143Y-105862381D02*
X179363809Y-105386190D01*
X179125714Y-105862381D02*
X179125714Y-104862381D01*
X179506667Y-104862381D01*
X179601905Y-104910000D01*
X179649524Y-104957619D01*
X179697143Y-105052857D01*
X179697143Y-105195714D01*
X179649524Y-105290952D01*
X179601905Y-105338571D01*
X179506667Y-105386190D01*
X179125714Y-105386190D01*
X180649524Y-105862381D02*
X180078095Y-105862381D01*
X180363809Y-105862381D02*
X180363809Y-104862381D01*
X180268571Y-105005238D01*
X180173333Y-105100476D01*
X180078095Y-105148095D01*
X180982857Y-104862381D02*
X181649524Y-104862381D01*
X181220952Y-105862381D01*
X137787143Y-108402381D02*
X137453809Y-107926190D01*
X137215714Y-108402381D02*
X137215714Y-107402381D01*
X137596667Y-107402381D01*
X137691905Y-107450000D01*
X137739524Y-107497619D01*
X137787143Y-107592857D01*
X137787143Y-107735714D01*
X137739524Y-107830952D01*
X137691905Y-107878571D01*
X137596667Y-107926190D01*
X137215714Y-107926190D01*
X138739524Y-108402381D02*
X138168095Y-108402381D01*
X138453809Y-108402381D02*
X138453809Y-107402381D01*
X138358571Y-107545238D01*
X138263333Y-107640476D01*
X138168095Y-107688095D01*
X139596667Y-107402381D02*
X139406190Y-107402381D01*
X139310952Y-107450000D01*
X139263333Y-107497619D01*
X139168095Y-107640476D01*
X139120476Y-107830952D01*
X139120476Y-108211905D01*
X139168095Y-108307143D01*
X139215714Y-108354762D01*
X139310952Y-108402381D01*
X139501429Y-108402381D01*
X139596667Y-108354762D01*
X139644286Y-108307143D01*
X139691905Y-108211905D01*
X139691905Y-107973810D01*
X139644286Y-107878571D01*
X139596667Y-107830952D01*
X139501429Y-107783333D01*
X139310952Y-107783333D01*
X139215714Y-107830952D01*
X139168095Y-107878571D01*
X139120476Y-107973810D01*
X137787143Y-112212381D02*
X137453809Y-111736190D01*
X137215714Y-112212381D02*
X137215714Y-111212381D01*
X137596667Y-111212381D01*
X137691905Y-111260000D01*
X137739524Y-111307619D01*
X137787143Y-111402857D01*
X137787143Y-111545714D01*
X137739524Y-111640952D01*
X137691905Y-111688571D01*
X137596667Y-111736190D01*
X137215714Y-111736190D01*
X138739524Y-112212381D02*
X138168095Y-112212381D01*
X138453809Y-112212381D02*
X138453809Y-111212381D01*
X138358571Y-111355238D01*
X138263333Y-111450476D01*
X138168095Y-111498095D01*
X139644286Y-111212381D02*
X139168095Y-111212381D01*
X139120476Y-111688571D01*
X139168095Y-111640952D01*
X139263333Y-111593333D01*
X139501429Y-111593333D01*
X139596667Y-111640952D01*
X139644286Y-111688571D01*
X139691905Y-111783810D01*
X139691905Y-112021905D01*
X139644286Y-112117143D01*
X139596667Y-112164762D01*
X139501429Y-112212381D01*
X139263333Y-112212381D01*
X139168095Y-112164762D01*
X139120476Y-112117143D01*
X137787143Y-116022381D02*
X137453809Y-115546190D01*
X137215714Y-116022381D02*
X137215714Y-115022381D01*
X137596667Y-115022381D01*
X137691905Y-115070000D01*
X137739524Y-115117619D01*
X137787143Y-115212857D01*
X137787143Y-115355714D01*
X137739524Y-115450952D01*
X137691905Y-115498571D01*
X137596667Y-115546190D01*
X137215714Y-115546190D01*
X138739524Y-116022381D02*
X138168095Y-116022381D01*
X138453809Y-116022381D02*
X138453809Y-115022381D01*
X138358571Y-115165238D01*
X138263333Y-115260476D01*
X138168095Y-115308095D01*
X139596667Y-115355714D02*
X139596667Y-116022381D01*
X139358571Y-114974762D02*
X139120476Y-115689048D01*
X139739524Y-115689048D01*
X137787143Y-119832381D02*
X137453809Y-119356190D01*
X137215714Y-119832381D02*
X137215714Y-118832381D01*
X137596667Y-118832381D01*
X137691905Y-118880000D01*
X137739524Y-118927619D01*
X137787143Y-119022857D01*
X137787143Y-119165714D01*
X137739524Y-119260952D01*
X137691905Y-119308571D01*
X137596667Y-119356190D01*
X137215714Y-119356190D01*
X138739524Y-119832381D02*
X138168095Y-119832381D01*
X138453809Y-119832381D02*
X138453809Y-118832381D01*
X138358571Y-118975238D01*
X138263333Y-119070476D01*
X138168095Y-119118095D01*
X139072857Y-118832381D02*
X139691905Y-118832381D01*
X139358571Y-119213333D01*
X139501429Y-119213333D01*
X139596667Y-119260952D01*
X139644286Y-119308571D01*
X139691905Y-119403810D01*
X139691905Y-119641905D01*
X139644286Y-119737143D01*
X139596667Y-119784762D01*
X139501429Y-119832381D01*
X139215714Y-119832381D01*
X139120476Y-119784762D01*
X139072857Y-119737143D01*
X137787143Y-123642381D02*
X137453809Y-123166190D01*
X137215714Y-123642381D02*
X137215714Y-122642381D01*
X137596667Y-122642381D01*
X137691905Y-122690000D01*
X137739524Y-122737619D01*
X137787143Y-122832857D01*
X137787143Y-122975714D01*
X137739524Y-123070952D01*
X137691905Y-123118571D01*
X137596667Y-123166190D01*
X137215714Y-123166190D01*
X138739524Y-123642381D02*
X138168095Y-123642381D01*
X138453809Y-123642381D02*
X138453809Y-122642381D01*
X138358571Y-122785238D01*
X138263333Y-122880476D01*
X138168095Y-122928095D01*
X139120476Y-122737619D02*
X139168095Y-122690000D01*
X139263333Y-122642381D01*
X139501429Y-122642381D01*
X139596667Y-122690000D01*
X139644286Y-122737619D01*
X139691905Y-122832857D01*
X139691905Y-122928095D01*
X139644286Y-123070952D01*
X139072857Y-123642381D01*
X139691905Y-123642381D01*
X137787143Y-127452381D02*
X137453809Y-126976190D01*
X137215714Y-127452381D02*
X137215714Y-126452381D01*
X137596667Y-126452381D01*
X137691905Y-126500000D01*
X137739524Y-126547619D01*
X137787143Y-126642857D01*
X137787143Y-126785714D01*
X137739524Y-126880952D01*
X137691905Y-126928571D01*
X137596667Y-126976190D01*
X137215714Y-126976190D01*
X138739524Y-127452381D02*
X138168095Y-127452381D01*
X138453809Y-127452381D02*
X138453809Y-126452381D01*
X138358571Y-126595238D01*
X138263333Y-126690476D01*
X138168095Y-126738095D01*
X139691905Y-127452381D02*
X139120476Y-127452381D01*
X139406190Y-127452381D02*
X139406190Y-126452381D01*
X139310952Y-126595238D01*
X139215714Y-126690476D01*
X139120476Y-126738095D01*
X137787143Y-131262381D02*
X137453809Y-130786190D01*
X137215714Y-131262381D02*
X137215714Y-130262381D01*
X137596667Y-130262381D01*
X137691905Y-130310000D01*
X137739524Y-130357619D01*
X137787143Y-130452857D01*
X137787143Y-130595714D01*
X137739524Y-130690952D01*
X137691905Y-130738571D01*
X137596667Y-130786190D01*
X137215714Y-130786190D01*
X138739524Y-131262381D02*
X138168095Y-131262381D01*
X138453809Y-131262381D02*
X138453809Y-130262381D01*
X138358571Y-130405238D01*
X138263333Y-130500476D01*
X138168095Y-130548095D01*
X139358571Y-130262381D02*
X139453810Y-130262381D01*
X139549048Y-130310000D01*
X139596667Y-130357619D01*
X139644286Y-130452857D01*
X139691905Y-130643333D01*
X139691905Y-130881429D01*
X139644286Y-131071905D01*
X139596667Y-131167143D01*
X139549048Y-131214762D01*
X139453810Y-131262381D01*
X139358571Y-131262381D01*
X139263333Y-131214762D01*
X139215714Y-131167143D01*
X139168095Y-131071905D01*
X139120476Y-130881429D01*
X139120476Y-130643333D01*
X139168095Y-130452857D01*
X139215714Y-130357619D01*
X139263333Y-130310000D01*
X139358571Y-130262381D01*
X138263334Y-135072381D02*
X137930000Y-134596190D01*
X137691905Y-135072381D02*
X137691905Y-134072381D01*
X138072858Y-134072381D01*
X138168096Y-134120000D01*
X138215715Y-134167619D01*
X138263334Y-134262857D01*
X138263334Y-134405714D01*
X138215715Y-134500952D01*
X138168096Y-134548571D01*
X138072858Y-134596190D01*
X137691905Y-134596190D01*
X138739524Y-135072381D02*
X138930000Y-135072381D01*
X139025239Y-135024762D01*
X139072858Y-134977143D01*
X139168096Y-134834286D01*
X139215715Y-134643810D01*
X139215715Y-134262857D01*
X139168096Y-134167619D01*
X139120477Y-134120000D01*
X139025239Y-134072381D01*
X138834762Y-134072381D01*
X138739524Y-134120000D01*
X138691905Y-134167619D01*
X138644286Y-134262857D01*
X138644286Y-134500952D01*
X138691905Y-134596190D01*
X138739524Y-134643810D01*
X138834762Y-134691429D01*
X139025239Y-134691429D01*
X139120477Y-134643810D01*
X139168096Y-134596190D01*
X139215715Y-134500952D01*
X180173334Y-109672381D02*
X179840000Y-109196190D01*
X179601905Y-109672381D02*
X179601905Y-108672381D01*
X179982858Y-108672381D01*
X180078096Y-108720000D01*
X180125715Y-108767619D01*
X180173334Y-108862857D01*
X180173334Y-109005714D01*
X180125715Y-109100952D01*
X180078096Y-109148571D01*
X179982858Y-109196190D01*
X179601905Y-109196190D01*
X180744762Y-109100952D02*
X180649524Y-109053333D01*
X180601905Y-109005714D01*
X180554286Y-108910476D01*
X180554286Y-108862857D01*
X180601905Y-108767619D01*
X180649524Y-108720000D01*
X180744762Y-108672381D01*
X180935239Y-108672381D01*
X181030477Y-108720000D01*
X181078096Y-108767619D01*
X181125715Y-108862857D01*
X181125715Y-108910476D01*
X181078096Y-109005714D01*
X181030477Y-109053333D01*
X180935239Y-109100952D01*
X180744762Y-109100952D01*
X180649524Y-109148571D01*
X180601905Y-109196190D01*
X180554286Y-109291429D01*
X180554286Y-109481905D01*
X180601905Y-109577143D01*
X180649524Y-109624762D01*
X180744762Y-109672381D01*
X180935239Y-109672381D01*
X181030477Y-109624762D01*
X181078096Y-109577143D01*
X181125715Y-109481905D01*
X181125715Y-109291429D01*
X181078096Y-109196190D01*
X181030477Y-109148571D01*
X180935239Y-109100952D01*
X175712381Y-122086666D02*
X175236190Y-122420000D01*
X175712381Y-122658095D02*
X174712381Y-122658095D01*
X174712381Y-122277142D01*
X174760000Y-122181904D01*
X174807619Y-122134285D01*
X174902857Y-122086666D01*
X175045714Y-122086666D01*
X175140952Y-122134285D01*
X175188571Y-122181904D01*
X175236190Y-122277142D01*
X175236190Y-122658095D01*
X174712381Y-121753333D02*
X174712381Y-121086666D01*
X175712381Y-121515238D01*
X180173334Y-113482381D02*
X179840000Y-113006190D01*
X179601905Y-113482381D02*
X179601905Y-112482381D01*
X179982858Y-112482381D01*
X180078096Y-112530000D01*
X180125715Y-112577619D01*
X180173334Y-112672857D01*
X180173334Y-112815714D01*
X180125715Y-112910952D01*
X180078096Y-112958571D01*
X179982858Y-113006190D01*
X179601905Y-113006190D01*
X181030477Y-112482381D02*
X180840000Y-112482381D01*
X180744762Y-112530000D01*
X180697143Y-112577619D01*
X180601905Y-112720476D01*
X180554286Y-112910952D01*
X180554286Y-113291905D01*
X180601905Y-113387143D01*
X180649524Y-113434762D01*
X180744762Y-113482381D01*
X180935239Y-113482381D01*
X181030477Y-113434762D01*
X181078096Y-113387143D01*
X181125715Y-113291905D01*
X181125715Y-113053810D01*
X181078096Y-112958571D01*
X181030477Y-112910952D01*
X180935239Y-112863333D01*
X180744762Y-112863333D01*
X180649524Y-112910952D01*
X180601905Y-112958571D01*
X180554286Y-113053810D01*
X167473334Y-113482381D02*
X167140000Y-113006190D01*
X166901905Y-113482381D02*
X166901905Y-112482381D01*
X167282858Y-112482381D01*
X167378096Y-112530000D01*
X167425715Y-112577619D01*
X167473334Y-112672857D01*
X167473334Y-112815714D01*
X167425715Y-112910952D01*
X167378096Y-112958571D01*
X167282858Y-113006190D01*
X166901905Y-113006190D01*
X168378096Y-112482381D02*
X167901905Y-112482381D01*
X167854286Y-112958571D01*
X167901905Y-112910952D01*
X167997143Y-112863333D01*
X168235239Y-112863333D01*
X168330477Y-112910952D01*
X168378096Y-112958571D01*
X168425715Y-113053810D01*
X168425715Y-113291905D01*
X168378096Y-113387143D01*
X168330477Y-113434762D01*
X168235239Y-113482381D01*
X167997143Y-113482381D01*
X167901905Y-113434762D01*
X167854286Y-113387143D01*
X167473334Y-109672381D02*
X167140000Y-109196190D01*
X166901905Y-109672381D02*
X166901905Y-108672381D01*
X167282858Y-108672381D01*
X167378096Y-108720000D01*
X167425715Y-108767619D01*
X167473334Y-108862857D01*
X167473334Y-109005714D01*
X167425715Y-109100952D01*
X167378096Y-109148571D01*
X167282858Y-109196190D01*
X166901905Y-109196190D01*
X168330477Y-109005714D02*
X168330477Y-109672381D01*
X168092381Y-108624762D02*
X167854286Y-109339048D01*
X168473334Y-109339048D01*
X115403334Y-105862381D02*
X115070000Y-105386190D01*
X114831905Y-105862381D02*
X114831905Y-104862381D01*
X115212858Y-104862381D01*
X115308096Y-104910000D01*
X115355715Y-104957619D01*
X115403334Y-105052857D01*
X115403334Y-105195714D01*
X115355715Y-105290952D01*
X115308096Y-105338571D01*
X115212858Y-105386190D01*
X114831905Y-105386190D01*
X115736667Y-104862381D02*
X116355715Y-104862381D01*
X116022381Y-105243333D01*
X116165239Y-105243333D01*
X116260477Y-105290952D01*
X116308096Y-105338571D01*
X116355715Y-105433810D01*
X116355715Y-105671905D01*
X116308096Y-105767143D01*
X116260477Y-105814762D01*
X116165239Y-105862381D01*
X115879524Y-105862381D01*
X115784286Y-105814762D01*
X115736667Y-105767143D01*
X115403334Y-109672381D02*
X115070000Y-109196190D01*
X114831905Y-109672381D02*
X114831905Y-108672381D01*
X115212858Y-108672381D01*
X115308096Y-108720000D01*
X115355715Y-108767619D01*
X115403334Y-108862857D01*
X115403334Y-109005714D01*
X115355715Y-109100952D01*
X115308096Y-109148571D01*
X115212858Y-109196190D01*
X114831905Y-109196190D01*
X115784286Y-108767619D02*
X115831905Y-108720000D01*
X115927143Y-108672381D01*
X116165239Y-108672381D01*
X116260477Y-108720000D01*
X116308096Y-108767619D01*
X116355715Y-108862857D01*
X116355715Y-108958095D01*
X116308096Y-109100952D01*
X115736667Y-109672381D01*
X116355715Y-109672381D01*
X171283334Y-74112381D02*
X170950000Y-73636190D01*
X170711905Y-74112381D02*
X170711905Y-73112381D01*
X171092858Y-73112381D01*
X171188096Y-73160000D01*
X171235715Y-73207619D01*
X171283334Y-73302857D01*
X171283334Y-73445714D01*
X171235715Y-73540952D01*
X171188096Y-73588571D01*
X171092858Y-73636190D01*
X170711905Y-73636190D01*
X172235715Y-74112381D02*
X171664286Y-74112381D01*
X171950000Y-74112381D02*
X171950000Y-73112381D01*
X171854762Y-73255238D01*
X171759524Y-73350476D01*
X171664286Y-73398095D01*
X153002381Y-84558095D02*
X152002381Y-84558095D01*
X152002381Y-84320000D01*
X152050000Y-84177142D01*
X152145238Y-84081904D01*
X152240476Y-84034285D01*
X152430952Y-83986666D01*
X152573810Y-83986666D01*
X152764286Y-84034285D01*
X152859524Y-84081904D01*
X152954762Y-84177142D01*
X153002381Y-84320000D01*
X153002381Y-84558095D01*
X152430952Y-83415238D02*
X152383333Y-83510476D01*
X152335714Y-83558095D01*
X152240476Y-83605714D01*
X152192857Y-83605714D01*
X152097619Y-83558095D01*
X152050000Y-83510476D01*
X152002381Y-83415238D01*
X152002381Y-83224761D01*
X152050000Y-83129523D01*
X152097619Y-83081904D01*
X152192857Y-83034285D01*
X152240476Y-83034285D01*
X152335714Y-83081904D01*
X152383333Y-83129523D01*
X152430952Y-83224761D01*
X152430952Y-83415238D01*
X152478571Y-83510476D01*
X152526190Y-83558095D01*
X152621429Y-83605714D01*
X152811905Y-83605714D01*
X152907143Y-83558095D01*
X152954762Y-83510476D01*
X153002381Y-83415238D01*
X153002381Y-83224761D01*
X152954762Y-83129523D01*
X152907143Y-83081904D01*
X152811905Y-83034285D01*
X152621429Y-83034285D01*
X152526190Y-83081904D01*
X152478571Y-83129523D01*
X152430952Y-83224761D01*
X153002381Y-92178095D02*
X152002381Y-92178095D01*
X152002381Y-91940000D01*
X152050000Y-91797142D01*
X152145238Y-91701904D01*
X152240476Y-91654285D01*
X152430952Y-91606666D01*
X152573810Y-91606666D01*
X152764286Y-91654285D01*
X152859524Y-91701904D01*
X152954762Y-91797142D01*
X153002381Y-91940000D01*
X153002381Y-92178095D01*
X152002381Y-91273333D02*
X152002381Y-90606666D01*
X153002381Y-91035238D01*
X153002381Y-99798095D02*
X152002381Y-99798095D01*
X152002381Y-99560000D01*
X152050000Y-99417142D01*
X152145238Y-99321904D01*
X152240476Y-99274285D01*
X152430952Y-99226666D01*
X152573810Y-99226666D01*
X152764286Y-99274285D01*
X152859524Y-99321904D01*
X152954762Y-99417142D01*
X153002381Y-99560000D01*
X153002381Y-99798095D01*
X152002381Y-98369523D02*
X152002381Y-98560000D01*
X152050000Y-98655238D01*
X152097619Y-98702857D01*
X152240476Y-98798095D01*
X152430952Y-98845714D01*
X152811905Y-98845714D01*
X152907143Y-98798095D01*
X152954762Y-98750476D01*
X153002381Y-98655238D01*
X153002381Y-98464761D01*
X152954762Y-98369523D01*
X152907143Y-98321904D01*
X152811905Y-98274285D01*
X152573810Y-98274285D01*
X152478571Y-98321904D01*
X152430952Y-98369523D01*
X152383333Y-98464761D01*
X152383333Y-98655238D01*
X152430952Y-98750476D01*
X152478571Y-98798095D01*
X152573810Y-98845714D01*
X153002381Y-107418095D02*
X152002381Y-107418095D01*
X152002381Y-107180000D01*
X152050000Y-107037142D01*
X152145238Y-106941904D01*
X152240476Y-106894285D01*
X152430952Y-106846666D01*
X152573810Y-106846666D01*
X152764286Y-106894285D01*
X152859524Y-106941904D01*
X152954762Y-107037142D01*
X153002381Y-107180000D01*
X153002381Y-107418095D01*
X152002381Y-105941904D02*
X152002381Y-106418095D01*
X152478571Y-106465714D01*
X152430952Y-106418095D01*
X152383333Y-106322857D01*
X152383333Y-106084761D01*
X152430952Y-105989523D01*
X152478571Y-105941904D01*
X152573810Y-105894285D01*
X152811905Y-105894285D01*
X152907143Y-105941904D01*
X152954762Y-105989523D01*
X153002381Y-106084761D01*
X153002381Y-106322857D01*
X152954762Y-106418095D01*
X152907143Y-106465714D01*
X153002381Y-115038095D02*
X152002381Y-115038095D01*
X152002381Y-114800000D01*
X152050000Y-114657142D01*
X152145238Y-114561904D01*
X152240476Y-114514285D01*
X152430952Y-114466666D01*
X152573810Y-114466666D01*
X152764286Y-114514285D01*
X152859524Y-114561904D01*
X152954762Y-114657142D01*
X153002381Y-114800000D01*
X153002381Y-115038095D01*
X152335714Y-113609523D02*
X153002381Y-113609523D01*
X151954762Y-113847619D02*
X152669048Y-114085714D01*
X152669048Y-113466666D01*
X153002381Y-122658095D02*
X152002381Y-122658095D01*
X152002381Y-122420000D01*
X152050000Y-122277142D01*
X152145238Y-122181904D01*
X152240476Y-122134285D01*
X152430952Y-122086666D01*
X152573810Y-122086666D01*
X152764286Y-122134285D01*
X152859524Y-122181904D01*
X152954762Y-122277142D01*
X153002381Y-122420000D01*
X153002381Y-122658095D01*
X152002381Y-121753333D02*
X152002381Y-121134285D01*
X152383333Y-121467619D01*
X152383333Y-121324761D01*
X152430952Y-121229523D01*
X152478571Y-121181904D01*
X152573810Y-121134285D01*
X152811905Y-121134285D01*
X152907143Y-121181904D01*
X152954762Y-121229523D01*
X153002381Y-121324761D01*
X153002381Y-121610476D01*
X152954762Y-121705714D01*
X152907143Y-121753333D01*
X153002381Y-130278095D02*
X152002381Y-130278095D01*
X152002381Y-130040000D01*
X152050000Y-129897142D01*
X152145238Y-129801904D01*
X152240476Y-129754285D01*
X152430952Y-129706666D01*
X152573810Y-129706666D01*
X152764286Y-129754285D01*
X152859524Y-129801904D01*
X152954762Y-129897142D01*
X153002381Y-130040000D01*
X153002381Y-130278095D01*
X152097619Y-129325714D02*
X152050000Y-129278095D01*
X152002381Y-129182857D01*
X152002381Y-128944761D01*
X152050000Y-128849523D01*
X152097619Y-128801904D01*
X152192857Y-128754285D01*
X152288095Y-128754285D01*
X152430952Y-128801904D01*
X153002381Y-129373333D01*
X153002381Y-128754285D01*
X153002381Y-137898095D02*
X152002381Y-137898095D01*
X152002381Y-137660000D01*
X152050000Y-137517142D01*
X152145238Y-137421904D01*
X152240476Y-137374285D01*
X152430952Y-137326666D01*
X152573810Y-137326666D01*
X152764286Y-137374285D01*
X152859524Y-137421904D01*
X152954762Y-137517142D01*
X153002381Y-137660000D01*
X153002381Y-137898095D01*
X153002381Y-136374285D02*
X153002381Y-136945714D01*
X153002381Y-136660000D02*
X152002381Y-136660000D01*
X152145238Y-136755238D01*
X152240476Y-136850476D01*
X152288095Y-136945714D01*
X159853334Y-133707143D02*
X159805715Y-133754762D01*
X159662858Y-133802381D01*
X159567620Y-133802381D01*
X159424762Y-133754762D01*
X159329524Y-133659524D01*
X159281905Y-133564286D01*
X159234286Y-133373810D01*
X159234286Y-133230952D01*
X159281905Y-133040476D01*
X159329524Y-132945238D01*
X159424762Y-132850000D01*
X159567620Y-132802381D01*
X159662858Y-132802381D01*
X159805715Y-132850000D01*
X159853334Y-132897619D01*
X160805715Y-133802381D02*
X160234286Y-133802381D01*
X160520000Y-133802381D02*
X160520000Y-132802381D01*
X160424762Y-132945238D01*
X160329524Y-133040476D01*
X160234286Y-133088095D01*
X113387143Y-114736666D02*
X113434762Y-114784285D01*
X113482381Y-114927142D01*
X113482381Y-115022380D01*
X113434762Y-115165238D01*
X113339524Y-115260476D01*
X113244286Y-115308095D01*
X113053810Y-115355714D01*
X112910952Y-115355714D01*
X112720476Y-115308095D01*
X112625238Y-115260476D01*
X112530000Y-115165238D01*
X112482381Y-115022380D01*
X112482381Y-114927142D01*
X112530000Y-114784285D01*
X112577619Y-114736666D01*
X112577619Y-114355714D02*
X112530000Y-114308095D01*
X112482381Y-114212857D01*
X112482381Y-113974761D01*
X112530000Y-113879523D01*
X112577619Y-113831904D01*
X112672857Y-113784285D01*
X112768095Y-113784285D01*
X112910952Y-113831904D01*
X113482381Y-114403333D01*
X113482381Y-113784285D01*
X131322381Y-73993333D02*
X132036667Y-73993333D01*
X132179524Y-74040953D01*
X132274762Y-74136191D01*
X132322381Y-74279048D01*
X132322381Y-74374286D01*
X131417619Y-73564762D02*
X131370000Y-73517143D01*
X131322381Y-73421905D01*
X131322381Y-73183809D01*
X131370000Y-73088571D01*
X131417619Y-73040952D01*
X131512857Y-72993333D01*
X131608095Y-72993333D01*
X131750952Y-73040952D01*
X132322381Y-73612381D01*
X132322381Y-72993333D01*
X160528095Y-122642381D02*
X160528095Y-123451905D01*
X160575714Y-123547143D01*
X160623333Y-123594762D01*
X160718571Y-123642381D01*
X160909048Y-123642381D01*
X161004286Y-123594762D01*
X161051905Y-123547143D01*
X161099524Y-123451905D01*
X161099524Y-122642381D01*
X161528095Y-122737619D02*
X161575714Y-122690000D01*
X161670952Y-122642381D01*
X161909048Y-122642381D01*
X162004286Y-122690000D01*
X162051905Y-122737619D01*
X162099524Y-122832857D01*
X162099524Y-122928095D01*
X162051905Y-123070952D01*
X161480476Y-123642381D01*
X162099524Y-123642381D01*
X173442381Y-84581905D02*
X174251905Y-84581905D01*
X174347143Y-84534286D01*
X174394762Y-84486667D01*
X174442381Y-84391429D01*
X174442381Y-84200952D01*
X174394762Y-84105714D01*
X174347143Y-84058095D01*
X174251905Y-84010476D01*
X173442381Y-84010476D01*
X173442381Y-83629524D02*
X173442381Y-83010476D01*
X173823333Y-83343810D01*
X173823333Y-83200952D01*
X173870952Y-83105714D01*
X173918571Y-83058095D01*
X174013810Y-83010476D01*
X174251905Y-83010476D01*
X174347143Y-83058095D01*
X174394762Y-83105714D01*
X174442381Y-83200952D01*
X174442381Y-83486667D01*
X174394762Y-83581905D01*
X174347143Y-83629524D01*
X126238095Y-127722381D02*
X126238095Y-128531905D01*
X126285714Y-128627143D01*
X126333333Y-128674762D01*
X126428571Y-128722381D01*
X126619048Y-128722381D01*
X126714286Y-128674762D01*
X126761905Y-128627143D01*
X126809524Y-128531905D01*
X126809524Y-127722381D01*
X127714286Y-128055714D02*
X127714286Y-128722381D01*
X127476190Y-127674762D02*
X127238095Y-128389048D01*
X127857143Y-128389048D01*
M02*
