G04 #@! TF.FileFunction,Soldermask,Bot*
%FSLAX46Y46*%
G04 Gerber Fmt 4.6, Leading zero omitted, Abs format (unit mm)*
G04 Created by KiCad (PCBNEW 4.0.7) date 11/09/18 11:24:19*
%MOMM*%
%LPD*%
G01*
G04 APERTURE LIST*
%ADD10C,0.100000*%
%ADD11C,0.300000*%
%ADD12O,3.150000X2.150000*%
%ADD13O,2.400000X2.900000*%
%ADD14R,2.100000X2.100000*%
%ADD15O,2.100000X2.100000*%
%ADD16C,2.020000*%
%ADD17C,2.000000*%
%ADD18O,2.000000X2.000000*%
%ADD19R,2.200000X2.200000*%
%ADD20C,2.200000*%
%ADD21R,2.000000X2.000000*%
%ADD22R,2.000000X2.800000*%
%ADD23O,2.000000X2.800000*%
%ADD24R,2.800000X2.000000*%
%ADD25O,2.800000X2.000000*%
G04 APERTURE END LIST*
D10*
D11*
X120650000Y-95885000D02*
X118110000Y-95885000D01*
X118110000Y-95885000D02*
G75*
G03X120015000Y-97790000I1905000J0D01*
G01*
X120015000Y-93980000D02*
G75*
G03X118110000Y-95885000I0J-1905000D01*
G01*
X120650000Y-93980000D02*
X120015000Y-93980000D01*
X120650000Y-97790000D02*
X120015000Y-97790000D01*
X120650000Y-93980000D02*
X120650000Y-97790000D01*
D10*
X149092301Y-78771685D02*
X149124258Y-78727400D01*
X149060344Y-78815736D02*
X149092301Y-78771685D01*
X149028388Y-78859320D02*
X149060344Y-78815736D01*
X148996431Y-78902206D02*
X149028388Y-78859320D01*
X148964474Y-78944159D02*
X148996431Y-78902206D01*
X148932517Y-78984946D02*
X148964474Y-78944159D01*
X148900560Y-79024335D02*
X148932517Y-78984946D01*
X148868603Y-79062091D02*
X148900560Y-79024335D01*
X148836647Y-79097983D02*
X148868603Y-79062091D01*
X148804690Y-79131777D02*
X148836647Y-79097983D01*
X148772733Y-79163239D02*
X148804690Y-79131777D01*
X148740776Y-79192137D02*
X148772733Y-79163239D01*
X148708819Y-79218237D02*
X148740776Y-79192137D01*
X148676863Y-79241307D02*
X148708819Y-79218237D01*
X148644906Y-79261113D02*
X148676863Y-79241307D01*
X148612949Y-79277422D02*
X148644906Y-79261113D01*
X148580992Y-79290001D02*
X148612949Y-79277422D01*
X148549035Y-79298617D02*
X148580992Y-79290001D01*
X148517078Y-79303037D02*
X148549035Y-79298617D01*
X148485122Y-79303037D02*
X148517078Y-79303037D01*
X148453165Y-79298617D02*
X148485122Y-79303037D01*
X148421208Y-79290001D02*
X148453165Y-79298617D01*
X148389251Y-79277422D02*
X148421208Y-79290001D01*
X148357294Y-79261113D02*
X148389251Y-79277422D01*
X148325337Y-79241307D02*
X148357294Y-79261113D01*
X148293381Y-79218237D02*
X148325337Y-79241307D01*
X148261424Y-79192137D02*
X148293381Y-79218237D01*
X148229467Y-79163239D02*
X148261424Y-79192137D01*
X148197510Y-79131777D02*
X148229467Y-79163239D01*
X148165553Y-79097983D02*
X148197510Y-79131777D01*
X148133597Y-79062091D02*
X148165553Y-79097983D01*
X148101640Y-79024335D02*
X148133597Y-79062091D01*
X148069683Y-78984946D02*
X148101640Y-79024335D01*
X148037726Y-78944159D02*
X148069683Y-78984946D01*
X148005769Y-78902206D02*
X148037726Y-78944159D01*
X147973812Y-78859320D02*
X148005769Y-78902206D01*
X147941856Y-78815736D02*
X147973812Y-78859320D01*
X147909899Y-78771685D02*
X147941856Y-78815736D01*
X147877942Y-78727400D02*
X147909899Y-78771685D01*
X146024691Y-76265210D02*
X147877942Y-78727400D01*
X144066980Y-74126681D02*
X146024691Y-76265210D01*
X142021176Y-72299991D02*
X144066980Y-74126681D01*
X139903649Y-70773315D02*
X142021176Y-72299991D01*
X137730764Y-69534830D02*
X139903649Y-70773315D01*
X135518890Y-68572714D02*
X137730764Y-69534830D01*
X133284394Y-67875143D02*
X135518890Y-68572714D01*
X131043644Y-67430294D02*
X133284394Y-67875143D01*
X128813008Y-67226344D02*
X131043644Y-67430294D01*
X126608853Y-67251469D02*
X128813008Y-67226344D01*
X124447546Y-67493847D02*
X126608853Y-67251469D01*
X122345456Y-67941653D02*
X124447546Y-67493847D01*
X120318950Y-68583065D02*
X122345456Y-67941653D01*
X118384396Y-69406260D02*
X120318950Y-68583065D01*
X116558161Y-70399414D02*
X118384396Y-69406260D01*
X114856518Y-71550739D02*
X116558161Y-70399414D01*
X113290051Y-72850505D02*
X114856518Y-71550739D01*
X111860524Y-74292176D02*
X113290051Y-72850505D01*
X110568943Y-75869492D02*
X111860524Y-74292176D01*
X109416314Y-77576191D02*
X110568943Y-75869492D01*
X108403644Y-79406012D02*
X109416314Y-77576191D01*
X107531938Y-81352693D02*
X108403644Y-79406012D01*
X106802203Y-83409973D02*
X107531938Y-81352693D01*
X106215445Y-85571591D02*
X106802203Y-83409973D01*
X105772670Y-87831286D02*
X106215445Y-85571591D01*
X105474884Y-90182796D02*
X105772670Y-87831286D01*
X105323093Y-92619860D02*
X105474884Y-90182796D01*
X105318303Y-95136217D02*
X105323093Y-92619860D01*
X105461521Y-97725605D02*
X105318303Y-95136217D01*
X105753752Y-100381763D02*
X105461521Y-97725605D01*
X106196003Y-103098430D02*
X105753752Y-100381763D01*
X106790359Y-105868984D02*
X106196003Y-103098430D01*
X107551450Y-108682610D02*
X106790359Y-105868984D01*
X108502001Y-111525785D02*
X107551450Y-108682610D01*
X109664872Y-114384945D02*
X108502001Y-111525785D01*
X111062923Y-117246524D02*
X109664872Y-114384945D01*
X112719011Y-120096954D02*
X111062923Y-117246524D01*
X114655998Y-122922671D02*
X112719011Y-120096954D01*
X116896742Y-125710108D02*
X114655998Y-122922671D01*
X119464104Y-128445699D02*
X116896742Y-125710108D01*
X122380941Y-131115878D02*
X119464104Y-128445699D01*
X125670114Y-133707078D02*
X122380941Y-131115878D01*
X129354483Y-136205735D02*
X125670114Y-133707078D01*
X133456907Y-138598282D02*
X129354483Y-136205735D01*
X138000244Y-140871152D02*
X133456907Y-138598282D01*
X143007356Y-143010780D02*
X138000244Y-140871152D01*
X148501100Y-145003600D02*
X143007356Y-143010780D01*
X150977509Y-76265210D02*
X149124258Y-78727400D01*
X152935220Y-74126681D02*
X150977509Y-76265210D01*
X154981024Y-72299991D02*
X152935220Y-74126681D01*
X157098551Y-70773315D02*
X154981024Y-72299991D01*
X159271436Y-69534830D02*
X157098551Y-70773315D01*
X161483310Y-68572714D02*
X159271436Y-69534830D01*
X163717806Y-67875143D02*
X161483310Y-68572714D01*
X165958556Y-67430294D02*
X163717806Y-67875143D01*
X168189192Y-67226344D02*
X165958556Y-67430294D01*
X170393347Y-67251469D02*
X168189192Y-67226344D01*
X172554654Y-67493847D02*
X170393347Y-67251469D01*
X174656744Y-67941653D02*
X172554654Y-67493847D01*
X176683250Y-68583065D02*
X174656744Y-67941653D01*
X178617804Y-69406260D02*
X176683250Y-68583065D01*
X180444039Y-70399414D02*
X178617804Y-69406260D01*
X182145682Y-71550739D02*
X180444039Y-70399414D01*
X183712149Y-72850505D02*
X182145682Y-71550739D01*
X185141676Y-74292176D02*
X183712149Y-72850505D01*
X186433257Y-75869492D02*
X185141676Y-74292176D01*
X187585886Y-77576191D02*
X186433257Y-75869492D01*
X188598556Y-79406012D02*
X187585886Y-77576191D01*
X189470262Y-81352693D02*
X188598556Y-79406012D01*
X190199997Y-83409973D02*
X189470262Y-81352693D01*
X190786755Y-85571591D02*
X190199997Y-83409973D01*
X191229530Y-87831286D02*
X190786755Y-85571591D01*
X191527316Y-90182796D02*
X191229530Y-87831286D01*
X191679107Y-92619860D02*
X191527316Y-90182796D01*
X191683897Y-95136217D02*
X191679107Y-92619860D01*
X191540679Y-97725605D02*
X191683897Y-95136217D01*
X191248448Y-100381763D02*
X191540679Y-97725605D01*
X190806197Y-103098430D02*
X191248448Y-100381763D01*
X190211841Y-105868984D02*
X190806197Y-103098430D01*
X189450750Y-108682610D02*
X190211841Y-105868984D01*
X188500199Y-111525785D02*
X189450750Y-108682610D01*
X187337328Y-114384945D02*
X188500199Y-111525785D01*
X185939277Y-117246524D02*
X187337328Y-114384945D01*
X184283189Y-120096954D02*
X185939277Y-117246524D01*
X182346202Y-122922671D02*
X184283189Y-120096954D01*
X180105458Y-125710108D02*
X182346202Y-122922671D01*
X177538096Y-128445699D02*
X180105458Y-125710108D01*
X174621259Y-131115878D02*
X177538096Y-128445699D01*
X171332086Y-133707078D02*
X174621259Y-131115878D01*
X167647717Y-136205735D02*
X171332086Y-133707078D01*
X163545293Y-138598282D02*
X167647717Y-136205735D01*
X159001956Y-140871152D02*
X163545293Y-138598282D01*
X153994844Y-143010780D02*
X159001956Y-140871152D01*
X148501100Y-145003600D02*
X153994844Y-143010780D01*
D12*
X124590000Y-90755000D03*
X124590000Y-103555000D03*
D13*
X139700000Y-80010000D03*
X137160000Y-80010000D03*
X134620000Y-80010000D03*
D14*
X127000000Y-78740000D03*
D15*
X124460000Y-78740000D03*
X121920000Y-78740000D03*
D16*
X159940000Y-109220000D03*
X157440000Y-114220000D03*
X154940000Y-109220000D03*
D17*
X171450000Y-118110000D03*
D18*
X171450000Y-125730000D03*
D17*
X176530000Y-105410000D03*
D18*
X184150000Y-105410000D03*
D17*
X134620000Y-107950000D03*
D18*
X142240000Y-107950000D03*
D17*
X134620000Y-111760000D03*
D18*
X142240000Y-111760000D03*
D17*
X134620000Y-115570000D03*
D18*
X142240000Y-115570000D03*
D17*
X134620000Y-119380000D03*
D18*
X142240000Y-119380000D03*
D17*
X134620000Y-123190000D03*
D18*
X142240000Y-123190000D03*
D17*
X134620000Y-127000000D03*
D18*
X142240000Y-127000000D03*
D17*
X134620000Y-130810000D03*
D18*
X142240000Y-130810000D03*
D17*
X134620000Y-134620000D03*
D18*
X142240000Y-134620000D03*
D17*
X184150000Y-109220000D03*
D18*
X176530000Y-109220000D03*
D17*
X175260000Y-125730000D03*
D18*
X175260000Y-118110000D03*
D17*
X184150000Y-113030000D03*
D18*
X176530000Y-113030000D03*
D17*
X171450000Y-113030000D03*
D18*
X163830000Y-113030000D03*
D17*
X171450000Y-109220000D03*
D18*
X163830000Y-109220000D03*
D17*
X111760000Y-105410000D03*
D18*
X119380000Y-105410000D03*
D17*
X119380000Y-109220000D03*
D18*
X111760000Y-109220000D03*
D17*
X175260000Y-73660000D03*
D18*
X167640000Y-73660000D03*
D19*
X148590000Y-82550000D03*
D20*
X148590000Y-85090000D03*
D19*
X148590000Y-90170000D03*
D20*
X148590000Y-92710000D03*
D19*
X148590000Y-97790000D03*
D20*
X148590000Y-100330000D03*
D19*
X148590000Y-105410000D03*
D20*
X148590000Y-107950000D03*
D19*
X148590000Y-113030000D03*
D20*
X148590000Y-115570000D03*
D19*
X148590000Y-120650000D03*
D20*
X148590000Y-123190000D03*
D19*
X148590000Y-128270000D03*
D20*
X148590000Y-130810000D03*
D19*
X148590000Y-135890000D03*
D20*
X148590000Y-138430000D03*
D17*
X158750000Y-130810000D03*
X161250000Y-130810000D03*
D21*
X116840000Y-115570000D03*
D17*
X116840000Y-113570000D03*
D14*
X129540000Y-73660000D03*
D15*
X127000000Y-73660000D03*
D21*
X165100000Y-127000000D03*
D18*
X157480000Y-119380000D03*
X165100000Y-124460000D03*
X157480000Y-121920000D03*
X165100000Y-121920000D03*
X157480000Y-124460000D03*
X165100000Y-119380000D03*
X157480000Y-127000000D03*
D22*
X171450000Y-80010000D03*
D23*
X156210000Y-87630000D03*
X168910000Y-80010000D03*
X158750000Y-87630000D03*
X166370000Y-80010000D03*
X161290000Y-87630000D03*
X163830000Y-80010000D03*
X163830000Y-87630000D03*
X161290000Y-80010000D03*
X166370000Y-87630000D03*
X158750000Y-80010000D03*
X168910000Y-87630000D03*
X156210000Y-80010000D03*
X171450000Y-87630000D03*
D24*
X130810000Y-125730000D03*
D25*
X123190000Y-107950000D03*
X130810000Y-123190000D03*
X123190000Y-110490000D03*
X130810000Y-120650000D03*
X123190000Y-113030000D03*
X130810000Y-118110000D03*
X123190000Y-115570000D03*
X130810000Y-115570000D03*
X123190000Y-118110000D03*
X130810000Y-113030000D03*
X123190000Y-120650000D03*
X130810000Y-110490000D03*
X123190000Y-123190000D03*
X130810000Y-107950000D03*
X123190000Y-125730000D03*
M02*
