G04 #@! TF.FileFunction,Copper,L2,Bot,Signal*
%FSLAX46Y46*%
G04 Gerber Fmt 4.6, Leading zero omitted, Abs format (unit mm)*
G04 Created by KiCad (PCBNEW 4.0.7) date 11/09/18 11:24:19*
%MOMM*%
%LPD*%
G01*
G04 APERTURE LIST*
%ADD10C,0.100000*%
%ADD11O,2.750000X1.750000*%
%ADD12O,2.000000X2.500000*%
%ADD13R,1.700000X1.700000*%
%ADD14O,1.700000X1.700000*%
%ADD15C,1.620000*%
%ADD16C,1.600000*%
%ADD17O,1.600000X1.600000*%
%ADD18R,1.800000X1.800000*%
%ADD19C,1.800000*%
%ADD20R,1.600000X1.600000*%
%ADD21R,1.600000X2.400000*%
%ADD22O,1.600000X2.400000*%
%ADD23R,2.400000X1.600000*%
%ADD24O,2.400000X1.600000*%
%ADD25C,0.600000*%
%ADD26C,0.400000*%
%ADD27C,0.250000*%
%ADD28C,0.254000*%
G04 APERTURE END LIST*
D10*
X149092301Y-78771685D02*
X149124258Y-78727400D01*
X149060344Y-78815736D02*
X149092301Y-78771685D01*
X149028388Y-78859320D02*
X149060344Y-78815736D01*
X148996431Y-78902206D02*
X149028388Y-78859320D01*
X148964474Y-78944159D02*
X148996431Y-78902206D01*
X148932517Y-78984946D02*
X148964474Y-78944159D01*
X148900560Y-79024335D02*
X148932517Y-78984946D01*
X148868603Y-79062091D02*
X148900560Y-79024335D01*
X148836647Y-79097983D02*
X148868603Y-79062091D01*
X148804690Y-79131777D02*
X148836647Y-79097983D01*
X148772733Y-79163239D02*
X148804690Y-79131777D01*
X148740776Y-79192137D02*
X148772733Y-79163239D01*
X148708819Y-79218237D02*
X148740776Y-79192137D01*
X148676863Y-79241307D02*
X148708819Y-79218237D01*
X148644906Y-79261113D02*
X148676863Y-79241307D01*
X148612949Y-79277422D02*
X148644906Y-79261113D01*
X148580992Y-79290001D02*
X148612949Y-79277422D01*
X148549035Y-79298617D02*
X148580992Y-79290001D01*
X148517078Y-79303037D02*
X148549035Y-79298617D01*
X148485122Y-79303037D02*
X148517078Y-79303037D01*
X148453165Y-79298617D02*
X148485122Y-79303037D01*
X148421208Y-79290001D02*
X148453165Y-79298617D01*
X148389251Y-79277422D02*
X148421208Y-79290001D01*
X148357294Y-79261113D02*
X148389251Y-79277422D01*
X148325337Y-79241307D02*
X148357294Y-79261113D01*
X148293381Y-79218237D02*
X148325337Y-79241307D01*
X148261424Y-79192137D02*
X148293381Y-79218237D01*
X148229467Y-79163239D02*
X148261424Y-79192137D01*
X148197510Y-79131777D02*
X148229467Y-79163239D01*
X148165553Y-79097983D02*
X148197510Y-79131777D01*
X148133597Y-79062091D02*
X148165553Y-79097983D01*
X148101640Y-79024335D02*
X148133597Y-79062091D01*
X148069683Y-78984946D02*
X148101640Y-79024335D01*
X148037726Y-78944159D02*
X148069683Y-78984946D01*
X148005769Y-78902206D02*
X148037726Y-78944159D01*
X147973812Y-78859320D02*
X148005769Y-78902206D01*
X147941856Y-78815736D02*
X147973812Y-78859320D01*
X147909899Y-78771685D02*
X147941856Y-78815736D01*
X147877942Y-78727400D02*
X147909899Y-78771685D01*
X146024691Y-76265210D02*
X147877942Y-78727400D01*
X144066980Y-74126681D02*
X146024691Y-76265210D01*
X142021176Y-72299991D02*
X144066980Y-74126681D01*
X139903649Y-70773315D02*
X142021176Y-72299991D01*
X137730764Y-69534830D02*
X139903649Y-70773315D01*
X135518890Y-68572714D02*
X137730764Y-69534830D01*
X133284394Y-67875143D02*
X135518890Y-68572714D01*
X131043644Y-67430294D02*
X133284394Y-67875143D01*
X128813008Y-67226344D02*
X131043644Y-67430294D01*
X126608853Y-67251469D02*
X128813008Y-67226344D01*
X124447546Y-67493847D02*
X126608853Y-67251469D01*
X122345456Y-67941653D02*
X124447546Y-67493847D01*
X120318950Y-68583065D02*
X122345456Y-67941653D01*
X118384396Y-69406260D02*
X120318950Y-68583065D01*
X116558161Y-70399414D02*
X118384396Y-69406260D01*
X114856518Y-71550739D02*
X116558161Y-70399414D01*
X113290051Y-72850505D02*
X114856518Y-71550739D01*
X111860524Y-74292176D02*
X113290051Y-72850505D01*
X110568943Y-75869492D02*
X111860524Y-74292176D01*
X109416314Y-77576191D02*
X110568943Y-75869492D01*
X108403644Y-79406012D02*
X109416314Y-77576191D01*
X107531938Y-81352693D02*
X108403644Y-79406012D01*
X106802203Y-83409973D02*
X107531938Y-81352693D01*
X106215445Y-85571591D02*
X106802203Y-83409973D01*
X105772670Y-87831286D02*
X106215445Y-85571591D01*
X105474884Y-90182796D02*
X105772670Y-87831286D01*
X105323093Y-92619860D02*
X105474884Y-90182796D01*
X105318303Y-95136217D02*
X105323093Y-92619860D01*
X105461521Y-97725605D02*
X105318303Y-95136217D01*
X105753752Y-100381763D02*
X105461521Y-97725605D01*
X106196003Y-103098430D02*
X105753752Y-100381763D01*
X106790359Y-105868984D02*
X106196003Y-103098430D01*
X107551450Y-108682610D02*
X106790359Y-105868984D01*
X108502001Y-111525785D02*
X107551450Y-108682610D01*
X109664872Y-114384945D02*
X108502001Y-111525785D01*
X111062923Y-117246524D02*
X109664872Y-114384945D01*
X112719011Y-120096954D02*
X111062923Y-117246524D01*
X114655998Y-122922671D02*
X112719011Y-120096954D01*
X116896742Y-125710108D02*
X114655998Y-122922671D01*
X119464104Y-128445699D02*
X116896742Y-125710108D01*
X122380941Y-131115878D02*
X119464104Y-128445699D01*
X125670114Y-133707078D02*
X122380941Y-131115878D01*
X129354483Y-136205735D02*
X125670114Y-133707078D01*
X133456907Y-138598282D02*
X129354483Y-136205735D01*
X138000244Y-140871152D02*
X133456907Y-138598282D01*
X143007356Y-143010780D02*
X138000244Y-140871152D01*
X148501100Y-145003600D02*
X143007356Y-143010780D01*
X150977509Y-76265210D02*
X149124258Y-78727400D01*
X152935220Y-74126681D02*
X150977509Y-76265210D01*
X154981024Y-72299991D02*
X152935220Y-74126681D01*
X157098551Y-70773315D02*
X154981024Y-72299991D01*
X159271436Y-69534830D02*
X157098551Y-70773315D01*
X161483310Y-68572714D02*
X159271436Y-69534830D01*
X163717806Y-67875143D02*
X161483310Y-68572714D01*
X165958556Y-67430294D02*
X163717806Y-67875143D01*
X168189192Y-67226344D02*
X165958556Y-67430294D01*
X170393347Y-67251469D02*
X168189192Y-67226344D01*
X172554654Y-67493847D02*
X170393347Y-67251469D01*
X174656744Y-67941653D02*
X172554654Y-67493847D01*
X176683250Y-68583065D02*
X174656744Y-67941653D01*
X178617804Y-69406260D02*
X176683250Y-68583065D01*
X180444039Y-70399414D02*
X178617804Y-69406260D01*
X182145682Y-71550739D02*
X180444039Y-70399414D01*
X183712149Y-72850505D02*
X182145682Y-71550739D01*
X185141676Y-74292176D02*
X183712149Y-72850505D01*
X186433257Y-75869492D02*
X185141676Y-74292176D01*
X187585886Y-77576191D02*
X186433257Y-75869492D01*
X188598556Y-79406012D02*
X187585886Y-77576191D01*
X189470262Y-81352693D02*
X188598556Y-79406012D01*
X190199997Y-83409973D02*
X189470262Y-81352693D01*
X190786755Y-85571591D02*
X190199997Y-83409973D01*
X191229530Y-87831286D02*
X190786755Y-85571591D01*
X191527316Y-90182796D02*
X191229530Y-87831286D01*
X191679107Y-92619860D02*
X191527316Y-90182796D01*
X191683897Y-95136217D02*
X191679107Y-92619860D01*
X191540679Y-97725605D02*
X191683897Y-95136217D01*
X191248448Y-100381763D02*
X191540679Y-97725605D01*
X190806197Y-103098430D02*
X191248448Y-100381763D01*
X190211841Y-105868984D02*
X190806197Y-103098430D01*
X189450750Y-108682610D02*
X190211841Y-105868984D01*
X188500199Y-111525785D02*
X189450750Y-108682610D01*
X187337328Y-114384945D02*
X188500199Y-111525785D01*
X185939277Y-117246524D02*
X187337328Y-114384945D01*
X184283189Y-120096954D02*
X185939277Y-117246524D01*
X182346202Y-122922671D02*
X184283189Y-120096954D01*
X180105458Y-125710108D02*
X182346202Y-122922671D01*
X177538096Y-128445699D02*
X180105458Y-125710108D01*
X174621259Y-131115878D02*
X177538096Y-128445699D01*
X171332086Y-133707078D02*
X174621259Y-131115878D01*
X167647717Y-136205735D02*
X171332086Y-133707078D01*
X163545293Y-138598282D02*
X167647717Y-136205735D01*
X159001956Y-140871152D02*
X163545293Y-138598282D01*
X153994844Y-143010780D02*
X159001956Y-140871152D01*
X148501100Y-145003600D02*
X153994844Y-143010780D01*
D11*
X124590000Y-90755000D03*
X124590000Y-103555000D03*
D12*
X139700000Y-80010000D03*
X137160000Y-80010000D03*
X134620000Y-80010000D03*
D13*
X127000000Y-78740000D03*
D14*
X124460000Y-78740000D03*
X121920000Y-78740000D03*
D15*
X159940000Y-109220000D03*
X157440000Y-114220000D03*
X154940000Y-109220000D03*
D16*
X171450000Y-118110000D03*
D17*
X171450000Y-125730000D03*
D16*
X176530000Y-105410000D03*
D17*
X184150000Y-105410000D03*
D16*
X134620000Y-107950000D03*
D17*
X142240000Y-107950000D03*
D16*
X134620000Y-111760000D03*
D17*
X142240000Y-111760000D03*
D16*
X134620000Y-115570000D03*
D17*
X142240000Y-115570000D03*
D16*
X134620000Y-119380000D03*
D17*
X142240000Y-119380000D03*
D16*
X134620000Y-123190000D03*
D17*
X142240000Y-123190000D03*
D16*
X134620000Y-127000000D03*
D17*
X142240000Y-127000000D03*
D16*
X134620000Y-130810000D03*
D17*
X142240000Y-130810000D03*
D16*
X134620000Y-134620000D03*
D17*
X142240000Y-134620000D03*
D16*
X184150000Y-109220000D03*
D17*
X176530000Y-109220000D03*
D16*
X175260000Y-125730000D03*
D17*
X175260000Y-118110000D03*
D16*
X184150000Y-113030000D03*
D17*
X176530000Y-113030000D03*
D16*
X171450000Y-113030000D03*
D17*
X163830000Y-113030000D03*
D16*
X171450000Y-109220000D03*
D17*
X163830000Y-109220000D03*
D16*
X111760000Y-105410000D03*
D17*
X119380000Y-105410000D03*
D16*
X119380000Y-109220000D03*
D17*
X111760000Y-109220000D03*
D16*
X175260000Y-73660000D03*
D17*
X167640000Y-73660000D03*
D18*
X148590000Y-82550000D03*
D19*
X148590000Y-85090000D03*
D18*
X148590000Y-90170000D03*
D19*
X148590000Y-92710000D03*
D18*
X148590000Y-97790000D03*
D19*
X148590000Y-100330000D03*
D18*
X148590000Y-105410000D03*
D19*
X148590000Y-107950000D03*
D18*
X148590000Y-113030000D03*
D19*
X148590000Y-115570000D03*
D18*
X148590000Y-120650000D03*
D19*
X148590000Y-123190000D03*
D18*
X148590000Y-128270000D03*
D19*
X148590000Y-130810000D03*
D18*
X148590000Y-135890000D03*
D19*
X148590000Y-138430000D03*
D16*
X158750000Y-130810000D03*
X161250000Y-130810000D03*
D20*
X116840000Y-115570000D03*
D16*
X116840000Y-113570000D03*
D13*
X129540000Y-73660000D03*
D14*
X127000000Y-73660000D03*
D20*
X165100000Y-127000000D03*
D17*
X157480000Y-119380000D03*
X165100000Y-124460000D03*
X157480000Y-121920000D03*
X165100000Y-121920000D03*
X157480000Y-124460000D03*
X165100000Y-119380000D03*
X157480000Y-127000000D03*
D21*
X171450000Y-80010000D03*
D22*
X156210000Y-87630000D03*
X168910000Y-80010000D03*
X158750000Y-87630000D03*
X166370000Y-80010000D03*
X161290000Y-87630000D03*
X163830000Y-80010000D03*
X163830000Y-87630000D03*
X161290000Y-80010000D03*
X166370000Y-87630000D03*
X158750000Y-80010000D03*
X168910000Y-87630000D03*
X156210000Y-80010000D03*
X171450000Y-87630000D03*
D23*
X130810000Y-125730000D03*
D24*
X123190000Y-107950000D03*
X130810000Y-123190000D03*
X123190000Y-110490000D03*
X130810000Y-120650000D03*
X123190000Y-113030000D03*
X130810000Y-118110000D03*
X123190000Y-115570000D03*
X130810000Y-115570000D03*
X123190000Y-118110000D03*
X130810000Y-113030000D03*
X123190000Y-120650000D03*
X130810000Y-110490000D03*
X123190000Y-123190000D03*
X130810000Y-107950000D03*
X123190000Y-125730000D03*
D25*
X122555000Y-81915000D03*
X129540000Y-132080000D03*
X130810000Y-86360000D03*
X128905000Y-119380000D03*
X127635000Y-115570000D03*
X146050000Y-126365000D03*
X144780000Y-123190000D03*
X146685000Y-113665000D03*
X144145000Y-116205000D03*
X144780000Y-102235000D03*
X142240000Y-99060000D03*
X146050000Y-96520000D03*
X181610000Y-85090000D03*
X115570000Y-84455000D03*
X152400000Y-81280000D03*
X154940000Y-100330000D03*
X168910000Y-101600000D03*
X156210000Y-102870000D03*
X173355000Y-104140000D03*
X170180000Y-93345000D03*
X182880000Y-95885000D03*
X177800000Y-122555000D03*
X172085000Y-90805000D03*
X175260000Y-93345000D03*
X127000000Y-120650000D03*
X127635000Y-117475000D03*
X163195000Y-118745000D03*
X146050000Y-116840000D03*
X144780000Y-109220000D03*
X125730000Y-113030000D03*
X127000000Y-121920000D03*
D26*
X132715000Y-81915000D02*
X134620000Y-80010000D01*
X122555000Y-81915000D02*
X132715000Y-81915000D01*
X158750000Y-130810000D02*
X152400000Y-130810000D01*
X130175000Y-132715000D02*
X129540000Y-132080000D01*
X142875000Y-132715000D02*
X130175000Y-132715000D01*
X143510000Y-133350000D02*
X142875000Y-132715000D01*
X149860000Y-133350000D02*
X143510000Y-133350000D01*
X152400000Y-130810000D02*
X149860000Y-133350000D01*
X134620000Y-80010000D02*
X134620000Y-81280000D01*
X134620000Y-81280000D02*
X135890000Y-82550000D01*
X135890000Y-82550000D02*
X141605000Y-82550000D01*
X141605000Y-82550000D02*
X144145000Y-80010000D01*
X144145000Y-80010000D02*
X153035000Y-80010000D01*
X153035000Y-80010000D02*
X154940000Y-78105000D01*
X154940000Y-78105000D02*
X162560000Y-78105000D01*
X162560000Y-78105000D02*
X163830000Y-79375000D01*
X163830000Y-79375000D02*
X163830000Y-80010000D01*
D27*
X157480000Y-121920000D02*
X146685000Y-121920000D01*
X132080000Y-119380000D02*
X128905000Y-119380000D01*
X133985000Y-121285000D02*
X132080000Y-119380000D01*
X146050000Y-121285000D02*
X133985000Y-121285000D01*
X146685000Y-121920000D02*
X146050000Y-121285000D01*
X127635000Y-115570000D02*
X123190000Y-115570000D01*
X123190000Y-115570000D02*
X116840000Y-115570000D01*
X148590000Y-138430000D02*
X146050000Y-138430000D01*
X146050000Y-138430000D02*
X142240000Y-134620000D01*
X142240000Y-130810000D02*
X148590000Y-130810000D01*
X142240000Y-127000000D02*
X145415000Y-127000000D01*
X145415000Y-127000000D02*
X146050000Y-126365000D01*
X142240000Y-123190000D02*
X144780000Y-123190000D01*
X144145000Y-116205000D02*
X146685000Y-113665000D01*
X144780000Y-102235000D02*
X146685000Y-100330000D01*
X146685000Y-100330000D02*
X148590000Y-100330000D01*
X142240000Y-99060000D02*
X144780000Y-96520000D01*
X144780000Y-96520000D02*
X146050000Y-96520000D01*
X161290000Y-87630000D02*
X161290000Y-86360000D01*
X180975000Y-84455000D02*
X181610000Y-85090000D01*
X163195000Y-84455000D02*
X180975000Y-84455000D01*
X161290000Y-86360000D02*
X163195000Y-84455000D01*
X161290000Y-80010000D02*
X161290000Y-81280000D01*
X116205000Y-83820000D02*
X115570000Y-84455000D01*
X158750000Y-83820000D02*
X116205000Y-83820000D01*
X161290000Y-81280000D02*
X158750000Y-83820000D01*
X157440000Y-114220000D02*
X158195000Y-114220000D01*
X158195000Y-114220000D02*
X161290000Y-111125000D01*
X161290000Y-111125000D02*
X169545000Y-111125000D01*
X169545000Y-111125000D02*
X171450000Y-109220000D01*
X171450000Y-109220000D02*
X172085000Y-109220000D01*
X172085000Y-109220000D02*
X175895000Y-113030000D01*
X175895000Y-113030000D02*
X176530000Y-113030000D01*
X158750000Y-81915000D02*
X158750000Y-80010000D01*
X158115000Y-82550000D02*
X158750000Y-81915000D01*
X155575000Y-82550000D02*
X158115000Y-82550000D01*
X154305000Y-81280000D02*
X155575000Y-82550000D01*
X152400000Y-81280000D02*
X154305000Y-81280000D01*
X154940000Y-109220000D02*
X155575000Y-109220000D01*
X155575000Y-109220000D02*
X157480000Y-107315000D01*
X157480000Y-107315000D02*
X161925000Y-107315000D01*
X161925000Y-107315000D02*
X163830000Y-109220000D01*
X155575000Y-100965000D02*
X154940000Y-100330000D01*
X168275000Y-100965000D02*
X155575000Y-100965000D01*
X168910000Y-101600000D02*
X168275000Y-100965000D01*
X156845000Y-103505000D02*
X156210000Y-102870000D01*
X172720000Y-103505000D02*
X156845000Y-103505000D01*
X173355000Y-104140000D02*
X172720000Y-103505000D01*
X184150000Y-113030000D02*
X180340000Y-113030000D01*
X180340000Y-113030000D02*
X176530000Y-109220000D01*
X171450000Y-125730000D02*
X175260000Y-125730000D01*
X171450000Y-94615000D02*
X170180000Y-93345000D01*
X181610000Y-94615000D02*
X171450000Y-94615000D01*
X182880000Y-95885000D02*
X181610000Y-94615000D01*
X130810000Y-120650000D02*
X132080000Y-120650000D01*
X132080000Y-120650000D02*
X134620000Y-123190000D01*
X134620000Y-119380000D02*
X133350000Y-119380000D01*
X132080000Y-118110000D02*
X130810000Y-118110000D01*
X133350000Y-119380000D02*
X132080000Y-118110000D01*
X130810000Y-115570000D02*
X134620000Y-115570000D01*
X130810000Y-113030000D02*
X133350000Y-113030000D01*
X133350000Y-113030000D02*
X134620000Y-111760000D01*
X130810000Y-110490000D02*
X132080000Y-110490000D01*
X132080000Y-110490000D02*
X134620000Y-107950000D01*
X165100000Y-124460000D02*
X166370000Y-124460000D01*
X176530000Y-123825000D02*
X177800000Y-122555000D01*
X167005000Y-123825000D02*
X176530000Y-123825000D01*
X166370000Y-124460000D02*
X167005000Y-123825000D01*
X173355000Y-92075000D02*
X172085000Y-90805000D01*
X173990000Y-92075000D02*
X173355000Y-92075000D01*
X175260000Y-93345000D02*
X173990000Y-92075000D01*
D26*
X139700000Y-80010000D02*
X139700000Y-78740000D01*
X129540000Y-78740000D02*
X127000000Y-78740000D01*
X130810000Y-77470000D02*
X129540000Y-78740000D01*
X138430000Y-77470000D02*
X130810000Y-77470000D01*
X139700000Y-78740000D02*
X138430000Y-77470000D01*
D27*
X128270000Y-116840000D02*
X127635000Y-117475000D01*
X157480000Y-119380000D02*
X151130000Y-119380000D01*
X132715000Y-116840000D02*
X128270000Y-116840000D01*
X133350000Y-117475000D02*
X132715000Y-116840000D01*
X143510000Y-117475000D02*
X133350000Y-117475000D01*
X144145000Y-118110000D02*
X143510000Y-117475000D01*
X149860000Y-118110000D02*
X144145000Y-118110000D01*
X151130000Y-119380000D02*
X149860000Y-118110000D01*
X127000000Y-120650000D02*
X123190000Y-120650000D01*
X163195000Y-118745000D02*
X161925000Y-117475000D01*
X161925000Y-117475000D02*
X146685000Y-117475000D01*
X146685000Y-117475000D02*
X146050000Y-116840000D01*
X144780000Y-109220000D02*
X135255000Y-109220000D01*
X135255000Y-109220000D02*
X132715000Y-111760000D01*
X132715000Y-111760000D02*
X128270000Y-111760000D01*
X128270000Y-111760000D02*
X127000000Y-110490000D01*
X127000000Y-110490000D02*
X123190000Y-110490000D01*
X129540000Y-121920000D02*
X127000000Y-121920000D01*
X150495000Y-124460000D02*
X149860000Y-125095000D01*
X149860000Y-125095000D02*
X134620000Y-125095000D01*
X134620000Y-125095000D02*
X132715000Y-123190000D01*
X132715000Y-123190000D02*
X132715000Y-122555000D01*
X132715000Y-122555000D02*
X132080000Y-121920000D01*
X132080000Y-121920000D02*
X129540000Y-121920000D01*
X157480000Y-124460000D02*
X150495000Y-124460000D01*
X125730000Y-113030000D02*
X123190000Y-113030000D01*
D28*
G36*
X170351161Y-67936032D02*
X172444857Y-68170828D01*
X174481620Y-68604717D01*
X176445251Y-69226229D01*
X178319385Y-70023713D01*
X180087645Y-70985339D01*
X181734063Y-72099299D01*
X183249151Y-73356433D01*
X184632323Y-74751355D01*
X185883260Y-76279035D01*
X187001238Y-77934427D01*
X187985202Y-79712376D01*
X188833857Y-81607582D01*
X189545725Y-83614493D01*
X190119253Y-85727371D01*
X190552863Y-87940294D01*
X190845000Y-90247190D01*
X190994147Y-92641817D01*
X190998861Y-95117937D01*
X190857752Y-97669190D01*
X190569499Y-100289203D01*
X190132847Y-102971474D01*
X189545874Y-105707611D01*
X188794747Y-108484404D01*
X187857459Y-111287909D01*
X186711600Y-114105240D01*
X185334616Y-116923699D01*
X183703739Y-119730736D01*
X181795955Y-122513850D01*
X179588013Y-125260481D01*
X177056399Y-127957981D01*
X174177428Y-130593496D01*
X170927387Y-133153868D01*
X167282508Y-135625744D01*
X163219180Y-137995490D01*
X158713873Y-140249335D01*
X153743273Y-142373361D01*
X148501100Y-144274925D01*
X143258927Y-142373361D01*
X138288327Y-140249335D01*
X133783020Y-137995490D01*
X129719688Y-135625742D01*
X126074806Y-133153863D01*
X124946729Y-132265167D01*
X128604838Y-132265167D01*
X128746883Y-132608943D01*
X129009673Y-132872192D01*
X129251910Y-132972778D01*
X129584566Y-133305434D01*
X129855460Y-133486440D01*
X130175000Y-133550000D01*
X133660700Y-133550000D01*
X133404176Y-133806077D01*
X133185250Y-134333309D01*
X133184752Y-134904187D01*
X133402757Y-135431800D01*
X133806077Y-135835824D01*
X134333309Y-136054750D01*
X134904187Y-136055248D01*
X135431800Y-135837243D01*
X135835824Y-135433923D01*
X136054750Y-134906691D01*
X136055248Y-134335813D01*
X135837243Y-133808200D01*
X135579493Y-133550000D01*
X141279954Y-133550000D01*
X141197189Y-133605302D01*
X140886120Y-134070849D01*
X140776887Y-134620000D01*
X140886120Y-135169151D01*
X141197189Y-135634698D01*
X141662736Y-135945767D01*
X142211887Y-136055000D01*
X142268113Y-136055000D01*
X142545102Y-135999904D01*
X145512599Y-138967401D01*
X145759161Y-139132148D01*
X146050000Y-139190000D01*
X147243154Y-139190000D01*
X147287932Y-139298371D01*
X147719357Y-139730551D01*
X148283330Y-139964733D01*
X148893991Y-139965265D01*
X149458371Y-139732068D01*
X149890551Y-139300643D01*
X150124733Y-138736670D01*
X150125265Y-138126009D01*
X149892068Y-137561629D01*
X149714908Y-137384159D01*
X149849699Y-137328327D01*
X150028327Y-137149698D01*
X150125000Y-136916309D01*
X150125000Y-136175750D01*
X149966250Y-136017000D01*
X148717000Y-136017000D01*
X148717000Y-136037000D01*
X148463000Y-136037000D01*
X148463000Y-136017000D01*
X147213750Y-136017000D01*
X147055000Y-136175750D01*
X147055000Y-136916309D01*
X147151673Y-137149698D01*
X147330301Y-137328327D01*
X147464994Y-137384119D01*
X147289449Y-137559357D01*
X147243506Y-137670000D01*
X146364802Y-137670000D01*
X143638688Y-134943886D01*
X143654639Y-134863691D01*
X147055000Y-134863691D01*
X147055000Y-135604250D01*
X147213750Y-135763000D01*
X148463000Y-135763000D01*
X148463000Y-134513750D01*
X148717000Y-134513750D01*
X148717000Y-135763000D01*
X149966250Y-135763000D01*
X150125000Y-135604250D01*
X150125000Y-134863691D01*
X150028327Y-134630302D01*
X149849699Y-134451673D01*
X149616310Y-134355000D01*
X148875750Y-134355000D01*
X148717000Y-134513750D01*
X148463000Y-134513750D01*
X148304250Y-134355000D01*
X147563690Y-134355000D01*
X147330301Y-134451673D01*
X147151673Y-134630302D01*
X147055000Y-134863691D01*
X143654639Y-134863691D01*
X143703113Y-134620000D01*
X143616586Y-134185000D01*
X149860000Y-134185000D01*
X150179541Y-134121439D01*
X150450434Y-133940434D01*
X152745868Y-131645000D01*
X157555917Y-131645000D01*
X157936077Y-132025824D01*
X158463309Y-132244750D01*
X159034187Y-132245248D01*
X159561800Y-132027243D01*
X159771663Y-131817745D01*
X160421861Y-131817745D01*
X160495995Y-132063864D01*
X161033223Y-132256965D01*
X161603454Y-132229778D01*
X162004005Y-132063864D01*
X162078139Y-131817745D01*
X161250000Y-130989605D01*
X160421861Y-131817745D01*
X159771663Y-131817745D01*
X159965824Y-131623923D01*
X159993423Y-131557456D01*
X159996136Y-131564005D01*
X160242255Y-131638139D01*
X161070395Y-130810000D01*
X161429605Y-130810000D01*
X162257745Y-131638139D01*
X162503864Y-131564005D01*
X162696965Y-131026777D01*
X162669778Y-130456546D01*
X162503864Y-130055995D01*
X162257745Y-129981861D01*
X161429605Y-130810000D01*
X161070395Y-130810000D01*
X160242255Y-129981861D01*
X159996136Y-130055995D01*
X159993804Y-130062483D01*
X159967243Y-129998200D01*
X159771640Y-129802255D01*
X160421861Y-129802255D01*
X161250000Y-130630395D01*
X162078139Y-129802255D01*
X162004005Y-129556136D01*
X161466777Y-129363035D01*
X160896546Y-129390222D01*
X160495995Y-129556136D01*
X160421861Y-129802255D01*
X159771640Y-129802255D01*
X159563923Y-129594176D01*
X159036691Y-129375250D01*
X158465813Y-129374752D01*
X157938200Y-129592757D01*
X157555290Y-129975000D01*
X152400000Y-129975000D01*
X152080459Y-130038561D01*
X151976758Y-130107852D01*
X151809566Y-130219566D01*
X149514132Y-132515000D01*
X143855868Y-132515000D01*
X143465434Y-132124566D01*
X143374587Y-132063864D01*
X143194541Y-131943561D01*
X143125479Y-131929824D01*
X143282811Y-131824698D01*
X143452995Y-131570000D01*
X147243154Y-131570000D01*
X147287932Y-131678371D01*
X147719357Y-132110551D01*
X148283330Y-132344733D01*
X148893991Y-132345265D01*
X149458371Y-132112068D01*
X149890551Y-131680643D01*
X150124733Y-131116670D01*
X150125265Y-130506009D01*
X149892068Y-129941629D01*
X149714908Y-129764159D01*
X149849699Y-129708327D01*
X150028327Y-129529698D01*
X150125000Y-129296309D01*
X150125000Y-128555750D01*
X149966250Y-128397000D01*
X148717000Y-128397000D01*
X148717000Y-128417000D01*
X148463000Y-128417000D01*
X148463000Y-128397000D01*
X147213750Y-128397000D01*
X147055000Y-128555750D01*
X147055000Y-129296309D01*
X147151673Y-129529698D01*
X147330301Y-129708327D01*
X147464994Y-129764119D01*
X147289449Y-129939357D01*
X147243506Y-130050000D01*
X143452995Y-130050000D01*
X143282811Y-129795302D01*
X142817264Y-129484233D01*
X142268113Y-129375000D01*
X142211887Y-129375000D01*
X141662736Y-129484233D01*
X141197189Y-129795302D01*
X140886120Y-130260849D01*
X140776887Y-130810000D01*
X140886120Y-131359151D01*
X141197189Y-131824698D01*
X141279954Y-131880000D01*
X135579300Y-131880000D01*
X135835824Y-131623923D01*
X136054750Y-131096691D01*
X136055248Y-130525813D01*
X135837243Y-129998200D01*
X135433923Y-129594176D01*
X134906691Y-129375250D01*
X134335813Y-129374752D01*
X133808200Y-129592757D01*
X133404176Y-129996077D01*
X133185250Y-130523309D01*
X133184752Y-131094187D01*
X133402757Y-131621800D01*
X133660507Y-131880000D01*
X130520868Y-131880000D01*
X130432535Y-131791667D01*
X130333117Y-131551057D01*
X130070327Y-131287808D01*
X129726799Y-131145162D01*
X129354833Y-131144838D01*
X129011057Y-131286883D01*
X128747808Y-131549673D01*
X128605162Y-131893201D01*
X128604838Y-132265167D01*
X124946729Y-132265167D01*
X122824765Y-130593491D01*
X119945807Y-127957987D01*
X117414187Y-125260481D01*
X115206233Y-122513835D01*
X113298457Y-119730729D01*
X111667584Y-116923699D01*
X110615375Y-114770000D01*
X115392560Y-114770000D01*
X115392560Y-116370000D01*
X115436838Y-116605317D01*
X115575910Y-116821441D01*
X115788110Y-116966431D01*
X116040000Y-117017440D01*
X117640000Y-117017440D01*
X117875317Y-116973162D01*
X118091441Y-116834090D01*
X118236431Y-116621890D01*
X118287440Y-116370000D01*
X118287440Y-116330000D01*
X121569168Y-116330000D01*
X121739352Y-116584698D01*
X122117707Y-116837507D01*
X121685500Y-117185104D01*
X121415633Y-117678181D01*
X121398096Y-117760961D01*
X121520085Y-117983000D01*
X123063000Y-117983000D01*
X123063000Y-117963000D01*
X123317000Y-117963000D01*
X123317000Y-117983000D01*
X124859915Y-117983000D01*
X124981904Y-117760961D01*
X124964367Y-117678181D01*
X124694500Y-117185104D01*
X124262293Y-116837507D01*
X124640648Y-116584698D01*
X124810832Y-116330000D01*
X127072537Y-116330000D01*
X127104673Y-116362192D01*
X127448201Y-116504838D01*
X127530288Y-116504910D01*
X127495320Y-116539878D01*
X127449833Y-116539838D01*
X127106057Y-116681883D01*
X126842808Y-116944673D01*
X126700162Y-117288201D01*
X126699838Y-117660167D01*
X126841883Y-118003943D01*
X127104673Y-118267192D01*
X127448201Y-118409838D01*
X127820167Y-118410162D01*
X128163943Y-118268117D01*
X128427192Y-118005327D01*
X128569838Y-117661799D01*
X128569879Y-117614923D01*
X128584802Y-117600000D01*
X129040495Y-117600000D01*
X128939050Y-118110000D01*
X129005703Y-118445087D01*
X128719833Y-118444838D01*
X128376057Y-118586883D01*
X128112808Y-118849673D01*
X127970162Y-119193201D01*
X127969838Y-119565167D01*
X128111883Y-119908943D01*
X128374673Y-120172192D01*
X128718201Y-120314838D01*
X129005668Y-120315088D01*
X128939050Y-120650000D01*
X129040495Y-121160000D01*
X127800633Y-121160000D01*
X127934838Y-120836799D01*
X127935162Y-120464833D01*
X127793117Y-120121057D01*
X127530327Y-119857808D01*
X127186799Y-119715162D01*
X126814833Y-119714838D01*
X126471057Y-119856883D01*
X126437882Y-119890000D01*
X124810832Y-119890000D01*
X124640648Y-119635302D01*
X124262293Y-119382493D01*
X124694500Y-119034896D01*
X124964367Y-118541819D01*
X124981904Y-118459039D01*
X124859915Y-118237000D01*
X123317000Y-118237000D01*
X123317000Y-118257000D01*
X123063000Y-118257000D01*
X123063000Y-118237000D01*
X121520085Y-118237000D01*
X121398096Y-118459039D01*
X121415633Y-118541819D01*
X121685500Y-119034896D01*
X122117707Y-119382493D01*
X121739352Y-119635302D01*
X121428283Y-120100849D01*
X121319050Y-120650000D01*
X121428283Y-121199151D01*
X121739352Y-121664698D01*
X122121438Y-121920000D01*
X121739352Y-122175302D01*
X121428283Y-122640849D01*
X121319050Y-123190000D01*
X121428283Y-123739151D01*
X121739352Y-124204698D01*
X122121438Y-124460000D01*
X121739352Y-124715302D01*
X121428283Y-125180849D01*
X121319050Y-125730000D01*
X121428283Y-126279151D01*
X121739352Y-126744698D01*
X122204899Y-127055767D01*
X122754050Y-127165000D01*
X123625950Y-127165000D01*
X124175101Y-127055767D01*
X124640648Y-126744698D01*
X124951717Y-126279151D01*
X125060950Y-125730000D01*
X124951717Y-125180849D01*
X124640648Y-124715302D01*
X124258562Y-124460000D01*
X124640648Y-124204698D01*
X124951717Y-123739151D01*
X125060950Y-123190000D01*
X124951717Y-122640849D01*
X124640648Y-122175302D01*
X124258562Y-121920000D01*
X124640648Y-121664698D01*
X124810832Y-121410000D01*
X126199367Y-121410000D01*
X126065162Y-121733201D01*
X126064838Y-122105167D01*
X126206883Y-122448943D01*
X126469673Y-122712192D01*
X126813201Y-122854838D01*
X127185167Y-122855162D01*
X127528943Y-122713117D01*
X127562118Y-122680000D01*
X129040495Y-122680000D01*
X128939050Y-123190000D01*
X129048283Y-123739151D01*
X129359352Y-124204698D01*
X129505350Y-124302251D01*
X129374683Y-124326838D01*
X129158559Y-124465910D01*
X129013569Y-124678110D01*
X128962560Y-124930000D01*
X128962560Y-126530000D01*
X129006838Y-126765317D01*
X129145910Y-126981441D01*
X129358110Y-127126431D01*
X129610000Y-127177440D01*
X132010000Y-127177440D01*
X132245317Y-127133162D01*
X132461441Y-126994090D01*
X132606431Y-126781890D01*
X132657440Y-126530000D01*
X132657440Y-124930000D01*
X132613162Y-124694683D01*
X132474090Y-124478559D01*
X132261890Y-124333569D01*
X132112926Y-124303403D01*
X132260648Y-124204698D01*
X132418562Y-123968364D01*
X134082599Y-125632401D01*
X134116793Y-125655249D01*
X133808200Y-125782757D01*
X133404176Y-126186077D01*
X133185250Y-126713309D01*
X133184752Y-127284187D01*
X133402757Y-127811800D01*
X133806077Y-128215824D01*
X134333309Y-128434750D01*
X134904187Y-128435248D01*
X135431800Y-128217243D01*
X135835824Y-127813923D01*
X136054750Y-127286691D01*
X136055248Y-126715813D01*
X135837243Y-126188200D01*
X135504624Y-125855000D01*
X141392199Y-125855000D01*
X141197189Y-125985302D01*
X140886120Y-126450849D01*
X140776887Y-127000000D01*
X140886120Y-127549151D01*
X141197189Y-128014698D01*
X141662736Y-128325767D01*
X142211887Y-128435000D01*
X142268113Y-128435000D01*
X142817264Y-128325767D01*
X143282811Y-128014698D01*
X143452995Y-127760000D01*
X145415000Y-127760000D01*
X145705839Y-127702148D01*
X145952401Y-127537401D01*
X146189680Y-127300122D01*
X146235167Y-127300162D01*
X146371837Y-127243691D01*
X147055000Y-127243691D01*
X147055000Y-127984250D01*
X147213750Y-128143000D01*
X148463000Y-128143000D01*
X148463000Y-126893750D01*
X148717000Y-126893750D01*
X148717000Y-128143000D01*
X149966250Y-128143000D01*
X150125000Y-127984250D01*
X150125000Y-127243691D01*
X150028327Y-127010302D01*
X149849699Y-126831673D01*
X149616310Y-126735000D01*
X148875750Y-126735000D01*
X148717000Y-126893750D01*
X148463000Y-126893750D01*
X148304250Y-126735000D01*
X147563690Y-126735000D01*
X147330301Y-126831673D01*
X147151673Y-127010302D01*
X147055000Y-127243691D01*
X146371837Y-127243691D01*
X146578943Y-127158117D01*
X146842192Y-126895327D01*
X146984838Y-126551799D01*
X146985162Y-126179833D01*
X146850944Y-125855000D01*
X149860000Y-125855000D01*
X150150839Y-125797148D01*
X150397401Y-125632401D01*
X150809802Y-125220000D01*
X156267005Y-125220000D01*
X156437189Y-125474698D01*
X156819275Y-125730000D01*
X156437189Y-125985302D01*
X156126120Y-126450849D01*
X156016887Y-127000000D01*
X156126120Y-127549151D01*
X156437189Y-128014698D01*
X156902736Y-128325767D01*
X157451887Y-128435000D01*
X157508113Y-128435000D01*
X158057264Y-128325767D01*
X158522811Y-128014698D01*
X158833880Y-127549151D01*
X158943113Y-127000000D01*
X158833880Y-126450849D01*
X158522811Y-125985302D01*
X158140725Y-125730000D01*
X158522811Y-125474698D01*
X158833880Y-125009151D01*
X158943113Y-124460000D01*
X158833880Y-123910849D01*
X158522811Y-123445302D01*
X158140725Y-123190000D01*
X158522811Y-122934698D01*
X158833880Y-122469151D01*
X158943113Y-121920000D01*
X158833880Y-121370849D01*
X158522811Y-120905302D01*
X158140725Y-120650000D01*
X158522811Y-120394698D01*
X158833880Y-119929151D01*
X158943113Y-119380000D01*
X158833880Y-118830849D01*
X158522811Y-118365302D01*
X158327801Y-118235000D01*
X161610198Y-118235000D01*
X162259878Y-118884680D01*
X162259838Y-118930167D01*
X162401883Y-119273943D01*
X162664673Y-119537192D01*
X163008201Y-119679838D01*
X163380167Y-119680162D01*
X163723943Y-119538117D01*
X163755112Y-119507002D01*
X163830084Y-119507002D01*
X163708096Y-119729039D01*
X163868959Y-120117423D01*
X164244866Y-120532389D01*
X164461703Y-120635014D01*
X164057189Y-120905302D01*
X163746120Y-121370849D01*
X163636887Y-121920000D01*
X163746120Y-122469151D01*
X164057189Y-122934698D01*
X164439275Y-123190000D01*
X164057189Y-123445302D01*
X163746120Y-123910849D01*
X163636887Y-124460000D01*
X163746120Y-125009151D01*
X164057189Y-125474698D01*
X164201465Y-125571101D01*
X164064683Y-125596838D01*
X163848559Y-125735910D01*
X163703569Y-125948110D01*
X163652560Y-126200000D01*
X163652560Y-127800000D01*
X163696838Y-128035317D01*
X163835910Y-128251441D01*
X164048110Y-128396431D01*
X164300000Y-128447440D01*
X165900000Y-128447440D01*
X166135317Y-128403162D01*
X166351441Y-128264090D01*
X166496431Y-128051890D01*
X166547440Y-127800000D01*
X166547440Y-126200000D01*
X166503162Y-125964683D01*
X166364090Y-125748559D01*
X166151890Y-125603569D01*
X165996911Y-125572185D01*
X166142811Y-125474698D01*
X166312995Y-125220000D01*
X166370000Y-125220000D01*
X166660839Y-125162148D01*
X166907401Y-124997401D01*
X167319802Y-124585000D01*
X170588238Y-124585000D01*
X170435302Y-124687189D01*
X170124233Y-125152736D01*
X170015000Y-125701887D01*
X170015000Y-125758113D01*
X170124233Y-126307264D01*
X170435302Y-126772811D01*
X170900849Y-127083880D01*
X171450000Y-127193113D01*
X171999151Y-127083880D01*
X172464698Y-126772811D01*
X172653667Y-126490000D01*
X174021354Y-126490000D01*
X174042757Y-126541800D01*
X174446077Y-126945824D01*
X174973309Y-127164750D01*
X175544187Y-127165248D01*
X176071800Y-126947243D01*
X176475824Y-126543923D01*
X176694750Y-126016691D01*
X176695248Y-125445813D01*
X176477243Y-124918200D01*
X176144624Y-124585000D01*
X176530000Y-124585000D01*
X176820839Y-124527148D01*
X177067401Y-124362401D01*
X177939680Y-123490122D01*
X177985167Y-123490162D01*
X178328943Y-123348117D01*
X178592192Y-123085327D01*
X178734838Y-122741799D01*
X178735162Y-122369833D01*
X178593117Y-122026057D01*
X178330327Y-121762808D01*
X177986799Y-121620162D01*
X177614833Y-121619838D01*
X177271057Y-121761883D01*
X177007808Y-122024673D01*
X176865162Y-122368201D01*
X176865121Y-122415077D01*
X176215198Y-123065000D01*
X167005000Y-123065000D01*
X166714161Y-123122852D01*
X166467599Y-123287599D01*
X166209736Y-123545462D01*
X166142811Y-123445302D01*
X165760725Y-123190000D01*
X166142811Y-122934698D01*
X166453880Y-122469151D01*
X166563113Y-121920000D01*
X166453880Y-121370849D01*
X166142811Y-120905302D01*
X165738297Y-120635014D01*
X165955134Y-120532389D01*
X166331041Y-120117423D01*
X166491904Y-119729039D01*
X166369915Y-119507000D01*
X165227000Y-119507000D01*
X165227000Y-119527000D01*
X164973000Y-119527000D01*
X164973000Y-119507000D01*
X164953000Y-119507000D01*
X164953000Y-119253000D01*
X164973000Y-119253000D01*
X164973000Y-118109371D01*
X165227000Y-118109371D01*
X165227000Y-119253000D01*
X166369915Y-119253000D01*
X166444224Y-119117745D01*
X170621861Y-119117745D01*
X170695995Y-119363864D01*
X171233223Y-119556965D01*
X171803454Y-119529778D01*
X172204005Y-119363864D01*
X172278139Y-119117745D01*
X171450000Y-118289605D01*
X170621861Y-119117745D01*
X166444224Y-119117745D01*
X166491904Y-119030961D01*
X166331041Y-118642577D01*
X165955134Y-118227611D01*
X165449041Y-117988086D01*
X165227000Y-118109371D01*
X164973000Y-118109371D01*
X164750959Y-117988086D01*
X164244866Y-118227611D01*
X164071821Y-118418636D01*
X163988117Y-118216057D01*
X163725327Y-117952808D01*
X163581832Y-117893223D01*
X170003035Y-117893223D01*
X170030222Y-118463454D01*
X170196136Y-118864005D01*
X170442255Y-118938139D01*
X171270395Y-118110000D01*
X171629605Y-118110000D01*
X172457745Y-118938139D01*
X172703864Y-118864005D01*
X172896965Y-118326777D01*
X172885290Y-118081887D01*
X173825000Y-118081887D01*
X173825000Y-118138113D01*
X173934233Y-118687264D01*
X174245302Y-119152811D01*
X174710849Y-119463880D01*
X175260000Y-119573113D01*
X175809151Y-119463880D01*
X176274698Y-119152811D01*
X176585767Y-118687264D01*
X176695000Y-118138113D01*
X176695000Y-118081887D01*
X176585767Y-117532736D01*
X176274698Y-117067189D01*
X175809151Y-116756120D01*
X175260000Y-116646887D01*
X174710849Y-116756120D01*
X174245302Y-117067189D01*
X173934233Y-117532736D01*
X173825000Y-118081887D01*
X172885290Y-118081887D01*
X172869778Y-117756546D01*
X172703864Y-117355995D01*
X172457745Y-117281861D01*
X171629605Y-118110000D01*
X171270395Y-118110000D01*
X170442255Y-117281861D01*
X170196136Y-117355995D01*
X170003035Y-117893223D01*
X163581832Y-117893223D01*
X163381799Y-117810162D01*
X163334923Y-117810121D01*
X162627057Y-117102255D01*
X170621861Y-117102255D01*
X171450000Y-117930395D01*
X172278139Y-117102255D01*
X172204005Y-116856136D01*
X171666777Y-116663035D01*
X171096546Y-116690222D01*
X170695995Y-116856136D01*
X170621861Y-117102255D01*
X162627057Y-117102255D01*
X162462401Y-116937599D01*
X162215839Y-116772852D01*
X161925000Y-116715000D01*
X149615714Y-116715000D01*
X149890551Y-116440643D01*
X150124733Y-115876670D01*
X150125265Y-115266009D01*
X149892068Y-114701629D01*
X149714908Y-114524159D01*
X149849699Y-114468327D01*
X150028327Y-114289698D01*
X150125000Y-114056309D01*
X150125000Y-113315750D01*
X149966250Y-113157000D01*
X148717000Y-113157000D01*
X148717000Y-113177000D01*
X148463000Y-113177000D01*
X148463000Y-113157000D01*
X148443000Y-113157000D01*
X148443000Y-112903000D01*
X148463000Y-112903000D01*
X148463000Y-111653750D01*
X148717000Y-111653750D01*
X148717000Y-112903000D01*
X149966250Y-112903000D01*
X150125000Y-112744250D01*
X150125000Y-112003691D01*
X150028327Y-111770302D01*
X149849699Y-111591673D01*
X149616310Y-111495000D01*
X148875750Y-111495000D01*
X148717000Y-111653750D01*
X148463000Y-111653750D01*
X148304250Y-111495000D01*
X147563690Y-111495000D01*
X147330301Y-111591673D01*
X147151673Y-111770302D01*
X147055000Y-112003691D01*
X147055000Y-112744250D01*
X147160999Y-112850249D01*
X146871799Y-112730162D01*
X146499833Y-112729838D01*
X146156057Y-112871883D01*
X145892808Y-113134673D01*
X145750162Y-113478201D01*
X145750121Y-113525077D01*
X144005320Y-115269878D01*
X143959833Y-115269838D01*
X143667439Y-115390653D01*
X143593880Y-115020849D01*
X143282811Y-114555302D01*
X142817264Y-114244233D01*
X142268113Y-114135000D01*
X142211887Y-114135000D01*
X141662736Y-114244233D01*
X141197189Y-114555302D01*
X140886120Y-115020849D01*
X140776887Y-115570000D01*
X140886120Y-116119151D01*
X141197189Y-116584698D01*
X141392199Y-116715000D01*
X135504169Y-116715000D01*
X135835824Y-116383923D01*
X136054750Y-115856691D01*
X136055248Y-115285813D01*
X135837243Y-114758200D01*
X135433923Y-114354176D01*
X134906691Y-114135250D01*
X134335813Y-114134752D01*
X133808200Y-114352757D01*
X133404176Y-114756077D01*
X133381785Y-114810000D01*
X132430832Y-114810000D01*
X132260648Y-114555302D01*
X131878562Y-114300000D01*
X132260648Y-114044698D01*
X132430832Y-113790000D01*
X133350000Y-113790000D01*
X133640839Y-113732148D01*
X133887401Y-113567401D01*
X134281546Y-113173256D01*
X134333309Y-113194750D01*
X134904187Y-113195248D01*
X135431800Y-112977243D01*
X135835824Y-112573923D01*
X136054750Y-112046691D01*
X136055000Y-111760000D01*
X140776887Y-111760000D01*
X140886120Y-112309151D01*
X141197189Y-112774698D01*
X141662736Y-113085767D01*
X142211887Y-113195000D01*
X142268113Y-113195000D01*
X142817264Y-113085767D01*
X143282811Y-112774698D01*
X143593880Y-112309151D01*
X143703113Y-111760000D01*
X143593880Y-111210849D01*
X143282811Y-110745302D01*
X142817264Y-110434233D01*
X142268113Y-110325000D01*
X142211887Y-110325000D01*
X141662736Y-110434233D01*
X141197189Y-110745302D01*
X140886120Y-111210849D01*
X140776887Y-111760000D01*
X136055000Y-111760000D01*
X136055248Y-111475813D01*
X135837243Y-110948200D01*
X135433923Y-110544176D01*
X135131290Y-110418512D01*
X135569802Y-109980000D01*
X144217537Y-109980000D01*
X144249673Y-110012192D01*
X144593201Y-110154838D01*
X144965167Y-110155162D01*
X145308943Y-110013117D01*
X145572192Y-109750327D01*
X145673576Y-109506167D01*
X153494750Y-109506167D01*
X153714275Y-110037457D01*
X154120405Y-110444297D01*
X154651311Y-110664748D01*
X155226167Y-110665250D01*
X155757457Y-110445725D01*
X156164297Y-110039595D01*
X156384748Y-109508689D01*
X156384769Y-109485033D01*
X157794802Y-108075000D01*
X159041677Y-108075000D01*
X158715703Y-108400405D01*
X158495252Y-108931311D01*
X158494750Y-109506167D01*
X158714275Y-110037457D01*
X159120405Y-110444297D01*
X159651311Y-110664748D01*
X160226167Y-110665250D01*
X160757457Y-110445725D01*
X161164297Y-110039595D01*
X161384748Y-109508689D01*
X161385250Y-108933833D01*
X161165725Y-108402543D01*
X160838754Y-108075000D01*
X161610198Y-108075000D01*
X162431312Y-108896114D01*
X162366887Y-109220000D01*
X162476120Y-109769151D01*
X162787189Y-110234698D01*
X162982199Y-110365000D01*
X161290000Y-110365000D01*
X160999161Y-110422852D01*
X160752599Y-110587599D01*
X158302008Y-113038190D01*
X158259595Y-112995703D01*
X157728689Y-112775252D01*
X157153833Y-112774750D01*
X156622543Y-112994275D01*
X156215703Y-113400405D01*
X155995252Y-113931311D01*
X155994750Y-114506167D01*
X156214275Y-115037457D01*
X156620405Y-115444297D01*
X157151311Y-115664748D01*
X157726167Y-115665250D01*
X158257457Y-115445725D01*
X158664297Y-115039595D01*
X158816320Y-114673482D01*
X161604802Y-111885000D01*
X162982199Y-111885000D01*
X162787189Y-112015302D01*
X162476120Y-112480849D01*
X162366887Y-113030000D01*
X162476120Y-113579151D01*
X162787189Y-114044698D01*
X163252736Y-114355767D01*
X163801887Y-114465000D01*
X163858113Y-114465000D01*
X164407264Y-114355767D01*
X164872811Y-114044698D01*
X165183880Y-113579151D01*
X165236584Y-113314187D01*
X170014752Y-113314187D01*
X170232757Y-113841800D01*
X170636077Y-114245824D01*
X171163309Y-114464750D01*
X171734187Y-114465248D01*
X172261800Y-114247243D01*
X172665824Y-113843923D01*
X172884750Y-113316691D01*
X172885248Y-112745813D01*
X172667243Y-112218200D01*
X172263923Y-111814176D01*
X171736691Y-111595250D01*
X171165813Y-111594752D01*
X170638200Y-111812757D01*
X170234176Y-112216077D01*
X170015250Y-112743309D01*
X170014752Y-113314187D01*
X165236584Y-113314187D01*
X165293113Y-113030000D01*
X165183880Y-112480849D01*
X164872811Y-112015302D01*
X164677801Y-111885000D01*
X169545000Y-111885000D01*
X169835839Y-111827148D01*
X170082401Y-111662401D01*
X171111546Y-110633256D01*
X171163309Y-110654750D01*
X171734187Y-110655248D01*
X172237487Y-110447289D01*
X175128141Y-113337943D01*
X175176120Y-113579151D01*
X175487189Y-114044698D01*
X175952736Y-114355767D01*
X176501887Y-114465000D01*
X176558113Y-114465000D01*
X177107264Y-114355767D01*
X177572811Y-114044698D01*
X177883880Y-113579151D01*
X177993113Y-113030000D01*
X177883880Y-112480849D01*
X177572811Y-112015302D01*
X177107264Y-111704233D01*
X176558113Y-111595000D01*
X176501887Y-111595000D01*
X175952736Y-111704233D01*
X175767683Y-111827881D01*
X173159802Y-109220000D01*
X175066887Y-109220000D01*
X175176120Y-109769151D01*
X175487189Y-110234698D01*
X175952736Y-110545767D01*
X176501887Y-110655000D01*
X176558113Y-110655000D01*
X176835102Y-110599904D01*
X179802599Y-113567401D01*
X180049161Y-113732148D01*
X180340000Y-113790000D01*
X182911354Y-113790000D01*
X182932757Y-113841800D01*
X183336077Y-114245824D01*
X183863309Y-114464750D01*
X184434187Y-114465248D01*
X184961800Y-114247243D01*
X185365824Y-113843923D01*
X185584750Y-113316691D01*
X185585248Y-112745813D01*
X185367243Y-112218200D01*
X184963923Y-111814176D01*
X184436691Y-111595250D01*
X183865813Y-111594752D01*
X183338200Y-111812757D01*
X182934176Y-112216077D01*
X182911785Y-112270000D01*
X180654802Y-112270000D01*
X177928688Y-109543886D01*
X177936584Y-109504187D01*
X182714752Y-109504187D01*
X182932757Y-110031800D01*
X183336077Y-110435824D01*
X183863309Y-110654750D01*
X184434187Y-110655248D01*
X184961800Y-110437243D01*
X185365824Y-110033923D01*
X185584750Y-109506691D01*
X185585248Y-108935813D01*
X185367243Y-108408200D01*
X184963923Y-108004176D01*
X184436691Y-107785250D01*
X183865813Y-107784752D01*
X183338200Y-108002757D01*
X182934176Y-108406077D01*
X182715250Y-108933309D01*
X182714752Y-109504187D01*
X177936584Y-109504187D01*
X177993113Y-109220000D01*
X177883880Y-108670849D01*
X177572811Y-108205302D01*
X177107264Y-107894233D01*
X176558113Y-107785000D01*
X176501887Y-107785000D01*
X175952736Y-107894233D01*
X175487189Y-108205302D01*
X175176120Y-108670849D01*
X175066887Y-109220000D01*
X173159802Y-109220000D01*
X172885240Y-108945438D01*
X172885248Y-108935813D01*
X172667243Y-108408200D01*
X172263923Y-108004176D01*
X171736691Y-107785250D01*
X171165813Y-107784752D01*
X170638200Y-108002757D01*
X170234176Y-108406077D01*
X170015250Y-108933309D01*
X170014752Y-109504187D01*
X170037049Y-109558149D01*
X169230198Y-110365000D01*
X164677801Y-110365000D01*
X164872811Y-110234698D01*
X165183880Y-109769151D01*
X165293113Y-109220000D01*
X165183880Y-108670849D01*
X164872811Y-108205302D01*
X164407264Y-107894233D01*
X163858113Y-107785000D01*
X163801887Y-107785000D01*
X163524898Y-107840096D01*
X162462401Y-106777599D01*
X162215839Y-106612852D01*
X161925000Y-106555000D01*
X157480000Y-106555000D01*
X157189161Y-106612852D01*
X156942599Y-106777599D01*
X155734793Y-107985405D01*
X155228689Y-107775252D01*
X154653833Y-107774750D01*
X154122543Y-107994275D01*
X153715703Y-108400405D01*
X153495252Y-108931311D01*
X153494750Y-109506167D01*
X145673576Y-109506167D01*
X145714838Y-109406799D01*
X145715162Y-109034833D01*
X145573117Y-108691057D01*
X145310327Y-108427808D01*
X144966799Y-108285162D01*
X144594833Y-108284838D01*
X144251057Y-108426883D01*
X144217882Y-108460000D01*
X143601668Y-108460000D01*
X143642645Y-108253991D01*
X147054735Y-108253991D01*
X147287932Y-108818371D01*
X147719357Y-109250551D01*
X148283330Y-109484733D01*
X148893991Y-109485265D01*
X149458371Y-109252068D01*
X149890551Y-108820643D01*
X150124733Y-108256670D01*
X150125265Y-107646009D01*
X149892068Y-107081629D01*
X149714908Y-106904159D01*
X149849699Y-106848327D01*
X150028327Y-106669698D01*
X150125000Y-106436309D01*
X150125000Y-105695750D01*
X150123437Y-105694187D01*
X175094752Y-105694187D01*
X175312757Y-106221800D01*
X175716077Y-106625824D01*
X176243309Y-106844750D01*
X176814187Y-106845248D01*
X177341800Y-106627243D01*
X177745824Y-106223923D01*
X177964750Y-105696691D01*
X177965000Y-105410000D01*
X182686887Y-105410000D01*
X182796120Y-105959151D01*
X183107189Y-106424698D01*
X183572736Y-106735767D01*
X184121887Y-106845000D01*
X184178113Y-106845000D01*
X184727264Y-106735767D01*
X185192811Y-106424698D01*
X185503880Y-105959151D01*
X185613113Y-105410000D01*
X185503880Y-104860849D01*
X185192811Y-104395302D01*
X184727264Y-104084233D01*
X184178113Y-103975000D01*
X184121887Y-103975000D01*
X183572736Y-104084233D01*
X183107189Y-104395302D01*
X182796120Y-104860849D01*
X182686887Y-105410000D01*
X177965000Y-105410000D01*
X177965248Y-105125813D01*
X177747243Y-104598200D01*
X177343923Y-104194176D01*
X176816691Y-103975250D01*
X176245813Y-103974752D01*
X175718200Y-104192757D01*
X175314176Y-104596077D01*
X175095250Y-105123309D01*
X175094752Y-105694187D01*
X150123437Y-105694187D01*
X149966250Y-105537000D01*
X148717000Y-105537000D01*
X148717000Y-105557000D01*
X148463000Y-105557000D01*
X148463000Y-105537000D01*
X147213750Y-105537000D01*
X147055000Y-105695750D01*
X147055000Y-106436309D01*
X147151673Y-106669698D01*
X147330301Y-106848327D01*
X147464994Y-106904119D01*
X147289449Y-107079357D01*
X147055267Y-107643330D01*
X147054735Y-108253991D01*
X143642645Y-108253991D01*
X143703113Y-107950000D01*
X143593880Y-107400849D01*
X143282811Y-106935302D01*
X142817264Y-106624233D01*
X142268113Y-106515000D01*
X142211887Y-106515000D01*
X141662736Y-106624233D01*
X141197189Y-106935302D01*
X140886120Y-107400849D01*
X140776887Y-107950000D01*
X140878332Y-108460000D01*
X135962024Y-108460000D01*
X136054750Y-108236691D01*
X136055248Y-107665813D01*
X135837243Y-107138200D01*
X135433923Y-106734176D01*
X134906691Y-106515250D01*
X134335813Y-106514752D01*
X133808200Y-106732757D01*
X133404176Y-107136077D01*
X133185250Y-107663309D01*
X133184752Y-108234187D01*
X133207049Y-108288149D01*
X132116328Y-109378870D01*
X131882293Y-109222493D01*
X132314500Y-108874896D01*
X132584367Y-108381819D01*
X132601904Y-108299039D01*
X132479915Y-108077000D01*
X130937000Y-108077000D01*
X130937000Y-108097000D01*
X130683000Y-108097000D01*
X130683000Y-108077000D01*
X129140085Y-108077000D01*
X129018096Y-108299039D01*
X129035633Y-108381819D01*
X129305500Y-108874896D01*
X129737707Y-109222493D01*
X129359352Y-109475302D01*
X129048283Y-109940849D01*
X128939050Y-110490000D01*
X129040495Y-111000000D01*
X128584802Y-111000000D01*
X127537401Y-109952599D01*
X127290839Y-109787852D01*
X127000000Y-109730000D01*
X124810832Y-109730000D01*
X124640648Y-109475302D01*
X124258562Y-109220000D01*
X124640648Y-108964698D01*
X124951717Y-108499151D01*
X125060950Y-107950000D01*
X124991522Y-107600961D01*
X129018096Y-107600961D01*
X129140085Y-107823000D01*
X130683000Y-107823000D01*
X130683000Y-106515000D01*
X130937000Y-106515000D01*
X130937000Y-107823000D01*
X132479915Y-107823000D01*
X132601904Y-107600961D01*
X132584367Y-107518181D01*
X132314500Y-107025104D01*
X131876483Y-106672834D01*
X131337000Y-106515000D01*
X130937000Y-106515000D01*
X130683000Y-106515000D01*
X130283000Y-106515000D01*
X129743517Y-106672834D01*
X129305500Y-107025104D01*
X129035633Y-107518181D01*
X129018096Y-107600961D01*
X124991522Y-107600961D01*
X124951717Y-107400849D01*
X124640648Y-106935302D01*
X124175101Y-106624233D01*
X123625950Y-106515000D01*
X122754050Y-106515000D01*
X122204899Y-106624233D01*
X121739352Y-106935302D01*
X121428283Y-107400849D01*
X121319050Y-107950000D01*
X121428283Y-108499151D01*
X121739352Y-108964698D01*
X122121438Y-109220000D01*
X121739352Y-109475302D01*
X121428283Y-109940849D01*
X121319050Y-110490000D01*
X121428283Y-111039151D01*
X121739352Y-111504698D01*
X122121438Y-111760000D01*
X121739352Y-112015302D01*
X121428283Y-112480849D01*
X121319050Y-113030000D01*
X121428283Y-113579151D01*
X121739352Y-114044698D01*
X122121438Y-114300000D01*
X121739352Y-114555302D01*
X121569168Y-114810000D01*
X118287440Y-114810000D01*
X118287440Y-114770000D01*
X118243162Y-114534683D01*
X118104090Y-114318559D01*
X118097452Y-114314023D01*
X118286965Y-113786777D01*
X118259778Y-113216546D01*
X118093864Y-112815995D01*
X117847745Y-112741861D01*
X117019605Y-113570000D01*
X117033748Y-113584142D01*
X116854143Y-113763748D01*
X116840000Y-113749605D01*
X116825858Y-113763748D01*
X116646252Y-113584142D01*
X116660395Y-113570000D01*
X115832255Y-112741861D01*
X115586136Y-112815995D01*
X115393035Y-113353223D01*
X115420222Y-113923454D01*
X115582384Y-114314947D01*
X115443569Y-114518110D01*
X115392560Y-114770000D01*
X110615375Y-114770000D01*
X110290600Y-114105240D01*
X109663041Y-112562255D01*
X116011861Y-112562255D01*
X116840000Y-113390395D01*
X117668139Y-112562255D01*
X117594005Y-112316136D01*
X117056777Y-112123035D01*
X116486546Y-112150222D01*
X116085995Y-112316136D01*
X116011861Y-112562255D01*
X109663041Y-112562255D01*
X109144743Y-111287913D01*
X108453383Y-109220000D01*
X110296887Y-109220000D01*
X110406120Y-109769151D01*
X110717189Y-110234698D01*
X111182736Y-110545767D01*
X111731887Y-110655000D01*
X111788113Y-110655000D01*
X112337264Y-110545767D01*
X112802811Y-110234698D01*
X113113880Y-109769151D01*
X113166584Y-109504187D01*
X117944752Y-109504187D01*
X118162757Y-110031800D01*
X118566077Y-110435824D01*
X119093309Y-110654750D01*
X119664187Y-110655248D01*
X120191800Y-110437243D01*
X120595824Y-110033923D01*
X120814750Y-109506691D01*
X120815248Y-108935813D01*
X120597243Y-108408200D01*
X120193923Y-108004176D01*
X119666691Y-107785250D01*
X119095813Y-107784752D01*
X118568200Y-108002757D01*
X118164176Y-108406077D01*
X117945250Y-108933309D01*
X117944752Y-109504187D01*
X113166584Y-109504187D01*
X113223113Y-109220000D01*
X113113880Y-108670849D01*
X112802811Y-108205302D01*
X112337264Y-107894233D01*
X111788113Y-107785000D01*
X111731887Y-107785000D01*
X111182736Y-107894233D01*
X110717189Y-108205302D01*
X110406120Y-108670849D01*
X110296887Y-109220000D01*
X108453383Y-109220000D01*
X108207453Y-108484404D01*
X107456327Y-105707615D01*
X107453447Y-105694187D01*
X110324752Y-105694187D01*
X110542757Y-106221800D01*
X110946077Y-106625824D01*
X111473309Y-106844750D01*
X112044187Y-106845248D01*
X112571800Y-106627243D01*
X112975824Y-106223923D01*
X113168860Y-105759039D01*
X117988096Y-105759039D01*
X118148959Y-106147423D01*
X118524866Y-106562389D01*
X119030959Y-106801914D01*
X119253000Y-106680629D01*
X119253000Y-105537000D01*
X119507000Y-105537000D01*
X119507000Y-106680629D01*
X119729041Y-106801914D01*
X120235134Y-106562389D01*
X120611041Y-106147423D01*
X120771904Y-105759039D01*
X120649915Y-105537000D01*
X119507000Y-105537000D01*
X119253000Y-105537000D01*
X118110085Y-105537000D01*
X117988096Y-105759039D01*
X113168860Y-105759039D01*
X113194750Y-105696691D01*
X113195248Y-105125813D01*
X113168452Y-105060961D01*
X117988096Y-105060961D01*
X118110085Y-105283000D01*
X119253000Y-105283000D01*
X119253000Y-104139371D01*
X119507000Y-104139371D01*
X119507000Y-105283000D01*
X120649915Y-105283000D01*
X120771904Y-105060961D01*
X120611041Y-104672577D01*
X120235134Y-104257611D01*
X119729041Y-104018086D01*
X119507000Y-104139371D01*
X119253000Y-104139371D01*
X119030959Y-104018086D01*
X118524866Y-104257611D01*
X118148959Y-104672577D01*
X117988096Y-105060961D01*
X113168452Y-105060961D01*
X112977243Y-104598200D01*
X112573923Y-104194176D01*
X112046691Y-103975250D01*
X111475813Y-103974752D01*
X110948200Y-104192757D01*
X110544176Y-104596077D01*
X110325250Y-105123309D01*
X110324752Y-105694187D01*
X107453447Y-105694187D01*
X106994536Y-103555000D01*
X122540622Y-103555000D01*
X122655564Y-104132852D01*
X122982891Y-104622731D01*
X123472770Y-104950058D01*
X124050622Y-105065000D01*
X125129378Y-105065000D01*
X125707230Y-104950058D01*
X126197109Y-104622731D01*
X126356830Y-104383691D01*
X147055000Y-104383691D01*
X147055000Y-105124250D01*
X147213750Y-105283000D01*
X148463000Y-105283000D01*
X148463000Y-104033750D01*
X148717000Y-104033750D01*
X148717000Y-105283000D01*
X149966250Y-105283000D01*
X150125000Y-105124250D01*
X150125000Y-104383691D01*
X150028327Y-104150302D01*
X149849699Y-103971673D01*
X149616310Y-103875000D01*
X148875750Y-103875000D01*
X148717000Y-104033750D01*
X148463000Y-104033750D01*
X148304250Y-103875000D01*
X147563690Y-103875000D01*
X147330301Y-103971673D01*
X147151673Y-104150302D01*
X147055000Y-104383691D01*
X126356830Y-104383691D01*
X126524436Y-104132852D01*
X126639378Y-103555000D01*
X126524436Y-102977148D01*
X126197109Y-102487269D01*
X126096684Y-102420167D01*
X143844838Y-102420167D01*
X143986883Y-102763943D01*
X144249673Y-103027192D01*
X144593201Y-103169838D01*
X144965167Y-103170162D01*
X145243476Y-103055167D01*
X155274838Y-103055167D01*
X155416883Y-103398943D01*
X155679673Y-103662192D01*
X156023201Y-103804838D01*
X156070077Y-103804879D01*
X156307599Y-104042401D01*
X156554161Y-104207148D01*
X156845000Y-104265000D01*
X172405198Y-104265000D01*
X172419878Y-104279680D01*
X172419838Y-104325167D01*
X172561883Y-104668943D01*
X172824673Y-104932192D01*
X173168201Y-105074838D01*
X173540167Y-105075162D01*
X173883943Y-104933117D01*
X174147192Y-104670327D01*
X174289838Y-104326799D01*
X174290162Y-103954833D01*
X174148117Y-103611057D01*
X173885327Y-103347808D01*
X173541799Y-103205162D01*
X173494923Y-103205121D01*
X173257401Y-102967599D01*
X173010839Y-102802852D01*
X172720000Y-102745000D01*
X157159802Y-102745000D01*
X157145122Y-102730320D01*
X157145162Y-102684833D01*
X157003117Y-102341057D01*
X156740327Y-102077808D01*
X156396799Y-101935162D01*
X156024833Y-101934838D01*
X155681057Y-102076883D01*
X155417808Y-102339673D01*
X155275162Y-102683201D01*
X155274838Y-103055167D01*
X145243476Y-103055167D01*
X145308943Y-103028117D01*
X145572192Y-102765327D01*
X145714838Y-102421799D01*
X145714879Y-102374923D01*
X146999802Y-101090000D01*
X147243154Y-101090000D01*
X147287932Y-101198371D01*
X147719357Y-101630551D01*
X148283330Y-101864733D01*
X148893991Y-101865265D01*
X149458371Y-101632068D01*
X149890551Y-101200643D01*
X150124733Y-100636670D01*
X150124838Y-100515167D01*
X154004838Y-100515167D01*
X154146883Y-100858943D01*
X154409673Y-101122192D01*
X154753201Y-101264838D01*
X154800077Y-101264879D01*
X155037599Y-101502401D01*
X155284161Y-101667148D01*
X155575000Y-101725000D01*
X167960198Y-101725000D01*
X167974878Y-101739680D01*
X167974838Y-101785167D01*
X168116883Y-102128943D01*
X168379673Y-102392192D01*
X168723201Y-102534838D01*
X169095167Y-102535162D01*
X169438943Y-102393117D01*
X169702192Y-102130327D01*
X169844838Y-101786799D01*
X169845162Y-101414833D01*
X169703117Y-101071057D01*
X169440327Y-100807808D01*
X169096799Y-100665162D01*
X169049923Y-100665121D01*
X168812401Y-100427599D01*
X168565839Y-100262852D01*
X168275000Y-100205000D01*
X155889802Y-100205000D01*
X155875122Y-100190320D01*
X155875162Y-100144833D01*
X155733117Y-99801057D01*
X155470327Y-99537808D01*
X155126799Y-99395162D01*
X154754833Y-99394838D01*
X154411057Y-99536883D01*
X154147808Y-99799673D01*
X154005162Y-100143201D01*
X154004838Y-100515167D01*
X150124838Y-100515167D01*
X150125265Y-100026009D01*
X149892068Y-99461629D01*
X149714908Y-99284159D01*
X149849699Y-99228327D01*
X150028327Y-99049698D01*
X150125000Y-98816309D01*
X150125000Y-98075750D01*
X149966250Y-97917000D01*
X148717000Y-97917000D01*
X148717000Y-97937000D01*
X148463000Y-97937000D01*
X148463000Y-97917000D01*
X147213750Y-97917000D01*
X147055000Y-98075750D01*
X147055000Y-98816309D01*
X147151673Y-99049698D01*
X147330301Y-99228327D01*
X147464994Y-99284119D01*
X147289449Y-99459357D01*
X147243506Y-99570000D01*
X146685000Y-99570000D01*
X146394161Y-99627852D01*
X146147599Y-99792599D01*
X144640320Y-101299878D01*
X144594833Y-101299838D01*
X144251057Y-101441883D01*
X143987808Y-101704673D01*
X143845162Y-102048201D01*
X143844838Y-102420167D01*
X126096684Y-102420167D01*
X125707230Y-102159942D01*
X125129378Y-102045000D01*
X124050622Y-102045000D01*
X123472770Y-102159942D01*
X122982891Y-102487269D01*
X122655564Y-102977148D01*
X122540622Y-103555000D01*
X106994536Y-103555000D01*
X106869354Y-102971477D01*
X106432701Y-100289203D01*
X106317837Y-99245167D01*
X141304838Y-99245167D01*
X141446883Y-99588943D01*
X141709673Y-99852192D01*
X142053201Y-99994838D01*
X142425167Y-99995162D01*
X142768943Y-99853117D01*
X143032192Y-99590327D01*
X143174838Y-99246799D01*
X143174879Y-99199923D01*
X145094802Y-97280000D01*
X145487537Y-97280000D01*
X145519673Y-97312192D01*
X145863201Y-97454838D01*
X146235167Y-97455162D01*
X146578943Y-97313117D01*
X146842192Y-97050327D01*
X146961214Y-96763691D01*
X147055000Y-96763691D01*
X147055000Y-97504250D01*
X147213750Y-97663000D01*
X148463000Y-97663000D01*
X148463000Y-96413750D01*
X148717000Y-96413750D01*
X148717000Y-97663000D01*
X149966250Y-97663000D01*
X150125000Y-97504250D01*
X150125000Y-96763691D01*
X150028327Y-96530302D01*
X149849699Y-96351673D01*
X149616310Y-96255000D01*
X148875750Y-96255000D01*
X148717000Y-96413750D01*
X148463000Y-96413750D01*
X148304250Y-96255000D01*
X147563690Y-96255000D01*
X147330301Y-96351673D01*
X147151673Y-96530302D01*
X147055000Y-96763691D01*
X146961214Y-96763691D01*
X146984838Y-96706799D01*
X146985162Y-96334833D01*
X146843117Y-95991057D01*
X146580327Y-95727808D01*
X146236799Y-95585162D01*
X145864833Y-95584838D01*
X145521057Y-95726883D01*
X145487882Y-95760000D01*
X144780000Y-95760000D01*
X144537414Y-95808254D01*
X144489160Y-95817852D01*
X144242599Y-95982599D01*
X142100320Y-98124878D01*
X142054833Y-98124838D01*
X141711057Y-98266883D01*
X141447808Y-98529673D01*
X141305162Y-98873201D01*
X141304838Y-99245167D01*
X106317837Y-99245167D01*
X106144449Y-97669208D01*
X106003339Y-95117938D01*
X106007344Y-93013991D01*
X147054735Y-93013991D01*
X147287932Y-93578371D01*
X147719357Y-94010551D01*
X148283330Y-94244733D01*
X148893991Y-94245265D01*
X149458371Y-94012068D01*
X149890551Y-93580643D01*
X149911510Y-93530167D01*
X169244838Y-93530167D01*
X169386883Y-93873943D01*
X169649673Y-94137192D01*
X169993201Y-94279838D01*
X170040077Y-94279879D01*
X170912599Y-95152401D01*
X171159160Y-95317148D01*
X171450000Y-95375000D01*
X181295198Y-95375000D01*
X181944878Y-96024680D01*
X181944838Y-96070167D01*
X182086883Y-96413943D01*
X182349673Y-96677192D01*
X182693201Y-96819838D01*
X183065167Y-96820162D01*
X183408943Y-96678117D01*
X183672192Y-96415327D01*
X183814838Y-96071799D01*
X183815162Y-95699833D01*
X183673117Y-95356057D01*
X183410327Y-95092808D01*
X183066799Y-94950162D01*
X183019923Y-94950121D01*
X182147401Y-94077599D01*
X181900839Y-93912852D01*
X181610000Y-93855000D01*
X176060633Y-93855000D01*
X176194838Y-93531799D01*
X176195162Y-93159833D01*
X176053117Y-92816057D01*
X175790327Y-92552808D01*
X175446799Y-92410162D01*
X175399923Y-92410121D01*
X174527401Y-91537599D01*
X174280839Y-91372852D01*
X173990000Y-91315000D01*
X173669802Y-91315000D01*
X173020122Y-90665320D01*
X173020162Y-90619833D01*
X172878117Y-90276057D01*
X172615327Y-90012808D01*
X172271799Y-89870162D01*
X171899833Y-89869838D01*
X171556057Y-90011883D01*
X171292808Y-90274673D01*
X171150162Y-90618201D01*
X171149838Y-90990167D01*
X171291883Y-91333943D01*
X171554673Y-91597192D01*
X171898201Y-91739838D01*
X171945077Y-91739879D01*
X172817599Y-92612401D01*
X173064160Y-92777148D01*
X173355000Y-92835000D01*
X173675198Y-92835000D01*
X174324878Y-93484680D01*
X174324838Y-93530167D01*
X174459056Y-93855000D01*
X171764802Y-93855000D01*
X171115122Y-93205320D01*
X171115162Y-93159833D01*
X170973117Y-92816057D01*
X170710327Y-92552808D01*
X170366799Y-92410162D01*
X169994833Y-92409838D01*
X169651057Y-92551883D01*
X169387808Y-92814673D01*
X169245162Y-93158201D01*
X169244838Y-93530167D01*
X149911510Y-93530167D01*
X150124733Y-93016670D01*
X150125265Y-92406009D01*
X149892068Y-91841629D01*
X149714908Y-91664159D01*
X149849699Y-91608327D01*
X150028327Y-91429698D01*
X150125000Y-91196309D01*
X150125000Y-90455750D01*
X149966250Y-90297000D01*
X148717000Y-90297000D01*
X148717000Y-90317000D01*
X148463000Y-90317000D01*
X148463000Y-90297000D01*
X147213750Y-90297000D01*
X147055000Y-90455750D01*
X147055000Y-91196309D01*
X147151673Y-91429698D01*
X147330301Y-91608327D01*
X147464994Y-91664119D01*
X147289449Y-91839357D01*
X147055267Y-92403330D01*
X147054735Y-93013991D01*
X106007344Y-93013991D01*
X106008053Y-92641816D01*
X106103098Y-91115816D01*
X122623742Y-91115816D01*
X122646341Y-91215519D01*
X122932466Y-91732928D01*
X123394815Y-92101457D01*
X123963000Y-92265000D01*
X124463000Y-92265000D01*
X124463000Y-90882000D01*
X124717000Y-90882000D01*
X124717000Y-92265000D01*
X125217000Y-92265000D01*
X125785185Y-92101457D01*
X126247534Y-91732928D01*
X126533659Y-91215519D01*
X126556258Y-91115816D01*
X126435269Y-90882000D01*
X124717000Y-90882000D01*
X124463000Y-90882000D01*
X122744731Y-90882000D01*
X122623742Y-91115816D01*
X106103098Y-91115816D01*
X106148044Y-90394184D01*
X122623742Y-90394184D01*
X122744731Y-90628000D01*
X124463000Y-90628000D01*
X124463000Y-89245000D01*
X124717000Y-89245000D01*
X124717000Y-90628000D01*
X126435269Y-90628000D01*
X126556258Y-90394184D01*
X126533659Y-90294481D01*
X126247534Y-89777072D01*
X125785185Y-89408543D01*
X125217000Y-89245000D01*
X124717000Y-89245000D01*
X124463000Y-89245000D01*
X123963000Y-89245000D01*
X123394815Y-89408543D01*
X122932466Y-89777072D01*
X122646341Y-90294481D01*
X122623742Y-90394184D01*
X106148044Y-90394184D01*
X106157200Y-90247190D01*
X106296943Y-89143691D01*
X147055000Y-89143691D01*
X147055000Y-89884250D01*
X147213750Y-90043000D01*
X148463000Y-90043000D01*
X148463000Y-88793750D01*
X148717000Y-88793750D01*
X148717000Y-90043000D01*
X149966250Y-90043000D01*
X150125000Y-89884250D01*
X150125000Y-89143691D01*
X150028327Y-88910302D01*
X149849699Y-88731673D01*
X149616310Y-88635000D01*
X148875750Y-88635000D01*
X148717000Y-88793750D01*
X148463000Y-88793750D01*
X148304250Y-88635000D01*
X147563690Y-88635000D01*
X147330301Y-88731673D01*
X147151673Y-88910302D01*
X147055000Y-89143691D01*
X106296943Y-89143691D01*
X106449337Y-87940292D01*
X106595559Y-87194050D01*
X154775000Y-87194050D01*
X154775000Y-88065950D01*
X154884233Y-88615101D01*
X155195302Y-89080648D01*
X155660849Y-89391717D01*
X156210000Y-89500950D01*
X156759151Y-89391717D01*
X157224698Y-89080648D01*
X157480000Y-88698562D01*
X157735302Y-89080648D01*
X158200849Y-89391717D01*
X158750000Y-89500950D01*
X159299151Y-89391717D01*
X159764698Y-89080648D01*
X160020000Y-88698562D01*
X160275302Y-89080648D01*
X160740849Y-89391717D01*
X161290000Y-89500950D01*
X161839151Y-89391717D01*
X162304698Y-89080648D01*
X162557507Y-88702293D01*
X162905104Y-89134500D01*
X163398181Y-89404367D01*
X163480961Y-89421904D01*
X163703000Y-89299915D01*
X163703000Y-87757000D01*
X163683000Y-87757000D01*
X163683000Y-87503000D01*
X163703000Y-87503000D01*
X163703000Y-85960085D01*
X163957000Y-85960085D01*
X163957000Y-87503000D01*
X163977000Y-87503000D01*
X163977000Y-87757000D01*
X163957000Y-87757000D01*
X163957000Y-89299915D01*
X164179039Y-89421904D01*
X164261819Y-89404367D01*
X164754896Y-89134500D01*
X165102493Y-88702293D01*
X165355302Y-89080648D01*
X165820849Y-89391717D01*
X166370000Y-89500950D01*
X166919151Y-89391717D01*
X167384698Y-89080648D01*
X167640000Y-88698562D01*
X167895302Y-89080648D01*
X168360849Y-89391717D01*
X168910000Y-89500950D01*
X169459151Y-89391717D01*
X169924698Y-89080648D01*
X170180000Y-88698562D01*
X170435302Y-89080648D01*
X170900849Y-89391717D01*
X171450000Y-89500950D01*
X171999151Y-89391717D01*
X172464698Y-89080648D01*
X172775767Y-88615101D01*
X172885000Y-88065950D01*
X172885000Y-87194050D01*
X172775767Y-86644899D01*
X172464698Y-86179352D01*
X171999151Y-85868283D01*
X171450000Y-85759050D01*
X170900849Y-85868283D01*
X170435302Y-86179352D01*
X170180000Y-86561438D01*
X169924698Y-86179352D01*
X169459151Y-85868283D01*
X168910000Y-85759050D01*
X168360849Y-85868283D01*
X167895302Y-86179352D01*
X167640000Y-86561438D01*
X167384698Y-86179352D01*
X166919151Y-85868283D01*
X166370000Y-85759050D01*
X165820849Y-85868283D01*
X165355302Y-86179352D01*
X165102493Y-86557707D01*
X164754896Y-86125500D01*
X164261819Y-85855633D01*
X164179039Y-85838096D01*
X163957000Y-85960085D01*
X163703000Y-85960085D01*
X163480961Y-85838096D01*
X163398181Y-85855633D01*
X162905104Y-86125500D01*
X162557507Y-86557707D01*
X162401130Y-86323672D01*
X163509802Y-85215000D01*
X180660198Y-85215000D01*
X180674878Y-85229680D01*
X180674838Y-85275167D01*
X180816883Y-85618943D01*
X181079673Y-85882192D01*
X181423201Y-86024838D01*
X181795167Y-86025162D01*
X182138943Y-85883117D01*
X182402192Y-85620327D01*
X182544838Y-85276799D01*
X182545162Y-84904833D01*
X182403117Y-84561057D01*
X182140327Y-84297808D01*
X181796799Y-84155162D01*
X181749923Y-84155121D01*
X181512401Y-83917599D01*
X181265839Y-83752852D01*
X180975000Y-83695000D01*
X163195000Y-83695000D01*
X162904161Y-83752852D01*
X162657599Y-83917599D01*
X160752599Y-85822599D01*
X160706931Y-85890946D01*
X160275302Y-86179352D01*
X160020000Y-86561438D01*
X159764698Y-86179352D01*
X159299151Y-85868283D01*
X158750000Y-85759050D01*
X158200849Y-85868283D01*
X157735302Y-86179352D01*
X157480000Y-86561438D01*
X157224698Y-86179352D01*
X156759151Y-85868283D01*
X156210000Y-85759050D01*
X155660849Y-85868283D01*
X155195302Y-86179352D01*
X154884233Y-86644899D01*
X154775000Y-87194050D01*
X106595559Y-87194050D01*
X106882947Y-85727371D01*
X107456477Y-83614485D01*
X108168343Y-81607582D01*
X109016996Y-79712381D01*
X110000962Y-77934427D01*
X111118940Y-76279035D01*
X112369877Y-74751355D01*
X113480887Y-73630907D01*
X125515000Y-73630907D01*
X125515000Y-73689093D01*
X125628039Y-74257378D01*
X125949946Y-74739147D01*
X126431715Y-75061054D01*
X127000000Y-75174093D01*
X127568285Y-75061054D01*
X128050054Y-74739147D01*
X128079403Y-74695223D01*
X128151673Y-74869698D01*
X128330301Y-75048327D01*
X128563690Y-75145000D01*
X129254250Y-75145000D01*
X129413000Y-74986250D01*
X129413000Y-73787000D01*
X129667000Y-73787000D01*
X129667000Y-74986250D01*
X129825750Y-75145000D01*
X130516310Y-75145000D01*
X130749699Y-75048327D01*
X130928327Y-74869698D01*
X131025000Y-74636309D01*
X131025000Y-73945750D01*
X130866250Y-73787000D01*
X129667000Y-73787000D01*
X129413000Y-73787000D01*
X129393000Y-73787000D01*
X129393000Y-73533000D01*
X129413000Y-73533000D01*
X129413000Y-72333750D01*
X129667000Y-72333750D01*
X129667000Y-73533000D01*
X130866250Y-73533000D01*
X131025000Y-73374250D01*
X131025000Y-72683691D01*
X130928327Y-72450302D01*
X130749699Y-72271673D01*
X130516310Y-72175000D01*
X129825750Y-72175000D01*
X129667000Y-72333750D01*
X129413000Y-72333750D01*
X129254250Y-72175000D01*
X128563690Y-72175000D01*
X128330301Y-72271673D01*
X128151673Y-72450302D01*
X128079403Y-72624777D01*
X128050054Y-72580853D01*
X127568285Y-72258946D01*
X127000000Y-72145907D01*
X126431715Y-72258946D01*
X125949946Y-72580853D01*
X125628039Y-73062622D01*
X125515000Y-73630907D01*
X113480887Y-73630907D01*
X113753050Y-73356433D01*
X115268137Y-72099299D01*
X116914555Y-70985339D01*
X118682815Y-70023713D01*
X120556946Y-69226230D01*
X122520580Y-68604717D01*
X124557345Y-68170828D01*
X126651030Y-67936033D01*
X128785656Y-67911701D01*
X130945503Y-68109179D01*
X133115158Y-68539914D01*
X135279520Y-69215590D01*
X137423660Y-70148244D01*
X139532694Y-71350336D01*
X141591594Y-72834744D01*
X143585019Y-74614666D01*
X145497198Y-76703458D01*
X147326478Y-79133799D01*
X147354425Y-79172526D01*
X147355069Y-79173125D01*
X147355436Y-79173923D01*
X147356217Y-79175000D01*
X144145000Y-79175000D01*
X143825459Y-79238561D01*
X143626222Y-79371687D01*
X143554566Y-79419566D01*
X141259132Y-81715000D01*
X140464082Y-81715000D01*
X140856120Y-81453049D01*
X141210543Y-80922616D01*
X141335000Y-80296929D01*
X141335000Y-79723071D01*
X141210543Y-79097384D01*
X140856120Y-78566951D01*
X140338002Y-78220757D01*
X140290434Y-78149566D01*
X139020434Y-76879566D01*
X138857157Y-76770468D01*
X138749541Y-76698561D01*
X138430000Y-76635000D01*
X130810000Y-76635000D01*
X130490459Y-76698561D01*
X130382843Y-76770468D01*
X130219566Y-76879566D01*
X129194132Y-77905000D01*
X128497440Y-77905000D01*
X128497440Y-77890000D01*
X128453162Y-77654683D01*
X128314090Y-77438559D01*
X128101890Y-77293569D01*
X127850000Y-77242560D01*
X126150000Y-77242560D01*
X125914683Y-77286838D01*
X125698559Y-77425910D01*
X125553569Y-77638110D01*
X125539914Y-77705541D01*
X125510054Y-77660853D01*
X125028285Y-77338946D01*
X124460000Y-77225907D01*
X123891715Y-77338946D01*
X123409946Y-77660853D01*
X123190000Y-77990026D01*
X122970054Y-77660853D01*
X122488285Y-77338946D01*
X121920000Y-77225907D01*
X121351715Y-77338946D01*
X120869946Y-77660853D01*
X120548039Y-78142622D01*
X120435000Y-78710907D01*
X120435000Y-78769093D01*
X120548039Y-79337378D01*
X120869946Y-79819147D01*
X121351715Y-80141054D01*
X121920000Y-80254093D01*
X122488285Y-80141054D01*
X122970054Y-79819147D01*
X123190000Y-79489974D01*
X123409946Y-79819147D01*
X123891715Y-80141054D01*
X124460000Y-80254093D01*
X125028285Y-80141054D01*
X125510054Y-79819147D01*
X125537850Y-79777548D01*
X125546838Y-79825317D01*
X125685910Y-80041441D01*
X125898110Y-80186431D01*
X126150000Y-80237440D01*
X127850000Y-80237440D01*
X128085317Y-80193162D01*
X128301441Y-80054090D01*
X128446431Y-79841890D01*
X128497440Y-79590000D01*
X128497440Y-79575000D01*
X129540000Y-79575000D01*
X129859541Y-79511439D01*
X130130434Y-79330434D01*
X131155868Y-78305000D01*
X133855918Y-78305000D01*
X133463880Y-78566951D01*
X133109457Y-79097384D01*
X132985000Y-79723071D01*
X132985000Y-80296929D01*
X133012741Y-80436391D01*
X132369132Y-81080000D01*
X122982234Y-81080000D01*
X122741799Y-80980162D01*
X122369833Y-80979838D01*
X122026057Y-81121883D01*
X121762808Y-81384673D01*
X121620162Y-81728201D01*
X121619838Y-82100167D01*
X121761883Y-82443943D01*
X122024673Y-82707192D01*
X122368201Y-82849838D01*
X122740167Y-82850162D01*
X122982578Y-82750000D01*
X132715000Y-82750000D01*
X133034541Y-82686439D01*
X133305434Y-82505434D01*
X133993865Y-81817003D01*
X133997974Y-81823153D01*
X134029566Y-81870434D01*
X135219132Y-83060000D01*
X116205000Y-83060000D01*
X115914161Y-83117852D01*
X115667599Y-83282599D01*
X115430320Y-83519878D01*
X115384833Y-83519838D01*
X115041057Y-83661883D01*
X114777808Y-83924673D01*
X114635162Y-84268201D01*
X114634838Y-84640167D01*
X114776883Y-84983943D01*
X115039673Y-85247192D01*
X115383201Y-85389838D01*
X115755167Y-85390162D01*
X116098943Y-85248117D01*
X116362192Y-84985327D01*
X116504838Y-84641799D01*
X116504879Y-84594923D01*
X116519802Y-84580000D01*
X147139697Y-84580000D01*
X147055267Y-84783330D01*
X147054735Y-85393991D01*
X147287932Y-85958371D01*
X147719357Y-86390551D01*
X148283330Y-86624733D01*
X148893991Y-86625265D01*
X149458371Y-86392068D01*
X149890551Y-85960643D01*
X150124733Y-85396670D01*
X150125265Y-84786009D01*
X150040144Y-84580000D01*
X158750000Y-84580000D01*
X159040839Y-84522148D01*
X159287401Y-84357401D01*
X161827401Y-81817401D01*
X161873069Y-81749053D01*
X162304698Y-81460648D01*
X162560000Y-81078562D01*
X162815302Y-81460648D01*
X163280849Y-81771717D01*
X163830000Y-81880950D01*
X164379151Y-81771717D01*
X164844698Y-81460648D01*
X165100000Y-81078562D01*
X165355302Y-81460648D01*
X165820849Y-81771717D01*
X166370000Y-81880950D01*
X166919151Y-81771717D01*
X167384698Y-81460648D01*
X167640000Y-81078562D01*
X167895302Y-81460648D01*
X168360849Y-81771717D01*
X168910000Y-81880950D01*
X169459151Y-81771717D01*
X169924698Y-81460648D01*
X170022251Y-81314650D01*
X170046838Y-81445317D01*
X170185910Y-81661441D01*
X170398110Y-81806431D01*
X170650000Y-81857440D01*
X172250000Y-81857440D01*
X172485317Y-81813162D01*
X172701441Y-81674090D01*
X172846431Y-81461890D01*
X172897440Y-81210000D01*
X172897440Y-78810000D01*
X172853162Y-78574683D01*
X172714090Y-78358559D01*
X172501890Y-78213569D01*
X172250000Y-78162560D01*
X170650000Y-78162560D01*
X170414683Y-78206838D01*
X170198559Y-78345910D01*
X170053569Y-78558110D01*
X170023403Y-78707074D01*
X169924698Y-78559352D01*
X169459151Y-78248283D01*
X168910000Y-78139050D01*
X168360849Y-78248283D01*
X167895302Y-78559352D01*
X167640000Y-78941438D01*
X167384698Y-78559352D01*
X166919151Y-78248283D01*
X166370000Y-78139050D01*
X165820849Y-78248283D01*
X165355302Y-78559352D01*
X165100000Y-78941438D01*
X164844698Y-78559352D01*
X164379151Y-78248283D01*
X163830000Y-78139050D01*
X163784057Y-78148189D01*
X163150434Y-77514566D01*
X163037690Y-77439233D01*
X162879541Y-77333561D01*
X162560000Y-77270000D01*
X154940000Y-77270000D01*
X154620459Y-77333561D01*
X154462310Y-77439233D01*
X154349566Y-77514566D01*
X152689132Y-79175000D01*
X149645983Y-79175000D01*
X149646764Y-79173923D01*
X149647130Y-79173127D01*
X149647775Y-79172527D01*
X149675685Y-79133849D01*
X151505002Y-76703457D01*
X153417186Y-74614660D01*
X154095452Y-74009039D01*
X166248096Y-74009039D01*
X166408959Y-74397423D01*
X166784866Y-74812389D01*
X167290959Y-75051914D01*
X167513000Y-74930629D01*
X167513000Y-73787000D01*
X167767000Y-73787000D01*
X167767000Y-74930629D01*
X167989041Y-75051914D01*
X168495134Y-74812389D01*
X168871041Y-74397423D01*
X169031904Y-74009039D01*
X168996275Y-73944187D01*
X173824752Y-73944187D01*
X174042757Y-74471800D01*
X174446077Y-74875824D01*
X174973309Y-75094750D01*
X175544187Y-75095248D01*
X176071800Y-74877243D01*
X176475824Y-74473923D01*
X176694750Y-73946691D01*
X176695248Y-73375813D01*
X176477243Y-72848200D01*
X176073923Y-72444176D01*
X175546691Y-72225250D01*
X174975813Y-72224752D01*
X174448200Y-72442757D01*
X174044176Y-72846077D01*
X173825250Y-73373309D01*
X173824752Y-73944187D01*
X168996275Y-73944187D01*
X168909915Y-73787000D01*
X167767000Y-73787000D01*
X167513000Y-73787000D01*
X166370085Y-73787000D01*
X166248096Y-74009039D01*
X154095452Y-74009039D01*
X154877265Y-73310961D01*
X166248096Y-73310961D01*
X166370085Y-73533000D01*
X167513000Y-73533000D01*
X167513000Y-72389371D01*
X167767000Y-72389371D01*
X167767000Y-73533000D01*
X168909915Y-73533000D01*
X169031904Y-73310961D01*
X168871041Y-72922577D01*
X168495134Y-72507611D01*
X167989041Y-72268086D01*
X167767000Y-72389371D01*
X167513000Y-72389371D01*
X167290959Y-72268086D01*
X166784866Y-72507611D01*
X166408959Y-72922577D01*
X166248096Y-73310961D01*
X154877265Y-73310961D01*
X155410606Y-72834744D01*
X157469509Y-71350334D01*
X159578543Y-70148242D01*
X161722680Y-69215590D01*
X163887052Y-68539911D01*
X166056698Y-68109178D01*
X168216544Y-67911701D01*
X170351161Y-67936032D01*
X170351161Y-67936032D01*
G37*
X170351161Y-67936032D02*
X172444857Y-68170828D01*
X174481620Y-68604717D01*
X176445251Y-69226229D01*
X178319385Y-70023713D01*
X180087645Y-70985339D01*
X181734063Y-72099299D01*
X183249151Y-73356433D01*
X184632323Y-74751355D01*
X185883260Y-76279035D01*
X187001238Y-77934427D01*
X187985202Y-79712376D01*
X188833857Y-81607582D01*
X189545725Y-83614493D01*
X190119253Y-85727371D01*
X190552863Y-87940294D01*
X190845000Y-90247190D01*
X190994147Y-92641817D01*
X190998861Y-95117937D01*
X190857752Y-97669190D01*
X190569499Y-100289203D01*
X190132847Y-102971474D01*
X189545874Y-105707611D01*
X188794747Y-108484404D01*
X187857459Y-111287909D01*
X186711600Y-114105240D01*
X185334616Y-116923699D01*
X183703739Y-119730736D01*
X181795955Y-122513850D01*
X179588013Y-125260481D01*
X177056399Y-127957981D01*
X174177428Y-130593496D01*
X170927387Y-133153868D01*
X167282508Y-135625744D01*
X163219180Y-137995490D01*
X158713873Y-140249335D01*
X153743273Y-142373361D01*
X148501100Y-144274925D01*
X143258927Y-142373361D01*
X138288327Y-140249335D01*
X133783020Y-137995490D01*
X129719688Y-135625742D01*
X126074806Y-133153863D01*
X124946729Y-132265167D01*
X128604838Y-132265167D01*
X128746883Y-132608943D01*
X129009673Y-132872192D01*
X129251910Y-132972778D01*
X129584566Y-133305434D01*
X129855460Y-133486440D01*
X130175000Y-133550000D01*
X133660700Y-133550000D01*
X133404176Y-133806077D01*
X133185250Y-134333309D01*
X133184752Y-134904187D01*
X133402757Y-135431800D01*
X133806077Y-135835824D01*
X134333309Y-136054750D01*
X134904187Y-136055248D01*
X135431800Y-135837243D01*
X135835824Y-135433923D01*
X136054750Y-134906691D01*
X136055248Y-134335813D01*
X135837243Y-133808200D01*
X135579493Y-133550000D01*
X141279954Y-133550000D01*
X141197189Y-133605302D01*
X140886120Y-134070849D01*
X140776887Y-134620000D01*
X140886120Y-135169151D01*
X141197189Y-135634698D01*
X141662736Y-135945767D01*
X142211887Y-136055000D01*
X142268113Y-136055000D01*
X142545102Y-135999904D01*
X145512599Y-138967401D01*
X145759161Y-139132148D01*
X146050000Y-139190000D01*
X147243154Y-139190000D01*
X147287932Y-139298371D01*
X147719357Y-139730551D01*
X148283330Y-139964733D01*
X148893991Y-139965265D01*
X149458371Y-139732068D01*
X149890551Y-139300643D01*
X150124733Y-138736670D01*
X150125265Y-138126009D01*
X149892068Y-137561629D01*
X149714908Y-137384159D01*
X149849699Y-137328327D01*
X150028327Y-137149698D01*
X150125000Y-136916309D01*
X150125000Y-136175750D01*
X149966250Y-136017000D01*
X148717000Y-136017000D01*
X148717000Y-136037000D01*
X148463000Y-136037000D01*
X148463000Y-136017000D01*
X147213750Y-136017000D01*
X147055000Y-136175750D01*
X147055000Y-136916309D01*
X147151673Y-137149698D01*
X147330301Y-137328327D01*
X147464994Y-137384119D01*
X147289449Y-137559357D01*
X147243506Y-137670000D01*
X146364802Y-137670000D01*
X143638688Y-134943886D01*
X143654639Y-134863691D01*
X147055000Y-134863691D01*
X147055000Y-135604250D01*
X147213750Y-135763000D01*
X148463000Y-135763000D01*
X148463000Y-134513750D01*
X148717000Y-134513750D01*
X148717000Y-135763000D01*
X149966250Y-135763000D01*
X150125000Y-135604250D01*
X150125000Y-134863691D01*
X150028327Y-134630302D01*
X149849699Y-134451673D01*
X149616310Y-134355000D01*
X148875750Y-134355000D01*
X148717000Y-134513750D01*
X148463000Y-134513750D01*
X148304250Y-134355000D01*
X147563690Y-134355000D01*
X147330301Y-134451673D01*
X147151673Y-134630302D01*
X147055000Y-134863691D01*
X143654639Y-134863691D01*
X143703113Y-134620000D01*
X143616586Y-134185000D01*
X149860000Y-134185000D01*
X150179541Y-134121439D01*
X150450434Y-133940434D01*
X152745868Y-131645000D01*
X157555917Y-131645000D01*
X157936077Y-132025824D01*
X158463309Y-132244750D01*
X159034187Y-132245248D01*
X159561800Y-132027243D01*
X159771663Y-131817745D01*
X160421861Y-131817745D01*
X160495995Y-132063864D01*
X161033223Y-132256965D01*
X161603454Y-132229778D01*
X162004005Y-132063864D01*
X162078139Y-131817745D01*
X161250000Y-130989605D01*
X160421861Y-131817745D01*
X159771663Y-131817745D01*
X159965824Y-131623923D01*
X159993423Y-131557456D01*
X159996136Y-131564005D01*
X160242255Y-131638139D01*
X161070395Y-130810000D01*
X161429605Y-130810000D01*
X162257745Y-131638139D01*
X162503864Y-131564005D01*
X162696965Y-131026777D01*
X162669778Y-130456546D01*
X162503864Y-130055995D01*
X162257745Y-129981861D01*
X161429605Y-130810000D01*
X161070395Y-130810000D01*
X160242255Y-129981861D01*
X159996136Y-130055995D01*
X159993804Y-130062483D01*
X159967243Y-129998200D01*
X159771640Y-129802255D01*
X160421861Y-129802255D01*
X161250000Y-130630395D01*
X162078139Y-129802255D01*
X162004005Y-129556136D01*
X161466777Y-129363035D01*
X160896546Y-129390222D01*
X160495995Y-129556136D01*
X160421861Y-129802255D01*
X159771640Y-129802255D01*
X159563923Y-129594176D01*
X159036691Y-129375250D01*
X158465813Y-129374752D01*
X157938200Y-129592757D01*
X157555290Y-129975000D01*
X152400000Y-129975000D01*
X152080459Y-130038561D01*
X151976758Y-130107852D01*
X151809566Y-130219566D01*
X149514132Y-132515000D01*
X143855868Y-132515000D01*
X143465434Y-132124566D01*
X143374587Y-132063864D01*
X143194541Y-131943561D01*
X143125479Y-131929824D01*
X143282811Y-131824698D01*
X143452995Y-131570000D01*
X147243154Y-131570000D01*
X147287932Y-131678371D01*
X147719357Y-132110551D01*
X148283330Y-132344733D01*
X148893991Y-132345265D01*
X149458371Y-132112068D01*
X149890551Y-131680643D01*
X150124733Y-131116670D01*
X150125265Y-130506009D01*
X149892068Y-129941629D01*
X149714908Y-129764159D01*
X149849699Y-129708327D01*
X150028327Y-129529698D01*
X150125000Y-129296309D01*
X150125000Y-128555750D01*
X149966250Y-128397000D01*
X148717000Y-128397000D01*
X148717000Y-128417000D01*
X148463000Y-128417000D01*
X148463000Y-128397000D01*
X147213750Y-128397000D01*
X147055000Y-128555750D01*
X147055000Y-129296309D01*
X147151673Y-129529698D01*
X147330301Y-129708327D01*
X147464994Y-129764119D01*
X147289449Y-129939357D01*
X147243506Y-130050000D01*
X143452995Y-130050000D01*
X143282811Y-129795302D01*
X142817264Y-129484233D01*
X142268113Y-129375000D01*
X142211887Y-129375000D01*
X141662736Y-129484233D01*
X141197189Y-129795302D01*
X140886120Y-130260849D01*
X140776887Y-130810000D01*
X140886120Y-131359151D01*
X141197189Y-131824698D01*
X141279954Y-131880000D01*
X135579300Y-131880000D01*
X135835824Y-131623923D01*
X136054750Y-131096691D01*
X136055248Y-130525813D01*
X135837243Y-129998200D01*
X135433923Y-129594176D01*
X134906691Y-129375250D01*
X134335813Y-129374752D01*
X133808200Y-129592757D01*
X133404176Y-129996077D01*
X133185250Y-130523309D01*
X133184752Y-131094187D01*
X133402757Y-131621800D01*
X133660507Y-131880000D01*
X130520868Y-131880000D01*
X130432535Y-131791667D01*
X130333117Y-131551057D01*
X130070327Y-131287808D01*
X129726799Y-131145162D01*
X129354833Y-131144838D01*
X129011057Y-131286883D01*
X128747808Y-131549673D01*
X128605162Y-131893201D01*
X128604838Y-132265167D01*
X124946729Y-132265167D01*
X122824765Y-130593491D01*
X119945807Y-127957987D01*
X117414187Y-125260481D01*
X115206233Y-122513835D01*
X113298457Y-119730729D01*
X111667584Y-116923699D01*
X110615375Y-114770000D01*
X115392560Y-114770000D01*
X115392560Y-116370000D01*
X115436838Y-116605317D01*
X115575910Y-116821441D01*
X115788110Y-116966431D01*
X116040000Y-117017440D01*
X117640000Y-117017440D01*
X117875317Y-116973162D01*
X118091441Y-116834090D01*
X118236431Y-116621890D01*
X118287440Y-116370000D01*
X118287440Y-116330000D01*
X121569168Y-116330000D01*
X121739352Y-116584698D01*
X122117707Y-116837507D01*
X121685500Y-117185104D01*
X121415633Y-117678181D01*
X121398096Y-117760961D01*
X121520085Y-117983000D01*
X123063000Y-117983000D01*
X123063000Y-117963000D01*
X123317000Y-117963000D01*
X123317000Y-117983000D01*
X124859915Y-117983000D01*
X124981904Y-117760961D01*
X124964367Y-117678181D01*
X124694500Y-117185104D01*
X124262293Y-116837507D01*
X124640648Y-116584698D01*
X124810832Y-116330000D01*
X127072537Y-116330000D01*
X127104673Y-116362192D01*
X127448201Y-116504838D01*
X127530288Y-116504910D01*
X127495320Y-116539878D01*
X127449833Y-116539838D01*
X127106057Y-116681883D01*
X126842808Y-116944673D01*
X126700162Y-117288201D01*
X126699838Y-117660167D01*
X126841883Y-118003943D01*
X127104673Y-118267192D01*
X127448201Y-118409838D01*
X127820167Y-118410162D01*
X128163943Y-118268117D01*
X128427192Y-118005327D01*
X128569838Y-117661799D01*
X128569879Y-117614923D01*
X128584802Y-117600000D01*
X129040495Y-117600000D01*
X128939050Y-118110000D01*
X129005703Y-118445087D01*
X128719833Y-118444838D01*
X128376057Y-118586883D01*
X128112808Y-118849673D01*
X127970162Y-119193201D01*
X127969838Y-119565167D01*
X128111883Y-119908943D01*
X128374673Y-120172192D01*
X128718201Y-120314838D01*
X129005668Y-120315088D01*
X128939050Y-120650000D01*
X129040495Y-121160000D01*
X127800633Y-121160000D01*
X127934838Y-120836799D01*
X127935162Y-120464833D01*
X127793117Y-120121057D01*
X127530327Y-119857808D01*
X127186799Y-119715162D01*
X126814833Y-119714838D01*
X126471057Y-119856883D01*
X126437882Y-119890000D01*
X124810832Y-119890000D01*
X124640648Y-119635302D01*
X124262293Y-119382493D01*
X124694500Y-119034896D01*
X124964367Y-118541819D01*
X124981904Y-118459039D01*
X124859915Y-118237000D01*
X123317000Y-118237000D01*
X123317000Y-118257000D01*
X123063000Y-118257000D01*
X123063000Y-118237000D01*
X121520085Y-118237000D01*
X121398096Y-118459039D01*
X121415633Y-118541819D01*
X121685500Y-119034896D01*
X122117707Y-119382493D01*
X121739352Y-119635302D01*
X121428283Y-120100849D01*
X121319050Y-120650000D01*
X121428283Y-121199151D01*
X121739352Y-121664698D01*
X122121438Y-121920000D01*
X121739352Y-122175302D01*
X121428283Y-122640849D01*
X121319050Y-123190000D01*
X121428283Y-123739151D01*
X121739352Y-124204698D01*
X122121438Y-124460000D01*
X121739352Y-124715302D01*
X121428283Y-125180849D01*
X121319050Y-125730000D01*
X121428283Y-126279151D01*
X121739352Y-126744698D01*
X122204899Y-127055767D01*
X122754050Y-127165000D01*
X123625950Y-127165000D01*
X124175101Y-127055767D01*
X124640648Y-126744698D01*
X124951717Y-126279151D01*
X125060950Y-125730000D01*
X124951717Y-125180849D01*
X124640648Y-124715302D01*
X124258562Y-124460000D01*
X124640648Y-124204698D01*
X124951717Y-123739151D01*
X125060950Y-123190000D01*
X124951717Y-122640849D01*
X124640648Y-122175302D01*
X124258562Y-121920000D01*
X124640648Y-121664698D01*
X124810832Y-121410000D01*
X126199367Y-121410000D01*
X126065162Y-121733201D01*
X126064838Y-122105167D01*
X126206883Y-122448943D01*
X126469673Y-122712192D01*
X126813201Y-122854838D01*
X127185167Y-122855162D01*
X127528943Y-122713117D01*
X127562118Y-122680000D01*
X129040495Y-122680000D01*
X128939050Y-123190000D01*
X129048283Y-123739151D01*
X129359352Y-124204698D01*
X129505350Y-124302251D01*
X129374683Y-124326838D01*
X129158559Y-124465910D01*
X129013569Y-124678110D01*
X128962560Y-124930000D01*
X128962560Y-126530000D01*
X129006838Y-126765317D01*
X129145910Y-126981441D01*
X129358110Y-127126431D01*
X129610000Y-127177440D01*
X132010000Y-127177440D01*
X132245317Y-127133162D01*
X132461441Y-126994090D01*
X132606431Y-126781890D01*
X132657440Y-126530000D01*
X132657440Y-124930000D01*
X132613162Y-124694683D01*
X132474090Y-124478559D01*
X132261890Y-124333569D01*
X132112926Y-124303403D01*
X132260648Y-124204698D01*
X132418562Y-123968364D01*
X134082599Y-125632401D01*
X134116793Y-125655249D01*
X133808200Y-125782757D01*
X133404176Y-126186077D01*
X133185250Y-126713309D01*
X133184752Y-127284187D01*
X133402757Y-127811800D01*
X133806077Y-128215824D01*
X134333309Y-128434750D01*
X134904187Y-128435248D01*
X135431800Y-128217243D01*
X135835824Y-127813923D01*
X136054750Y-127286691D01*
X136055248Y-126715813D01*
X135837243Y-126188200D01*
X135504624Y-125855000D01*
X141392199Y-125855000D01*
X141197189Y-125985302D01*
X140886120Y-126450849D01*
X140776887Y-127000000D01*
X140886120Y-127549151D01*
X141197189Y-128014698D01*
X141662736Y-128325767D01*
X142211887Y-128435000D01*
X142268113Y-128435000D01*
X142817264Y-128325767D01*
X143282811Y-128014698D01*
X143452995Y-127760000D01*
X145415000Y-127760000D01*
X145705839Y-127702148D01*
X145952401Y-127537401D01*
X146189680Y-127300122D01*
X146235167Y-127300162D01*
X146371837Y-127243691D01*
X147055000Y-127243691D01*
X147055000Y-127984250D01*
X147213750Y-128143000D01*
X148463000Y-128143000D01*
X148463000Y-126893750D01*
X148717000Y-126893750D01*
X148717000Y-128143000D01*
X149966250Y-128143000D01*
X150125000Y-127984250D01*
X150125000Y-127243691D01*
X150028327Y-127010302D01*
X149849699Y-126831673D01*
X149616310Y-126735000D01*
X148875750Y-126735000D01*
X148717000Y-126893750D01*
X148463000Y-126893750D01*
X148304250Y-126735000D01*
X147563690Y-126735000D01*
X147330301Y-126831673D01*
X147151673Y-127010302D01*
X147055000Y-127243691D01*
X146371837Y-127243691D01*
X146578943Y-127158117D01*
X146842192Y-126895327D01*
X146984838Y-126551799D01*
X146985162Y-126179833D01*
X146850944Y-125855000D01*
X149860000Y-125855000D01*
X150150839Y-125797148D01*
X150397401Y-125632401D01*
X150809802Y-125220000D01*
X156267005Y-125220000D01*
X156437189Y-125474698D01*
X156819275Y-125730000D01*
X156437189Y-125985302D01*
X156126120Y-126450849D01*
X156016887Y-127000000D01*
X156126120Y-127549151D01*
X156437189Y-128014698D01*
X156902736Y-128325767D01*
X157451887Y-128435000D01*
X157508113Y-128435000D01*
X158057264Y-128325767D01*
X158522811Y-128014698D01*
X158833880Y-127549151D01*
X158943113Y-127000000D01*
X158833880Y-126450849D01*
X158522811Y-125985302D01*
X158140725Y-125730000D01*
X158522811Y-125474698D01*
X158833880Y-125009151D01*
X158943113Y-124460000D01*
X158833880Y-123910849D01*
X158522811Y-123445302D01*
X158140725Y-123190000D01*
X158522811Y-122934698D01*
X158833880Y-122469151D01*
X158943113Y-121920000D01*
X158833880Y-121370849D01*
X158522811Y-120905302D01*
X158140725Y-120650000D01*
X158522811Y-120394698D01*
X158833880Y-119929151D01*
X158943113Y-119380000D01*
X158833880Y-118830849D01*
X158522811Y-118365302D01*
X158327801Y-118235000D01*
X161610198Y-118235000D01*
X162259878Y-118884680D01*
X162259838Y-118930167D01*
X162401883Y-119273943D01*
X162664673Y-119537192D01*
X163008201Y-119679838D01*
X163380167Y-119680162D01*
X163723943Y-119538117D01*
X163755112Y-119507002D01*
X163830084Y-119507002D01*
X163708096Y-119729039D01*
X163868959Y-120117423D01*
X164244866Y-120532389D01*
X164461703Y-120635014D01*
X164057189Y-120905302D01*
X163746120Y-121370849D01*
X163636887Y-121920000D01*
X163746120Y-122469151D01*
X164057189Y-122934698D01*
X164439275Y-123190000D01*
X164057189Y-123445302D01*
X163746120Y-123910849D01*
X163636887Y-124460000D01*
X163746120Y-125009151D01*
X164057189Y-125474698D01*
X164201465Y-125571101D01*
X164064683Y-125596838D01*
X163848559Y-125735910D01*
X163703569Y-125948110D01*
X163652560Y-126200000D01*
X163652560Y-127800000D01*
X163696838Y-128035317D01*
X163835910Y-128251441D01*
X164048110Y-128396431D01*
X164300000Y-128447440D01*
X165900000Y-128447440D01*
X166135317Y-128403162D01*
X166351441Y-128264090D01*
X166496431Y-128051890D01*
X166547440Y-127800000D01*
X166547440Y-126200000D01*
X166503162Y-125964683D01*
X166364090Y-125748559D01*
X166151890Y-125603569D01*
X165996911Y-125572185D01*
X166142811Y-125474698D01*
X166312995Y-125220000D01*
X166370000Y-125220000D01*
X166660839Y-125162148D01*
X166907401Y-124997401D01*
X167319802Y-124585000D01*
X170588238Y-124585000D01*
X170435302Y-124687189D01*
X170124233Y-125152736D01*
X170015000Y-125701887D01*
X170015000Y-125758113D01*
X170124233Y-126307264D01*
X170435302Y-126772811D01*
X170900849Y-127083880D01*
X171450000Y-127193113D01*
X171999151Y-127083880D01*
X172464698Y-126772811D01*
X172653667Y-126490000D01*
X174021354Y-126490000D01*
X174042757Y-126541800D01*
X174446077Y-126945824D01*
X174973309Y-127164750D01*
X175544187Y-127165248D01*
X176071800Y-126947243D01*
X176475824Y-126543923D01*
X176694750Y-126016691D01*
X176695248Y-125445813D01*
X176477243Y-124918200D01*
X176144624Y-124585000D01*
X176530000Y-124585000D01*
X176820839Y-124527148D01*
X177067401Y-124362401D01*
X177939680Y-123490122D01*
X177985167Y-123490162D01*
X178328943Y-123348117D01*
X178592192Y-123085327D01*
X178734838Y-122741799D01*
X178735162Y-122369833D01*
X178593117Y-122026057D01*
X178330327Y-121762808D01*
X177986799Y-121620162D01*
X177614833Y-121619838D01*
X177271057Y-121761883D01*
X177007808Y-122024673D01*
X176865162Y-122368201D01*
X176865121Y-122415077D01*
X176215198Y-123065000D01*
X167005000Y-123065000D01*
X166714161Y-123122852D01*
X166467599Y-123287599D01*
X166209736Y-123545462D01*
X166142811Y-123445302D01*
X165760725Y-123190000D01*
X166142811Y-122934698D01*
X166453880Y-122469151D01*
X166563113Y-121920000D01*
X166453880Y-121370849D01*
X166142811Y-120905302D01*
X165738297Y-120635014D01*
X165955134Y-120532389D01*
X166331041Y-120117423D01*
X166491904Y-119729039D01*
X166369915Y-119507000D01*
X165227000Y-119507000D01*
X165227000Y-119527000D01*
X164973000Y-119527000D01*
X164973000Y-119507000D01*
X164953000Y-119507000D01*
X164953000Y-119253000D01*
X164973000Y-119253000D01*
X164973000Y-118109371D01*
X165227000Y-118109371D01*
X165227000Y-119253000D01*
X166369915Y-119253000D01*
X166444224Y-119117745D01*
X170621861Y-119117745D01*
X170695995Y-119363864D01*
X171233223Y-119556965D01*
X171803454Y-119529778D01*
X172204005Y-119363864D01*
X172278139Y-119117745D01*
X171450000Y-118289605D01*
X170621861Y-119117745D01*
X166444224Y-119117745D01*
X166491904Y-119030961D01*
X166331041Y-118642577D01*
X165955134Y-118227611D01*
X165449041Y-117988086D01*
X165227000Y-118109371D01*
X164973000Y-118109371D01*
X164750959Y-117988086D01*
X164244866Y-118227611D01*
X164071821Y-118418636D01*
X163988117Y-118216057D01*
X163725327Y-117952808D01*
X163581832Y-117893223D01*
X170003035Y-117893223D01*
X170030222Y-118463454D01*
X170196136Y-118864005D01*
X170442255Y-118938139D01*
X171270395Y-118110000D01*
X171629605Y-118110000D01*
X172457745Y-118938139D01*
X172703864Y-118864005D01*
X172896965Y-118326777D01*
X172885290Y-118081887D01*
X173825000Y-118081887D01*
X173825000Y-118138113D01*
X173934233Y-118687264D01*
X174245302Y-119152811D01*
X174710849Y-119463880D01*
X175260000Y-119573113D01*
X175809151Y-119463880D01*
X176274698Y-119152811D01*
X176585767Y-118687264D01*
X176695000Y-118138113D01*
X176695000Y-118081887D01*
X176585767Y-117532736D01*
X176274698Y-117067189D01*
X175809151Y-116756120D01*
X175260000Y-116646887D01*
X174710849Y-116756120D01*
X174245302Y-117067189D01*
X173934233Y-117532736D01*
X173825000Y-118081887D01*
X172885290Y-118081887D01*
X172869778Y-117756546D01*
X172703864Y-117355995D01*
X172457745Y-117281861D01*
X171629605Y-118110000D01*
X171270395Y-118110000D01*
X170442255Y-117281861D01*
X170196136Y-117355995D01*
X170003035Y-117893223D01*
X163581832Y-117893223D01*
X163381799Y-117810162D01*
X163334923Y-117810121D01*
X162627057Y-117102255D01*
X170621861Y-117102255D01*
X171450000Y-117930395D01*
X172278139Y-117102255D01*
X172204005Y-116856136D01*
X171666777Y-116663035D01*
X171096546Y-116690222D01*
X170695995Y-116856136D01*
X170621861Y-117102255D01*
X162627057Y-117102255D01*
X162462401Y-116937599D01*
X162215839Y-116772852D01*
X161925000Y-116715000D01*
X149615714Y-116715000D01*
X149890551Y-116440643D01*
X150124733Y-115876670D01*
X150125265Y-115266009D01*
X149892068Y-114701629D01*
X149714908Y-114524159D01*
X149849699Y-114468327D01*
X150028327Y-114289698D01*
X150125000Y-114056309D01*
X150125000Y-113315750D01*
X149966250Y-113157000D01*
X148717000Y-113157000D01*
X148717000Y-113177000D01*
X148463000Y-113177000D01*
X148463000Y-113157000D01*
X148443000Y-113157000D01*
X148443000Y-112903000D01*
X148463000Y-112903000D01*
X148463000Y-111653750D01*
X148717000Y-111653750D01*
X148717000Y-112903000D01*
X149966250Y-112903000D01*
X150125000Y-112744250D01*
X150125000Y-112003691D01*
X150028327Y-111770302D01*
X149849699Y-111591673D01*
X149616310Y-111495000D01*
X148875750Y-111495000D01*
X148717000Y-111653750D01*
X148463000Y-111653750D01*
X148304250Y-111495000D01*
X147563690Y-111495000D01*
X147330301Y-111591673D01*
X147151673Y-111770302D01*
X147055000Y-112003691D01*
X147055000Y-112744250D01*
X147160999Y-112850249D01*
X146871799Y-112730162D01*
X146499833Y-112729838D01*
X146156057Y-112871883D01*
X145892808Y-113134673D01*
X145750162Y-113478201D01*
X145750121Y-113525077D01*
X144005320Y-115269878D01*
X143959833Y-115269838D01*
X143667439Y-115390653D01*
X143593880Y-115020849D01*
X143282811Y-114555302D01*
X142817264Y-114244233D01*
X142268113Y-114135000D01*
X142211887Y-114135000D01*
X141662736Y-114244233D01*
X141197189Y-114555302D01*
X140886120Y-115020849D01*
X140776887Y-115570000D01*
X140886120Y-116119151D01*
X141197189Y-116584698D01*
X141392199Y-116715000D01*
X135504169Y-116715000D01*
X135835824Y-116383923D01*
X136054750Y-115856691D01*
X136055248Y-115285813D01*
X135837243Y-114758200D01*
X135433923Y-114354176D01*
X134906691Y-114135250D01*
X134335813Y-114134752D01*
X133808200Y-114352757D01*
X133404176Y-114756077D01*
X133381785Y-114810000D01*
X132430832Y-114810000D01*
X132260648Y-114555302D01*
X131878562Y-114300000D01*
X132260648Y-114044698D01*
X132430832Y-113790000D01*
X133350000Y-113790000D01*
X133640839Y-113732148D01*
X133887401Y-113567401D01*
X134281546Y-113173256D01*
X134333309Y-113194750D01*
X134904187Y-113195248D01*
X135431800Y-112977243D01*
X135835824Y-112573923D01*
X136054750Y-112046691D01*
X136055000Y-111760000D01*
X140776887Y-111760000D01*
X140886120Y-112309151D01*
X141197189Y-112774698D01*
X141662736Y-113085767D01*
X142211887Y-113195000D01*
X142268113Y-113195000D01*
X142817264Y-113085767D01*
X143282811Y-112774698D01*
X143593880Y-112309151D01*
X143703113Y-111760000D01*
X143593880Y-111210849D01*
X143282811Y-110745302D01*
X142817264Y-110434233D01*
X142268113Y-110325000D01*
X142211887Y-110325000D01*
X141662736Y-110434233D01*
X141197189Y-110745302D01*
X140886120Y-111210849D01*
X140776887Y-111760000D01*
X136055000Y-111760000D01*
X136055248Y-111475813D01*
X135837243Y-110948200D01*
X135433923Y-110544176D01*
X135131290Y-110418512D01*
X135569802Y-109980000D01*
X144217537Y-109980000D01*
X144249673Y-110012192D01*
X144593201Y-110154838D01*
X144965167Y-110155162D01*
X145308943Y-110013117D01*
X145572192Y-109750327D01*
X145673576Y-109506167D01*
X153494750Y-109506167D01*
X153714275Y-110037457D01*
X154120405Y-110444297D01*
X154651311Y-110664748D01*
X155226167Y-110665250D01*
X155757457Y-110445725D01*
X156164297Y-110039595D01*
X156384748Y-109508689D01*
X156384769Y-109485033D01*
X157794802Y-108075000D01*
X159041677Y-108075000D01*
X158715703Y-108400405D01*
X158495252Y-108931311D01*
X158494750Y-109506167D01*
X158714275Y-110037457D01*
X159120405Y-110444297D01*
X159651311Y-110664748D01*
X160226167Y-110665250D01*
X160757457Y-110445725D01*
X161164297Y-110039595D01*
X161384748Y-109508689D01*
X161385250Y-108933833D01*
X161165725Y-108402543D01*
X160838754Y-108075000D01*
X161610198Y-108075000D01*
X162431312Y-108896114D01*
X162366887Y-109220000D01*
X162476120Y-109769151D01*
X162787189Y-110234698D01*
X162982199Y-110365000D01*
X161290000Y-110365000D01*
X160999161Y-110422852D01*
X160752599Y-110587599D01*
X158302008Y-113038190D01*
X158259595Y-112995703D01*
X157728689Y-112775252D01*
X157153833Y-112774750D01*
X156622543Y-112994275D01*
X156215703Y-113400405D01*
X155995252Y-113931311D01*
X155994750Y-114506167D01*
X156214275Y-115037457D01*
X156620405Y-115444297D01*
X157151311Y-115664748D01*
X157726167Y-115665250D01*
X158257457Y-115445725D01*
X158664297Y-115039595D01*
X158816320Y-114673482D01*
X161604802Y-111885000D01*
X162982199Y-111885000D01*
X162787189Y-112015302D01*
X162476120Y-112480849D01*
X162366887Y-113030000D01*
X162476120Y-113579151D01*
X162787189Y-114044698D01*
X163252736Y-114355767D01*
X163801887Y-114465000D01*
X163858113Y-114465000D01*
X164407264Y-114355767D01*
X164872811Y-114044698D01*
X165183880Y-113579151D01*
X165236584Y-113314187D01*
X170014752Y-113314187D01*
X170232757Y-113841800D01*
X170636077Y-114245824D01*
X171163309Y-114464750D01*
X171734187Y-114465248D01*
X172261800Y-114247243D01*
X172665824Y-113843923D01*
X172884750Y-113316691D01*
X172885248Y-112745813D01*
X172667243Y-112218200D01*
X172263923Y-111814176D01*
X171736691Y-111595250D01*
X171165813Y-111594752D01*
X170638200Y-111812757D01*
X170234176Y-112216077D01*
X170015250Y-112743309D01*
X170014752Y-113314187D01*
X165236584Y-113314187D01*
X165293113Y-113030000D01*
X165183880Y-112480849D01*
X164872811Y-112015302D01*
X164677801Y-111885000D01*
X169545000Y-111885000D01*
X169835839Y-111827148D01*
X170082401Y-111662401D01*
X171111546Y-110633256D01*
X171163309Y-110654750D01*
X171734187Y-110655248D01*
X172237487Y-110447289D01*
X175128141Y-113337943D01*
X175176120Y-113579151D01*
X175487189Y-114044698D01*
X175952736Y-114355767D01*
X176501887Y-114465000D01*
X176558113Y-114465000D01*
X177107264Y-114355767D01*
X177572811Y-114044698D01*
X177883880Y-113579151D01*
X177993113Y-113030000D01*
X177883880Y-112480849D01*
X177572811Y-112015302D01*
X177107264Y-111704233D01*
X176558113Y-111595000D01*
X176501887Y-111595000D01*
X175952736Y-111704233D01*
X175767683Y-111827881D01*
X173159802Y-109220000D01*
X175066887Y-109220000D01*
X175176120Y-109769151D01*
X175487189Y-110234698D01*
X175952736Y-110545767D01*
X176501887Y-110655000D01*
X176558113Y-110655000D01*
X176835102Y-110599904D01*
X179802599Y-113567401D01*
X180049161Y-113732148D01*
X180340000Y-113790000D01*
X182911354Y-113790000D01*
X182932757Y-113841800D01*
X183336077Y-114245824D01*
X183863309Y-114464750D01*
X184434187Y-114465248D01*
X184961800Y-114247243D01*
X185365824Y-113843923D01*
X185584750Y-113316691D01*
X185585248Y-112745813D01*
X185367243Y-112218200D01*
X184963923Y-111814176D01*
X184436691Y-111595250D01*
X183865813Y-111594752D01*
X183338200Y-111812757D01*
X182934176Y-112216077D01*
X182911785Y-112270000D01*
X180654802Y-112270000D01*
X177928688Y-109543886D01*
X177936584Y-109504187D01*
X182714752Y-109504187D01*
X182932757Y-110031800D01*
X183336077Y-110435824D01*
X183863309Y-110654750D01*
X184434187Y-110655248D01*
X184961800Y-110437243D01*
X185365824Y-110033923D01*
X185584750Y-109506691D01*
X185585248Y-108935813D01*
X185367243Y-108408200D01*
X184963923Y-108004176D01*
X184436691Y-107785250D01*
X183865813Y-107784752D01*
X183338200Y-108002757D01*
X182934176Y-108406077D01*
X182715250Y-108933309D01*
X182714752Y-109504187D01*
X177936584Y-109504187D01*
X177993113Y-109220000D01*
X177883880Y-108670849D01*
X177572811Y-108205302D01*
X177107264Y-107894233D01*
X176558113Y-107785000D01*
X176501887Y-107785000D01*
X175952736Y-107894233D01*
X175487189Y-108205302D01*
X175176120Y-108670849D01*
X175066887Y-109220000D01*
X173159802Y-109220000D01*
X172885240Y-108945438D01*
X172885248Y-108935813D01*
X172667243Y-108408200D01*
X172263923Y-108004176D01*
X171736691Y-107785250D01*
X171165813Y-107784752D01*
X170638200Y-108002757D01*
X170234176Y-108406077D01*
X170015250Y-108933309D01*
X170014752Y-109504187D01*
X170037049Y-109558149D01*
X169230198Y-110365000D01*
X164677801Y-110365000D01*
X164872811Y-110234698D01*
X165183880Y-109769151D01*
X165293113Y-109220000D01*
X165183880Y-108670849D01*
X164872811Y-108205302D01*
X164407264Y-107894233D01*
X163858113Y-107785000D01*
X163801887Y-107785000D01*
X163524898Y-107840096D01*
X162462401Y-106777599D01*
X162215839Y-106612852D01*
X161925000Y-106555000D01*
X157480000Y-106555000D01*
X157189161Y-106612852D01*
X156942599Y-106777599D01*
X155734793Y-107985405D01*
X155228689Y-107775252D01*
X154653833Y-107774750D01*
X154122543Y-107994275D01*
X153715703Y-108400405D01*
X153495252Y-108931311D01*
X153494750Y-109506167D01*
X145673576Y-109506167D01*
X145714838Y-109406799D01*
X145715162Y-109034833D01*
X145573117Y-108691057D01*
X145310327Y-108427808D01*
X144966799Y-108285162D01*
X144594833Y-108284838D01*
X144251057Y-108426883D01*
X144217882Y-108460000D01*
X143601668Y-108460000D01*
X143642645Y-108253991D01*
X147054735Y-108253991D01*
X147287932Y-108818371D01*
X147719357Y-109250551D01*
X148283330Y-109484733D01*
X148893991Y-109485265D01*
X149458371Y-109252068D01*
X149890551Y-108820643D01*
X150124733Y-108256670D01*
X150125265Y-107646009D01*
X149892068Y-107081629D01*
X149714908Y-106904159D01*
X149849699Y-106848327D01*
X150028327Y-106669698D01*
X150125000Y-106436309D01*
X150125000Y-105695750D01*
X150123437Y-105694187D01*
X175094752Y-105694187D01*
X175312757Y-106221800D01*
X175716077Y-106625824D01*
X176243309Y-106844750D01*
X176814187Y-106845248D01*
X177341800Y-106627243D01*
X177745824Y-106223923D01*
X177964750Y-105696691D01*
X177965000Y-105410000D01*
X182686887Y-105410000D01*
X182796120Y-105959151D01*
X183107189Y-106424698D01*
X183572736Y-106735767D01*
X184121887Y-106845000D01*
X184178113Y-106845000D01*
X184727264Y-106735767D01*
X185192811Y-106424698D01*
X185503880Y-105959151D01*
X185613113Y-105410000D01*
X185503880Y-104860849D01*
X185192811Y-104395302D01*
X184727264Y-104084233D01*
X184178113Y-103975000D01*
X184121887Y-103975000D01*
X183572736Y-104084233D01*
X183107189Y-104395302D01*
X182796120Y-104860849D01*
X182686887Y-105410000D01*
X177965000Y-105410000D01*
X177965248Y-105125813D01*
X177747243Y-104598200D01*
X177343923Y-104194176D01*
X176816691Y-103975250D01*
X176245813Y-103974752D01*
X175718200Y-104192757D01*
X175314176Y-104596077D01*
X175095250Y-105123309D01*
X175094752Y-105694187D01*
X150123437Y-105694187D01*
X149966250Y-105537000D01*
X148717000Y-105537000D01*
X148717000Y-105557000D01*
X148463000Y-105557000D01*
X148463000Y-105537000D01*
X147213750Y-105537000D01*
X147055000Y-105695750D01*
X147055000Y-106436309D01*
X147151673Y-106669698D01*
X147330301Y-106848327D01*
X147464994Y-106904119D01*
X147289449Y-107079357D01*
X147055267Y-107643330D01*
X147054735Y-108253991D01*
X143642645Y-108253991D01*
X143703113Y-107950000D01*
X143593880Y-107400849D01*
X143282811Y-106935302D01*
X142817264Y-106624233D01*
X142268113Y-106515000D01*
X142211887Y-106515000D01*
X141662736Y-106624233D01*
X141197189Y-106935302D01*
X140886120Y-107400849D01*
X140776887Y-107950000D01*
X140878332Y-108460000D01*
X135962024Y-108460000D01*
X136054750Y-108236691D01*
X136055248Y-107665813D01*
X135837243Y-107138200D01*
X135433923Y-106734176D01*
X134906691Y-106515250D01*
X134335813Y-106514752D01*
X133808200Y-106732757D01*
X133404176Y-107136077D01*
X133185250Y-107663309D01*
X133184752Y-108234187D01*
X133207049Y-108288149D01*
X132116328Y-109378870D01*
X131882293Y-109222493D01*
X132314500Y-108874896D01*
X132584367Y-108381819D01*
X132601904Y-108299039D01*
X132479915Y-108077000D01*
X130937000Y-108077000D01*
X130937000Y-108097000D01*
X130683000Y-108097000D01*
X130683000Y-108077000D01*
X129140085Y-108077000D01*
X129018096Y-108299039D01*
X129035633Y-108381819D01*
X129305500Y-108874896D01*
X129737707Y-109222493D01*
X129359352Y-109475302D01*
X129048283Y-109940849D01*
X128939050Y-110490000D01*
X129040495Y-111000000D01*
X128584802Y-111000000D01*
X127537401Y-109952599D01*
X127290839Y-109787852D01*
X127000000Y-109730000D01*
X124810832Y-109730000D01*
X124640648Y-109475302D01*
X124258562Y-109220000D01*
X124640648Y-108964698D01*
X124951717Y-108499151D01*
X125060950Y-107950000D01*
X124991522Y-107600961D01*
X129018096Y-107600961D01*
X129140085Y-107823000D01*
X130683000Y-107823000D01*
X130683000Y-106515000D01*
X130937000Y-106515000D01*
X130937000Y-107823000D01*
X132479915Y-107823000D01*
X132601904Y-107600961D01*
X132584367Y-107518181D01*
X132314500Y-107025104D01*
X131876483Y-106672834D01*
X131337000Y-106515000D01*
X130937000Y-106515000D01*
X130683000Y-106515000D01*
X130283000Y-106515000D01*
X129743517Y-106672834D01*
X129305500Y-107025104D01*
X129035633Y-107518181D01*
X129018096Y-107600961D01*
X124991522Y-107600961D01*
X124951717Y-107400849D01*
X124640648Y-106935302D01*
X124175101Y-106624233D01*
X123625950Y-106515000D01*
X122754050Y-106515000D01*
X122204899Y-106624233D01*
X121739352Y-106935302D01*
X121428283Y-107400849D01*
X121319050Y-107950000D01*
X121428283Y-108499151D01*
X121739352Y-108964698D01*
X122121438Y-109220000D01*
X121739352Y-109475302D01*
X121428283Y-109940849D01*
X121319050Y-110490000D01*
X121428283Y-111039151D01*
X121739352Y-111504698D01*
X122121438Y-111760000D01*
X121739352Y-112015302D01*
X121428283Y-112480849D01*
X121319050Y-113030000D01*
X121428283Y-113579151D01*
X121739352Y-114044698D01*
X122121438Y-114300000D01*
X121739352Y-114555302D01*
X121569168Y-114810000D01*
X118287440Y-114810000D01*
X118287440Y-114770000D01*
X118243162Y-114534683D01*
X118104090Y-114318559D01*
X118097452Y-114314023D01*
X118286965Y-113786777D01*
X118259778Y-113216546D01*
X118093864Y-112815995D01*
X117847745Y-112741861D01*
X117019605Y-113570000D01*
X117033748Y-113584142D01*
X116854143Y-113763748D01*
X116840000Y-113749605D01*
X116825858Y-113763748D01*
X116646252Y-113584142D01*
X116660395Y-113570000D01*
X115832255Y-112741861D01*
X115586136Y-112815995D01*
X115393035Y-113353223D01*
X115420222Y-113923454D01*
X115582384Y-114314947D01*
X115443569Y-114518110D01*
X115392560Y-114770000D01*
X110615375Y-114770000D01*
X110290600Y-114105240D01*
X109663041Y-112562255D01*
X116011861Y-112562255D01*
X116840000Y-113390395D01*
X117668139Y-112562255D01*
X117594005Y-112316136D01*
X117056777Y-112123035D01*
X116486546Y-112150222D01*
X116085995Y-112316136D01*
X116011861Y-112562255D01*
X109663041Y-112562255D01*
X109144743Y-111287913D01*
X108453383Y-109220000D01*
X110296887Y-109220000D01*
X110406120Y-109769151D01*
X110717189Y-110234698D01*
X111182736Y-110545767D01*
X111731887Y-110655000D01*
X111788113Y-110655000D01*
X112337264Y-110545767D01*
X112802811Y-110234698D01*
X113113880Y-109769151D01*
X113166584Y-109504187D01*
X117944752Y-109504187D01*
X118162757Y-110031800D01*
X118566077Y-110435824D01*
X119093309Y-110654750D01*
X119664187Y-110655248D01*
X120191800Y-110437243D01*
X120595824Y-110033923D01*
X120814750Y-109506691D01*
X120815248Y-108935813D01*
X120597243Y-108408200D01*
X120193923Y-108004176D01*
X119666691Y-107785250D01*
X119095813Y-107784752D01*
X118568200Y-108002757D01*
X118164176Y-108406077D01*
X117945250Y-108933309D01*
X117944752Y-109504187D01*
X113166584Y-109504187D01*
X113223113Y-109220000D01*
X113113880Y-108670849D01*
X112802811Y-108205302D01*
X112337264Y-107894233D01*
X111788113Y-107785000D01*
X111731887Y-107785000D01*
X111182736Y-107894233D01*
X110717189Y-108205302D01*
X110406120Y-108670849D01*
X110296887Y-109220000D01*
X108453383Y-109220000D01*
X108207453Y-108484404D01*
X107456327Y-105707615D01*
X107453447Y-105694187D01*
X110324752Y-105694187D01*
X110542757Y-106221800D01*
X110946077Y-106625824D01*
X111473309Y-106844750D01*
X112044187Y-106845248D01*
X112571800Y-106627243D01*
X112975824Y-106223923D01*
X113168860Y-105759039D01*
X117988096Y-105759039D01*
X118148959Y-106147423D01*
X118524866Y-106562389D01*
X119030959Y-106801914D01*
X119253000Y-106680629D01*
X119253000Y-105537000D01*
X119507000Y-105537000D01*
X119507000Y-106680629D01*
X119729041Y-106801914D01*
X120235134Y-106562389D01*
X120611041Y-106147423D01*
X120771904Y-105759039D01*
X120649915Y-105537000D01*
X119507000Y-105537000D01*
X119253000Y-105537000D01*
X118110085Y-105537000D01*
X117988096Y-105759039D01*
X113168860Y-105759039D01*
X113194750Y-105696691D01*
X113195248Y-105125813D01*
X113168452Y-105060961D01*
X117988096Y-105060961D01*
X118110085Y-105283000D01*
X119253000Y-105283000D01*
X119253000Y-104139371D01*
X119507000Y-104139371D01*
X119507000Y-105283000D01*
X120649915Y-105283000D01*
X120771904Y-105060961D01*
X120611041Y-104672577D01*
X120235134Y-104257611D01*
X119729041Y-104018086D01*
X119507000Y-104139371D01*
X119253000Y-104139371D01*
X119030959Y-104018086D01*
X118524866Y-104257611D01*
X118148959Y-104672577D01*
X117988096Y-105060961D01*
X113168452Y-105060961D01*
X112977243Y-104598200D01*
X112573923Y-104194176D01*
X112046691Y-103975250D01*
X111475813Y-103974752D01*
X110948200Y-104192757D01*
X110544176Y-104596077D01*
X110325250Y-105123309D01*
X110324752Y-105694187D01*
X107453447Y-105694187D01*
X106994536Y-103555000D01*
X122540622Y-103555000D01*
X122655564Y-104132852D01*
X122982891Y-104622731D01*
X123472770Y-104950058D01*
X124050622Y-105065000D01*
X125129378Y-105065000D01*
X125707230Y-104950058D01*
X126197109Y-104622731D01*
X126356830Y-104383691D01*
X147055000Y-104383691D01*
X147055000Y-105124250D01*
X147213750Y-105283000D01*
X148463000Y-105283000D01*
X148463000Y-104033750D01*
X148717000Y-104033750D01*
X148717000Y-105283000D01*
X149966250Y-105283000D01*
X150125000Y-105124250D01*
X150125000Y-104383691D01*
X150028327Y-104150302D01*
X149849699Y-103971673D01*
X149616310Y-103875000D01*
X148875750Y-103875000D01*
X148717000Y-104033750D01*
X148463000Y-104033750D01*
X148304250Y-103875000D01*
X147563690Y-103875000D01*
X147330301Y-103971673D01*
X147151673Y-104150302D01*
X147055000Y-104383691D01*
X126356830Y-104383691D01*
X126524436Y-104132852D01*
X126639378Y-103555000D01*
X126524436Y-102977148D01*
X126197109Y-102487269D01*
X126096684Y-102420167D01*
X143844838Y-102420167D01*
X143986883Y-102763943D01*
X144249673Y-103027192D01*
X144593201Y-103169838D01*
X144965167Y-103170162D01*
X145243476Y-103055167D01*
X155274838Y-103055167D01*
X155416883Y-103398943D01*
X155679673Y-103662192D01*
X156023201Y-103804838D01*
X156070077Y-103804879D01*
X156307599Y-104042401D01*
X156554161Y-104207148D01*
X156845000Y-104265000D01*
X172405198Y-104265000D01*
X172419878Y-104279680D01*
X172419838Y-104325167D01*
X172561883Y-104668943D01*
X172824673Y-104932192D01*
X173168201Y-105074838D01*
X173540167Y-105075162D01*
X173883943Y-104933117D01*
X174147192Y-104670327D01*
X174289838Y-104326799D01*
X174290162Y-103954833D01*
X174148117Y-103611057D01*
X173885327Y-103347808D01*
X173541799Y-103205162D01*
X173494923Y-103205121D01*
X173257401Y-102967599D01*
X173010839Y-102802852D01*
X172720000Y-102745000D01*
X157159802Y-102745000D01*
X157145122Y-102730320D01*
X157145162Y-102684833D01*
X157003117Y-102341057D01*
X156740327Y-102077808D01*
X156396799Y-101935162D01*
X156024833Y-101934838D01*
X155681057Y-102076883D01*
X155417808Y-102339673D01*
X155275162Y-102683201D01*
X155274838Y-103055167D01*
X145243476Y-103055167D01*
X145308943Y-103028117D01*
X145572192Y-102765327D01*
X145714838Y-102421799D01*
X145714879Y-102374923D01*
X146999802Y-101090000D01*
X147243154Y-101090000D01*
X147287932Y-101198371D01*
X147719357Y-101630551D01*
X148283330Y-101864733D01*
X148893991Y-101865265D01*
X149458371Y-101632068D01*
X149890551Y-101200643D01*
X150124733Y-100636670D01*
X150124838Y-100515167D01*
X154004838Y-100515167D01*
X154146883Y-100858943D01*
X154409673Y-101122192D01*
X154753201Y-101264838D01*
X154800077Y-101264879D01*
X155037599Y-101502401D01*
X155284161Y-101667148D01*
X155575000Y-101725000D01*
X167960198Y-101725000D01*
X167974878Y-101739680D01*
X167974838Y-101785167D01*
X168116883Y-102128943D01*
X168379673Y-102392192D01*
X168723201Y-102534838D01*
X169095167Y-102535162D01*
X169438943Y-102393117D01*
X169702192Y-102130327D01*
X169844838Y-101786799D01*
X169845162Y-101414833D01*
X169703117Y-101071057D01*
X169440327Y-100807808D01*
X169096799Y-100665162D01*
X169049923Y-100665121D01*
X168812401Y-100427599D01*
X168565839Y-100262852D01*
X168275000Y-100205000D01*
X155889802Y-100205000D01*
X155875122Y-100190320D01*
X155875162Y-100144833D01*
X155733117Y-99801057D01*
X155470327Y-99537808D01*
X155126799Y-99395162D01*
X154754833Y-99394838D01*
X154411057Y-99536883D01*
X154147808Y-99799673D01*
X154005162Y-100143201D01*
X154004838Y-100515167D01*
X150124838Y-100515167D01*
X150125265Y-100026009D01*
X149892068Y-99461629D01*
X149714908Y-99284159D01*
X149849699Y-99228327D01*
X150028327Y-99049698D01*
X150125000Y-98816309D01*
X150125000Y-98075750D01*
X149966250Y-97917000D01*
X148717000Y-97917000D01*
X148717000Y-97937000D01*
X148463000Y-97937000D01*
X148463000Y-97917000D01*
X147213750Y-97917000D01*
X147055000Y-98075750D01*
X147055000Y-98816309D01*
X147151673Y-99049698D01*
X147330301Y-99228327D01*
X147464994Y-99284119D01*
X147289449Y-99459357D01*
X147243506Y-99570000D01*
X146685000Y-99570000D01*
X146394161Y-99627852D01*
X146147599Y-99792599D01*
X144640320Y-101299878D01*
X144594833Y-101299838D01*
X144251057Y-101441883D01*
X143987808Y-101704673D01*
X143845162Y-102048201D01*
X143844838Y-102420167D01*
X126096684Y-102420167D01*
X125707230Y-102159942D01*
X125129378Y-102045000D01*
X124050622Y-102045000D01*
X123472770Y-102159942D01*
X122982891Y-102487269D01*
X122655564Y-102977148D01*
X122540622Y-103555000D01*
X106994536Y-103555000D01*
X106869354Y-102971477D01*
X106432701Y-100289203D01*
X106317837Y-99245167D01*
X141304838Y-99245167D01*
X141446883Y-99588943D01*
X141709673Y-99852192D01*
X142053201Y-99994838D01*
X142425167Y-99995162D01*
X142768943Y-99853117D01*
X143032192Y-99590327D01*
X143174838Y-99246799D01*
X143174879Y-99199923D01*
X145094802Y-97280000D01*
X145487537Y-97280000D01*
X145519673Y-97312192D01*
X145863201Y-97454838D01*
X146235167Y-97455162D01*
X146578943Y-97313117D01*
X146842192Y-97050327D01*
X146961214Y-96763691D01*
X147055000Y-96763691D01*
X147055000Y-97504250D01*
X147213750Y-97663000D01*
X148463000Y-97663000D01*
X148463000Y-96413750D01*
X148717000Y-96413750D01*
X148717000Y-97663000D01*
X149966250Y-97663000D01*
X150125000Y-97504250D01*
X150125000Y-96763691D01*
X150028327Y-96530302D01*
X149849699Y-96351673D01*
X149616310Y-96255000D01*
X148875750Y-96255000D01*
X148717000Y-96413750D01*
X148463000Y-96413750D01*
X148304250Y-96255000D01*
X147563690Y-96255000D01*
X147330301Y-96351673D01*
X147151673Y-96530302D01*
X147055000Y-96763691D01*
X146961214Y-96763691D01*
X146984838Y-96706799D01*
X146985162Y-96334833D01*
X146843117Y-95991057D01*
X146580327Y-95727808D01*
X146236799Y-95585162D01*
X145864833Y-95584838D01*
X145521057Y-95726883D01*
X145487882Y-95760000D01*
X144780000Y-95760000D01*
X144537414Y-95808254D01*
X144489160Y-95817852D01*
X144242599Y-95982599D01*
X142100320Y-98124878D01*
X142054833Y-98124838D01*
X141711057Y-98266883D01*
X141447808Y-98529673D01*
X141305162Y-98873201D01*
X141304838Y-99245167D01*
X106317837Y-99245167D01*
X106144449Y-97669208D01*
X106003339Y-95117938D01*
X106007344Y-93013991D01*
X147054735Y-93013991D01*
X147287932Y-93578371D01*
X147719357Y-94010551D01*
X148283330Y-94244733D01*
X148893991Y-94245265D01*
X149458371Y-94012068D01*
X149890551Y-93580643D01*
X149911510Y-93530167D01*
X169244838Y-93530167D01*
X169386883Y-93873943D01*
X169649673Y-94137192D01*
X169993201Y-94279838D01*
X170040077Y-94279879D01*
X170912599Y-95152401D01*
X171159160Y-95317148D01*
X171450000Y-95375000D01*
X181295198Y-95375000D01*
X181944878Y-96024680D01*
X181944838Y-96070167D01*
X182086883Y-96413943D01*
X182349673Y-96677192D01*
X182693201Y-96819838D01*
X183065167Y-96820162D01*
X183408943Y-96678117D01*
X183672192Y-96415327D01*
X183814838Y-96071799D01*
X183815162Y-95699833D01*
X183673117Y-95356057D01*
X183410327Y-95092808D01*
X183066799Y-94950162D01*
X183019923Y-94950121D01*
X182147401Y-94077599D01*
X181900839Y-93912852D01*
X181610000Y-93855000D01*
X176060633Y-93855000D01*
X176194838Y-93531799D01*
X176195162Y-93159833D01*
X176053117Y-92816057D01*
X175790327Y-92552808D01*
X175446799Y-92410162D01*
X175399923Y-92410121D01*
X174527401Y-91537599D01*
X174280839Y-91372852D01*
X173990000Y-91315000D01*
X173669802Y-91315000D01*
X173020122Y-90665320D01*
X173020162Y-90619833D01*
X172878117Y-90276057D01*
X172615327Y-90012808D01*
X172271799Y-89870162D01*
X171899833Y-89869838D01*
X171556057Y-90011883D01*
X171292808Y-90274673D01*
X171150162Y-90618201D01*
X171149838Y-90990167D01*
X171291883Y-91333943D01*
X171554673Y-91597192D01*
X171898201Y-91739838D01*
X171945077Y-91739879D01*
X172817599Y-92612401D01*
X173064160Y-92777148D01*
X173355000Y-92835000D01*
X173675198Y-92835000D01*
X174324878Y-93484680D01*
X174324838Y-93530167D01*
X174459056Y-93855000D01*
X171764802Y-93855000D01*
X171115122Y-93205320D01*
X171115162Y-93159833D01*
X170973117Y-92816057D01*
X170710327Y-92552808D01*
X170366799Y-92410162D01*
X169994833Y-92409838D01*
X169651057Y-92551883D01*
X169387808Y-92814673D01*
X169245162Y-93158201D01*
X169244838Y-93530167D01*
X149911510Y-93530167D01*
X150124733Y-93016670D01*
X150125265Y-92406009D01*
X149892068Y-91841629D01*
X149714908Y-91664159D01*
X149849699Y-91608327D01*
X150028327Y-91429698D01*
X150125000Y-91196309D01*
X150125000Y-90455750D01*
X149966250Y-90297000D01*
X148717000Y-90297000D01*
X148717000Y-90317000D01*
X148463000Y-90317000D01*
X148463000Y-90297000D01*
X147213750Y-90297000D01*
X147055000Y-90455750D01*
X147055000Y-91196309D01*
X147151673Y-91429698D01*
X147330301Y-91608327D01*
X147464994Y-91664119D01*
X147289449Y-91839357D01*
X147055267Y-92403330D01*
X147054735Y-93013991D01*
X106007344Y-93013991D01*
X106008053Y-92641816D01*
X106103098Y-91115816D01*
X122623742Y-91115816D01*
X122646341Y-91215519D01*
X122932466Y-91732928D01*
X123394815Y-92101457D01*
X123963000Y-92265000D01*
X124463000Y-92265000D01*
X124463000Y-90882000D01*
X124717000Y-90882000D01*
X124717000Y-92265000D01*
X125217000Y-92265000D01*
X125785185Y-92101457D01*
X126247534Y-91732928D01*
X126533659Y-91215519D01*
X126556258Y-91115816D01*
X126435269Y-90882000D01*
X124717000Y-90882000D01*
X124463000Y-90882000D01*
X122744731Y-90882000D01*
X122623742Y-91115816D01*
X106103098Y-91115816D01*
X106148044Y-90394184D01*
X122623742Y-90394184D01*
X122744731Y-90628000D01*
X124463000Y-90628000D01*
X124463000Y-89245000D01*
X124717000Y-89245000D01*
X124717000Y-90628000D01*
X126435269Y-90628000D01*
X126556258Y-90394184D01*
X126533659Y-90294481D01*
X126247534Y-89777072D01*
X125785185Y-89408543D01*
X125217000Y-89245000D01*
X124717000Y-89245000D01*
X124463000Y-89245000D01*
X123963000Y-89245000D01*
X123394815Y-89408543D01*
X122932466Y-89777072D01*
X122646341Y-90294481D01*
X122623742Y-90394184D01*
X106148044Y-90394184D01*
X106157200Y-90247190D01*
X106296943Y-89143691D01*
X147055000Y-89143691D01*
X147055000Y-89884250D01*
X147213750Y-90043000D01*
X148463000Y-90043000D01*
X148463000Y-88793750D01*
X148717000Y-88793750D01*
X148717000Y-90043000D01*
X149966250Y-90043000D01*
X150125000Y-89884250D01*
X150125000Y-89143691D01*
X150028327Y-88910302D01*
X149849699Y-88731673D01*
X149616310Y-88635000D01*
X148875750Y-88635000D01*
X148717000Y-88793750D01*
X148463000Y-88793750D01*
X148304250Y-88635000D01*
X147563690Y-88635000D01*
X147330301Y-88731673D01*
X147151673Y-88910302D01*
X147055000Y-89143691D01*
X106296943Y-89143691D01*
X106449337Y-87940292D01*
X106595559Y-87194050D01*
X154775000Y-87194050D01*
X154775000Y-88065950D01*
X154884233Y-88615101D01*
X155195302Y-89080648D01*
X155660849Y-89391717D01*
X156210000Y-89500950D01*
X156759151Y-89391717D01*
X157224698Y-89080648D01*
X157480000Y-88698562D01*
X157735302Y-89080648D01*
X158200849Y-89391717D01*
X158750000Y-89500950D01*
X159299151Y-89391717D01*
X159764698Y-89080648D01*
X160020000Y-88698562D01*
X160275302Y-89080648D01*
X160740849Y-89391717D01*
X161290000Y-89500950D01*
X161839151Y-89391717D01*
X162304698Y-89080648D01*
X162557507Y-88702293D01*
X162905104Y-89134500D01*
X163398181Y-89404367D01*
X163480961Y-89421904D01*
X163703000Y-89299915D01*
X163703000Y-87757000D01*
X163683000Y-87757000D01*
X163683000Y-87503000D01*
X163703000Y-87503000D01*
X163703000Y-85960085D01*
X163957000Y-85960085D01*
X163957000Y-87503000D01*
X163977000Y-87503000D01*
X163977000Y-87757000D01*
X163957000Y-87757000D01*
X163957000Y-89299915D01*
X164179039Y-89421904D01*
X164261819Y-89404367D01*
X164754896Y-89134500D01*
X165102493Y-88702293D01*
X165355302Y-89080648D01*
X165820849Y-89391717D01*
X166370000Y-89500950D01*
X166919151Y-89391717D01*
X167384698Y-89080648D01*
X167640000Y-88698562D01*
X167895302Y-89080648D01*
X168360849Y-89391717D01*
X168910000Y-89500950D01*
X169459151Y-89391717D01*
X169924698Y-89080648D01*
X170180000Y-88698562D01*
X170435302Y-89080648D01*
X170900849Y-89391717D01*
X171450000Y-89500950D01*
X171999151Y-89391717D01*
X172464698Y-89080648D01*
X172775767Y-88615101D01*
X172885000Y-88065950D01*
X172885000Y-87194050D01*
X172775767Y-86644899D01*
X172464698Y-86179352D01*
X171999151Y-85868283D01*
X171450000Y-85759050D01*
X170900849Y-85868283D01*
X170435302Y-86179352D01*
X170180000Y-86561438D01*
X169924698Y-86179352D01*
X169459151Y-85868283D01*
X168910000Y-85759050D01*
X168360849Y-85868283D01*
X167895302Y-86179352D01*
X167640000Y-86561438D01*
X167384698Y-86179352D01*
X166919151Y-85868283D01*
X166370000Y-85759050D01*
X165820849Y-85868283D01*
X165355302Y-86179352D01*
X165102493Y-86557707D01*
X164754896Y-86125500D01*
X164261819Y-85855633D01*
X164179039Y-85838096D01*
X163957000Y-85960085D01*
X163703000Y-85960085D01*
X163480961Y-85838096D01*
X163398181Y-85855633D01*
X162905104Y-86125500D01*
X162557507Y-86557707D01*
X162401130Y-86323672D01*
X163509802Y-85215000D01*
X180660198Y-85215000D01*
X180674878Y-85229680D01*
X180674838Y-85275167D01*
X180816883Y-85618943D01*
X181079673Y-85882192D01*
X181423201Y-86024838D01*
X181795167Y-86025162D01*
X182138943Y-85883117D01*
X182402192Y-85620327D01*
X182544838Y-85276799D01*
X182545162Y-84904833D01*
X182403117Y-84561057D01*
X182140327Y-84297808D01*
X181796799Y-84155162D01*
X181749923Y-84155121D01*
X181512401Y-83917599D01*
X181265839Y-83752852D01*
X180975000Y-83695000D01*
X163195000Y-83695000D01*
X162904161Y-83752852D01*
X162657599Y-83917599D01*
X160752599Y-85822599D01*
X160706931Y-85890946D01*
X160275302Y-86179352D01*
X160020000Y-86561438D01*
X159764698Y-86179352D01*
X159299151Y-85868283D01*
X158750000Y-85759050D01*
X158200849Y-85868283D01*
X157735302Y-86179352D01*
X157480000Y-86561438D01*
X157224698Y-86179352D01*
X156759151Y-85868283D01*
X156210000Y-85759050D01*
X155660849Y-85868283D01*
X155195302Y-86179352D01*
X154884233Y-86644899D01*
X154775000Y-87194050D01*
X106595559Y-87194050D01*
X106882947Y-85727371D01*
X107456477Y-83614485D01*
X108168343Y-81607582D01*
X109016996Y-79712381D01*
X110000962Y-77934427D01*
X111118940Y-76279035D01*
X112369877Y-74751355D01*
X113480887Y-73630907D01*
X125515000Y-73630907D01*
X125515000Y-73689093D01*
X125628039Y-74257378D01*
X125949946Y-74739147D01*
X126431715Y-75061054D01*
X127000000Y-75174093D01*
X127568285Y-75061054D01*
X128050054Y-74739147D01*
X128079403Y-74695223D01*
X128151673Y-74869698D01*
X128330301Y-75048327D01*
X128563690Y-75145000D01*
X129254250Y-75145000D01*
X129413000Y-74986250D01*
X129413000Y-73787000D01*
X129667000Y-73787000D01*
X129667000Y-74986250D01*
X129825750Y-75145000D01*
X130516310Y-75145000D01*
X130749699Y-75048327D01*
X130928327Y-74869698D01*
X131025000Y-74636309D01*
X131025000Y-73945750D01*
X130866250Y-73787000D01*
X129667000Y-73787000D01*
X129413000Y-73787000D01*
X129393000Y-73787000D01*
X129393000Y-73533000D01*
X129413000Y-73533000D01*
X129413000Y-72333750D01*
X129667000Y-72333750D01*
X129667000Y-73533000D01*
X130866250Y-73533000D01*
X131025000Y-73374250D01*
X131025000Y-72683691D01*
X130928327Y-72450302D01*
X130749699Y-72271673D01*
X130516310Y-72175000D01*
X129825750Y-72175000D01*
X129667000Y-72333750D01*
X129413000Y-72333750D01*
X129254250Y-72175000D01*
X128563690Y-72175000D01*
X128330301Y-72271673D01*
X128151673Y-72450302D01*
X128079403Y-72624777D01*
X128050054Y-72580853D01*
X127568285Y-72258946D01*
X127000000Y-72145907D01*
X126431715Y-72258946D01*
X125949946Y-72580853D01*
X125628039Y-73062622D01*
X125515000Y-73630907D01*
X113480887Y-73630907D01*
X113753050Y-73356433D01*
X115268137Y-72099299D01*
X116914555Y-70985339D01*
X118682815Y-70023713D01*
X120556946Y-69226230D01*
X122520580Y-68604717D01*
X124557345Y-68170828D01*
X126651030Y-67936033D01*
X128785656Y-67911701D01*
X130945503Y-68109179D01*
X133115158Y-68539914D01*
X135279520Y-69215590D01*
X137423660Y-70148244D01*
X139532694Y-71350336D01*
X141591594Y-72834744D01*
X143585019Y-74614666D01*
X145497198Y-76703458D01*
X147326478Y-79133799D01*
X147354425Y-79172526D01*
X147355069Y-79173125D01*
X147355436Y-79173923D01*
X147356217Y-79175000D01*
X144145000Y-79175000D01*
X143825459Y-79238561D01*
X143626222Y-79371687D01*
X143554566Y-79419566D01*
X141259132Y-81715000D01*
X140464082Y-81715000D01*
X140856120Y-81453049D01*
X141210543Y-80922616D01*
X141335000Y-80296929D01*
X141335000Y-79723071D01*
X141210543Y-79097384D01*
X140856120Y-78566951D01*
X140338002Y-78220757D01*
X140290434Y-78149566D01*
X139020434Y-76879566D01*
X138857157Y-76770468D01*
X138749541Y-76698561D01*
X138430000Y-76635000D01*
X130810000Y-76635000D01*
X130490459Y-76698561D01*
X130382843Y-76770468D01*
X130219566Y-76879566D01*
X129194132Y-77905000D01*
X128497440Y-77905000D01*
X128497440Y-77890000D01*
X128453162Y-77654683D01*
X128314090Y-77438559D01*
X128101890Y-77293569D01*
X127850000Y-77242560D01*
X126150000Y-77242560D01*
X125914683Y-77286838D01*
X125698559Y-77425910D01*
X125553569Y-77638110D01*
X125539914Y-77705541D01*
X125510054Y-77660853D01*
X125028285Y-77338946D01*
X124460000Y-77225907D01*
X123891715Y-77338946D01*
X123409946Y-77660853D01*
X123190000Y-77990026D01*
X122970054Y-77660853D01*
X122488285Y-77338946D01*
X121920000Y-77225907D01*
X121351715Y-77338946D01*
X120869946Y-77660853D01*
X120548039Y-78142622D01*
X120435000Y-78710907D01*
X120435000Y-78769093D01*
X120548039Y-79337378D01*
X120869946Y-79819147D01*
X121351715Y-80141054D01*
X121920000Y-80254093D01*
X122488285Y-80141054D01*
X122970054Y-79819147D01*
X123190000Y-79489974D01*
X123409946Y-79819147D01*
X123891715Y-80141054D01*
X124460000Y-80254093D01*
X125028285Y-80141054D01*
X125510054Y-79819147D01*
X125537850Y-79777548D01*
X125546838Y-79825317D01*
X125685910Y-80041441D01*
X125898110Y-80186431D01*
X126150000Y-80237440D01*
X127850000Y-80237440D01*
X128085317Y-80193162D01*
X128301441Y-80054090D01*
X128446431Y-79841890D01*
X128497440Y-79590000D01*
X128497440Y-79575000D01*
X129540000Y-79575000D01*
X129859541Y-79511439D01*
X130130434Y-79330434D01*
X131155868Y-78305000D01*
X133855918Y-78305000D01*
X133463880Y-78566951D01*
X133109457Y-79097384D01*
X132985000Y-79723071D01*
X132985000Y-80296929D01*
X133012741Y-80436391D01*
X132369132Y-81080000D01*
X122982234Y-81080000D01*
X122741799Y-80980162D01*
X122369833Y-80979838D01*
X122026057Y-81121883D01*
X121762808Y-81384673D01*
X121620162Y-81728201D01*
X121619838Y-82100167D01*
X121761883Y-82443943D01*
X122024673Y-82707192D01*
X122368201Y-82849838D01*
X122740167Y-82850162D01*
X122982578Y-82750000D01*
X132715000Y-82750000D01*
X133034541Y-82686439D01*
X133305434Y-82505434D01*
X133993865Y-81817003D01*
X133997974Y-81823153D01*
X134029566Y-81870434D01*
X135219132Y-83060000D01*
X116205000Y-83060000D01*
X115914161Y-83117852D01*
X115667599Y-83282599D01*
X115430320Y-83519878D01*
X115384833Y-83519838D01*
X115041057Y-83661883D01*
X114777808Y-83924673D01*
X114635162Y-84268201D01*
X114634838Y-84640167D01*
X114776883Y-84983943D01*
X115039673Y-85247192D01*
X115383201Y-85389838D01*
X115755167Y-85390162D01*
X116098943Y-85248117D01*
X116362192Y-84985327D01*
X116504838Y-84641799D01*
X116504879Y-84594923D01*
X116519802Y-84580000D01*
X147139697Y-84580000D01*
X147055267Y-84783330D01*
X147054735Y-85393991D01*
X147287932Y-85958371D01*
X147719357Y-86390551D01*
X148283330Y-86624733D01*
X148893991Y-86625265D01*
X149458371Y-86392068D01*
X149890551Y-85960643D01*
X150124733Y-85396670D01*
X150125265Y-84786009D01*
X150040144Y-84580000D01*
X158750000Y-84580000D01*
X159040839Y-84522148D01*
X159287401Y-84357401D01*
X161827401Y-81817401D01*
X161873069Y-81749053D01*
X162304698Y-81460648D01*
X162560000Y-81078562D01*
X162815302Y-81460648D01*
X163280849Y-81771717D01*
X163830000Y-81880950D01*
X164379151Y-81771717D01*
X164844698Y-81460648D01*
X165100000Y-81078562D01*
X165355302Y-81460648D01*
X165820849Y-81771717D01*
X166370000Y-81880950D01*
X166919151Y-81771717D01*
X167384698Y-81460648D01*
X167640000Y-81078562D01*
X167895302Y-81460648D01*
X168360849Y-81771717D01*
X168910000Y-81880950D01*
X169459151Y-81771717D01*
X169924698Y-81460648D01*
X170022251Y-81314650D01*
X170046838Y-81445317D01*
X170185910Y-81661441D01*
X170398110Y-81806431D01*
X170650000Y-81857440D01*
X172250000Y-81857440D01*
X172485317Y-81813162D01*
X172701441Y-81674090D01*
X172846431Y-81461890D01*
X172897440Y-81210000D01*
X172897440Y-78810000D01*
X172853162Y-78574683D01*
X172714090Y-78358559D01*
X172501890Y-78213569D01*
X172250000Y-78162560D01*
X170650000Y-78162560D01*
X170414683Y-78206838D01*
X170198559Y-78345910D01*
X170053569Y-78558110D01*
X170023403Y-78707074D01*
X169924698Y-78559352D01*
X169459151Y-78248283D01*
X168910000Y-78139050D01*
X168360849Y-78248283D01*
X167895302Y-78559352D01*
X167640000Y-78941438D01*
X167384698Y-78559352D01*
X166919151Y-78248283D01*
X166370000Y-78139050D01*
X165820849Y-78248283D01*
X165355302Y-78559352D01*
X165100000Y-78941438D01*
X164844698Y-78559352D01*
X164379151Y-78248283D01*
X163830000Y-78139050D01*
X163784057Y-78148189D01*
X163150434Y-77514566D01*
X163037690Y-77439233D01*
X162879541Y-77333561D01*
X162560000Y-77270000D01*
X154940000Y-77270000D01*
X154620459Y-77333561D01*
X154462310Y-77439233D01*
X154349566Y-77514566D01*
X152689132Y-79175000D01*
X149645983Y-79175000D01*
X149646764Y-79173923D01*
X149647130Y-79173127D01*
X149647775Y-79172527D01*
X149675685Y-79133849D01*
X151505002Y-76703457D01*
X153417186Y-74614660D01*
X154095452Y-74009039D01*
X166248096Y-74009039D01*
X166408959Y-74397423D01*
X166784866Y-74812389D01*
X167290959Y-75051914D01*
X167513000Y-74930629D01*
X167513000Y-73787000D01*
X167767000Y-73787000D01*
X167767000Y-74930629D01*
X167989041Y-75051914D01*
X168495134Y-74812389D01*
X168871041Y-74397423D01*
X169031904Y-74009039D01*
X168996275Y-73944187D01*
X173824752Y-73944187D01*
X174042757Y-74471800D01*
X174446077Y-74875824D01*
X174973309Y-75094750D01*
X175544187Y-75095248D01*
X176071800Y-74877243D01*
X176475824Y-74473923D01*
X176694750Y-73946691D01*
X176695248Y-73375813D01*
X176477243Y-72848200D01*
X176073923Y-72444176D01*
X175546691Y-72225250D01*
X174975813Y-72224752D01*
X174448200Y-72442757D01*
X174044176Y-72846077D01*
X173825250Y-73373309D01*
X173824752Y-73944187D01*
X168996275Y-73944187D01*
X168909915Y-73787000D01*
X167767000Y-73787000D01*
X167513000Y-73787000D01*
X166370085Y-73787000D01*
X166248096Y-74009039D01*
X154095452Y-74009039D01*
X154877265Y-73310961D01*
X166248096Y-73310961D01*
X166370085Y-73533000D01*
X167513000Y-73533000D01*
X167513000Y-72389371D01*
X167767000Y-72389371D01*
X167767000Y-73533000D01*
X168909915Y-73533000D01*
X169031904Y-73310961D01*
X168871041Y-72922577D01*
X168495134Y-72507611D01*
X167989041Y-72268086D01*
X167767000Y-72389371D01*
X167513000Y-72389371D01*
X167290959Y-72268086D01*
X166784866Y-72507611D01*
X166408959Y-72922577D01*
X166248096Y-73310961D01*
X154877265Y-73310961D01*
X155410606Y-72834744D01*
X157469509Y-71350334D01*
X159578543Y-70148242D01*
X161722680Y-69215590D01*
X163887052Y-68539911D01*
X166056698Y-68109178D01*
X168216544Y-67911701D01*
X170351161Y-67936032D01*
G36*
X143607599Y-118647401D02*
X143854161Y-118812148D01*
X144145000Y-118870000D01*
X149545198Y-118870000D01*
X150592599Y-119917401D01*
X150839160Y-120082148D01*
X151130000Y-120140000D01*
X156267005Y-120140000D01*
X156437189Y-120394698D01*
X156819275Y-120650000D01*
X156437189Y-120905302D01*
X156267005Y-121160000D01*
X150125000Y-121160000D01*
X150125000Y-120935750D01*
X149966250Y-120777000D01*
X148717000Y-120777000D01*
X148717000Y-120797000D01*
X148463000Y-120797000D01*
X148463000Y-120777000D01*
X147213750Y-120777000D01*
X147055000Y-120935750D01*
X147055000Y-121160000D01*
X146999802Y-121160000D01*
X146587401Y-120747599D01*
X146340839Y-120582852D01*
X146050000Y-120525000D01*
X143087801Y-120525000D01*
X143282811Y-120394698D01*
X143593880Y-119929151D01*
X143654639Y-119623691D01*
X147055000Y-119623691D01*
X147055000Y-120364250D01*
X147213750Y-120523000D01*
X148463000Y-120523000D01*
X148463000Y-119273750D01*
X148717000Y-119273750D01*
X148717000Y-120523000D01*
X149966250Y-120523000D01*
X150125000Y-120364250D01*
X150125000Y-119623691D01*
X150028327Y-119390302D01*
X149849699Y-119211673D01*
X149616310Y-119115000D01*
X148875750Y-119115000D01*
X148717000Y-119273750D01*
X148463000Y-119273750D01*
X148304250Y-119115000D01*
X147563690Y-119115000D01*
X147330301Y-119211673D01*
X147151673Y-119390302D01*
X147055000Y-119623691D01*
X143654639Y-119623691D01*
X143703113Y-119380000D01*
X143593880Y-118830849D01*
X143282811Y-118365302D01*
X143087801Y-118235000D01*
X143195198Y-118235000D01*
X143607599Y-118647401D01*
X143607599Y-118647401D01*
G37*
X143607599Y-118647401D02*
X143854161Y-118812148D01*
X144145000Y-118870000D01*
X149545198Y-118870000D01*
X150592599Y-119917401D01*
X150839160Y-120082148D01*
X151130000Y-120140000D01*
X156267005Y-120140000D01*
X156437189Y-120394698D01*
X156819275Y-120650000D01*
X156437189Y-120905302D01*
X156267005Y-121160000D01*
X150125000Y-121160000D01*
X150125000Y-120935750D01*
X149966250Y-120777000D01*
X148717000Y-120777000D01*
X148717000Y-120797000D01*
X148463000Y-120797000D01*
X148463000Y-120777000D01*
X147213750Y-120777000D01*
X147055000Y-120935750D01*
X147055000Y-121160000D01*
X146999802Y-121160000D01*
X146587401Y-120747599D01*
X146340839Y-120582852D01*
X146050000Y-120525000D01*
X143087801Y-120525000D01*
X143282811Y-120394698D01*
X143593880Y-119929151D01*
X143654639Y-119623691D01*
X147055000Y-119623691D01*
X147055000Y-120364250D01*
X147213750Y-120523000D01*
X148463000Y-120523000D01*
X148463000Y-119273750D01*
X148717000Y-119273750D01*
X148717000Y-120523000D01*
X149966250Y-120523000D01*
X150125000Y-120364250D01*
X150125000Y-119623691D01*
X150028327Y-119390302D01*
X149849699Y-119211673D01*
X149616310Y-119115000D01*
X148875750Y-119115000D01*
X148717000Y-119273750D01*
X148463000Y-119273750D01*
X148304250Y-119115000D01*
X147563690Y-119115000D01*
X147330301Y-119211673D01*
X147151673Y-119390302D01*
X147055000Y-119623691D01*
X143654639Y-119623691D01*
X143703113Y-119380000D01*
X143593880Y-118830849D01*
X143282811Y-118365302D01*
X143087801Y-118235000D01*
X143195198Y-118235000D01*
X143607599Y-118647401D01*
G36*
X151465162Y-81093201D02*
X151464838Y-81465167D01*
X151606883Y-81808943D01*
X151869673Y-82072192D01*
X152213201Y-82214838D01*
X152585167Y-82215162D01*
X152928943Y-82073117D01*
X152962118Y-82040000D01*
X153990198Y-82040000D01*
X155010198Y-83060000D01*
X150125000Y-83060000D01*
X150125000Y-82835750D01*
X149966250Y-82677000D01*
X148717000Y-82677000D01*
X148717000Y-82697000D01*
X148463000Y-82697000D01*
X148463000Y-82677000D01*
X147213750Y-82677000D01*
X147055000Y-82835750D01*
X147055000Y-83060000D01*
X142275868Y-83060000D01*
X143812177Y-81523691D01*
X147055000Y-81523691D01*
X147055000Y-82264250D01*
X147213750Y-82423000D01*
X148463000Y-82423000D01*
X148463000Y-81173750D01*
X148717000Y-81173750D01*
X148717000Y-82423000D01*
X149966250Y-82423000D01*
X150125000Y-82264250D01*
X150125000Y-81523691D01*
X150028327Y-81290302D01*
X149849699Y-81111673D01*
X149616310Y-81015000D01*
X148875750Y-81015000D01*
X148717000Y-81173750D01*
X148463000Y-81173750D01*
X148304250Y-81015000D01*
X147563690Y-81015000D01*
X147330301Y-81111673D01*
X147151673Y-81290302D01*
X147055000Y-81523691D01*
X143812177Y-81523691D01*
X144490868Y-80845000D01*
X151568225Y-80845000D01*
X151465162Y-81093201D01*
X151465162Y-81093201D01*
G37*
X151465162Y-81093201D02*
X151464838Y-81465167D01*
X151606883Y-81808943D01*
X151869673Y-82072192D01*
X152213201Y-82214838D01*
X152585167Y-82215162D01*
X152928943Y-82073117D01*
X152962118Y-82040000D01*
X153990198Y-82040000D01*
X155010198Y-83060000D01*
X150125000Y-83060000D01*
X150125000Y-82835750D01*
X149966250Y-82677000D01*
X148717000Y-82677000D01*
X148717000Y-82697000D01*
X148463000Y-82697000D01*
X148463000Y-82677000D01*
X147213750Y-82677000D01*
X147055000Y-82835750D01*
X147055000Y-83060000D01*
X142275868Y-83060000D01*
X143812177Y-81523691D01*
X147055000Y-81523691D01*
X147055000Y-82264250D01*
X147213750Y-82423000D01*
X148463000Y-82423000D01*
X148463000Y-81173750D01*
X148717000Y-81173750D01*
X148717000Y-82423000D01*
X149966250Y-82423000D01*
X150125000Y-82264250D01*
X150125000Y-81523691D01*
X150028327Y-81290302D01*
X149849699Y-81111673D01*
X149616310Y-81015000D01*
X148875750Y-81015000D01*
X148717000Y-81173750D01*
X148463000Y-81173750D01*
X148304250Y-81015000D01*
X147563690Y-81015000D01*
X147330301Y-81111673D01*
X147151673Y-81290302D01*
X147055000Y-81523691D01*
X143812177Y-81523691D01*
X144490868Y-80845000D01*
X151568225Y-80845000D01*
X151465162Y-81093201D01*
G36*
X137287000Y-79883000D02*
X137307000Y-79883000D01*
X137307000Y-80137000D01*
X137287000Y-80137000D01*
X137287000Y-80157000D01*
X137033000Y-80157000D01*
X137033000Y-80137000D01*
X137013000Y-80137000D01*
X137013000Y-79883000D01*
X137033000Y-79883000D01*
X137033000Y-79863000D01*
X137287000Y-79863000D01*
X137287000Y-79883000D01*
X137287000Y-79883000D01*
G37*
X137287000Y-79883000D02*
X137307000Y-79883000D01*
X137307000Y-80137000D01*
X137287000Y-80137000D01*
X137287000Y-80157000D01*
X137033000Y-80157000D01*
X137033000Y-80137000D01*
X137013000Y-80137000D01*
X137013000Y-79883000D01*
X137033000Y-79883000D01*
X137033000Y-79863000D01*
X137287000Y-79863000D01*
X137287000Y-79883000D01*
M02*
