G04 #@! TF.FileFunction,Copper,L1,Top,Signal*
%FSLAX46Y46*%
G04 Gerber Fmt 4.6, Leading zero omitted, Abs format (unit mm)*
G04 Created by KiCad (PCBNEW 4.0.7) date 11/09/18 11:24:19*
%MOMM*%
%LPD*%
G01*
G04 APERTURE LIST*
%ADD10C,0.100000*%
%ADD11O,2.750000X1.750000*%
%ADD12O,2.000000X2.500000*%
%ADD13R,1.700000X1.700000*%
%ADD14O,1.700000X1.700000*%
%ADD15C,1.620000*%
%ADD16C,1.600000*%
%ADD17O,1.600000X1.600000*%
%ADD18C,8.000000*%
%ADD19R,1.800000X1.800000*%
%ADD20C,1.800000*%
%ADD21R,1.600000X1.600000*%
%ADD22R,1.600000X2.400000*%
%ADD23O,1.600000X2.400000*%
%ADD24R,2.400000X1.600000*%
%ADD25O,2.400000X1.600000*%
%ADD26C,0.600000*%
%ADD27C,0.400000*%
%ADD28C,0.250000*%
%ADD29C,0.254000*%
G04 APERTURE END LIST*
D10*
X149092301Y-78771685D02*
X149124258Y-78727400D01*
X149060344Y-78815736D02*
X149092301Y-78771685D01*
X149028388Y-78859320D02*
X149060344Y-78815736D01*
X148996431Y-78902206D02*
X149028388Y-78859320D01*
X148964474Y-78944159D02*
X148996431Y-78902206D01*
X148932517Y-78984946D02*
X148964474Y-78944159D01*
X148900560Y-79024335D02*
X148932517Y-78984946D01*
X148868603Y-79062091D02*
X148900560Y-79024335D01*
X148836647Y-79097983D02*
X148868603Y-79062091D01*
X148804690Y-79131777D02*
X148836647Y-79097983D01*
X148772733Y-79163239D02*
X148804690Y-79131777D01*
X148740776Y-79192137D02*
X148772733Y-79163239D01*
X148708819Y-79218237D02*
X148740776Y-79192137D01*
X148676863Y-79241307D02*
X148708819Y-79218237D01*
X148644906Y-79261113D02*
X148676863Y-79241307D01*
X148612949Y-79277422D02*
X148644906Y-79261113D01*
X148580992Y-79290001D02*
X148612949Y-79277422D01*
X148549035Y-79298617D02*
X148580992Y-79290001D01*
X148517078Y-79303037D02*
X148549035Y-79298617D01*
X148485122Y-79303037D02*
X148517078Y-79303037D01*
X148453165Y-79298617D02*
X148485122Y-79303037D01*
X148421208Y-79290001D02*
X148453165Y-79298617D01*
X148389251Y-79277422D02*
X148421208Y-79290001D01*
X148357294Y-79261113D02*
X148389251Y-79277422D01*
X148325337Y-79241307D02*
X148357294Y-79261113D01*
X148293381Y-79218237D02*
X148325337Y-79241307D01*
X148261424Y-79192137D02*
X148293381Y-79218237D01*
X148229467Y-79163239D02*
X148261424Y-79192137D01*
X148197510Y-79131777D02*
X148229467Y-79163239D01*
X148165553Y-79097983D02*
X148197510Y-79131777D01*
X148133597Y-79062091D02*
X148165553Y-79097983D01*
X148101640Y-79024335D02*
X148133597Y-79062091D01*
X148069683Y-78984946D02*
X148101640Y-79024335D01*
X148037726Y-78944159D02*
X148069683Y-78984946D01*
X148005769Y-78902206D02*
X148037726Y-78944159D01*
X147973812Y-78859320D02*
X148005769Y-78902206D01*
X147941856Y-78815736D02*
X147973812Y-78859320D01*
X147909899Y-78771685D02*
X147941856Y-78815736D01*
X147877942Y-78727400D02*
X147909899Y-78771685D01*
X146024691Y-76265210D02*
X147877942Y-78727400D01*
X144066980Y-74126681D02*
X146024691Y-76265210D01*
X142021176Y-72299991D02*
X144066980Y-74126681D01*
X139903649Y-70773315D02*
X142021176Y-72299991D01*
X137730764Y-69534830D02*
X139903649Y-70773315D01*
X135518890Y-68572714D02*
X137730764Y-69534830D01*
X133284394Y-67875143D02*
X135518890Y-68572714D01*
X131043644Y-67430294D02*
X133284394Y-67875143D01*
X128813008Y-67226344D02*
X131043644Y-67430294D01*
X126608853Y-67251469D02*
X128813008Y-67226344D01*
X124447546Y-67493847D02*
X126608853Y-67251469D01*
X122345456Y-67941653D02*
X124447546Y-67493847D01*
X120318950Y-68583065D02*
X122345456Y-67941653D01*
X118384396Y-69406260D02*
X120318950Y-68583065D01*
X116558161Y-70399414D02*
X118384396Y-69406260D01*
X114856518Y-71550739D02*
X116558161Y-70399414D01*
X113290051Y-72850505D02*
X114856518Y-71550739D01*
X111860524Y-74292176D02*
X113290051Y-72850505D01*
X110568943Y-75869492D02*
X111860524Y-74292176D01*
X109416314Y-77576191D02*
X110568943Y-75869492D01*
X108403644Y-79406012D02*
X109416314Y-77576191D01*
X107531938Y-81352693D02*
X108403644Y-79406012D01*
X106802203Y-83409973D02*
X107531938Y-81352693D01*
X106215445Y-85571591D02*
X106802203Y-83409973D01*
X105772670Y-87831286D02*
X106215445Y-85571591D01*
X105474884Y-90182796D02*
X105772670Y-87831286D01*
X105323093Y-92619860D02*
X105474884Y-90182796D01*
X105318303Y-95136217D02*
X105323093Y-92619860D01*
X105461521Y-97725605D02*
X105318303Y-95136217D01*
X105753752Y-100381763D02*
X105461521Y-97725605D01*
X106196003Y-103098430D02*
X105753752Y-100381763D01*
X106790359Y-105868984D02*
X106196003Y-103098430D01*
X107551450Y-108682610D02*
X106790359Y-105868984D01*
X108502001Y-111525785D02*
X107551450Y-108682610D01*
X109664872Y-114384945D02*
X108502001Y-111525785D01*
X111062923Y-117246524D02*
X109664872Y-114384945D01*
X112719011Y-120096954D02*
X111062923Y-117246524D01*
X114655998Y-122922671D02*
X112719011Y-120096954D01*
X116896742Y-125710108D02*
X114655998Y-122922671D01*
X119464104Y-128445699D02*
X116896742Y-125710108D01*
X122380941Y-131115878D02*
X119464104Y-128445699D01*
X125670114Y-133707078D02*
X122380941Y-131115878D01*
X129354483Y-136205735D02*
X125670114Y-133707078D01*
X133456907Y-138598282D02*
X129354483Y-136205735D01*
X138000244Y-140871152D02*
X133456907Y-138598282D01*
X143007356Y-143010780D02*
X138000244Y-140871152D01*
X148501100Y-145003600D02*
X143007356Y-143010780D01*
X150977509Y-76265210D02*
X149124258Y-78727400D01*
X152935220Y-74126681D02*
X150977509Y-76265210D01*
X154981024Y-72299991D02*
X152935220Y-74126681D01*
X157098551Y-70773315D02*
X154981024Y-72299991D01*
X159271436Y-69534830D02*
X157098551Y-70773315D01*
X161483310Y-68572714D02*
X159271436Y-69534830D01*
X163717806Y-67875143D02*
X161483310Y-68572714D01*
X165958556Y-67430294D02*
X163717806Y-67875143D01*
X168189192Y-67226344D02*
X165958556Y-67430294D01*
X170393347Y-67251469D02*
X168189192Y-67226344D01*
X172554654Y-67493847D02*
X170393347Y-67251469D01*
X174656744Y-67941653D02*
X172554654Y-67493847D01*
X176683250Y-68583065D02*
X174656744Y-67941653D01*
X178617804Y-69406260D02*
X176683250Y-68583065D01*
X180444039Y-70399414D02*
X178617804Y-69406260D01*
X182145682Y-71550739D02*
X180444039Y-70399414D01*
X183712149Y-72850505D02*
X182145682Y-71550739D01*
X185141676Y-74292176D02*
X183712149Y-72850505D01*
X186433257Y-75869492D02*
X185141676Y-74292176D01*
X187585886Y-77576191D02*
X186433257Y-75869492D01*
X188598556Y-79406012D02*
X187585886Y-77576191D01*
X189470262Y-81352693D02*
X188598556Y-79406012D01*
X190199997Y-83409973D02*
X189470262Y-81352693D01*
X190786755Y-85571591D02*
X190199997Y-83409973D01*
X191229530Y-87831286D02*
X190786755Y-85571591D01*
X191527316Y-90182796D02*
X191229530Y-87831286D01*
X191679107Y-92619860D02*
X191527316Y-90182796D01*
X191683897Y-95136217D02*
X191679107Y-92619860D01*
X191540679Y-97725605D02*
X191683897Y-95136217D01*
X191248448Y-100381763D02*
X191540679Y-97725605D01*
X190806197Y-103098430D02*
X191248448Y-100381763D01*
X190211841Y-105868984D02*
X190806197Y-103098430D01*
X189450750Y-108682610D02*
X190211841Y-105868984D01*
X188500199Y-111525785D02*
X189450750Y-108682610D01*
X187337328Y-114384945D02*
X188500199Y-111525785D01*
X185939277Y-117246524D02*
X187337328Y-114384945D01*
X184283189Y-120096954D02*
X185939277Y-117246524D01*
X182346202Y-122922671D02*
X184283189Y-120096954D01*
X180105458Y-125710108D02*
X182346202Y-122922671D01*
X177538096Y-128445699D02*
X180105458Y-125710108D01*
X174621259Y-131115878D02*
X177538096Y-128445699D01*
X171332086Y-133707078D02*
X174621259Y-131115878D01*
X167647717Y-136205735D02*
X171332086Y-133707078D01*
X163545293Y-138598282D02*
X167647717Y-136205735D01*
X159001956Y-140871152D02*
X163545293Y-138598282D01*
X153994844Y-143010780D02*
X159001956Y-140871152D01*
X148501100Y-145003600D02*
X153994844Y-143010780D01*
D11*
X124590000Y-90755000D03*
X124590000Y-103555000D03*
D12*
X139700000Y-80010000D03*
X137160000Y-80010000D03*
X134620000Y-80010000D03*
D13*
X127000000Y-78740000D03*
D14*
X124460000Y-78740000D03*
X121920000Y-78740000D03*
D15*
X159940000Y-109220000D03*
X157440000Y-114220000D03*
X154940000Y-109220000D03*
D16*
X171450000Y-118110000D03*
D17*
X171450000Y-125730000D03*
D16*
X176530000Y-105410000D03*
D17*
X184150000Y-105410000D03*
D16*
X134620000Y-107950000D03*
D17*
X142240000Y-107950000D03*
D16*
X134620000Y-111760000D03*
D17*
X142240000Y-111760000D03*
D16*
X134620000Y-115570000D03*
D17*
X142240000Y-115570000D03*
D16*
X134620000Y-119380000D03*
D17*
X142240000Y-119380000D03*
D16*
X134620000Y-123190000D03*
D17*
X142240000Y-123190000D03*
D16*
X134620000Y-127000000D03*
D17*
X142240000Y-127000000D03*
D16*
X134620000Y-130810000D03*
D17*
X142240000Y-130810000D03*
D16*
X134620000Y-134620000D03*
D17*
X142240000Y-134620000D03*
D16*
X184150000Y-109220000D03*
D17*
X176530000Y-109220000D03*
D16*
X175260000Y-125730000D03*
D17*
X175260000Y-118110000D03*
D16*
X184150000Y-113030000D03*
D17*
X176530000Y-113030000D03*
D16*
X171450000Y-113030000D03*
D17*
X163830000Y-113030000D03*
D16*
X171450000Y-109220000D03*
D17*
X163830000Y-109220000D03*
D16*
X111760000Y-105410000D03*
D17*
X119380000Y-105410000D03*
D16*
X119380000Y-109220000D03*
D17*
X111760000Y-109220000D03*
D16*
X175260000Y-73660000D03*
D17*
X167640000Y-73660000D03*
D18*
X181610000Y-90170000D03*
D19*
X148590000Y-82550000D03*
D20*
X148590000Y-85090000D03*
D19*
X148590000Y-90170000D03*
D20*
X148590000Y-92710000D03*
D19*
X148590000Y-97790000D03*
D20*
X148590000Y-100330000D03*
D19*
X148590000Y-105410000D03*
D20*
X148590000Y-107950000D03*
D19*
X148590000Y-113030000D03*
D20*
X148590000Y-115570000D03*
D19*
X148590000Y-120650000D03*
D20*
X148590000Y-123190000D03*
D19*
X148590000Y-128270000D03*
D20*
X148590000Y-130810000D03*
D19*
X148590000Y-135890000D03*
D20*
X148590000Y-138430000D03*
D16*
X158750000Y-130810000D03*
X161250000Y-130810000D03*
D21*
X116840000Y-115570000D03*
D16*
X116840000Y-113570000D03*
D13*
X129540000Y-73660000D03*
D14*
X127000000Y-73660000D03*
D18*
X115570000Y-90170000D03*
D21*
X165100000Y-127000000D03*
D17*
X157480000Y-119380000D03*
X165100000Y-124460000D03*
X157480000Y-121920000D03*
X165100000Y-121920000D03*
X157480000Y-124460000D03*
X165100000Y-119380000D03*
X157480000Y-127000000D03*
D22*
X171450000Y-80010000D03*
D23*
X156210000Y-87630000D03*
X168910000Y-80010000D03*
X158750000Y-87630000D03*
X166370000Y-80010000D03*
X161290000Y-87630000D03*
X163830000Y-80010000D03*
X163830000Y-87630000D03*
X161290000Y-80010000D03*
X166370000Y-87630000D03*
X158750000Y-80010000D03*
X168910000Y-87630000D03*
X156210000Y-80010000D03*
X171450000Y-87630000D03*
D24*
X130810000Y-125730000D03*
D25*
X123190000Y-107950000D03*
X130810000Y-123190000D03*
X123190000Y-110490000D03*
X130810000Y-120650000D03*
X123190000Y-113030000D03*
X130810000Y-118110000D03*
X123190000Y-115570000D03*
X130810000Y-115570000D03*
X123190000Y-118110000D03*
X130810000Y-113030000D03*
X123190000Y-120650000D03*
X130810000Y-110490000D03*
X123190000Y-123190000D03*
X130810000Y-107950000D03*
X123190000Y-125730000D03*
D26*
X122555000Y-81915000D03*
X129540000Y-132080000D03*
X130810000Y-86360000D03*
X128905000Y-119380000D03*
X127635000Y-115570000D03*
X146050000Y-126365000D03*
X144780000Y-123190000D03*
X146685000Y-113665000D03*
X144145000Y-116205000D03*
X144780000Y-102235000D03*
X142240000Y-99060000D03*
X146050000Y-96520000D03*
X181610000Y-85090000D03*
X115570000Y-84455000D03*
X152400000Y-81280000D03*
X154940000Y-100330000D03*
X168910000Y-101600000D03*
X156210000Y-102870000D03*
X173355000Y-104140000D03*
X170180000Y-93345000D03*
X182880000Y-95885000D03*
X177800000Y-122555000D03*
X172085000Y-90805000D03*
X175260000Y-93345000D03*
X127000000Y-120650000D03*
X127635000Y-117475000D03*
X163195000Y-118745000D03*
X146050000Y-116840000D03*
X144780000Y-109220000D03*
X125730000Y-113030000D03*
X127000000Y-121920000D03*
D27*
X119380000Y-109220000D02*
X121285000Y-107315000D01*
X121285000Y-83185000D02*
X122555000Y-81915000D01*
X121285000Y-107315000D02*
X121285000Y-83185000D01*
X119380000Y-109220000D02*
X119380000Y-108585000D01*
X129540000Y-132080000D02*
X123190000Y-125730000D01*
X123190000Y-125730000D02*
X122555000Y-125730000D01*
X122555000Y-125730000D02*
X120650000Y-123825000D01*
X120650000Y-110490000D02*
X119380000Y-109220000D01*
X120650000Y-123825000D02*
X120650000Y-110490000D01*
X158750000Y-130810000D02*
X158750000Y-128270000D01*
X158750000Y-128270000D02*
X157480000Y-127000000D01*
D28*
X137160000Y-80010000D02*
X137160000Y-83185000D01*
X133985000Y-86360000D02*
X130810000Y-86360000D01*
X137160000Y-83185000D02*
X133985000Y-86360000D01*
X128270000Y-116205000D02*
X127635000Y-115570000D01*
X128270000Y-118745000D02*
X128270000Y-116205000D01*
X128905000Y-119380000D02*
X128270000Y-118745000D01*
X146050000Y-126365000D02*
X148590000Y-123825000D01*
X148590000Y-123825000D02*
X148590000Y-123190000D01*
X148590000Y-116840000D02*
X148590000Y-115570000D01*
X146685000Y-118745000D02*
X148590000Y-116840000D01*
X146685000Y-121285000D02*
X146685000Y-118745000D01*
X144780000Y-123190000D02*
X146685000Y-121285000D01*
X142240000Y-119380000D02*
X142240000Y-118110000D01*
X146685000Y-109855000D02*
X148590000Y-107950000D01*
X146685000Y-113665000D02*
X146685000Y-109855000D01*
X142240000Y-118110000D02*
X144145000Y-116205000D01*
X142240000Y-115570000D02*
X142875000Y-115570000D01*
X142875000Y-115570000D02*
X144145000Y-114300000D01*
X144145000Y-114300000D02*
X144145000Y-102870000D01*
X144145000Y-102870000D02*
X144780000Y-102235000D01*
X142240000Y-111760000D02*
X142240000Y-111125000D01*
X142240000Y-111125000D02*
X140970000Y-109855000D01*
X140970000Y-109855000D02*
X140970000Y-106045000D01*
X140970000Y-106045000D02*
X142240000Y-104775000D01*
X142240000Y-104775000D02*
X142240000Y-99060000D01*
X146050000Y-96520000D02*
X148590000Y-93980000D01*
X148590000Y-93980000D02*
X148590000Y-92710000D01*
X142240000Y-107950000D02*
X143510000Y-106680000D01*
X146050000Y-85090000D02*
X148590000Y-85090000D01*
X144780000Y-86360000D02*
X146050000Y-85090000D01*
X144780000Y-95885000D02*
X144780000Y-86360000D01*
X143510000Y-97155000D02*
X144780000Y-95885000D01*
X143510000Y-106680000D02*
X143510000Y-97155000D01*
D27*
X124590000Y-103555000D02*
X124590000Y-94485000D01*
X124460000Y-80645000D02*
X124460000Y-78740000D01*
X127000000Y-83185000D02*
X124460000Y-80645000D01*
X127000000Y-92075000D02*
X127000000Y-83185000D01*
X124590000Y-94485000D02*
X127000000Y-92075000D01*
X127000000Y-73660000D02*
X127000000Y-74930000D01*
X124460000Y-77470000D02*
X124460000Y-78740000D01*
X127000000Y-74930000D02*
X124460000Y-77470000D01*
D28*
X175260000Y-73660000D02*
X181610000Y-80010000D01*
X181610000Y-80010000D02*
X181610000Y-85090000D01*
X181610000Y-85090000D02*
X181610000Y-90170000D01*
X115570000Y-84455000D02*
X115570000Y-90170000D01*
X111760000Y-105410000D02*
X111760000Y-102870000D01*
X115570000Y-99060000D02*
X115570000Y-90170000D01*
X111760000Y-102870000D02*
X115570000Y-99060000D01*
X111760000Y-109220000D02*
X111760000Y-105410000D01*
X157440000Y-114220000D02*
X157440000Y-92750000D01*
X158750000Y-91440000D02*
X158750000Y-87630000D01*
X157440000Y-92750000D02*
X158750000Y-91440000D01*
X154940000Y-109220000D02*
X151765000Y-106045000D01*
X151765000Y-81915000D02*
X152400000Y-81280000D01*
X151765000Y-106045000D02*
X151765000Y-81915000D01*
X163830000Y-109220000D02*
X163830000Y-113030000D01*
X171450000Y-113030000D02*
X171450000Y-112395000D01*
X171450000Y-112395000D02*
X169545000Y-110490000D01*
X154305000Y-81915000D02*
X156210000Y-80010000D01*
X154305000Y-99695000D02*
X154305000Y-81915000D01*
X154940000Y-100330000D02*
X154305000Y-99695000D01*
X169545000Y-102235000D02*
X168910000Y-101600000D01*
X169545000Y-110490000D02*
X169545000Y-102235000D01*
X175260000Y-118110000D02*
X175260000Y-117475000D01*
X175260000Y-117475000D02*
X171450000Y-113665000D01*
X171450000Y-113665000D02*
X171450000Y-113030000D01*
X176530000Y-109220000D02*
X174625000Y-107315000D01*
X156210000Y-102870000D02*
X156210000Y-87630000D01*
X174625000Y-105410000D02*
X173355000Y-104140000D01*
X174625000Y-107315000D02*
X174625000Y-105410000D01*
X168275000Y-102870000D02*
X167640000Y-102235000D01*
X171450000Y-121285000D02*
X169545000Y-119380000D01*
X169545000Y-119380000D02*
X169545000Y-112395000D01*
X169545000Y-112395000D02*
X168275000Y-111125000D01*
X168275000Y-111125000D02*
X168275000Y-102870000D01*
X171450000Y-125730000D02*
X171450000Y-121285000D01*
X166370000Y-90805000D02*
X166370000Y-87630000D01*
X168910000Y-93345000D02*
X166370000Y-90805000D01*
X168910000Y-100330000D02*
X168910000Y-93345000D01*
X167640000Y-101600000D02*
X168910000Y-100330000D01*
X167640000Y-102235000D02*
X167640000Y-101600000D01*
X184150000Y-109220000D02*
X184150000Y-105410000D01*
X184150000Y-105410000D02*
X184150000Y-97155000D01*
X168910000Y-92075000D02*
X168910000Y-87630000D01*
X170180000Y-93345000D02*
X168910000Y-92075000D01*
X184150000Y-97155000D02*
X182880000Y-95885000D01*
X134620000Y-134620000D02*
X123190000Y-123190000D01*
X134620000Y-130810000D02*
X134620000Y-130175000D01*
X134620000Y-130175000D02*
X130810000Y-126365000D01*
X130810000Y-126365000D02*
X130810000Y-125730000D01*
X130810000Y-123190000D02*
X132080000Y-123190000D01*
X134620000Y-125730000D02*
X134620000Y-127000000D01*
X132080000Y-123190000D02*
X134620000Y-125730000D01*
X178435000Y-107315000D02*
X176530000Y-105410000D01*
X178435000Y-121920000D02*
X178435000Y-107315000D01*
X177800000Y-122555000D02*
X178435000Y-121920000D01*
X176530000Y-105410000D02*
X176530000Y-94615000D01*
X171450000Y-90170000D02*
X171450000Y-87630000D01*
X172085000Y-90805000D02*
X171450000Y-90170000D01*
X176530000Y-94615000D02*
X175260000Y-93345000D01*
X127635000Y-120015000D02*
X127000000Y-120650000D01*
X127635000Y-117475000D02*
X127635000Y-120015000D01*
X165100000Y-121920000D02*
X164465000Y-121920000D01*
X164465000Y-121920000D02*
X163195000Y-120650000D01*
X163195000Y-120650000D02*
X163195000Y-118745000D01*
X146050000Y-116840000D02*
X145415000Y-116205000D01*
X145415000Y-116205000D02*
X145415000Y-109855000D01*
X145415000Y-109855000D02*
X144780000Y-109220000D01*
X126365000Y-113665000D02*
X125730000Y-113030000D01*
X126365000Y-121285000D02*
X126365000Y-113665000D01*
X127000000Y-121920000D02*
X126365000Y-121285000D01*
D29*
G36*
X170351161Y-67936032D02*
X172444857Y-68170828D01*
X174481620Y-68604717D01*
X176445251Y-69226229D01*
X178319385Y-70023713D01*
X180087645Y-70985339D01*
X181734063Y-72099299D01*
X183249151Y-73356433D01*
X184632323Y-74751355D01*
X185883260Y-76279035D01*
X187001238Y-77934427D01*
X187985202Y-79712376D01*
X188833857Y-81607582D01*
X189545725Y-83614493D01*
X190119253Y-85727371D01*
X190552863Y-87940294D01*
X190845000Y-90247190D01*
X190994147Y-92641817D01*
X190998861Y-95117937D01*
X190857752Y-97669190D01*
X190569499Y-100289203D01*
X190132847Y-102971474D01*
X189545874Y-105707611D01*
X188794747Y-108484404D01*
X187857459Y-111287909D01*
X186711600Y-114105240D01*
X185334616Y-116923699D01*
X183703739Y-119730736D01*
X181795955Y-122513850D01*
X179588013Y-125260481D01*
X177056399Y-127957981D01*
X174177428Y-130593496D01*
X170927387Y-133153868D01*
X167282508Y-135625744D01*
X163219180Y-137995490D01*
X158713873Y-140249335D01*
X153743273Y-142373361D01*
X148501100Y-144274925D01*
X143258927Y-142373361D01*
X138288327Y-140249335D01*
X135259242Y-138733991D01*
X147054735Y-138733991D01*
X147287932Y-139298371D01*
X147719357Y-139730551D01*
X148283330Y-139964733D01*
X148893991Y-139965265D01*
X149458371Y-139732068D01*
X149890551Y-139300643D01*
X150124733Y-138736670D01*
X150125265Y-138126009D01*
X149892068Y-137561629D01*
X149714908Y-137384159D01*
X149849699Y-137328327D01*
X150028327Y-137149698D01*
X150125000Y-136916309D01*
X150125000Y-136175750D01*
X149966250Y-136017000D01*
X148717000Y-136017000D01*
X148717000Y-136037000D01*
X148463000Y-136037000D01*
X148463000Y-136017000D01*
X147213750Y-136017000D01*
X147055000Y-136175750D01*
X147055000Y-136916309D01*
X147151673Y-137149698D01*
X147330301Y-137328327D01*
X147464994Y-137384119D01*
X147289449Y-137559357D01*
X147055267Y-138123330D01*
X147054735Y-138733991D01*
X135259242Y-138733991D01*
X133783020Y-137995490D01*
X129719688Y-135625742D01*
X126074806Y-133153863D01*
X122824765Y-130593491D01*
X119945807Y-127957987D01*
X117414187Y-125260481D01*
X115206233Y-122513835D01*
X113298457Y-119730729D01*
X111667584Y-116923699D01*
X110615375Y-114770000D01*
X115392560Y-114770000D01*
X115392560Y-116370000D01*
X115436838Y-116605317D01*
X115575910Y-116821441D01*
X115788110Y-116966431D01*
X116040000Y-117017440D01*
X117640000Y-117017440D01*
X117875317Y-116973162D01*
X118091441Y-116834090D01*
X118236431Y-116621890D01*
X118287440Y-116370000D01*
X118287440Y-114770000D01*
X118243162Y-114534683D01*
X118104090Y-114318559D01*
X118097452Y-114314023D01*
X118286965Y-113786777D01*
X118259778Y-113216546D01*
X118093864Y-112815995D01*
X117847745Y-112741861D01*
X117019605Y-113570000D01*
X117033748Y-113584142D01*
X116854143Y-113763748D01*
X116840000Y-113749605D01*
X116825858Y-113763748D01*
X116646252Y-113584142D01*
X116660395Y-113570000D01*
X115832255Y-112741861D01*
X115586136Y-112815995D01*
X115393035Y-113353223D01*
X115420222Y-113923454D01*
X115582384Y-114314947D01*
X115443569Y-114518110D01*
X115392560Y-114770000D01*
X110615375Y-114770000D01*
X110290600Y-114105240D01*
X109663041Y-112562255D01*
X116011861Y-112562255D01*
X116840000Y-113390395D01*
X117668139Y-112562255D01*
X117594005Y-112316136D01*
X117056777Y-112123035D01*
X116486546Y-112150222D01*
X116085995Y-112316136D01*
X116011861Y-112562255D01*
X109663041Y-112562255D01*
X109144743Y-111287913D01*
X108453383Y-109220000D01*
X110296887Y-109220000D01*
X110406120Y-109769151D01*
X110717189Y-110234698D01*
X111182736Y-110545767D01*
X111731887Y-110655000D01*
X111788113Y-110655000D01*
X112337264Y-110545767D01*
X112802811Y-110234698D01*
X113113880Y-109769151D01*
X113166584Y-109504187D01*
X117944752Y-109504187D01*
X118162757Y-110031800D01*
X118566077Y-110435824D01*
X119093309Y-110654750D01*
X119634354Y-110655222D01*
X119815000Y-110835868D01*
X119815000Y-123825000D01*
X119878561Y-124144541D01*
X120033297Y-124376120D01*
X120059566Y-124415434D01*
X121328189Y-125684057D01*
X121319050Y-125730000D01*
X121428283Y-126279151D01*
X121739352Y-126744698D01*
X122204899Y-127055767D01*
X122754050Y-127165000D01*
X123444132Y-127165000D01*
X128647465Y-132368333D01*
X128746883Y-132608943D01*
X129009673Y-132872192D01*
X129353201Y-133014838D01*
X129725167Y-133015162D01*
X130068943Y-132873117D01*
X130332192Y-132610327D01*
X130474838Y-132266799D01*
X130475162Y-131894833D01*
X130333117Y-131551057D01*
X130070327Y-131287808D01*
X129828090Y-131187222D01*
X124939021Y-126298153D01*
X124951717Y-126279151D01*
X124993631Y-126068433D01*
X133206744Y-134281546D01*
X133185250Y-134333309D01*
X133184752Y-134904187D01*
X133402757Y-135431800D01*
X133806077Y-135835824D01*
X134333309Y-136054750D01*
X134904187Y-136055248D01*
X135431800Y-135837243D01*
X135835824Y-135433923D01*
X136054750Y-134906691D01*
X136055000Y-134620000D01*
X140776887Y-134620000D01*
X140886120Y-135169151D01*
X141197189Y-135634698D01*
X141662736Y-135945767D01*
X142211887Y-136055000D01*
X142268113Y-136055000D01*
X142817264Y-135945767D01*
X143282811Y-135634698D01*
X143593880Y-135169151D01*
X143654639Y-134863691D01*
X147055000Y-134863691D01*
X147055000Y-135604250D01*
X147213750Y-135763000D01*
X148463000Y-135763000D01*
X148463000Y-134513750D01*
X148717000Y-134513750D01*
X148717000Y-135763000D01*
X149966250Y-135763000D01*
X150125000Y-135604250D01*
X150125000Y-134863691D01*
X150028327Y-134630302D01*
X149849699Y-134451673D01*
X149616310Y-134355000D01*
X148875750Y-134355000D01*
X148717000Y-134513750D01*
X148463000Y-134513750D01*
X148304250Y-134355000D01*
X147563690Y-134355000D01*
X147330301Y-134451673D01*
X147151673Y-134630302D01*
X147055000Y-134863691D01*
X143654639Y-134863691D01*
X143703113Y-134620000D01*
X143593880Y-134070849D01*
X143282811Y-133605302D01*
X142817264Y-133294233D01*
X142268113Y-133185000D01*
X142211887Y-133185000D01*
X141662736Y-133294233D01*
X141197189Y-133605302D01*
X140886120Y-134070849D01*
X140776887Y-134620000D01*
X136055000Y-134620000D01*
X136055248Y-134335813D01*
X135837243Y-133808200D01*
X135433923Y-133404176D01*
X134906691Y-133185250D01*
X134335813Y-133184752D01*
X134281851Y-133207049D01*
X124896536Y-123821734D01*
X124951717Y-123739151D01*
X125060950Y-123190000D01*
X124951717Y-122640849D01*
X124640648Y-122175302D01*
X124258562Y-121920000D01*
X124640648Y-121664698D01*
X124951717Y-121199151D01*
X125060950Y-120650000D01*
X124951717Y-120100849D01*
X124640648Y-119635302D01*
X124262293Y-119382493D01*
X124694500Y-119034896D01*
X124964367Y-118541819D01*
X124981904Y-118459039D01*
X124859915Y-118237000D01*
X123317000Y-118237000D01*
X123317000Y-118257000D01*
X123063000Y-118257000D01*
X123063000Y-118237000D01*
X123043000Y-118237000D01*
X123043000Y-117983000D01*
X123063000Y-117983000D01*
X123063000Y-117963000D01*
X123317000Y-117963000D01*
X123317000Y-117983000D01*
X124859915Y-117983000D01*
X124981904Y-117760961D01*
X124964367Y-117678181D01*
X124694500Y-117185104D01*
X124262293Y-116837507D01*
X124640648Y-116584698D01*
X124951717Y-116119151D01*
X125060950Y-115570000D01*
X124951717Y-115020849D01*
X124640648Y-114555302D01*
X124258562Y-114300000D01*
X124640648Y-114044698D01*
X124951717Y-113579151D01*
X124952604Y-113574692D01*
X125199673Y-113822192D01*
X125543201Y-113964838D01*
X125590077Y-113964879D01*
X125605000Y-113979802D01*
X125605000Y-121285000D01*
X125662852Y-121575839D01*
X125827599Y-121822401D01*
X126064878Y-122059680D01*
X126064838Y-122105167D01*
X126206883Y-122448943D01*
X126469673Y-122712192D01*
X126813201Y-122854838D01*
X127185167Y-122855162D01*
X127528943Y-122713117D01*
X127792192Y-122450327D01*
X127934838Y-122106799D01*
X127935162Y-121734833D01*
X127793117Y-121391057D01*
X127687290Y-121285046D01*
X127792192Y-121180327D01*
X127934838Y-120836799D01*
X127934879Y-120789923D01*
X128172401Y-120552401D01*
X128337148Y-120305839D01*
X128365550Y-120163053D01*
X128374673Y-120172192D01*
X128718201Y-120314838D01*
X129005668Y-120315088D01*
X128939050Y-120650000D01*
X129048283Y-121199151D01*
X129359352Y-121664698D01*
X129741438Y-121920000D01*
X129359352Y-122175302D01*
X129048283Y-122640849D01*
X128939050Y-123190000D01*
X129048283Y-123739151D01*
X129359352Y-124204698D01*
X129505350Y-124302251D01*
X129374683Y-124326838D01*
X129158559Y-124465910D01*
X129013569Y-124678110D01*
X128962560Y-124930000D01*
X128962560Y-126530000D01*
X129006838Y-126765317D01*
X129145910Y-126981441D01*
X129358110Y-127126431D01*
X129610000Y-127177440D01*
X130547638Y-127177440D01*
X133393056Y-130022858D01*
X133185250Y-130523309D01*
X133184752Y-131094187D01*
X133402757Y-131621800D01*
X133806077Y-132025824D01*
X134333309Y-132244750D01*
X134904187Y-132245248D01*
X135431800Y-132027243D01*
X135835824Y-131623923D01*
X136054750Y-131096691D01*
X136055000Y-130810000D01*
X140776887Y-130810000D01*
X140886120Y-131359151D01*
X141197189Y-131824698D01*
X141662736Y-132135767D01*
X142211887Y-132245000D01*
X142268113Y-132245000D01*
X142817264Y-132135767D01*
X143282811Y-131824698D01*
X143593880Y-131359151D01*
X143642645Y-131113991D01*
X147054735Y-131113991D01*
X147287932Y-131678371D01*
X147719357Y-132110551D01*
X148283330Y-132344733D01*
X148893991Y-132345265D01*
X149458371Y-132112068D01*
X149890551Y-131680643D01*
X150124733Y-131116670D01*
X150125265Y-130506009D01*
X149892068Y-129941629D01*
X149714908Y-129764159D01*
X149849699Y-129708327D01*
X150028327Y-129529698D01*
X150125000Y-129296309D01*
X150125000Y-128555750D01*
X149966250Y-128397000D01*
X148717000Y-128397000D01*
X148717000Y-128417000D01*
X148463000Y-128417000D01*
X148463000Y-128397000D01*
X147213750Y-128397000D01*
X147055000Y-128555750D01*
X147055000Y-129296309D01*
X147151673Y-129529698D01*
X147330301Y-129708327D01*
X147464994Y-129764119D01*
X147289449Y-129939357D01*
X147055267Y-130503330D01*
X147054735Y-131113991D01*
X143642645Y-131113991D01*
X143703113Y-130810000D01*
X143593880Y-130260849D01*
X143282811Y-129795302D01*
X142817264Y-129484233D01*
X142268113Y-129375000D01*
X142211887Y-129375000D01*
X141662736Y-129484233D01*
X141197189Y-129795302D01*
X140886120Y-130260849D01*
X140776887Y-130810000D01*
X136055000Y-130810000D01*
X136055248Y-130525813D01*
X135837243Y-129998200D01*
X135433923Y-129594176D01*
X134906691Y-129375250D01*
X134895042Y-129375240D01*
X132482732Y-126962930D01*
X132606431Y-126781890D01*
X132657440Y-126530000D01*
X132657440Y-124930000D01*
X132637100Y-124821902D01*
X133702986Y-125887788D01*
X133404176Y-126186077D01*
X133185250Y-126713309D01*
X133184752Y-127284187D01*
X133402757Y-127811800D01*
X133806077Y-128215824D01*
X134333309Y-128434750D01*
X134904187Y-128435248D01*
X135431800Y-128217243D01*
X135835824Y-127813923D01*
X136054750Y-127286691D01*
X136055000Y-127000000D01*
X140776887Y-127000000D01*
X140886120Y-127549151D01*
X141197189Y-128014698D01*
X141662736Y-128325767D01*
X142211887Y-128435000D01*
X142268113Y-128435000D01*
X142817264Y-128325767D01*
X143282811Y-128014698D01*
X143593880Y-127549151D01*
X143703113Y-127000000D01*
X143593880Y-126450849D01*
X143282811Y-125985302D01*
X142817264Y-125674233D01*
X142268113Y-125565000D01*
X142211887Y-125565000D01*
X141662736Y-125674233D01*
X141197189Y-125985302D01*
X140886120Y-126450849D01*
X140776887Y-127000000D01*
X136055000Y-127000000D01*
X136055248Y-126715813D01*
X135837243Y-126188200D01*
X135433923Y-125784176D01*
X135380000Y-125761785D01*
X135380000Y-125730000D01*
X135322148Y-125439161D01*
X135322148Y-125439160D01*
X135157401Y-125192599D01*
X134589776Y-124624974D01*
X134904187Y-124625248D01*
X135431800Y-124407243D01*
X135835824Y-124003923D01*
X136054750Y-123476691D01*
X136055000Y-123190000D01*
X140776887Y-123190000D01*
X140886120Y-123739151D01*
X141197189Y-124204698D01*
X141662736Y-124515767D01*
X142211887Y-124625000D01*
X142268113Y-124625000D01*
X142817264Y-124515767D01*
X143282811Y-124204698D01*
X143593880Y-123739151D01*
X143703113Y-123190000D01*
X143593880Y-122640849D01*
X143282811Y-122175302D01*
X142817264Y-121864233D01*
X142268113Y-121755000D01*
X142211887Y-121755000D01*
X141662736Y-121864233D01*
X141197189Y-122175302D01*
X140886120Y-122640849D01*
X140776887Y-123190000D01*
X136055000Y-123190000D01*
X136055248Y-122905813D01*
X135837243Y-122378200D01*
X135433923Y-121974176D01*
X134906691Y-121755250D01*
X134335813Y-121754752D01*
X133808200Y-121972757D01*
X133404176Y-122376077D01*
X133185250Y-122903309D01*
X133184974Y-123220172D01*
X132617401Y-122652599D01*
X132549054Y-122606931D01*
X132260648Y-122175302D01*
X131878562Y-121920000D01*
X132260648Y-121664698D01*
X132571717Y-121199151D01*
X132680950Y-120650000D01*
X132571717Y-120100849D01*
X132279949Y-119664187D01*
X133184752Y-119664187D01*
X133402757Y-120191800D01*
X133806077Y-120595824D01*
X134333309Y-120814750D01*
X134904187Y-120815248D01*
X135431800Y-120597243D01*
X135835824Y-120193923D01*
X136054750Y-119666691D01*
X136055248Y-119095813D01*
X135837243Y-118568200D01*
X135433923Y-118164176D01*
X134906691Y-117945250D01*
X134335813Y-117944752D01*
X133808200Y-118162757D01*
X133404176Y-118566077D01*
X133185250Y-119093309D01*
X133184752Y-119664187D01*
X132279949Y-119664187D01*
X132260648Y-119635302D01*
X131878562Y-119380000D01*
X132260648Y-119124698D01*
X132571717Y-118659151D01*
X132680950Y-118110000D01*
X132571717Y-117560849D01*
X132260648Y-117095302D01*
X131878562Y-116840000D01*
X132260648Y-116584698D01*
X132571717Y-116119151D01*
X132624421Y-115854187D01*
X133184752Y-115854187D01*
X133402757Y-116381800D01*
X133806077Y-116785824D01*
X134333309Y-117004750D01*
X134904187Y-117005248D01*
X135431800Y-116787243D01*
X135835824Y-116383923D01*
X136054750Y-115856691D01*
X136055248Y-115285813D01*
X135837243Y-114758200D01*
X135433923Y-114354176D01*
X134906691Y-114135250D01*
X134335813Y-114134752D01*
X133808200Y-114352757D01*
X133404176Y-114756077D01*
X133185250Y-115283309D01*
X133184752Y-115854187D01*
X132624421Y-115854187D01*
X132680950Y-115570000D01*
X132571717Y-115020849D01*
X132260648Y-114555302D01*
X131878562Y-114300000D01*
X132260648Y-114044698D01*
X132571717Y-113579151D01*
X132680950Y-113030000D01*
X132571717Y-112480849D01*
X132279949Y-112044187D01*
X133184752Y-112044187D01*
X133402757Y-112571800D01*
X133806077Y-112975824D01*
X134333309Y-113194750D01*
X134904187Y-113195248D01*
X135431800Y-112977243D01*
X135835824Y-112573923D01*
X136054750Y-112046691D01*
X136055248Y-111475813D01*
X135837243Y-110948200D01*
X135433923Y-110544176D01*
X134906691Y-110325250D01*
X134335813Y-110324752D01*
X133808200Y-110542757D01*
X133404176Y-110946077D01*
X133185250Y-111473309D01*
X133184752Y-112044187D01*
X132279949Y-112044187D01*
X132260648Y-112015302D01*
X131878562Y-111760000D01*
X132260648Y-111504698D01*
X132571717Y-111039151D01*
X132680950Y-110490000D01*
X132571717Y-109940849D01*
X132260648Y-109475302D01*
X131882293Y-109222493D01*
X132314500Y-108874896D01*
X132584367Y-108381819D01*
X132601904Y-108299039D01*
X132566275Y-108234187D01*
X133184752Y-108234187D01*
X133402757Y-108761800D01*
X133806077Y-109165824D01*
X134333309Y-109384750D01*
X134904187Y-109385248D01*
X135431800Y-109167243D01*
X135835824Y-108763923D01*
X136054750Y-108236691D01*
X136055248Y-107665813D01*
X135837243Y-107138200D01*
X135433923Y-106734176D01*
X134906691Y-106515250D01*
X134335813Y-106514752D01*
X133808200Y-106732757D01*
X133404176Y-107136077D01*
X133185250Y-107663309D01*
X133184752Y-108234187D01*
X132566275Y-108234187D01*
X132479915Y-108077000D01*
X130937000Y-108077000D01*
X130937000Y-108097000D01*
X130683000Y-108097000D01*
X130683000Y-108077000D01*
X129140085Y-108077000D01*
X129018096Y-108299039D01*
X129035633Y-108381819D01*
X129305500Y-108874896D01*
X129737707Y-109222493D01*
X129359352Y-109475302D01*
X129048283Y-109940849D01*
X128939050Y-110490000D01*
X129048283Y-111039151D01*
X129359352Y-111504698D01*
X129741438Y-111760000D01*
X129359352Y-112015302D01*
X129048283Y-112480849D01*
X128939050Y-113030000D01*
X129048283Y-113579151D01*
X129359352Y-114044698D01*
X129741438Y-114300000D01*
X129359352Y-114555302D01*
X129048283Y-115020849D01*
X128939050Y-115570000D01*
X129048283Y-116119151D01*
X129359352Y-116584698D01*
X129741438Y-116840000D01*
X129359352Y-117095302D01*
X129048283Y-117560849D01*
X129030000Y-117652764D01*
X129030000Y-116205000D01*
X128972148Y-115914161D01*
X128807401Y-115667599D01*
X128570122Y-115430320D01*
X128570162Y-115384833D01*
X128428117Y-115041057D01*
X128165327Y-114777808D01*
X127821799Y-114635162D01*
X127449833Y-114634838D01*
X127125000Y-114769056D01*
X127125000Y-113665000D01*
X127067148Y-113374161D01*
X126902401Y-113127599D01*
X126665122Y-112890320D01*
X126665162Y-112844833D01*
X126523117Y-112501057D01*
X126260327Y-112237808D01*
X125916799Y-112095162D01*
X125544833Y-112094838D01*
X125201057Y-112236883D01*
X124952537Y-112484970D01*
X124951717Y-112480849D01*
X124640648Y-112015302D01*
X124258562Y-111760000D01*
X124640648Y-111504698D01*
X124951717Y-111039151D01*
X125060950Y-110490000D01*
X124951717Y-109940849D01*
X124640648Y-109475302D01*
X124258562Y-109220000D01*
X124640648Y-108964698D01*
X124951717Y-108499151D01*
X125060950Y-107950000D01*
X124991522Y-107600961D01*
X129018096Y-107600961D01*
X129140085Y-107823000D01*
X130683000Y-107823000D01*
X130683000Y-106515000D01*
X130937000Y-106515000D01*
X130937000Y-107823000D01*
X132479915Y-107823000D01*
X132601904Y-107600961D01*
X132584367Y-107518181D01*
X132314500Y-107025104D01*
X131876483Y-106672834D01*
X131337000Y-106515000D01*
X130937000Y-106515000D01*
X130683000Y-106515000D01*
X130283000Y-106515000D01*
X129743517Y-106672834D01*
X129305500Y-107025104D01*
X129035633Y-107518181D01*
X129018096Y-107600961D01*
X124991522Y-107600961D01*
X124951717Y-107400849D01*
X124640648Y-106935302D01*
X124175101Y-106624233D01*
X123625950Y-106515000D01*
X122754050Y-106515000D01*
X122204899Y-106624233D01*
X122120000Y-106680961D01*
X122120000Y-106045000D01*
X140210000Y-106045000D01*
X140210000Y-109855000D01*
X140267852Y-110145839D01*
X140432599Y-110392401D01*
X141032289Y-110992091D01*
X140886120Y-111210849D01*
X140776887Y-111760000D01*
X140886120Y-112309151D01*
X141197189Y-112774698D01*
X141662736Y-113085767D01*
X142211887Y-113195000D01*
X142268113Y-113195000D01*
X142817264Y-113085767D01*
X143282811Y-112774698D01*
X143385000Y-112621762D01*
X143385000Y-113985198D01*
X143002317Y-114367881D01*
X142817264Y-114244233D01*
X142268113Y-114135000D01*
X142211887Y-114135000D01*
X141662736Y-114244233D01*
X141197189Y-114555302D01*
X140886120Y-115020849D01*
X140776887Y-115570000D01*
X140886120Y-116119151D01*
X141197189Y-116584698D01*
X141662736Y-116895767D01*
X142211887Y-117005000D01*
X142268113Y-117005000D01*
X142270716Y-117004482D01*
X141702599Y-117572599D01*
X141537852Y-117819161D01*
X141480000Y-118110000D01*
X141480000Y-118176333D01*
X141197189Y-118365302D01*
X140886120Y-118830849D01*
X140776887Y-119380000D01*
X140886120Y-119929151D01*
X141197189Y-120394698D01*
X141662736Y-120705767D01*
X142211887Y-120815000D01*
X142268113Y-120815000D01*
X142817264Y-120705767D01*
X143282811Y-120394698D01*
X143593880Y-119929151D01*
X143703113Y-119380000D01*
X143593880Y-118830849D01*
X143282811Y-118365302D01*
X143148946Y-118275856D01*
X144284680Y-117140122D01*
X144330167Y-117140162D01*
X144673943Y-116998117D01*
X144903829Y-116768631D01*
X145114878Y-116979680D01*
X145114838Y-117025167D01*
X145256883Y-117368943D01*
X145519673Y-117632192D01*
X145863201Y-117774838D01*
X146235167Y-117775162D01*
X146578943Y-117633117D01*
X146842192Y-117370327D01*
X146984838Y-117026799D01*
X146985162Y-116654833D01*
X146843117Y-116311057D01*
X146580327Y-116047808D01*
X146236799Y-115905162D01*
X146189923Y-115905121D01*
X146175000Y-115890198D01*
X146175000Y-114465633D01*
X146498201Y-114599838D01*
X146870167Y-114600162D01*
X147213943Y-114458117D01*
X147267063Y-114405089D01*
X147330301Y-114468327D01*
X147464994Y-114524119D01*
X147289449Y-114699357D01*
X147055267Y-115263330D01*
X147054735Y-115873991D01*
X147287932Y-116438371D01*
X147602105Y-116753093D01*
X146147599Y-118207599D01*
X145982852Y-118454161D01*
X145925000Y-118745000D01*
X145925000Y-120970198D01*
X144640320Y-122254878D01*
X144594833Y-122254838D01*
X144251057Y-122396883D01*
X143987808Y-122659673D01*
X143845162Y-123003201D01*
X143844838Y-123375167D01*
X143986883Y-123718943D01*
X144249673Y-123982192D01*
X144593201Y-124124838D01*
X144965167Y-124125162D01*
X145308943Y-123983117D01*
X145572192Y-123720327D01*
X145714838Y-123376799D01*
X145714879Y-123329923D01*
X147146820Y-121897982D01*
X147151673Y-121909698D01*
X147330301Y-122088327D01*
X147464994Y-122144119D01*
X147289449Y-122319357D01*
X147055267Y-122883330D01*
X147054735Y-123493991D01*
X147286147Y-124054051D01*
X145910320Y-125429878D01*
X145864833Y-125429838D01*
X145521057Y-125571883D01*
X145257808Y-125834673D01*
X145115162Y-126178201D01*
X145114838Y-126550167D01*
X145256883Y-126893943D01*
X145519673Y-127157192D01*
X145863201Y-127299838D01*
X146235167Y-127300162D01*
X146371837Y-127243691D01*
X147055000Y-127243691D01*
X147055000Y-127984250D01*
X147213750Y-128143000D01*
X148463000Y-128143000D01*
X148463000Y-126893750D01*
X148717000Y-126893750D01*
X148717000Y-128143000D01*
X149966250Y-128143000D01*
X150125000Y-127984250D01*
X150125000Y-127243691D01*
X150028327Y-127010302D01*
X149849699Y-126831673D01*
X149616310Y-126735000D01*
X148875750Y-126735000D01*
X148717000Y-126893750D01*
X148463000Y-126893750D01*
X148304250Y-126735000D01*
X147563690Y-126735000D01*
X147330301Y-126831673D01*
X147151673Y-127010302D01*
X147055000Y-127243691D01*
X146371837Y-127243691D01*
X146578943Y-127158117D01*
X146842192Y-126895327D01*
X146984838Y-126551799D01*
X146984879Y-126504923D01*
X148764650Y-124725152D01*
X148893991Y-124725265D01*
X149458371Y-124492068D01*
X149890551Y-124060643D01*
X150124733Y-123496670D01*
X150125265Y-122886009D01*
X149892068Y-122321629D01*
X149714908Y-122144159D01*
X149849699Y-122088327D01*
X150028327Y-121909698D01*
X150125000Y-121676309D01*
X150125000Y-120935750D01*
X149966250Y-120777000D01*
X148717000Y-120777000D01*
X148717000Y-120797000D01*
X148463000Y-120797000D01*
X148463000Y-120777000D01*
X148443000Y-120777000D01*
X148443000Y-120523000D01*
X148463000Y-120523000D01*
X148463000Y-119273750D01*
X148717000Y-119273750D01*
X148717000Y-120523000D01*
X149966250Y-120523000D01*
X150125000Y-120364250D01*
X150125000Y-119623691D01*
X150028327Y-119390302D01*
X150018026Y-119380000D01*
X156016887Y-119380000D01*
X156126120Y-119929151D01*
X156437189Y-120394698D01*
X156819275Y-120650000D01*
X156437189Y-120905302D01*
X156126120Y-121370849D01*
X156016887Y-121920000D01*
X156126120Y-122469151D01*
X156437189Y-122934698D01*
X156819275Y-123190000D01*
X156437189Y-123445302D01*
X156126120Y-123910849D01*
X156016887Y-124460000D01*
X156126120Y-125009151D01*
X156437189Y-125474698D01*
X156819275Y-125730000D01*
X156437189Y-125985302D01*
X156126120Y-126450849D01*
X156016887Y-127000000D01*
X156126120Y-127549151D01*
X156437189Y-128014698D01*
X156902736Y-128325767D01*
X157451887Y-128435000D01*
X157508113Y-128435000D01*
X157696633Y-128397501D01*
X157915000Y-128615868D01*
X157915000Y-129615917D01*
X157534176Y-129996077D01*
X157315250Y-130523309D01*
X157314752Y-131094187D01*
X157532757Y-131621800D01*
X157936077Y-132025824D01*
X158463309Y-132244750D01*
X159034187Y-132245248D01*
X159561800Y-132027243D01*
X159771663Y-131817745D01*
X160421861Y-131817745D01*
X160495995Y-132063864D01*
X161033223Y-132256965D01*
X161603454Y-132229778D01*
X162004005Y-132063864D01*
X162078139Y-131817745D01*
X161250000Y-130989605D01*
X160421861Y-131817745D01*
X159771663Y-131817745D01*
X159965824Y-131623923D01*
X159993423Y-131557456D01*
X159996136Y-131564005D01*
X160242255Y-131638139D01*
X161070395Y-130810000D01*
X161429605Y-130810000D01*
X162257745Y-131638139D01*
X162503864Y-131564005D01*
X162696965Y-131026777D01*
X162669778Y-130456546D01*
X162503864Y-130055995D01*
X162257745Y-129981861D01*
X161429605Y-130810000D01*
X161070395Y-130810000D01*
X160242255Y-129981861D01*
X159996136Y-130055995D01*
X159993804Y-130062483D01*
X159967243Y-129998200D01*
X159771640Y-129802255D01*
X160421861Y-129802255D01*
X161250000Y-130630395D01*
X162078139Y-129802255D01*
X162004005Y-129556136D01*
X161466777Y-129363035D01*
X160896546Y-129390222D01*
X160495995Y-129556136D01*
X160421861Y-129802255D01*
X159771640Y-129802255D01*
X159585000Y-129615290D01*
X159585000Y-128270000D01*
X159521439Y-127950459D01*
X159340434Y-127679566D01*
X158896286Y-127235418D01*
X158943113Y-127000000D01*
X158833880Y-126450849D01*
X158522811Y-125985302D01*
X158140725Y-125730000D01*
X158522811Y-125474698D01*
X158833880Y-125009151D01*
X158943113Y-124460000D01*
X158833880Y-123910849D01*
X158522811Y-123445302D01*
X158140725Y-123190000D01*
X158522811Y-122934698D01*
X158833880Y-122469151D01*
X158943113Y-121920000D01*
X158833880Y-121370849D01*
X158522811Y-120905302D01*
X158140725Y-120650000D01*
X158522811Y-120394698D01*
X158833880Y-119929151D01*
X158943113Y-119380000D01*
X158853636Y-118930167D01*
X162259838Y-118930167D01*
X162401883Y-119273943D01*
X162435000Y-119307118D01*
X162435000Y-120650000D01*
X162492852Y-120940839D01*
X162657599Y-121187401D01*
X163698141Y-122227943D01*
X163746120Y-122469151D01*
X164057189Y-122934698D01*
X164439275Y-123190000D01*
X164057189Y-123445302D01*
X163746120Y-123910849D01*
X163636887Y-124460000D01*
X163746120Y-125009151D01*
X164057189Y-125474698D01*
X164201465Y-125571101D01*
X164064683Y-125596838D01*
X163848559Y-125735910D01*
X163703569Y-125948110D01*
X163652560Y-126200000D01*
X163652560Y-127800000D01*
X163696838Y-128035317D01*
X163835910Y-128251441D01*
X164048110Y-128396431D01*
X164300000Y-128447440D01*
X165900000Y-128447440D01*
X166135317Y-128403162D01*
X166351441Y-128264090D01*
X166496431Y-128051890D01*
X166547440Y-127800000D01*
X166547440Y-126200000D01*
X166503162Y-125964683D01*
X166364090Y-125748559D01*
X166151890Y-125603569D01*
X165996911Y-125572185D01*
X166142811Y-125474698D01*
X166453880Y-125009151D01*
X166563113Y-124460000D01*
X166453880Y-123910849D01*
X166142811Y-123445302D01*
X165760725Y-123190000D01*
X166142811Y-122934698D01*
X166453880Y-122469151D01*
X166563113Y-121920000D01*
X166453880Y-121370849D01*
X166142811Y-120905302D01*
X165738297Y-120635014D01*
X165955134Y-120532389D01*
X166331041Y-120117423D01*
X166491904Y-119729039D01*
X166369915Y-119507000D01*
X165227000Y-119507000D01*
X165227000Y-119527000D01*
X164973000Y-119527000D01*
X164973000Y-119507000D01*
X164953000Y-119507000D01*
X164953000Y-119253000D01*
X164973000Y-119253000D01*
X164973000Y-118109371D01*
X165227000Y-118109371D01*
X165227000Y-119253000D01*
X166369915Y-119253000D01*
X166491904Y-119030961D01*
X166331041Y-118642577D01*
X165955134Y-118227611D01*
X165449041Y-117988086D01*
X165227000Y-118109371D01*
X164973000Y-118109371D01*
X164750959Y-117988086D01*
X164244866Y-118227611D01*
X164071821Y-118418636D01*
X163988117Y-118216057D01*
X163725327Y-117952808D01*
X163381799Y-117810162D01*
X163009833Y-117809838D01*
X162666057Y-117951883D01*
X162402808Y-118214673D01*
X162260162Y-118558201D01*
X162259838Y-118930167D01*
X158853636Y-118930167D01*
X158833880Y-118830849D01*
X158522811Y-118365302D01*
X158057264Y-118054233D01*
X157508113Y-117945000D01*
X157451887Y-117945000D01*
X156902736Y-118054233D01*
X156437189Y-118365302D01*
X156126120Y-118830849D01*
X156016887Y-119380000D01*
X150018026Y-119380000D01*
X149849699Y-119211673D01*
X149616310Y-119115000D01*
X148875750Y-119115000D01*
X148717000Y-119273750D01*
X148463000Y-119273750D01*
X148304250Y-119115000D01*
X147563690Y-119115000D01*
X147445000Y-119164163D01*
X147445000Y-119059802D01*
X149127401Y-117377401D01*
X149292148Y-117130839D01*
X149333345Y-116923728D01*
X149458371Y-116872068D01*
X149890551Y-116440643D01*
X150124733Y-115876670D01*
X150125265Y-115266009D01*
X149892068Y-114701629D01*
X149714908Y-114524159D01*
X149849699Y-114468327D01*
X150028327Y-114289698D01*
X150125000Y-114056309D01*
X150125000Y-113315750D01*
X149966250Y-113157000D01*
X148717000Y-113157000D01*
X148717000Y-113177000D01*
X148463000Y-113177000D01*
X148463000Y-113157000D01*
X148443000Y-113157000D01*
X148443000Y-112903000D01*
X148463000Y-112903000D01*
X148463000Y-111653750D01*
X148717000Y-111653750D01*
X148717000Y-112903000D01*
X149966250Y-112903000D01*
X150125000Y-112744250D01*
X150125000Y-112003691D01*
X150028327Y-111770302D01*
X149849699Y-111591673D01*
X149616310Y-111495000D01*
X148875750Y-111495000D01*
X148717000Y-111653750D01*
X148463000Y-111653750D01*
X148304250Y-111495000D01*
X147563690Y-111495000D01*
X147445000Y-111544163D01*
X147445000Y-110169802D01*
X148175036Y-109439766D01*
X148283330Y-109484733D01*
X148893991Y-109485265D01*
X149458371Y-109252068D01*
X149890551Y-108820643D01*
X150124733Y-108256670D01*
X150125265Y-107646009D01*
X149892068Y-107081629D01*
X149714908Y-106904159D01*
X149849699Y-106848327D01*
X150028327Y-106669698D01*
X150125000Y-106436309D01*
X150125000Y-105695750D01*
X149966250Y-105537000D01*
X148717000Y-105537000D01*
X148717000Y-105557000D01*
X148463000Y-105557000D01*
X148463000Y-105537000D01*
X147213750Y-105537000D01*
X147055000Y-105695750D01*
X147055000Y-106436309D01*
X147151673Y-106669698D01*
X147330301Y-106848327D01*
X147464994Y-106904119D01*
X147289449Y-107079357D01*
X147055267Y-107643330D01*
X147054735Y-108253991D01*
X147100485Y-108364713D01*
X146147599Y-109317599D01*
X146050000Y-109463667D01*
X145952401Y-109317599D01*
X145715122Y-109080320D01*
X145715162Y-109034833D01*
X145573117Y-108691057D01*
X145310327Y-108427808D01*
X144966799Y-108285162D01*
X144905000Y-108285108D01*
X144905000Y-104383691D01*
X147055000Y-104383691D01*
X147055000Y-105124250D01*
X147213750Y-105283000D01*
X148463000Y-105283000D01*
X148463000Y-104033750D01*
X148717000Y-104033750D01*
X148717000Y-105283000D01*
X149966250Y-105283000D01*
X150125000Y-105124250D01*
X150125000Y-104383691D01*
X150028327Y-104150302D01*
X149849699Y-103971673D01*
X149616310Y-103875000D01*
X148875750Y-103875000D01*
X148717000Y-104033750D01*
X148463000Y-104033750D01*
X148304250Y-103875000D01*
X147563690Y-103875000D01*
X147330301Y-103971673D01*
X147151673Y-104150302D01*
X147055000Y-104383691D01*
X144905000Y-104383691D01*
X144905000Y-103184802D01*
X144919680Y-103170122D01*
X144965167Y-103170162D01*
X145308943Y-103028117D01*
X145572192Y-102765327D01*
X145714838Y-102421799D01*
X145715162Y-102049833D01*
X145573117Y-101706057D01*
X145310327Y-101442808D01*
X144966799Y-101300162D01*
X144594833Y-101299838D01*
X144270000Y-101434056D01*
X144270000Y-100633991D01*
X147054735Y-100633991D01*
X147287932Y-101198371D01*
X147719357Y-101630551D01*
X148283330Y-101864733D01*
X148893991Y-101865265D01*
X149458371Y-101632068D01*
X149890551Y-101200643D01*
X150124733Y-100636670D01*
X150125265Y-100026009D01*
X149892068Y-99461629D01*
X149714908Y-99284159D01*
X149849699Y-99228327D01*
X150028327Y-99049698D01*
X150125000Y-98816309D01*
X150125000Y-98075750D01*
X149966250Y-97917000D01*
X148717000Y-97917000D01*
X148717000Y-97937000D01*
X148463000Y-97937000D01*
X148463000Y-97917000D01*
X147213750Y-97917000D01*
X147055000Y-98075750D01*
X147055000Y-98816309D01*
X147151673Y-99049698D01*
X147330301Y-99228327D01*
X147464994Y-99284119D01*
X147289449Y-99459357D01*
X147055267Y-100023330D01*
X147054735Y-100633991D01*
X144270000Y-100633991D01*
X144270000Y-97469802D01*
X145114908Y-96624894D01*
X145114838Y-96705167D01*
X145256883Y-97048943D01*
X145519673Y-97312192D01*
X145863201Y-97454838D01*
X146235167Y-97455162D01*
X146578943Y-97313117D01*
X146842192Y-97050327D01*
X146961214Y-96763691D01*
X147055000Y-96763691D01*
X147055000Y-97504250D01*
X147213750Y-97663000D01*
X148463000Y-97663000D01*
X148463000Y-96413750D01*
X148717000Y-96413750D01*
X148717000Y-97663000D01*
X149966250Y-97663000D01*
X150125000Y-97504250D01*
X150125000Y-96763691D01*
X150028327Y-96530302D01*
X149849699Y-96351673D01*
X149616310Y-96255000D01*
X148875750Y-96255000D01*
X148717000Y-96413750D01*
X148463000Y-96413750D01*
X148304250Y-96255000D01*
X147563690Y-96255000D01*
X147330301Y-96351673D01*
X147151673Y-96530302D01*
X147055000Y-96763691D01*
X146961214Y-96763691D01*
X146984838Y-96706799D01*
X146984879Y-96659923D01*
X149127401Y-94517401D01*
X149292148Y-94270840D01*
X149313109Y-94165460D01*
X149333345Y-94063728D01*
X149458371Y-94012068D01*
X149890551Y-93580643D01*
X150124733Y-93016670D01*
X150125265Y-92406009D01*
X149892068Y-91841629D01*
X149714908Y-91664159D01*
X149849699Y-91608327D01*
X150028327Y-91429698D01*
X150125000Y-91196309D01*
X150125000Y-90455750D01*
X149966250Y-90297000D01*
X148717000Y-90297000D01*
X148717000Y-90317000D01*
X148463000Y-90317000D01*
X148463000Y-90297000D01*
X147213750Y-90297000D01*
X147055000Y-90455750D01*
X147055000Y-91196309D01*
X147151673Y-91429698D01*
X147330301Y-91608327D01*
X147464994Y-91664119D01*
X147289449Y-91839357D01*
X147055267Y-92403330D01*
X147054735Y-93013991D01*
X147287932Y-93578371D01*
X147602105Y-93893093D01*
X145910320Y-95584878D01*
X145864833Y-95584838D01*
X145540000Y-95719056D01*
X145540000Y-89143691D01*
X147055000Y-89143691D01*
X147055000Y-89884250D01*
X147213750Y-90043000D01*
X148463000Y-90043000D01*
X148463000Y-88793750D01*
X148717000Y-88793750D01*
X148717000Y-90043000D01*
X149966250Y-90043000D01*
X150125000Y-89884250D01*
X150125000Y-89143691D01*
X150028327Y-88910302D01*
X149849699Y-88731673D01*
X149616310Y-88635000D01*
X148875750Y-88635000D01*
X148717000Y-88793750D01*
X148463000Y-88793750D01*
X148304250Y-88635000D01*
X147563690Y-88635000D01*
X147330301Y-88731673D01*
X147151673Y-88910302D01*
X147055000Y-89143691D01*
X145540000Y-89143691D01*
X145540000Y-86674802D01*
X146364802Y-85850000D01*
X147243154Y-85850000D01*
X147287932Y-85958371D01*
X147719357Y-86390551D01*
X148283330Y-86624733D01*
X148893991Y-86625265D01*
X149458371Y-86392068D01*
X149890551Y-85960643D01*
X150124733Y-85396670D01*
X150125265Y-84786009D01*
X149892068Y-84221629D01*
X149714908Y-84044159D01*
X149849699Y-83988327D01*
X150028327Y-83809698D01*
X150125000Y-83576309D01*
X150125000Y-82835750D01*
X149966250Y-82677000D01*
X148717000Y-82677000D01*
X148717000Y-82697000D01*
X148463000Y-82697000D01*
X148463000Y-82677000D01*
X147213750Y-82677000D01*
X147055000Y-82835750D01*
X147055000Y-83576309D01*
X147151673Y-83809698D01*
X147330301Y-83988327D01*
X147464994Y-84044119D01*
X147289449Y-84219357D01*
X147243506Y-84330000D01*
X146050000Y-84330000D01*
X145759160Y-84387852D01*
X145512599Y-84552599D01*
X144242599Y-85822599D01*
X144077852Y-86069161D01*
X144020000Y-86360000D01*
X144020000Y-95570198D01*
X142972599Y-96617599D01*
X142807852Y-96864161D01*
X142750000Y-97155000D01*
X142750000Y-98259367D01*
X142426799Y-98125162D01*
X142054833Y-98124838D01*
X141711057Y-98266883D01*
X141447808Y-98529673D01*
X141305162Y-98873201D01*
X141304838Y-99245167D01*
X141446883Y-99588943D01*
X141480000Y-99622118D01*
X141480000Y-104460198D01*
X140432599Y-105507599D01*
X140267852Y-105754161D01*
X140210000Y-106045000D01*
X122120000Y-106045000D01*
X122120000Y-91115816D01*
X122623742Y-91115816D01*
X122646341Y-91215519D01*
X122932466Y-91732928D01*
X123394815Y-92101457D01*
X123963000Y-92265000D01*
X124463000Y-92265000D01*
X124463000Y-90882000D01*
X122744731Y-90882000D01*
X122623742Y-91115816D01*
X122120000Y-91115816D01*
X122120000Y-90394184D01*
X122623742Y-90394184D01*
X122744731Y-90628000D01*
X124463000Y-90628000D01*
X124463000Y-89245000D01*
X123963000Y-89245000D01*
X123394815Y-89408543D01*
X122932466Y-89777072D01*
X122646341Y-90294481D01*
X122623742Y-90394184D01*
X122120000Y-90394184D01*
X122120000Y-83530868D01*
X122843333Y-82807535D01*
X123083943Y-82708117D01*
X123347192Y-82445327D01*
X123489838Y-82101799D01*
X123490162Y-81729833D01*
X123348117Y-81386057D01*
X123085327Y-81122808D01*
X122741799Y-80980162D01*
X122369833Y-80979838D01*
X122026057Y-81121883D01*
X121762808Y-81384673D01*
X121662222Y-81626910D01*
X120694566Y-82594566D01*
X120513561Y-82865459D01*
X120450000Y-83185000D01*
X120450000Y-104494803D01*
X120235134Y-104257611D01*
X119729041Y-104018086D01*
X119507000Y-104139371D01*
X119507000Y-105283000D01*
X119527000Y-105283000D01*
X119527000Y-105537000D01*
X119507000Y-105537000D01*
X119507000Y-106680629D01*
X119729041Y-106801914D01*
X120235134Y-106562389D01*
X120450000Y-106325197D01*
X120450000Y-106969132D01*
X119633911Y-107785221D01*
X119556731Y-107785154D01*
X119380000Y-107750000D01*
X119204813Y-107784847D01*
X119095813Y-107784752D01*
X118568200Y-108002757D01*
X118164176Y-108406077D01*
X117945250Y-108933309D01*
X117944752Y-109504187D01*
X113166584Y-109504187D01*
X113223113Y-109220000D01*
X113113880Y-108670849D01*
X112802811Y-108205302D01*
X112520000Y-108016333D01*
X112520000Y-106648646D01*
X112571800Y-106627243D01*
X112975824Y-106223923D01*
X113168860Y-105759039D01*
X117988096Y-105759039D01*
X118148959Y-106147423D01*
X118524866Y-106562389D01*
X119030959Y-106801914D01*
X119253000Y-106680629D01*
X119253000Y-105537000D01*
X118110085Y-105537000D01*
X117988096Y-105759039D01*
X113168860Y-105759039D01*
X113194750Y-105696691D01*
X113195248Y-105125813D01*
X113168452Y-105060961D01*
X117988096Y-105060961D01*
X118110085Y-105283000D01*
X119253000Y-105283000D01*
X119253000Y-104139371D01*
X119030959Y-104018086D01*
X118524866Y-104257611D01*
X118148959Y-104672577D01*
X117988096Y-105060961D01*
X113168452Y-105060961D01*
X112977243Y-104598200D01*
X112573923Y-104194176D01*
X112520000Y-104171785D01*
X112520000Y-103184802D01*
X116107401Y-99597401D01*
X116272148Y-99350839D01*
X116330000Y-99060000D01*
X116330000Y-94805665D01*
X116487914Y-94805803D01*
X118192087Y-94101653D01*
X119497071Y-92798945D01*
X120204194Y-91096003D01*
X120205803Y-89252086D01*
X119501653Y-87547913D01*
X118198945Y-86242929D01*
X116496003Y-85535806D01*
X116330000Y-85535661D01*
X116330000Y-85017463D01*
X116362192Y-84985327D01*
X116504838Y-84641799D01*
X116505162Y-84269833D01*
X116363117Y-83926057D01*
X116100327Y-83662808D01*
X115756799Y-83520162D01*
X115384833Y-83519838D01*
X115041057Y-83661883D01*
X114777808Y-83924673D01*
X114635162Y-84268201D01*
X114634838Y-84640167D01*
X114776883Y-84983943D01*
X114810000Y-85017118D01*
X114810000Y-85534335D01*
X114652086Y-85534197D01*
X112947913Y-86238347D01*
X111642929Y-87541055D01*
X110935806Y-89243997D01*
X110934197Y-91087914D01*
X111638347Y-92792087D01*
X112941055Y-94097071D01*
X114643997Y-94804194D01*
X114810000Y-94804339D01*
X114810000Y-98745198D01*
X111222599Y-102332599D01*
X111057852Y-102579161D01*
X111000000Y-102870000D01*
X111000000Y-104171354D01*
X110948200Y-104192757D01*
X110544176Y-104596077D01*
X110325250Y-105123309D01*
X110324752Y-105694187D01*
X110542757Y-106221800D01*
X110946077Y-106625824D01*
X111000000Y-106648215D01*
X111000000Y-108016333D01*
X110717189Y-108205302D01*
X110406120Y-108670849D01*
X110296887Y-109220000D01*
X108453383Y-109220000D01*
X108207453Y-108484404D01*
X107456327Y-105707615D01*
X106869354Y-102971477D01*
X106432701Y-100289203D01*
X106144449Y-97669208D01*
X106003339Y-95117938D01*
X106008053Y-92641816D01*
X106157200Y-90247190D01*
X106449337Y-87940292D01*
X106882947Y-85727371D01*
X107456477Y-83614485D01*
X108168343Y-81607582D01*
X109016996Y-79712381D01*
X109571237Y-78710907D01*
X120435000Y-78710907D01*
X120435000Y-78769093D01*
X120548039Y-79337378D01*
X120869946Y-79819147D01*
X121351715Y-80141054D01*
X121920000Y-80254093D01*
X122488285Y-80141054D01*
X122970054Y-79819147D01*
X123190000Y-79489974D01*
X123409946Y-79819147D01*
X123625000Y-79962841D01*
X123625000Y-80645000D01*
X123688561Y-80964541D01*
X123815822Y-81155000D01*
X123869566Y-81235434D01*
X126165000Y-83530868D01*
X126165000Y-89711286D01*
X125785185Y-89408543D01*
X125217000Y-89245000D01*
X124717000Y-89245000D01*
X124717000Y-90628000D01*
X124737000Y-90628000D01*
X124737000Y-90882000D01*
X124717000Y-90882000D01*
X124717000Y-92265000D01*
X125217000Y-92265000D01*
X125785185Y-92101457D01*
X125822096Y-92072036D01*
X123999566Y-93894566D01*
X123818561Y-94165459D01*
X123755000Y-94485000D01*
X123755000Y-102103803D01*
X123472770Y-102159942D01*
X122982891Y-102487269D01*
X122655564Y-102977148D01*
X122540622Y-103555000D01*
X122655564Y-104132852D01*
X122982891Y-104622731D01*
X123472770Y-104950058D01*
X124050622Y-105065000D01*
X125129378Y-105065000D01*
X125707230Y-104950058D01*
X126197109Y-104622731D01*
X126524436Y-104132852D01*
X126639378Y-103555000D01*
X126524436Y-102977148D01*
X126197109Y-102487269D01*
X125707230Y-102159942D01*
X125425000Y-102103803D01*
X125425000Y-94830868D01*
X127590434Y-92665434D01*
X127771440Y-92394540D01*
X127835000Y-92075000D01*
X127835000Y-83185000D01*
X127771439Y-82865459D01*
X127590434Y-82594566D01*
X125295000Y-80299132D01*
X125295000Y-79962841D01*
X125510054Y-79819147D01*
X125537850Y-79777548D01*
X125546838Y-79825317D01*
X125685910Y-80041441D01*
X125898110Y-80186431D01*
X126150000Y-80237440D01*
X127850000Y-80237440D01*
X128085317Y-80193162D01*
X128301441Y-80054090D01*
X128446431Y-79841890D01*
X128470492Y-79723071D01*
X132985000Y-79723071D01*
X132985000Y-80296929D01*
X133109457Y-80922616D01*
X133463880Y-81453049D01*
X133994313Y-81807472D01*
X134620000Y-81931929D01*
X135245687Y-81807472D01*
X135776120Y-81453049D01*
X135900342Y-81267137D01*
X136096663Y-81514298D01*
X136657604Y-81825742D01*
X136779566Y-81850124D01*
X137033000Y-81730777D01*
X137033000Y-80137000D01*
X137013000Y-80137000D01*
X137013000Y-79883000D01*
X137033000Y-79883000D01*
X137033000Y-78289223D01*
X137287000Y-78289223D01*
X137287000Y-79883000D01*
X137307000Y-79883000D01*
X137307000Y-80137000D01*
X137287000Y-80137000D01*
X137287000Y-81730777D01*
X137540434Y-81850124D01*
X137662396Y-81825742D01*
X138223337Y-81514298D01*
X138419658Y-81267137D01*
X138543880Y-81453049D01*
X139074313Y-81807472D01*
X139700000Y-81931929D01*
X140325687Y-81807472D01*
X140750396Y-81523691D01*
X147055000Y-81523691D01*
X147055000Y-82264250D01*
X147213750Y-82423000D01*
X148463000Y-82423000D01*
X148463000Y-81173750D01*
X148717000Y-81173750D01*
X148717000Y-82423000D01*
X149966250Y-82423000D01*
X150125000Y-82264250D01*
X150125000Y-81915000D01*
X151005000Y-81915000D01*
X151005000Y-106045000D01*
X151062852Y-106335839D01*
X151227599Y-106582401D01*
X153519093Y-108873895D01*
X153495252Y-108931311D01*
X153494750Y-109506167D01*
X153714275Y-110037457D01*
X154120405Y-110444297D01*
X154651311Y-110664748D01*
X155226167Y-110665250D01*
X155757457Y-110445725D01*
X156164297Y-110039595D01*
X156384748Y-109508689D01*
X156385250Y-108933833D01*
X156165725Y-108402543D01*
X155759595Y-107995703D01*
X155228689Y-107775252D01*
X154653833Y-107774750D01*
X154594194Y-107799392D01*
X152525000Y-105730198D01*
X152525000Y-82229802D01*
X152539680Y-82215122D01*
X152585167Y-82215162D01*
X152928943Y-82073117D01*
X153087336Y-81915000D01*
X153545000Y-81915000D01*
X153545000Y-99695000D01*
X153602852Y-99985839D01*
X153767599Y-100232401D01*
X154004878Y-100469680D01*
X154004838Y-100515167D01*
X154146883Y-100858943D01*
X154409673Y-101122192D01*
X154753201Y-101264838D01*
X155125167Y-101265162D01*
X155450000Y-101130944D01*
X155450000Y-102307537D01*
X155417808Y-102339673D01*
X155275162Y-102683201D01*
X155274838Y-103055167D01*
X155416883Y-103398943D01*
X155679673Y-103662192D01*
X156023201Y-103804838D01*
X156395167Y-103805162D01*
X156680000Y-103687472D01*
X156680000Y-112970534D01*
X156622543Y-112994275D01*
X156215703Y-113400405D01*
X155995252Y-113931311D01*
X155994750Y-114506167D01*
X156214275Y-115037457D01*
X156620405Y-115444297D01*
X157151311Y-115664748D01*
X157726167Y-115665250D01*
X158257457Y-115445725D01*
X158664297Y-115039595D01*
X158884748Y-114508689D01*
X158885250Y-113933833D01*
X158665725Y-113402543D01*
X158259595Y-112995703D01*
X158200000Y-112970957D01*
X158200000Y-109506167D01*
X158494750Y-109506167D01*
X158714275Y-110037457D01*
X159120405Y-110444297D01*
X159651311Y-110664748D01*
X160226167Y-110665250D01*
X160757457Y-110445725D01*
X161164297Y-110039595D01*
X161384748Y-109508689D01*
X161385000Y-109220000D01*
X162366887Y-109220000D01*
X162476120Y-109769151D01*
X162787189Y-110234698D01*
X163070000Y-110423667D01*
X163070000Y-111826333D01*
X162787189Y-112015302D01*
X162476120Y-112480849D01*
X162366887Y-113030000D01*
X162476120Y-113579151D01*
X162787189Y-114044698D01*
X163252736Y-114355767D01*
X163801887Y-114465000D01*
X163858113Y-114465000D01*
X164407264Y-114355767D01*
X164872811Y-114044698D01*
X165183880Y-113579151D01*
X165293113Y-113030000D01*
X165183880Y-112480849D01*
X164872811Y-112015302D01*
X164590000Y-111826333D01*
X164590000Y-110423667D01*
X164872811Y-110234698D01*
X165183880Y-109769151D01*
X165293113Y-109220000D01*
X165183880Y-108670849D01*
X164872811Y-108205302D01*
X164407264Y-107894233D01*
X163858113Y-107785000D01*
X163801887Y-107785000D01*
X163252736Y-107894233D01*
X162787189Y-108205302D01*
X162476120Y-108670849D01*
X162366887Y-109220000D01*
X161385000Y-109220000D01*
X161385250Y-108933833D01*
X161165725Y-108402543D01*
X160759595Y-107995703D01*
X160228689Y-107775252D01*
X159653833Y-107774750D01*
X159122543Y-107994275D01*
X158715703Y-108400405D01*
X158495252Y-108931311D01*
X158494750Y-109506167D01*
X158200000Y-109506167D01*
X158200000Y-93064802D01*
X159287401Y-91977401D01*
X159452148Y-91730839D01*
X159510000Y-91440000D01*
X159510000Y-89250832D01*
X159764698Y-89080648D01*
X160020000Y-88698562D01*
X160275302Y-89080648D01*
X160740849Y-89391717D01*
X161290000Y-89500950D01*
X161839151Y-89391717D01*
X162304698Y-89080648D01*
X162557507Y-88702293D01*
X162905104Y-89134500D01*
X163398181Y-89404367D01*
X163480961Y-89421904D01*
X163703000Y-89299915D01*
X163703000Y-87757000D01*
X163683000Y-87757000D01*
X163683000Y-87503000D01*
X163703000Y-87503000D01*
X163703000Y-85960085D01*
X163957000Y-85960085D01*
X163957000Y-87503000D01*
X163977000Y-87503000D01*
X163977000Y-87757000D01*
X163957000Y-87757000D01*
X163957000Y-89299915D01*
X164179039Y-89421904D01*
X164261819Y-89404367D01*
X164754896Y-89134500D01*
X165102493Y-88702293D01*
X165355302Y-89080648D01*
X165610000Y-89250832D01*
X165610000Y-90805000D01*
X165667852Y-91095839D01*
X165832599Y-91342401D01*
X168150000Y-93659802D01*
X168150000Y-100015198D01*
X167102599Y-101062599D01*
X166937852Y-101309161D01*
X166880000Y-101600000D01*
X166880000Y-102235000D01*
X166937852Y-102525839D01*
X167102599Y-102772401D01*
X167515000Y-103184802D01*
X167515000Y-111125000D01*
X167572852Y-111415839D01*
X167737599Y-111662401D01*
X168785000Y-112709802D01*
X168785000Y-119380000D01*
X168842852Y-119670839D01*
X169007599Y-119917401D01*
X170690000Y-121599802D01*
X170690000Y-124517005D01*
X170435302Y-124687189D01*
X170124233Y-125152736D01*
X170015000Y-125701887D01*
X170015000Y-125758113D01*
X170124233Y-126307264D01*
X170435302Y-126772811D01*
X170900849Y-127083880D01*
X171450000Y-127193113D01*
X171999151Y-127083880D01*
X172464698Y-126772811D01*
X172775767Y-126307264D01*
X172834063Y-126014187D01*
X173824752Y-126014187D01*
X174042757Y-126541800D01*
X174446077Y-126945824D01*
X174973309Y-127164750D01*
X175544187Y-127165248D01*
X176071800Y-126947243D01*
X176475824Y-126543923D01*
X176694750Y-126016691D01*
X176695248Y-125445813D01*
X176477243Y-124918200D01*
X176073923Y-124514176D01*
X175546691Y-124295250D01*
X174975813Y-124294752D01*
X174448200Y-124512757D01*
X174044176Y-124916077D01*
X173825250Y-125443309D01*
X173824752Y-126014187D01*
X172834063Y-126014187D01*
X172885000Y-125758113D01*
X172885000Y-125701887D01*
X172775767Y-125152736D01*
X172464698Y-124687189D01*
X172210000Y-124517005D01*
X172210000Y-121285000D01*
X172152148Y-120994161D01*
X171987401Y-120747599D01*
X170357547Y-119117745D01*
X170621861Y-119117745D01*
X170695995Y-119363864D01*
X171233223Y-119556965D01*
X171803454Y-119529778D01*
X172204005Y-119363864D01*
X172278139Y-119117745D01*
X171450000Y-118289605D01*
X170621861Y-119117745D01*
X170357547Y-119117745D01*
X170305000Y-119065198D01*
X170305000Y-118896796D01*
X170442255Y-118938139D01*
X171270395Y-118110000D01*
X171629605Y-118110000D01*
X172457745Y-118938139D01*
X172703864Y-118864005D01*
X172896965Y-118326777D01*
X172869778Y-117756546D01*
X172703864Y-117355995D01*
X172457745Y-117281861D01*
X171629605Y-118110000D01*
X171270395Y-118110000D01*
X170442255Y-117281861D01*
X170305000Y-117323204D01*
X170305000Y-117102255D01*
X170621861Y-117102255D01*
X171450000Y-117930395D01*
X172278139Y-117102255D01*
X172204005Y-116856136D01*
X171666777Y-116663035D01*
X171096546Y-116690222D01*
X170695995Y-116856136D01*
X170621861Y-117102255D01*
X170305000Y-117102255D01*
X170305000Y-113914169D01*
X170636077Y-114245824D01*
X171163309Y-114464750D01*
X171174958Y-114464760D01*
X174057881Y-117347683D01*
X173934233Y-117532736D01*
X173825000Y-118081887D01*
X173825000Y-118138113D01*
X173934233Y-118687264D01*
X174245302Y-119152811D01*
X174710849Y-119463880D01*
X175260000Y-119573113D01*
X175809151Y-119463880D01*
X176274698Y-119152811D01*
X176585767Y-118687264D01*
X176695000Y-118138113D01*
X176695000Y-118081887D01*
X176585767Y-117532736D01*
X176274698Y-117067189D01*
X175809151Y-116756120D01*
X175567943Y-116708141D01*
X172676944Y-113817142D01*
X172884750Y-113316691D01*
X172885248Y-112745813D01*
X172667243Y-112218200D01*
X172263923Y-111814176D01*
X171736691Y-111595250D01*
X171725042Y-111595240D01*
X170305000Y-110175198D01*
X170305000Y-110104169D01*
X170636077Y-110435824D01*
X171163309Y-110654750D01*
X171734187Y-110655248D01*
X172261800Y-110437243D01*
X172665824Y-110033923D01*
X172884750Y-109506691D01*
X172885248Y-108935813D01*
X172667243Y-108408200D01*
X172263923Y-108004176D01*
X171736691Y-107785250D01*
X171165813Y-107784752D01*
X170638200Y-108002757D01*
X170305000Y-108335376D01*
X170305000Y-104325167D01*
X172419838Y-104325167D01*
X172561883Y-104668943D01*
X172824673Y-104932192D01*
X173168201Y-105074838D01*
X173215077Y-105074879D01*
X173865000Y-105724802D01*
X173865000Y-107315000D01*
X173922852Y-107605839D01*
X174087599Y-107852401D01*
X175131312Y-108896114D01*
X175066887Y-109220000D01*
X175176120Y-109769151D01*
X175487189Y-110234698D01*
X175952736Y-110545767D01*
X176501887Y-110655000D01*
X176558113Y-110655000D01*
X177107264Y-110545767D01*
X177572811Y-110234698D01*
X177675000Y-110081762D01*
X177675000Y-112168238D01*
X177572811Y-112015302D01*
X177107264Y-111704233D01*
X176558113Y-111595000D01*
X176501887Y-111595000D01*
X175952736Y-111704233D01*
X175487189Y-112015302D01*
X175176120Y-112480849D01*
X175066887Y-113030000D01*
X175176120Y-113579151D01*
X175487189Y-114044698D01*
X175952736Y-114355767D01*
X176501887Y-114465000D01*
X176558113Y-114465000D01*
X177107264Y-114355767D01*
X177572811Y-114044698D01*
X177675000Y-113891762D01*
X177675000Y-121605198D01*
X177660320Y-121619878D01*
X177614833Y-121619838D01*
X177271057Y-121761883D01*
X177007808Y-122024673D01*
X176865162Y-122368201D01*
X176864838Y-122740167D01*
X177006883Y-123083943D01*
X177269673Y-123347192D01*
X177613201Y-123489838D01*
X177985167Y-123490162D01*
X178328943Y-123348117D01*
X178592192Y-123085327D01*
X178734838Y-122741799D01*
X178734879Y-122694923D01*
X178972401Y-122457401D01*
X179137148Y-122210839D01*
X179195000Y-121920000D01*
X179195000Y-113314187D01*
X182714752Y-113314187D01*
X182932757Y-113841800D01*
X183336077Y-114245824D01*
X183863309Y-114464750D01*
X184434187Y-114465248D01*
X184961800Y-114247243D01*
X185365824Y-113843923D01*
X185584750Y-113316691D01*
X185585248Y-112745813D01*
X185367243Y-112218200D01*
X184963923Y-111814176D01*
X184436691Y-111595250D01*
X183865813Y-111594752D01*
X183338200Y-111812757D01*
X182934176Y-112216077D01*
X182715250Y-112743309D01*
X182714752Y-113314187D01*
X179195000Y-113314187D01*
X179195000Y-107315000D01*
X179137148Y-107024161D01*
X178972401Y-106777599D01*
X177943256Y-105748454D01*
X177964750Y-105696691D01*
X177965248Y-105125813D01*
X177747243Y-104598200D01*
X177343923Y-104194176D01*
X177290000Y-104171785D01*
X177290000Y-96070167D01*
X181944838Y-96070167D01*
X182086883Y-96413943D01*
X182349673Y-96677192D01*
X182693201Y-96819838D01*
X182740077Y-96819879D01*
X183390000Y-97469802D01*
X183390000Y-104206333D01*
X183107189Y-104395302D01*
X182796120Y-104860849D01*
X182686887Y-105410000D01*
X182796120Y-105959151D01*
X183107189Y-106424698D01*
X183390000Y-106613667D01*
X183390000Y-107981354D01*
X183338200Y-108002757D01*
X182934176Y-108406077D01*
X182715250Y-108933309D01*
X182714752Y-109504187D01*
X182932757Y-110031800D01*
X183336077Y-110435824D01*
X183863309Y-110654750D01*
X184434187Y-110655248D01*
X184961800Y-110437243D01*
X185365824Y-110033923D01*
X185584750Y-109506691D01*
X185585248Y-108935813D01*
X185367243Y-108408200D01*
X184963923Y-108004176D01*
X184910000Y-107981785D01*
X184910000Y-106613667D01*
X185192811Y-106424698D01*
X185503880Y-105959151D01*
X185613113Y-105410000D01*
X185503880Y-104860849D01*
X185192811Y-104395302D01*
X184910000Y-104206333D01*
X184910000Y-97155000D01*
X184852148Y-96864161D01*
X184852148Y-96864160D01*
X184687401Y-96617599D01*
X183815122Y-95745320D01*
X183815162Y-95699833D01*
X183673117Y-95356057D01*
X183410327Y-95092808D01*
X183066799Y-94950162D01*
X182694833Y-94949838D01*
X182351057Y-95091883D01*
X182087808Y-95354673D01*
X181945162Y-95698201D01*
X181944838Y-96070167D01*
X177290000Y-96070167D01*
X177290000Y-94615000D01*
X177232148Y-94324161D01*
X177232148Y-94324160D01*
X177067401Y-94077599D01*
X176195122Y-93205320D01*
X176195162Y-93159833D01*
X176053117Y-92816057D01*
X175790327Y-92552808D01*
X175446799Y-92410162D01*
X175074833Y-92409838D01*
X174731057Y-92551883D01*
X174467808Y-92814673D01*
X174325162Y-93158201D01*
X174324838Y-93530167D01*
X174466883Y-93873943D01*
X174729673Y-94137192D01*
X175073201Y-94279838D01*
X175120077Y-94279879D01*
X175770000Y-94929802D01*
X175770000Y-104171354D01*
X175718200Y-104192757D01*
X175314176Y-104596077D01*
X175185191Y-104906707D01*
X175162401Y-104872599D01*
X174290122Y-104000320D01*
X174290162Y-103954833D01*
X174148117Y-103611057D01*
X173885327Y-103347808D01*
X173541799Y-103205162D01*
X173169833Y-103204838D01*
X172826057Y-103346883D01*
X172562808Y-103609673D01*
X172420162Y-103953201D01*
X172419838Y-104325167D01*
X170305000Y-104325167D01*
X170305000Y-102235000D01*
X170247148Y-101944161D01*
X170082401Y-101697599D01*
X169845122Y-101460320D01*
X169845162Y-101414833D01*
X169703117Y-101071057D01*
X169468418Y-100835948D01*
X169612148Y-100620840D01*
X169670000Y-100330000D01*
X169670000Y-94145633D01*
X169993201Y-94279838D01*
X170365167Y-94280162D01*
X170708943Y-94138117D01*
X170972192Y-93875327D01*
X171114838Y-93531799D01*
X171115162Y-93159833D01*
X170973117Y-92816057D01*
X170710327Y-92552808D01*
X170366799Y-92410162D01*
X170319923Y-92410121D01*
X169670000Y-91760198D01*
X169670000Y-89250832D01*
X169924698Y-89080648D01*
X170180000Y-88698562D01*
X170435302Y-89080648D01*
X170690000Y-89250832D01*
X170690000Y-90170000D01*
X170747852Y-90460839D01*
X170912599Y-90707401D01*
X171149878Y-90944680D01*
X171149838Y-90990167D01*
X171291883Y-91333943D01*
X171554673Y-91597192D01*
X171898201Y-91739838D01*
X172270167Y-91740162D01*
X172613943Y-91598117D01*
X172877192Y-91335327D01*
X173019838Y-90991799D01*
X173020162Y-90619833D01*
X172878117Y-90276057D01*
X172615327Y-90012808D01*
X172271799Y-89870162D01*
X172224923Y-89870121D01*
X172210000Y-89855198D01*
X172210000Y-89250832D01*
X172464698Y-89080648D01*
X172775767Y-88615101D01*
X172885000Y-88065950D01*
X172885000Y-87194050D01*
X172775767Y-86644899D01*
X172464698Y-86179352D01*
X171999151Y-85868283D01*
X171450000Y-85759050D01*
X170900849Y-85868283D01*
X170435302Y-86179352D01*
X170180000Y-86561438D01*
X169924698Y-86179352D01*
X169459151Y-85868283D01*
X168910000Y-85759050D01*
X168360849Y-85868283D01*
X167895302Y-86179352D01*
X167640000Y-86561438D01*
X167384698Y-86179352D01*
X166919151Y-85868283D01*
X166370000Y-85759050D01*
X165820849Y-85868283D01*
X165355302Y-86179352D01*
X165102493Y-86557707D01*
X164754896Y-86125500D01*
X164261819Y-85855633D01*
X164179039Y-85838096D01*
X163957000Y-85960085D01*
X163703000Y-85960085D01*
X163480961Y-85838096D01*
X163398181Y-85855633D01*
X162905104Y-86125500D01*
X162557507Y-86557707D01*
X162304698Y-86179352D01*
X161839151Y-85868283D01*
X161290000Y-85759050D01*
X160740849Y-85868283D01*
X160275302Y-86179352D01*
X160020000Y-86561438D01*
X159764698Y-86179352D01*
X159299151Y-85868283D01*
X158750000Y-85759050D01*
X158200849Y-85868283D01*
X157735302Y-86179352D01*
X157480000Y-86561438D01*
X157224698Y-86179352D01*
X156759151Y-85868283D01*
X156210000Y-85759050D01*
X155660849Y-85868283D01*
X155195302Y-86179352D01*
X155065000Y-86374362D01*
X155065000Y-82229802D01*
X155578266Y-81716536D01*
X155660849Y-81771717D01*
X156210000Y-81880950D01*
X156759151Y-81771717D01*
X157224698Y-81460648D01*
X157480000Y-81078562D01*
X157735302Y-81460648D01*
X158200849Y-81771717D01*
X158750000Y-81880950D01*
X159299151Y-81771717D01*
X159764698Y-81460648D01*
X160020000Y-81078562D01*
X160275302Y-81460648D01*
X160740849Y-81771717D01*
X161290000Y-81880950D01*
X161839151Y-81771717D01*
X162304698Y-81460648D01*
X162560000Y-81078562D01*
X162815302Y-81460648D01*
X163280849Y-81771717D01*
X163830000Y-81880950D01*
X164379151Y-81771717D01*
X164844698Y-81460648D01*
X165100000Y-81078562D01*
X165355302Y-81460648D01*
X165820849Y-81771717D01*
X166370000Y-81880950D01*
X166919151Y-81771717D01*
X167384698Y-81460648D01*
X167640000Y-81078562D01*
X167895302Y-81460648D01*
X168360849Y-81771717D01*
X168910000Y-81880950D01*
X169459151Y-81771717D01*
X169924698Y-81460648D01*
X170022251Y-81314650D01*
X170046838Y-81445317D01*
X170185910Y-81661441D01*
X170398110Y-81806431D01*
X170650000Y-81857440D01*
X172250000Y-81857440D01*
X172485317Y-81813162D01*
X172701441Y-81674090D01*
X172846431Y-81461890D01*
X172897440Y-81210000D01*
X172897440Y-78810000D01*
X172853162Y-78574683D01*
X172714090Y-78358559D01*
X172501890Y-78213569D01*
X172250000Y-78162560D01*
X170650000Y-78162560D01*
X170414683Y-78206838D01*
X170198559Y-78345910D01*
X170053569Y-78558110D01*
X170023403Y-78707074D01*
X169924698Y-78559352D01*
X169459151Y-78248283D01*
X168910000Y-78139050D01*
X168360849Y-78248283D01*
X167895302Y-78559352D01*
X167640000Y-78941438D01*
X167384698Y-78559352D01*
X166919151Y-78248283D01*
X166370000Y-78139050D01*
X165820849Y-78248283D01*
X165355302Y-78559352D01*
X165100000Y-78941438D01*
X164844698Y-78559352D01*
X164379151Y-78248283D01*
X163830000Y-78139050D01*
X163280849Y-78248283D01*
X162815302Y-78559352D01*
X162560000Y-78941438D01*
X162304698Y-78559352D01*
X161839151Y-78248283D01*
X161290000Y-78139050D01*
X160740849Y-78248283D01*
X160275302Y-78559352D01*
X160020000Y-78941438D01*
X159764698Y-78559352D01*
X159299151Y-78248283D01*
X158750000Y-78139050D01*
X158200849Y-78248283D01*
X157735302Y-78559352D01*
X157480000Y-78941438D01*
X157224698Y-78559352D01*
X156759151Y-78248283D01*
X156210000Y-78139050D01*
X155660849Y-78248283D01*
X155195302Y-78559352D01*
X154884233Y-79024899D01*
X154775000Y-79574050D01*
X154775000Y-80370198D01*
X153767599Y-81377599D01*
X153602852Y-81624161D01*
X153545000Y-81915000D01*
X153087336Y-81915000D01*
X153192192Y-81810327D01*
X153334838Y-81466799D01*
X153335162Y-81094833D01*
X153193117Y-80751057D01*
X152930327Y-80487808D01*
X152586799Y-80345162D01*
X152214833Y-80344838D01*
X151871057Y-80486883D01*
X151607808Y-80749673D01*
X151465162Y-81093201D01*
X151465121Y-81140077D01*
X151227599Y-81377599D01*
X151062852Y-81624161D01*
X151005000Y-81915000D01*
X150125000Y-81915000D01*
X150125000Y-81523691D01*
X150028327Y-81290302D01*
X149849699Y-81111673D01*
X149616310Y-81015000D01*
X148875750Y-81015000D01*
X148717000Y-81173750D01*
X148463000Y-81173750D01*
X148304250Y-81015000D01*
X147563690Y-81015000D01*
X147330301Y-81111673D01*
X147151673Y-81290302D01*
X147055000Y-81523691D01*
X140750396Y-81523691D01*
X140856120Y-81453049D01*
X141210543Y-80922616D01*
X141335000Y-80296929D01*
X141335000Y-79723071D01*
X141210543Y-79097384D01*
X140856120Y-78566951D01*
X140325687Y-78212528D01*
X139700000Y-78088071D01*
X139074313Y-78212528D01*
X138543880Y-78566951D01*
X138419658Y-78752863D01*
X138223337Y-78505702D01*
X137662396Y-78194258D01*
X137540434Y-78169876D01*
X137287000Y-78289223D01*
X137033000Y-78289223D01*
X136779566Y-78169876D01*
X136657604Y-78194258D01*
X136096663Y-78505702D01*
X135900342Y-78752863D01*
X135776120Y-78566951D01*
X135245687Y-78212528D01*
X134620000Y-78088071D01*
X133994313Y-78212528D01*
X133463880Y-78566951D01*
X133109457Y-79097384D01*
X132985000Y-79723071D01*
X128470492Y-79723071D01*
X128497440Y-79590000D01*
X128497440Y-77890000D01*
X128453162Y-77654683D01*
X128314090Y-77438559D01*
X128101890Y-77293569D01*
X127850000Y-77242560D01*
X126150000Y-77242560D01*
X125914683Y-77286838D01*
X125698559Y-77425910D01*
X125553569Y-77638110D01*
X125539914Y-77705541D01*
X125510054Y-77660853D01*
X125474063Y-77636805D01*
X127590434Y-75520434D01*
X127647176Y-75435513D01*
X127771439Y-75249541D01*
X127835000Y-74930000D01*
X127835000Y-74882841D01*
X128050054Y-74739147D01*
X128079403Y-74695223D01*
X128151673Y-74869698D01*
X128330301Y-75048327D01*
X128563690Y-75145000D01*
X129254250Y-75145000D01*
X129413000Y-74986250D01*
X129413000Y-73787000D01*
X129667000Y-73787000D01*
X129667000Y-74986250D01*
X129825750Y-75145000D01*
X130516310Y-75145000D01*
X130749699Y-75048327D01*
X130928327Y-74869698D01*
X131025000Y-74636309D01*
X131025000Y-73945750D01*
X130866250Y-73787000D01*
X129667000Y-73787000D01*
X129413000Y-73787000D01*
X129393000Y-73787000D01*
X129393000Y-73533000D01*
X129413000Y-73533000D01*
X129413000Y-72333750D01*
X129667000Y-72333750D01*
X129667000Y-73533000D01*
X130866250Y-73533000D01*
X131025000Y-73374250D01*
X131025000Y-72683691D01*
X130928327Y-72450302D01*
X130749699Y-72271673D01*
X130516310Y-72175000D01*
X129825750Y-72175000D01*
X129667000Y-72333750D01*
X129413000Y-72333750D01*
X129254250Y-72175000D01*
X128563690Y-72175000D01*
X128330301Y-72271673D01*
X128151673Y-72450302D01*
X128079403Y-72624777D01*
X128050054Y-72580853D01*
X127568285Y-72258946D01*
X127000000Y-72145907D01*
X126431715Y-72258946D01*
X125949946Y-72580853D01*
X125628039Y-73062622D01*
X125515000Y-73630907D01*
X125515000Y-73689093D01*
X125628039Y-74257378D01*
X125949946Y-74739147D01*
X125985937Y-74763195D01*
X123869566Y-76879566D01*
X123688561Y-77150459D01*
X123625000Y-77470000D01*
X123625000Y-77517159D01*
X123409946Y-77660853D01*
X123190000Y-77990026D01*
X122970054Y-77660853D01*
X122488285Y-77338946D01*
X121920000Y-77225907D01*
X121351715Y-77338946D01*
X120869946Y-77660853D01*
X120548039Y-78142622D01*
X120435000Y-78710907D01*
X109571237Y-78710907D01*
X110000962Y-77934427D01*
X111118940Y-76279035D01*
X112369877Y-74751355D01*
X113753050Y-73356433D01*
X115268137Y-72099299D01*
X116914555Y-70985339D01*
X118682815Y-70023713D01*
X120556946Y-69226230D01*
X122520580Y-68604717D01*
X124557345Y-68170828D01*
X126651030Y-67936033D01*
X128785656Y-67911701D01*
X130945503Y-68109179D01*
X133115158Y-68539914D01*
X135279520Y-69215590D01*
X137423660Y-70148244D01*
X139532694Y-71350336D01*
X141591594Y-72834744D01*
X143585019Y-74614666D01*
X145497198Y-76703458D01*
X147326478Y-79133799D01*
X147354425Y-79172526D01*
X147355069Y-79173125D01*
X147355436Y-79173923D01*
X147387393Y-79217974D01*
X147388689Y-79219173D01*
X147389435Y-79220774D01*
X147421391Y-79264358D01*
X147423380Y-79266181D01*
X147424539Y-79268617D01*
X147456496Y-79311503D01*
X147459233Y-79313972D01*
X147460853Y-79317287D01*
X147492810Y-79359239D01*
X147496375Y-79362388D01*
X147498521Y-79366631D01*
X147530478Y-79407418D01*
X147534972Y-79411280D01*
X147537737Y-79416523D01*
X147569694Y-79455912D01*
X147575272Y-79460543D01*
X147578786Y-79466883D01*
X147610743Y-79504639D01*
X147617571Y-79510071D01*
X147621990Y-79517594D01*
X147653946Y-79553486D01*
X147662284Y-79559785D01*
X147667846Y-79568635D01*
X147699803Y-79602429D01*
X147709947Y-79609625D01*
X147716937Y-79619911D01*
X147748894Y-79651373D01*
X147761226Y-79659474D01*
X147770027Y-79671313D01*
X147801983Y-79700211D01*
X147816994Y-79709185D01*
X147828120Y-79722677D01*
X147860077Y-79748777D01*
X147878342Y-79758484D01*
X147892427Y-79773629D01*
X147924382Y-79796699D01*
X147946614Y-79806866D01*
X147964480Y-79823550D01*
X147996437Y-79843356D01*
X148023352Y-79853440D01*
X148045915Y-79871251D01*
X148077872Y-79887560D01*
X148110144Y-79896684D01*
X148138356Y-79914821D01*
X148170314Y-79927400D01*
X148208301Y-79934259D01*
X148242891Y-79951384D01*
X148274848Y-79960000D01*
X148318229Y-79962911D01*
X148359315Y-79977158D01*
X148391272Y-79981578D01*
X148438613Y-79978786D01*
X148485122Y-79988037D01*
X148517078Y-79988037D01*
X148563587Y-79978786D01*
X148610928Y-79981578D01*
X148642884Y-79977158D01*
X148683969Y-79962911D01*
X148727352Y-79960000D01*
X148759309Y-79951384D01*
X148793899Y-79934259D01*
X148831887Y-79927400D01*
X148863844Y-79914820D01*
X148892054Y-79896685D01*
X148924328Y-79887560D01*
X148956285Y-79871251D01*
X148978848Y-79853440D01*
X149005763Y-79843356D01*
X149037720Y-79823550D01*
X149055587Y-79806866D01*
X149077817Y-79796699D01*
X149109773Y-79773629D01*
X149123858Y-79758484D01*
X149142123Y-79748777D01*
X149174080Y-79722677D01*
X149185207Y-79709184D01*
X149200216Y-79700211D01*
X149232173Y-79671314D01*
X149240975Y-79659474D01*
X149253306Y-79651373D01*
X149285263Y-79619911D01*
X149292253Y-79609625D01*
X149302397Y-79602429D01*
X149334353Y-79568635D01*
X149339914Y-79559786D01*
X149348254Y-79553486D01*
X149380210Y-79517594D01*
X149384629Y-79510071D01*
X149391457Y-79504639D01*
X149423414Y-79466883D01*
X149426928Y-79460543D01*
X149432506Y-79455912D01*
X149464463Y-79416523D01*
X149467228Y-79411280D01*
X149471722Y-79407418D01*
X149503679Y-79366632D01*
X149505825Y-79362389D01*
X149509390Y-79359240D01*
X149541347Y-79317287D01*
X149542967Y-79313972D01*
X149545704Y-79311503D01*
X149577661Y-79268617D01*
X149578820Y-79266181D01*
X149580809Y-79264358D01*
X149612765Y-79220774D01*
X149613511Y-79219173D01*
X149614807Y-79217974D01*
X149646764Y-79173923D01*
X149647130Y-79173127D01*
X149647775Y-79172527D01*
X149675685Y-79133849D01*
X151505002Y-76703457D01*
X153417186Y-74614660D01*
X154095452Y-74009039D01*
X166248096Y-74009039D01*
X166408959Y-74397423D01*
X166784866Y-74812389D01*
X167290959Y-75051914D01*
X167513000Y-74930629D01*
X167513000Y-73787000D01*
X167767000Y-73787000D01*
X167767000Y-74930629D01*
X167989041Y-75051914D01*
X168495134Y-74812389D01*
X168871041Y-74397423D01*
X169031904Y-74009039D01*
X168996275Y-73944187D01*
X173824752Y-73944187D01*
X174042757Y-74471800D01*
X174446077Y-74875824D01*
X174973309Y-75094750D01*
X175544187Y-75095248D01*
X175598149Y-75072951D01*
X180850000Y-80324802D01*
X180850000Y-84527537D01*
X180817808Y-84559673D01*
X180675162Y-84903201D01*
X180674838Y-85275167D01*
X180781899Y-85534275D01*
X180692086Y-85534197D01*
X178987913Y-86238347D01*
X177682929Y-87541055D01*
X176975806Y-89243997D01*
X176974197Y-91087914D01*
X177678347Y-92792087D01*
X178981055Y-94097071D01*
X180683997Y-94804194D01*
X182527914Y-94805803D01*
X184232087Y-94101653D01*
X185537071Y-92798945D01*
X186244194Y-91096003D01*
X186245803Y-89252086D01*
X185541653Y-87547913D01*
X184238945Y-86242929D01*
X182536003Y-85535806D01*
X182437324Y-85535720D01*
X182544838Y-85276799D01*
X182545162Y-84904833D01*
X182403117Y-84561057D01*
X182370000Y-84527882D01*
X182370000Y-80010000D01*
X182312148Y-79719161D01*
X182147401Y-79472599D01*
X176673256Y-73998454D01*
X176694750Y-73946691D01*
X176695248Y-73375813D01*
X176477243Y-72848200D01*
X176073923Y-72444176D01*
X175546691Y-72225250D01*
X174975813Y-72224752D01*
X174448200Y-72442757D01*
X174044176Y-72846077D01*
X173825250Y-73373309D01*
X173824752Y-73944187D01*
X168996275Y-73944187D01*
X168909915Y-73787000D01*
X167767000Y-73787000D01*
X167513000Y-73787000D01*
X166370085Y-73787000D01*
X166248096Y-74009039D01*
X154095452Y-74009039D01*
X154877265Y-73310961D01*
X166248096Y-73310961D01*
X166370085Y-73533000D01*
X167513000Y-73533000D01*
X167513000Y-72389371D01*
X167767000Y-72389371D01*
X167767000Y-73533000D01*
X168909915Y-73533000D01*
X169031904Y-73310961D01*
X168871041Y-72922577D01*
X168495134Y-72507611D01*
X167989041Y-72268086D01*
X167767000Y-72389371D01*
X167513000Y-72389371D01*
X167290959Y-72268086D01*
X166784866Y-72507611D01*
X166408959Y-72922577D01*
X166248096Y-73310961D01*
X154877265Y-73310961D01*
X155410606Y-72834744D01*
X157469509Y-71350334D01*
X159578543Y-70148242D01*
X161722680Y-69215590D01*
X163887052Y-68539911D01*
X166056698Y-68109178D01*
X168216544Y-67911701D01*
X170351161Y-67936032D01*
X170351161Y-67936032D01*
G37*
X170351161Y-67936032D02*
X172444857Y-68170828D01*
X174481620Y-68604717D01*
X176445251Y-69226229D01*
X178319385Y-70023713D01*
X180087645Y-70985339D01*
X181734063Y-72099299D01*
X183249151Y-73356433D01*
X184632323Y-74751355D01*
X185883260Y-76279035D01*
X187001238Y-77934427D01*
X187985202Y-79712376D01*
X188833857Y-81607582D01*
X189545725Y-83614493D01*
X190119253Y-85727371D01*
X190552863Y-87940294D01*
X190845000Y-90247190D01*
X190994147Y-92641817D01*
X190998861Y-95117937D01*
X190857752Y-97669190D01*
X190569499Y-100289203D01*
X190132847Y-102971474D01*
X189545874Y-105707611D01*
X188794747Y-108484404D01*
X187857459Y-111287909D01*
X186711600Y-114105240D01*
X185334616Y-116923699D01*
X183703739Y-119730736D01*
X181795955Y-122513850D01*
X179588013Y-125260481D01*
X177056399Y-127957981D01*
X174177428Y-130593496D01*
X170927387Y-133153868D01*
X167282508Y-135625744D01*
X163219180Y-137995490D01*
X158713873Y-140249335D01*
X153743273Y-142373361D01*
X148501100Y-144274925D01*
X143258927Y-142373361D01*
X138288327Y-140249335D01*
X135259242Y-138733991D01*
X147054735Y-138733991D01*
X147287932Y-139298371D01*
X147719357Y-139730551D01*
X148283330Y-139964733D01*
X148893991Y-139965265D01*
X149458371Y-139732068D01*
X149890551Y-139300643D01*
X150124733Y-138736670D01*
X150125265Y-138126009D01*
X149892068Y-137561629D01*
X149714908Y-137384159D01*
X149849699Y-137328327D01*
X150028327Y-137149698D01*
X150125000Y-136916309D01*
X150125000Y-136175750D01*
X149966250Y-136017000D01*
X148717000Y-136017000D01*
X148717000Y-136037000D01*
X148463000Y-136037000D01*
X148463000Y-136017000D01*
X147213750Y-136017000D01*
X147055000Y-136175750D01*
X147055000Y-136916309D01*
X147151673Y-137149698D01*
X147330301Y-137328327D01*
X147464994Y-137384119D01*
X147289449Y-137559357D01*
X147055267Y-138123330D01*
X147054735Y-138733991D01*
X135259242Y-138733991D01*
X133783020Y-137995490D01*
X129719688Y-135625742D01*
X126074806Y-133153863D01*
X122824765Y-130593491D01*
X119945807Y-127957987D01*
X117414187Y-125260481D01*
X115206233Y-122513835D01*
X113298457Y-119730729D01*
X111667584Y-116923699D01*
X110615375Y-114770000D01*
X115392560Y-114770000D01*
X115392560Y-116370000D01*
X115436838Y-116605317D01*
X115575910Y-116821441D01*
X115788110Y-116966431D01*
X116040000Y-117017440D01*
X117640000Y-117017440D01*
X117875317Y-116973162D01*
X118091441Y-116834090D01*
X118236431Y-116621890D01*
X118287440Y-116370000D01*
X118287440Y-114770000D01*
X118243162Y-114534683D01*
X118104090Y-114318559D01*
X118097452Y-114314023D01*
X118286965Y-113786777D01*
X118259778Y-113216546D01*
X118093864Y-112815995D01*
X117847745Y-112741861D01*
X117019605Y-113570000D01*
X117033748Y-113584142D01*
X116854143Y-113763748D01*
X116840000Y-113749605D01*
X116825858Y-113763748D01*
X116646252Y-113584142D01*
X116660395Y-113570000D01*
X115832255Y-112741861D01*
X115586136Y-112815995D01*
X115393035Y-113353223D01*
X115420222Y-113923454D01*
X115582384Y-114314947D01*
X115443569Y-114518110D01*
X115392560Y-114770000D01*
X110615375Y-114770000D01*
X110290600Y-114105240D01*
X109663041Y-112562255D01*
X116011861Y-112562255D01*
X116840000Y-113390395D01*
X117668139Y-112562255D01*
X117594005Y-112316136D01*
X117056777Y-112123035D01*
X116486546Y-112150222D01*
X116085995Y-112316136D01*
X116011861Y-112562255D01*
X109663041Y-112562255D01*
X109144743Y-111287913D01*
X108453383Y-109220000D01*
X110296887Y-109220000D01*
X110406120Y-109769151D01*
X110717189Y-110234698D01*
X111182736Y-110545767D01*
X111731887Y-110655000D01*
X111788113Y-110655000D01*
X112337264Y-110545767D01*
X112802811Y-110234698D01*
X113113880Y-109769151D01*
X113166584Y-109504187D01*
X117944752Y-109504187D01*
X118162757Y-110031800D01*
X118566077Y-110435824D01*
X119093309Y-110654750D01*
X119634354Y-110655222D01*
X119815000Y-110835868D01*
X119815000Y-123825000D01*
X119878561Y-124144541D01*
X120033297Y-124376120D01*
X120059566Y-124415434D01*
X121328189Y-125684057D01*
X121319050Y-125730000D01*
X121428283Y-126279151D01*
X121739352Y-126744698D01*
X122204899Y-127055767D01*
X122754050Y-127165000D01*
X123444132Y-127165000D01*
X128647465Y-132368333D01*
X128746883Y-132608943D01*
X129009673Y-132872192D01*
X129353201Y-133014838D01*
X129725167Y-133015162D01*
X130068943Y-132873117D01*
X130332192Y-132610327D01*
X130474838Y-132266799D01*
X130475162Y-131894833D01*
X130333117Y-131551057D01*
X130070327Y-131287808D01*
X129828090Y-131187222D01*
X124939021Y-126298153D01*
X124951717Y-126279151D01*
X124993631Y-126068433D01*
X133206744Y-134281546D01*
X133185250Y-134333309D01*
X133184752Y-134904187D01*
X133402757Y-135431800D01*
X133806077Y-135835824D01*
X134333309Y-136054750D01*
X134904187Y-136055248D01*
X135431800Y-135837243D01*
X135835824Y-135433923D01*
X136054750Y-134906691D01*
X136055000Y-134620000D01*
X140776887Y-134620000D01*
X140886120Y-135169151D01*
X141197189Y-135634698D01*
X141662736Y-135945767D01*
X142211887Y-136055000D01*
X142268113Y-136055000D01*
X142817264Y-135945767D01*
X143282811Y-135634698D01*
X143593880Y-135169151D01*
X143654639Y-134863691D01*
X147055000Y-134863691D01*
X147055000Y-135604250D01*
X147213750Y-135763000D01*
X148463000Y-135763000D01*
X148463000Y-134513750D01*
X148717000Y-134513750D01*
X148717000Y-135763000D01*
X149966250Y-135763000D01*
X150125000Y-135604250D01*
X150125000Y-134863691D01*
X150028327Y-134630302D01*
X149849699Y-134451673D01*
X149616310Y-134355000D01*
X148875750Y-134355000D01*
X148717000Y-134513750D01*
X148463000Y-134513750D01*
X148304250Y-134355000D01*
X147563690Y-134355000D01*
X147330301Y-134451673D01*
X147151673Y-134630302D01*
X147055000Y-134863691D01*
X143654639Y-134863691D01*
X143703113Y-134620000D01*
X143593880Y-134070849D01*
X143282811Y-133605302D01*
X142817264Y-133294233D01*
X142268113Y-133185000D01*
X142211887Y-133185000D01*
X141662736Y-133294233D01*
X141197189Y-133605302D01*
X140886120Y-134070849D01*
X140776887Y-134620000D01*
X136055000Y-134620000D01*
X136055248Y-134335813D01*
X135837243Y-133808200D01*
X135433923Y-133404176D01*
X134906691Y-133185250D01*
X134335813Y-133184752D01*
X134281851Y-133207049D01*
X124896536Y-123821734D01*
X124951717Y-123739151D01*
X125060950Y-123190000D01*
X124951717Y-122640849D01*
X124640648Y-122175302D01*
X124258562Y-121920000D01*
X124640648Y-121664698D01*
X124951717Y-121199151D01*
X125060950Y-120650000D01*
X124951717Y-120100849D01*
X124640648Y-119635302D01*
X124262293Y-119382493D01*
X124694500Y-119034896D01*
X124964367Y-118541819D01*
X124981904Y-118459039D01*
X124859915Y-118237000D01*
X123317000Y-118237000D01*
X123317000Y-118257000D01*
X123063000Y-118257000D01*
X123063000Y-118237000D01*
X123043000Y-118237000D01*
X123043000Y-117983000D01*
X123063000Y-117983000D01*
X123063000Y-117963000D01*
X123317000Y-117963000D01*
X123317000Y-117983000D01*
X124859915Y-117983000D01*
X124981904Y-117760961D01*
X124964367Y-117678181D01*
X124694500Y-117185104D01*
X124262293Y-116837507D01*
X124640648Y-116584698D01*
X124951717Y-116119151D01*
X125060950Y-115570000D01*
X124951717Y-115020849D01*
X124640648Y-114555302D01*
X124258562Y-114300000D01*
X124640648Y-114044698D01*
X124951717Y-113579151D01*
X124952604Y-113574692D01*
X125199673Y-113822192D01*
X125543201Y-113964838D01*
X125590077Y-113964879D01*
X125605000Y-113979802D01*
X125605000Y-121285000D01*
X125662852Y-121575839D01*
X125827599Y-121822401D01*
X126064878Y-122059680D01*
X126064838Y-122105167D01*
X126206883Y-122448943D01*
X126469673Y-122712192D01*
X126813201Y-122854838D01*
X127185167Y-122855162D01*
X127528943Y-122713117D01*
X127792192Y-122450327D01*
X127934838Y-122106799D01*
X127935162Y-121734833D01*
X127793117Y-121391057D01*
X127687290Y-121285046D01*
X127792192Y-121180327D01*
X127934838Y-120836799D01*
X127934879Y-120789923D01*
X128172401Y-120552401D01*
X128337148Y-120305839D01*
X128365550Y-120163053D01*
X128374673Y-120172192D01*
X128718201Y-120314838D01*
X129005668Y-120315088D01*
X128939050Y-120650000D01*
X129048283Y-121199151D01*
X129359352Y-121664698D01*
X129741438Y-121920000D01*
X129359352Y-122175302D01*
X129048283Y-122640849D01*
X128939050Y-123190000D01*
X129048283Y-123739151D01*
X129359352Y-124204698D01*
X129505350Y-124302251D01*
X129374683Y-124326838D01*
X129158559Y-124465910D01*
X129013569Y-124678110D01*
X128962560Y-124930000D01*
X128962560Y-126530000D01*
X129006838Y-126765317D01*
X129145910Y-126981441D01*
X129358110Y-127126431D01*
X129610000Y-127177440D01*
X130547638Y-127177440D01*
X133393056Y-130022858D01*
X133185250Y-130523309D01*
X133184752Y-131094187D01*
X133402757Y-131621800D01*
X133806077Y-132025824D01*
X134333309Y-132244750D01*
X134904187Y-132245248D01*
X135431800Y-132027243D01*
X135835824Y-131623923D01*
X136054750Y-131096691D01*
X136055000Y-130810000D01*
X140776887Y-130810000D01*
X140886120Y-131359151D01*
X141197189Y-131824698D01*
X141662736Y-132135767D01*
X142211887Y-132245000D01*
X142268113Y-132245000D01*
X142817264Y-132135767D01*
X143282811Y-131824698D01*
X143593880Y-131359151D01*
X143642645Y-131113991D01*
X147054735Y-131113991D01*
X147287932Y-131678371D01*
X147719357Y-132110551D01*
X148283330Y-132344733D01*
X148893991Y-132345265D01*
X149458371Y-132112068D01*
X149890551Y-131680643D01*
X150124733Y-131116670D01*
X150125265Y-130506009D01*
X149892068Y-129941629D01*
X149714908Y-129764159D01*
X149849699Y-129708327D01*
X150028327Y-129529698D01*
X150125000Y-129296309D01*
X150125000Y-128555750D01*
X149966250Y-128397000D01*
X148717000Y-128397000D01*
X148717000Y-128417000D01*
X148463000Y-128417000D01*
X148463000Y-128397000D01*
X147213750Y-128397000D01*
X147055000Y-128555750D01*
X147055000Y-129296309D01*
X147151673Y-129529698D01*
X147330301Y-129708327D01*
X147464994Y-129764119D01*
X147289449Y-129939357D01*
X147055267Y-130503330D01*
X147054735Y-131113991D01*
X143642645Y-131113991D01*
X143703113Y-130810000D01*
X143593880Y-130260849D01*
X143282811Y-129795302D01*
X142817264Y-129484233D01*
X142268113Y-129375000D01*
X142211887Y-129375000D01*
X141662736Y-129484233D01*
X141197189Y-129795302D01*
X140886120Y-130260849D01*
X140776887Y-130810000D01*
X136055000Y-130810000D01*
X136055248Y-130525813D01*
X135837243Y-129998200D01*
X135433923Y-129594176D01*
X134906691Y-129375250D01*
X134895042Y-129375240D01*
X132482732Y-126962930D01*
X132606431Y-126781890D01*
X132657440Y-126530000D01*
X132657440Y-124930000D01*
X132637100Y-124821902D01*
X133702986Y-125887788D01*
X133404176Y-126186077D01*
X133185250Y-126713309D01*
X133184752Y-127284187D01*
X133402757Y-127811800D01*
X133806077Y-128215824D01*
X134333309Y-128434750D01*
X134904187Y-128435248D01*
X135431800Y-128217243D01*
X135835824Y-127813923D01*
X136054750Y-127286691D01*
X136055000Y-127000000D01*
X140776887Y-127000000D01*
X140886120Y-127549151D01*
X141197189Y-128014698D01*
X141662736Y-128325767D01*
X142211887Y-128435000D01*
X142268113Y-128435000D01*
X142817264Y-128325767D01*
X143282811Y-128014698D01*
X143593880Y-127549151D01*
X143703113Y-127000000D01*
X143593880Y-126450849D01*
X143282811Y-125985302D01*
X142817264Y-125674233D01*
X142268113Y-125565000D01*
X142211887Y-125565000D01*
X141662736Y-125674233D01*
X141197189Y-125985302D01*
X140886120Y-126450849D01*
X140776887Y-127000000D01*
X136055000Y-127000000D01*
X136055248Y-126715813D01*
X135837243Y-126188200D01*
X135433923Y-125784176D01*
X135380000Y-125761785D01*
X135380000Y-125730000D01*
X135322148Y-125439161D01*
X135322148Y-125439160D01*
X135157401Y-125192599D01*
X134589776Y-124624974D01*
X134904187Y-124625248D01*
X135431800Y-124407243D01*
X135835824Y-124003923D01*
X136054750Y-123476691D01*
X136055000Y-123190000D01*
X140776887Y-123190000D01*
X140886120Y-123739151D01*
X141197189Y-124204698D01*
X141662736Y-124515767D01*
X142211887Y-124625000D01*
X142268113Y-124625000D01*
X142817264Y-124515767D01*
X143282811Y-124204698D01*
X143593880Y-123739151D01*
X143703113Y-123190000D01*
X143593880Y-122640849D01*
X143282811Y-122175302D01*
X142817264Y-121864233D01*
X142268113Y-121755000D01*
X142211887Y-121755000D01*
X141662736Y-121864233D01*
X141197189Y-122175302D01*
X140886120Y-122640849D01*
X140776887Y-123190000D01*
X136055000Y-123190000D01*
X136055248Y-122905813D01*
X135837243Y-122378200D01*
X135433923Y-121974176D01*
X134906691Y-121755250D01*
X134335813Y-121754752D01*
X133808200Y-121972757D01*
X133404176Y-122376077D01*
X133185250Y-122903309D01*
X133184974Y-123220172D01*
X132617401Y-122652599D01*
X132549054Y-122606931D01*
X132260648Y-122175302D01*
X131878562Y-121920000D01*
X132260648Y-121664698D01*
X132571717Y-121199151D01*
X132680950Y-120650000D01*
X132571717Y-120100849D01*
X132279949Y-119664187D01*
X133184752Y-119664187D01*
X133402757Y-120191800D01*
X133806077Y-120595824D01*
X134333309Y-120814750D01*
X134904187Y-120815248D01*
X135431800Y-120597243D01*
X135835824Y-120193923D01*
X136054750Y-119666691D01*
X136055248Y-119095813D01*
X135837243Y-118568200D01*
X135433923Y-118164176D01*
X134906691Y-117945250D01*
X134335813Y-117944752D01*
X133808200Y-118162757D01*
X133404176Y-118566077D01*
X133185250Y-119093309D01*
X133184752Y-119664187D01*
X132279949Y-119664187D01*
X132260648Y-119635302D01*
X131878562Y-119380000D01*
X132260648Y-119124698D01*
X132571717Y-118659151D01*
X132680950Y-118110000D01*
X132571717Y-117560849D01*
X132260648Y-117095302D01*
X131878562Y-116840000D01*
X132260648Y-116584698D01*
X132571717Y-116119151D01*
X132624421Y-115854187D01*
X133184752Y-115854187D01*
X133402757Y-116381800D01*
X133806077Y-116785824D01*
X134333309Y-117004750D01*
X134904187Y-117005248D01*
X135431800Y-116787243D01*
X135835824Y-116383923D01*
X136054750Y-115856691D01*
X136055248Y-115285813D01*
X135837243Y-114758200D01*
X135433923Y-114354176D01*
X134906691Y-114135250D01*
X134335813Y-114134752D01*
X133808200Y-114352757D01*
X133404176Y-114756077D01*
X133185250Y-115283309D01*
X133184752Y-115854187D01*
X132624421Y-115854187D01*
X132680950Y-115570000D01*
X132571717Y-115020849D01*
X132260648Y-114555302D01*
X131878562Y-114300000D01*
X132260648Y-114044698D01*
X132571717Y-113579151D01*
X132680950Y-113030000D01*
X132571717Y-112480849D01*
X132279949Y-112044187D01*
X133184752Y-112044187D01*
X133402757Y-112571800D01*
X133806077Y-112975824D01*
X134333309Y-113194750D01*
X134904187Y-113195248D01*
X135431800Y-112977243D01*
X135835824Y-112573923D01*
X136054750Y-112046691D01*
X136055248Y-111475813D01*
X135837243Y-110948200D01*
X135433923Y-110544176D01*
X134906691Y-110325250D01*
X134335813Y-110324752D01*
X133808200Y-110542757D01*
X133404176Y-110946077D01*
X133185250Y-111473309D01*
X133184752Y-112044187D01*
X132279949Y-112044187D01*
X132260648Y-112015302D01*
X131878562Y-111760000D01*
X132260648Y-111504698D01*
X132571717Y-111039151D01*
X132680950Y-110490000D01*
X132571717Y-109940849D01*
X132260648Y-109475302D01*
X131882293Y-109222493D01*
X132314500Y-108874896D01*
X132584367Y-108381819D01*
X132601904Y-108299039D01*
X132566275Y-108234187D01*
X133184752Y-108234187D01*
X133402757Y-108761800D01*
X133806077Y-109165824D01*
X134333309Y-109384750D01*
X134904187Y-109385248D01*
X135431800Y-109167243D01*
X135835824Y-108763923D01*
X136054750Y-108236691D01*
X136055248Y-107665813D01*
X135837243Y-107138200D01*
X135433923Y-106734176D01*
X134906691Y-106515250D01*
X134335813Y-106514752D01*
X133808200Y-106732757D01*
X133404176Y-107136077D01*
X133185250Y-107663309D01*
X133184752Y-108234187D01*
X132566275Y-108234187D01*
X132479915Y-108077000D01*
X130937000Y-108077000D01*
X130937000Y-108097000D01*
X130683000Y-108097000D01*
X130683000Y-108077000D01*
X129140085Y-108077000D01*
X129018096Y-108299039D01*
X129035633Y-108381819D01*
X129305500Y-108874896D01*
X129737707Y-109222493D01*
X129359352Y-109475302D01*
X129048283Y-109940849D01*
X128939050Y-110490000D01*
X129048283Y-111039151D01*
X129359352Y-111504698D01*
X129741438Y-111760000D01*
X129359352Y-112015302D01*
X129048283Y-112480849D01*
X128939050Y-113030000D01*
X129048283Y-113579151D01*
X129359352Y-114044698D01*
X129741438Y-114300000D01*
X129359352Y-114555302D01*
X129048283Y-115020849D01*
X128939050Y-115570000D01*
X129048283Y-116119151D01*
X129359352Y-116584698D01*
X129741438Y-116840000D01*
X129359352Y-117095302D01*
X129048283Y-117560849D01*
X129030000Y-117652764D01*
X129030000Y-116205000D01*
X128972148Y-115914161D01*
X128807401Y-115667599D01*
X128570122Y-115430320D01*
X128570162Y-115384833D01*
X128428117Y-115041057D01*
X128165327Y-114777808D01*
X127821799Y-114635162D01*
X127449833Y-114634838D01*
X127125000Y-114769056D01*
X127125000Y-113665000D01*
X127067148Y-113374161D01*
X126902401Y-113127599D01*
X126665122Y-112890320D01*
X126665162Y-112844833D01*
X126523117Y-112501057D01*
X126260327Y-112237808D01*
X125916799Y-112095162D01*
X125544833Y-112094838D01*
X125201057Y-112236883D01*
X124952537Y-112484970D01*
X124951717Y-112480849D01*
X124640648Y-112015302D01*
X124258562Y-111760000D01*
X124640648Y-111504698D01*
X124951717Y-111039151D01*
X125060950Y-110490000D01*
X124951717Y-109940849D01*
X124640648Y-109475302D01*
X124258562Y-109220000D01*
X124640648Y-108964698D01*
X124951717Y-108499151D01*
X125060950Y-107950000D01*
X124991522Y-107600961D01*
X129018096Y-107600961D01*
X129140085Y-107823000D01*
X130683000Y-107823000D01*
X130683000Y-106515000D01*
X130937000Y-106515000D01*
X130937000Y-107823000D01*
X132479915Y-107823000D01*
X132601904Y-107600961D01*
X132584367Y-107518181D01*
X132314500Y-107025104D01*
X131876483Y-106672834D01*
X131337000Y-106515000D01*
X130937000Y-106515000D01*
X130683000Y-106515000D01*
X130283000Y-106515000D01*
X129743517Y-106672834D01*
X129305500Y-107025104D01*
X129035633Y-107518181D01*
X129018096Y-107600961D01*
X124991522Y-107600961D01*
X124951717Y-107400849D01*
X124640648Y-106935302D01*
X124175101Y-106624233D01*
X123625950Y-106515000D01*
X122754050Y-106515000D01*
X122204899Y-106624233D01*
X122120000Y-106680961D01*
X122120000Y-106045000D01*
X140210000Y-106045000D01*
X140210000Y-109855000D01*
X140267852Y-110145839D01*
X140432599Y-110392401D01*
X141032289Y-110992091D01*
X140886120Y-111210849D01*
X140776887Y-111760000D01*
X140886120Y-112309151D01*
X141197189Y-112774698D01*
X141662736Y-113085767D01*
X142211887Y-113195000D01*
X142268113Y-113195000D01*
X142817264Y-113085767D01*
X143282811Y-112774698D01*
X143385000Y-112621762D01*
X143385000Y-113985198D01*
X143002317Y-114367881D01*
X142817264Y-114244233D01*
X142268113Y-114135000D01*
X142211887Y-114135000D01*
X141662736Y-114244233D01*
X141197189Y-114555302D01*
X140886120Y-115020849D01*
X140776887Y-115570000D01*
X140886120Y-116119151D01*
X141197189Y-116584698D01*
X141662736Y-116895767D01*
X142211887Y-117005000D01*
X142268113Y-117005000D01*
X142270716Y-117004482D01*
X141702599Y-117572599D01*
X141537852Y-117819161D01*
X141480000Y-118110000D01*
X141480000Y-118176333D01*
X141197189Y-118365302D01*
X140886120Y-118830849D01*
X140776887Y-119380000D01*
X140886120Y-119929151D01*
X141197189Y-120394698D01*
X141662736Y-120705767D01*
X142211887Y-120815000D01*
X142268113Y-120815000D01*
X142817264Y-120705767D01*
X143282811Y-120394698D01*
X143593880Y-119929151D01*
X143703113Y-119380000D01*
X143593880Y-118830849D01*
X143282811Y-118365302D01*
X143148946Y-118275856D01*
X144284680Y-117140122D01*
X144330167Y-117140162D01*
X144673943Y-116998117D01*
X144903829Y-116768631D01*
X145114878Y-116979680D01*
X145114838Y-117025167D01*
X145256883Y-117368943D01*
X145519673Y-117632192D01*
X145863201Y-117774838D01*
X146235167Y-117775162D01*
X146578943Y-117633117D01*
X146842192Y-117370327D01*
X146984838Y-117026799D01*
X146985162Y-116654833D01*
X146843117Y-116311057D01*
X146580327Y-116047808D01*
X146236799Y-115905162D01*
X146189923Y-115905121D01*
X146175000Y-115890198D01*
X146175000Y-114465633D01*
X146498201Y-114599838D01*
X146870167Y-114600162D01*
X147213943Y-114458117D01*
X147267063Y-114405089D01*
X147330301Y-114468327D01*
X147464994Y-114524119D01*
X147289449Y-114699357D01*
X147055267Y-115263330D01*
X147054735Y-115873991D01*
X147287932Y-116438371D01*
X147602105Y-116753093D01*
X146147599Y-118207599D01*
X145982852Y-118454161D01*
X145925000Y-118745000D01*
X145925000Y-120970198D01*
X144640320Y-122254878D01*
X144594833Y-122254838D01*
X144251057Y-122396883D01*
X143987808Y-122659673D01*
X143845162Y-123003201D01*
X143844838Y-123375167D01*
X143986883Y-123718943D01*
X144249673Y-123982192D01*
X144593201Y-124124838D01*
X144965167Y-124125162D01*
X145308943Y-123983117D01*
X145572192Y-123720327D01*
X145714838Y-123376799D01*
X145714879Y-123329923D01*
X147146820Y-121897982D01*
X147151673Y-121909698D01*
X147330301Y-122088327D01*
X147464994Y-122144119D01*
X147289449Y-122319357D01*
X147055267Y-122883330D01*
X147054735Y-123493991D01*
X147286147Y-124054051D01*
X145910320Y-125429878D01*
X145864833Y-125429838D01*
X145521057Y-125571883D01*
X145257808Y-125834673D01*
X145115162Y-126178201D01*
X145114838Y-126550167D01*
X145256883Y-126893943D01*
X145519673Y-127157192D01*
X145863201Y-127299838D01*
X146235167Y-127300162D01*
X146371837Y-127243691D01*
X147055000Y-127243691D01*
X147055000Y-127984250D01*
X147213750Y-128143000D01*
X148463000Y-128143000D01*
X148463000Y-126893750D01*
X148717000Y-126893750D01*
X148717000Y-128143000D01*
X149966250Y-128143000D01*
X150125000Y-127984250D01*
X150125000Y-127243691D01*
X150028327Y-127010302D01*
X149849699Y-126831673D01*
X149616310Y-126735000D01*
X148875750Y-126735000D01*
X148717000Y-126893750D01*
X148463000Y-126893750D01*
X148304250Y-126735000D01*
X147563690Y-126735000D01*
X147330301Y-126831673D01*
X147151673Y-127010302D01*
X147055000Y-127243691D01*
X146371837Y-127243691D01*
X146578943Y-127158117D01*
X146842192Y-126895327D01*
X146984838Y-126551799D01*
X146984879Y-126504923D01*
X148764650Y-124725152D01*
X148893991Y-124725265D01*
X149458371Y-124492068D01*
X149890551Y-124060643D01*
X150124733Y-123496670D01*
X150125265Y-122886009D01*
X149892068Y-122321629D01*
X149714908Y-122144159D01*
X149849699Y-122088327D01*
X150028327Y-121909698D01*
X150125000Y-121676309D01*
X150125000Y-120935750D01*
X149966250Y-120777000D01*
X148717000Y-120777000D01*
X148717000Y-120797000D01*
X148463000Y-120797000D01*
X148463000Y-120777000D01*
X148443000Y-120777000D01*
X148443000Y-120523000D01*
X148463000Y-120523000D01*
X148463000Y-119273750D01*
X148717000Y-119273750D01*
X148717000Y-120523000D01*
X149966250Y-120523000D01*
X150125000Y-120364250D01*
X150125000Y-119623691D01*
X150028327Y-119390302D01*
X150018026Y-119380000D01*
X156016887Y-119380000D01*
X156126120Y-119929151D01*
X156437189Y-120394698D01*
X156819275Y-120650000D01*
X156437189Y-120905302D01*
X156126120Y-121370849D01*
X156016887Y-121920000D01*
X156126120Y-122469151D01*
X156437189Y-122934698D01*
X156819275Y-123190000D01*
X156437189Y-123445302D01*
X156126120Y-123910849D01*
X156016887Y-124460000D01*
X156126120Y-125009151D01*
X156437189Y-125474698D01*
X156819275Y-125730000D01*
X156437189Y-125985302D01*
X156126120Y-126450849D01*
X156016887Y-127000000D01*
X156126120Y-127549151D01*
X156437189Y-128014698D01*
X156902736Y-128325767D01*
X157451887Y-128435000D01*
X157508113Y-128435000D01*
X157696633Y-128397501D01*
X157915000Y-128615868D01*
X157915000Y-129615917D01*
X157534176Y-129996077D01*
X157315250Y-130523309D01*
X157314752Y-131094187D01*
X157532757Y-131621800D01*
X157936077Y-132025824D01*
X158463309Y-132244750D01*
X159034187Y-132245248D01*
X159561800Y-132027243D01*
X159771663Y-131817745D01*
X160421861Y-131817745D01*
X160495995Y-132063864D01*
X161033223Y-132256965D01*
X161603454Y-132229778D01*
X162004005Y-132063864D01*
X162078139Y-131817745D01*
X161250000Y-130989605D01*
X160421861Y-131817745D01*
X159771663Y-131817745D01*
X159965824Y-131623923D01*
X159993423Y-131557456D01*
X159996136Y-131564005D01*
X160242255Y-131638139D01*
X161070395Y-130810000D01*
X161429605Y-130810000D01*
X162257745Y-131638139D01*
X162503864Y-131564005D01*
X162696965Y-131026777D01*
X162669778Y-130456546D01*
X162503864Y-130055995D01*
X162257745Y-129981861D01*
X161429605Y-130810000D01*
X161070395Y-130810000D01*
X160242255Y-129981861D01*
X159996136Y-130055995D01*
X159993804Y-130062483D01*
X159967243Y-129998200D01*
X159771640Y-129802255D01*
X160421861Y-129802255D01*
X161250000Y-130630395D01*
X162078139Y-129802255D01*
X162004005Y-129556136D01*
X161466777Y-129363035D01*
X160896546Y-129390222D01*
X160495995Y-129556136D01*
X160421861Y-129802255D01*
X159771640Y-129802255D01*
X159585000Y-129615290D01*
X159585000Y-128270000D01*
X159521439Y-127950459D01*
X159340434Y-127679566D01*
X158896286Y-127235418D01*
X158943113Y-127000000D01*
X158833880Y-126450849D01*
X158522811Y-125985302D01*
X158140725Y-125730000D01*
X158522811Y-125474698D01*
X158833880Y-125009151D01*
X158943113Y-124460000D01*
X158833880Y-123910849D01*
X158522811Y-123445302D01*
X158140725Y-123190000D01*
X158522811Y-122934698D01*
X158833880Y-122469151D01*
X158943113Y-121920000D01*
X158833880Y-121370849D01*
X158522811Y-120905302D01*
X158140725Y-120650000D01*
X158522811Y-120394698D01*
X158833880Y-119929151D01*
X158943113Y-119380000D01*
X158853636Y-118930167D01*
X162259838Y-118930167D01*
X162401883Y-119273943D01*
X162435000Y-119307118D01*
X162435000Y-120650000D01*
X162492852Y-120940839D01*
X162657599Y-121187401D01*
X163698141Y-122227943D01*
X163746120Y-122469151D01*
X164057189Y-122934698D01*
X164439275Y-123190000D01*
X164057189Y-123445302D01*
X163746120Y-123910849D01*
X163636887Y-124460000D01*
X163746120Y-125009151D01*
X164057189Y-125474698D01*
X164201465Y-125571101D01*
X164064683Y-125596838D01*
X163848559Y-125735910D01*
X163703569Y-125948110D01*
X163652560Y-126200000D01*
X163652560Y-127800000D01*
X163696838Y-128035317D01*
X163835910Y-128251441D01*
X164048110Y-128396431D01*
X164300000Y-128447440D01*
X165900000Y-128447440D01*
X166135317Y-128403162D01*
X166351441Y-128264090D01*
X166496431Y-128051890D01*
X166547440Y-127800000D01*
X166547440Y-126200000D01*
X166503162Y-125964683D01*
X166364090Y-125748559D01*
X166151890Y-125603569D01*
X165996911Y-125572185D01*
X166142811Y-125474698D01*
X166453880Y-125009151D01*
X166563113Y-124460000D01*
X166453880Y-123910849D01*
X166142811Y-123445302D01*
X165760725Y-123190000D01*
X166142811Y-122934698D01*
X166453880Y-122469151D01*
X166563113Y-121920000D01*
X166453880Y-121370849D01*
X166142811Y-120905302D01*
X165738297Y-120635014D01*
X165955134Y-120532389D01*
X166331041Y-120117423D01*
X166491904Y-119729039D01*
X166369915Y-119507000D01*
X165227000Y-119507000D01*
X165227000Y-119527000D01*
X164973000Y-119527000D01*
X164973000Y-119507000D01*
X164953000Y-119507000D01*
X164953000Y-119253000D01*
X164973000Y-119253000D01*
X164973000Y-118109371D01*
X165227000Y-118109371D01*
X165227000Y-119253000D01*
X166369915Y-119253000D01*
X166491904Y-119030961D01*
X166331041Y-118642577D01*
X165955134Y-118227611D01*
X165449041Y-117988086D01*
X165227000Y-118109371D01*
X164973000Y-118109371D01*
X164750959Y-117988086D01*
X164244866Y-118227611D01*
X164071821Y-118418636D01*
X163988117Y-118216057D01*
X163725327Y-117952808D01*
X163381799Y-117810162D01*
X163009833Y-117809838D01*
X162666057Y-117951883D01*
X162402808Y-118214673D01*
X162260162Y-118558201D01*
X162259838Y-118930167D01*
X158853636Y-118930167D01*
X158833880Y-118830849D01*
X158522811Y-118365302D01*
X158057264Y-118054233D01*
X157508113Y-117945000D01*
X157451887Y-117945000D01*
X156902736Y-118054233D01*
X156437189Y-118365302D01*
X156126120Y-118830849D01*
X156016887Y-119380000D01*
X150018026Y-119380000D01*
X149849699Y-119211673D01*
X149616310Y-119115000D01*
X148875750Y-119115000D01*
X148717000Y-119273750D01*
X148463000Y-119273750D01*
X148304250Y-119115000D01*
X147563690Y-119115000D01*
X147445000Y-119164163D01*
X147445000Y-119059802D01*
X149127401Y-117377401D01*
X149292148Y-117130839D01*
X149333345Y-116923728D01*
X149458371Y-116872068D01*
X149890551Y-116440643D01*
X150124733Y-115876670D01*
X150125265Y-115266009D01*
X149892068Y-114701629D01*
X149714908Y-114524159D01*
X149849699Y-114468327D01*
X150028327Y-114289698D01*
X150125000Y-114056309D01*
X150125000Y-113315750D01*
X149966250Y-113157000D01*
X148717000Y-113157000D01*
X148717000Y-113177000D01*
X148463000Y-113177000D01*
X148463000Y-113157000D01*
X148443000Y-113157000D01*
X148443000Y-112903000D01*
X148463000Y-112903000D01*
X148463000Y-111653750D01*
X148717000Y-111653750D01*
X148717000Y-112903000D01*
X149966250Y-112903000D01*
X150125000Y-112744250D01*
X150125000Y-112003691D01*
X150028327Y-111770302D01*
X149849699Y-111591673D01*
X149616310Y-111495000D01*
X148875750Y-111495000D01*
X148717000Y-111653750D01*
X148463000Y-111653750D01*
X148304250Y-111495000D01*
X147563690Y-111495000D01*
X147445000Y-111544163D01*
X147445000Y-110169802D01*
X148175036Y-109439766D01*
X148283330Y-109484733D01*
X148893991Y-109485265D01*
X149458371Y-109252068D01*
X149890551Y-108820643D01*
X150124733Y-108256670D01*
X150125265Y-107646009D01*
X149892068Y-107081629D01*
X149714908Y-106904159D01*
X149849699Y-106848327D01*
X150028327Y-106669698D01*
X150125000Y-106436309D01*
X150125000Y-105695750D01*
X149966250Y-105537000D01*
X148717000Y-105537000D01*
X148717000Y-105557000D01*
X148463000Y-105557000D01*
X148463000Y-105537000D01*
X147213750Y-105537000D01*
X147055000Y-105695750D01*
X147055000Y-106436309D01*
X147151673Y-106669698D01*
X147330301Y-106848327D01*
X147464994Y-106904119D01*
X147289449Y-107079357D01*
X147055267Y-107643330D01*
X147054735Y-108253991D01*
X147100485Y-108364713D01*
X146147599Y-109317599D01*
X146050000Y-109463667D01*
X145952401Y-109317599D01*
X145715122Y-109080320D01*
X145715162Y-109034833D01*
X145573117Y-108691057D01*
X145310327Y-108427808D01*
X144966799Y-108285162D01*
X144905000Y-108285108D01*
X144905000Y-104383691D01*
X147055000Y-104383691D01*
X147055000Y-105124250D01*
X147213750Y-105283000D01*
X148463000Y-105283000D01*
X148463000Y-104033750D01*
X148717000Y-104033750D01*
X148717000Y-105283000D01*
X149966250Y-105283000D01*
X150125000Y-105124250D01*
X150125000Y-104383691D01*
X150028327Y-104150302D01*
X149849699Y-103971673D01*
X149616310Y-103875000D01*
X148875750Y-103875000D01*
X148717000Y-104033750D01*
X148463000Y-104033750D01*
X148304250Y-103875000D01*
X147563690Y-103875000D01*
X147330301Y-103971673D01*
X147151673Y-104150302D01*
X147055000Y-104383691D01*
X144905000Y-104383691D01*
X144905000Y-103184802D01*
X144919680Y-103170122D01*
X144965167Y-103170162D01*
X145308943Y-103028117D01*
X145572192Y-102765327D01*
X145714838Y-102421799D01*
X145715162Y-102049833D01*
X145573117Y-101706057D01*
X145310327Y-101442808D01*
X144966799Y-101300162D01*
X144594833Y-101299838D01*
X144270000Y-101434056D01*
X144270000Y-100633991D01*
X147054735Y-100633991D01*
X147287932Y-101198371D01*
X147719357Y-101630551D01*
X148283330Y-101864733D01*
X148893991Y-101865265D01*
X149458371Y-101632068D01*
X149890551Y-101200643D01*
X150124733Y-100636670D01*
X150125265Y-100026009D01*
X149892068Y-99461629D01*
X149714908Y-99284159D01*
X149849699Y-99228327D01*
X150028327Y-99049698D01*
X150125000Y-98816309D01*
X150125000Y-98075750D01*
X149966250Y-97917000D01*
X148717000Y-97917000D01*
X148717000Y-97937000D01*
X148463000Y-97937000D01*
X148463000Y-97917000D01*
X147213750Y-97917000D01*
X147055000Y-98075750D01*
X147055000Y-98816309D01*
X147151673Y-99049698D01*
X147330301Y-99228327D01*
X147464994Y-99284119D01*
X147289449Y-99459357D01*
X147055267Y-100023330D01*
X147054735Y-100633991D01*
X144270000Y-100633991D01*
X144270000Y-97469802D01*
X145114908Y-96624894D01*
X145114838Y-96705167D01*
X145256883Y-97048943D01*
X145519673Y-97312192D01*
X145863201Y-97454838D01*
X146235167Y-97455162D01*
X146578943Y-97313117D01*
X146842192Y-97050327D01*
X146961214Y-96763691D01*
X147055000Y-96763691D01*
X147055000Y-97504250D01*
X147213750Y-97663000D01*
X148463000Y-97663000D01*
X148463000Y-96413750D01*
X148717000Y-96413750D01*
X148717000Y-97663000D01*
X149966250Y-97663000D01*
X150125000Y-97504250D01*
X150125000Y-96763691D01*
X150028327Y-96530302D01*
X149849699Y-96351673D01*
X149616310Y-96255000D01*
X148875750Y-96255000D01*
X148717000Y-96413750D01*
X148463000Y-96413750D01*
X148304250Y-96255000D01*
X147563690Y-96255000D01*
X147330301Y-96351673D01*
X147151673Y-96530302D01*
X147055000Y-96763691D01*
X146961214Y-96763691D01*
X146984838Y-96706799D01*
X146984879Y-96659923D01*
X149127401Y-94517401D01*
X149292148Y-94270840D01*
X149313109Y-94165460D01*
X149333345Y-94063728D01*
X149458371Y-94012068D01*
X149890551Y-93580643D01*
X150124733Y-93016670D01*
X150125265Y-92406009D01*
X149892068Y-91841629D01*
X149714908Y-91664159D01*
X149849699Y-91608327D01*
X150028327Y-91429698D01*
X150125000Y-91196309D01*
X150125000Y-90455750D01*
X149966250Y-90297000D01*
X148717000Y-90297000D01*
X148717000Y-90317000D01*
X148463000Y-90317000D01*
X148463000Y-90297000D01*
X147213750Y-90297000D01*
X147055000Y-90455750D01*
X147055000Y-91196309D01*
X147151673Y-91429698D01*
X147330301Y-91608327D01*
X147464994Y-91664119D01*
X147289449Y-91839357D01*
X147055267Y-92403330D01*
X147054735Y-93013991D01*
X147287932Y-93578371D01*
X147602105Y-93893093D01*
X145910320Y-95584878D01*
X145864833Y-95584838D01*
X145540000Y-95719056D01*
X145540000Y-89143691D01*
X147055000Y-89143691D01*
X147055000Y-89884250D01*
X147213750Y-90043000D01*
X148463000Y-90043000D01*
X148463000Y-88793750D01*
X148717000Y-88793750D01*
X148717000Y-90043000D01*
X149966250Y-90043000D01*
X150125000Y-89884250D01*
X150125000Y-89143691D01*
X150028327Y-88910302D01*
X149849699Y-88731673D01*
X149616310Y-88635000D01*
X148875750Y-88635000D01*
X148717000Y-88793750D01*
X148463000Y-88793750D01*
X148304250Y-88635000D01*
X147563690Y-88635000D01*
X147330301Y-88731673D01*
X147151673Y-88910302D01*
X147055000Y-89143691D01*
X145540000Y-89143691D01*
X145540000Y-86674802D01*
X146364802Y-85850000D01*
X147243154Y-85850000D01*
X147287932Y-85958371D01*
X147719357Y-86390551D01*
X148283330Y-86624733D01*
X148893991Y-86625265D01*
X149458371Y-86392068D01*
X149890551Y-85960643D01*
X150124733Y-85396670D01*
X150125265Y-84786009D01*
X149892068Y-84221629D01*
X149714908Y-84044159D01*
X149849699Y-83988327D01*
X150028327Y-83809698D01*
X150125000Y-83576309D01*
X150125000Y-82835750D01*
X149966250Y-82677000D01*
X148717000Y-82677000D01*
X148717000Y-82697000D01*
X148463000Y-82697000D01*
X148463000Y-82677000D01*
X147213750Y-82677000D01*
X147055000Y-82835750D01*
X147055000Y-83576309D01*
X147151673Y-83809698D01*
X147330301Y-83988327D01*
X147464994Y-84044119D01*
X147289449Y-84219357D01*
X147243506Y-84330000D01*
X146050000Y-84330000D01*
X145759160Y-84387852D01*
X145512599Y-84552599D01*
X144242599Y-85822599D01*
X144077852Y-86069161D01*
X144020000Y-86360000D01*
X144020000Y-95570198D01*
X142972599Y-96617599D01*
X142807852Y-96864161D01*
X142750000Y-97155000D01*
X142750000Y-98259367D01*
X142426799Y-98125162D01*
X142054833Y-98124838D01*
X141711057Y-98266883D01*
X141447808Y-98529673D01*
X141305162Y-98873201D01*
X141304838Y-99245167D01*
X141446883Y-99588943D01*
X141480000Y-99622118D01*
X141480000Y-104460198D01*
X140432599Y-105507599D01*
X140267852Y-105754161D01*
X140210000Y-106045000D01*
X122120000Y-106045000D01*
X122120000Y-91115816D01*
X122623742Y-91115816D01*
X122646341Y-91215519D01*
X122932466Y-91732928D01*
X123394815Y-92101457D01*
X123963000Y-92265000D01*
X124463000Y-92265000D01*
X124463000Y-90882000D01*
X122744731Y-90882000D01*
X122623742Y-91115816D01*
X122120000Y-91115816D01*
X122120000Y-90394184D01*
X122623742Y-90394184D01*
X122744731Y-90628000D01*
X124463000Y-90628000D01*
X124463000Y-89245000D01*
X123963000Y-89245000D01*
X123394815Y-89408543D01*
X122932466Y-89777072D01*
X122646341Y-90294481D01*
X122623742Y-90394184D01*
X122120000Y-90394184D01*
X122120000Y-83530868D01*
X122843333Y-82807535D01*
X123083943Y-82708117D01*
X123347192Y-82445327D01*
X123489838Y-82101799D01*
X123490162Y-81729833D01*
X123348117Y-81386057D01*
X123085327Y-81122808D01*
X122741799Y-80980162D01*
X122369833Y-80979838D01*
X122026057Y-81121883D01*
X121762808Y-81384673D01*
X121662222Y-81626910D01*
X120694566Y-82594566D01*
X120513561Y-82865459D01*
X120450000Y-83185000D01*
X120450000Y-104494803D01*
X120235134Y-104257611D01*
X119729041Y-104018086D01*
X119507000Y-104139371D01*
X119507000Y-105283000D01*
X119527000Y-105283000D01*
X119527000Y-105537000D01*
X119507000Y-105537000D01*
X119507000Y-106680629D01*
X119729041Y-106801914D01*
X120235134Y-106562389D01*
X120450000Y-106325197D01*
X120450000Y-106969132D01*
X119633911Y-107785221D01*
X119556731Y-107785154D01*
X119380000Y-107750000D01*
X119204813Y-107784847D01*
X119095813Y-107784752D01*
X118568200Y-108002757D01*
X118164176Y-108406077D01*
X117945250Y-108933309D01*
X117944752Y-109504187D01*
X113166584Y-109504187D01*
X113223113Y-109220000D01*
X113113880Y-108670849D01*
X112802811Y-108205302D01*
X112520000Y-108016333D01*
X112520000Y-106648646D01*
X112571800Y-106627243D01*
X112975824Y-106223923D01*
X113168860Y-105759039D01*
X117988096Y-105759039D01*
X118148959Y-106147423D01*
X118524866Y-106562389D01*
X119030959Y-106801914D01*
X119253000Y-106680629D01*
X119253000Y-105537000D01*
X118110085Y-105537000D01*
X117988096Y-105759039D01*
X113168860Y-105759039D01*
X113194750Y-105696691D01*
X113195248Y-105125813D01*
X113168452Y-105060961D01*
X117988096Y-105060961D01*
X118110085Y-105283000D01*
X119253000Y-105283000D01*
X119253000Y-104139371D01*
X119030959Y-104018086D01*
X118524866Y-104257611D01*
X118148959Y-104672577D01*
X117988096Y-105060961D01*
X113168452Y-105060961D01*
X112977243Y-104598200D01*
X112573923Y-104194176D01*
X112520000Y-104171785D01*
X112520000Y-103184802D01*
X116107401Y-99597401D01*
X116272148Y-99350839D01*
X116330000Y-99060000D01*
X116330000Y-94805665D01*
X116487914Y-94805803D01*
X118192087Y-94101653D01*
X119497071Y-92798945D01*
X120204194Y-91096003D01*
X120205803Y-89252086D01*
X119501653Y-87547913D01*
X118198945Y-86242929D01*
X116496003Y-85535806D01*
X116330000Y-85535661D01*
X116330000Y-85017463D01*
X116362192Y-84985327D01*
X116504838Y-84641799D01*
X116505162Y-84269833D01*
X116363117Y-83926057D01*
X116100327Y-83662808D01*
X115756799Y-83520162D01*
X115384833Y-83519838D01*
X115041057Y-83661883D01*
X114777808Y-83924673D01*
X114635162Y-84268201D01*
X114634838Y-84640167D01*
X114776883Y-84983943D01*
X114810000Y-85017118D01*
X114810000Y-85534335D01*
X114652086Y-85534197D01*
X112947913Y-86238347D01*
X111642929Y-87541055D01*
X110935806Y-89243997D01*
X110934197Y-91087914D01*
X111638347Y-92792087D01*
X112941055Y-94097071D01*
X114643997Y-94804194D01*
X114810000Y-94804339D01*
X114810000Y-98745198D01*
X111222599Y-102332599D01*
X111057852Y-102579161D01*
X111000000Y-102870000D01*
X111000000Y-104171354D01*
X110948200Y-104192757D01*
X110544176Y-104596077D01*
X110325250Y-105123309D01*
X110324752Y-105694187D01*
X110542757Y-106221800D01*
X110946077Y-106625824D01*
X111000000Y-106648215D01*
X111000000Y-108016333D01*
X110717189Y-108205302D01*
X110406120Y-108670849D01*
X110296887Y-109220000D01*
X108453383Y-109220000D01*
X108207453Y-108484404D01*
X107456327Y-105707615D01*
X106869354Y-102971477D01*
X106432701Y-100289203D01*
X106144449Y-97669208D01*
X106003339Y-95117938D01*
X106008053Y-92641816D01*
X106157200Y-90247190D01*
X106449337Y-87940292D01*
X106882947Y-85727371D01*
X107456477Y-83614485D01*
X108168343Y-81607582D01*
X109016996Y-79712381D01*
X109571237Y-78710907D01*
X120435000Y-78710907D01*
X120435000Y-78769093D01*
X120548039Y-79337378D01*
X120869946Y-79819147D01*
X121351715Y-80141054D01*
X121920000Y-80254093D01*
X122488285Y-80141054D01*
X122970054Y-79819147D01*
X123190000Y-79489974D01*
X123409946Y-79819147D01*
X123625000Y-79962841D01*
X123625000Y-80645000D01*
X123688561Y-80964541D01*
X123815822Y-81155000D01*
X123869566Y-81235434D01*
X126165000Y-83530868D01*
X126165000Y-89711286D01*
X125785185Y-89408543D01*
X125217000Y-89245000D01*
X124717000Y-89245000D01*
X124717000Y-90628000D01*
X124737000Y-90628000D01*
X124737000Y-90882000D01*
X124717000Y-90882000D01*
X124717000Y-92265000D01*
X125217000Y-92265000D01*
X125785185Y-92101457D01*
X125822096Y-92072036D01*
X123999566Y-93894566D01*
X123818561Y-94165459D01*
X123755000Y-94485000D01*
X123755000Y-102103803D01*
X123472770Y-102159942D01*
X122982891Y-102487269D01*
X122655564Y-102977148D01*
X122540622Y-103555000D01*
X122655564Y-104132852D01*
X122982891Y-104622731D01*
X123472770Y-104950058D01*
X124050622Y-105065000D01*
X125129378Y-105065000D01*
X125707230Y-104950058D01*
X126197109Y-104622731D01*
X126524436Y-104132852D01*
X126639378Y-103555000D01*
X126524436Y-102977148D01*
X126197109Y-102487269D01*
X125707230Y-102159942D01*
X125425000Y-102103803D01*
X125425000Y-94830868D01*
X127590434Y-92665434D01*
X127771440Y-92394540D01*
X127835000Y-92075000D01*
X127835000Y-83185000D01*
X127771439Y-82865459D01*
X127590434Y-82594566D01*
X125295000Y-80299132D01*
X125295000Y-79962841D01*
X125510054Y-79819147D01*
X125537850Y-79777548D01*
X125546838Y-79825317D01*
X125685910Y-80041441D01*
X125898110Y-80186431D01*
X126150000Y-80237440D01*
X127850000Y-80237440D01*
X128085317Y-80193162D01*
X128301441Y-80054090D01*
X128446431Y-79841890D01*
X128470492Y-79723071D01*
X132985000Y-79723071D01*
X132985000Y-80296929D01*
X133109457Y-80922616D01*
X133463880Y-81453049D01*
X133994313Y-81807472D01*
X134620000Y-81931929D01*
X135245687Y-81807472D01*
X135776120Y-81453049D01*
X135900342Y-81267137D01*
X136096663Y-81514298D01*
X136657604Y-81825742D01*
X136779566Y-81850124D01*
X137033000Y-81730777D01*
X137033000Y-80137000D01*
X137013000Y-80137000D01*
X137013000Y-79883000D01*
X137033000Y-79883000D01*
X137033000Y-78289223D01*
X137287000Y-78289223D01*
X137287000Y-79883000D01*
X137307000Y-79883000D01*
X137307000Y-80137000D01*
X137287000Y-80137000D01*
X137287000Y-81730777D01*
X137540434Y-81850124D01*
X137662396Y-81825742D01*
X138223337Y-81514298D01*
X138419658Y-81267137D01*
X138543880Y-81453049D01*
X139074313Y-81807472D01*
X139700000Y-81931929D01*
X140325687Y-81807472D01*
X140750396Y-81523691D01*
X147055000Y-81523691D01*
X147055000Y-82264250D01*
X147213750Y-82423000D01*
X148463000Y-82423000D01*
X148463000Y-81173750D01*
X148717000Y-81173750D01*
X148717000Y-82423000D01*
X149966250Y-82423000D01*
X150125000Y-82264250D01*
X150125000Y-81915000D01*
X151005000Y-81915000D01*
X151005000Y-106045000D01*
X151062852Y-106335839D01*
X151227599Y-106582401D01*
X153519093Y-108873895D01*
X153495252Y-108931311D01*
X153494750Y-109506167D01*
X153714275Y-110037457D01*
X154120405Y-110444297D01*
X154651311Y-110664748D01*
X155226167Y-110665250D01*
X155757457Y-110445725D01*
X156164297Y-110039595D01*
X156384748Y-109508689D01*
X156385250Y-108933833D01*
X156165725Y-108402543D01*
X155759595Y-107995703D01*
X155228689Y-107775252D01*
X154653833Y-107774750D01*
X154594194Y-107799392D01*
X152525000Y-105730198D01*
X152525000Y-82229802D01*
X152539680Y-82215122D01*
X152585167Y-82215162D01*
X152928943Y-82073117D01*
X153087336Y-81915000D01*
X153545000Y-81915000D01*
X153545000Y-99695000D01*
X153602852Y-99985839D01*
X153767599Y-100232401D01*
X154004878Y-100469680D01*
X154004838Y-100515167D01*
X154146883Y-100858943D01*
X154409673Y-101122192D01*
X154753201Y-101264838D01*
X155125167Y-101265162D01*
X155450000Y-101130944D01*
X155450000Y-102307537D01*
X155417808Y-102339673D01*
X155275162Y-102683201D01*
X155274838Y-103055167D01*
X155416883Y-103398943D01*
X155679673Y-103662192D01*
X156023201Y-103804838D01*
X156395167Y-103805162D01*
X156680000Y-103687472D01*
X156680000Y-112970534D01*
X156622543Y-112994275D01*
X156215703Y-113400405D01*
X155995252Y-113931311D01*
X155994750Y-114506167D01*
X156214275Y-115037457D01*
X156620405Y-115444297D01*
X157151311Y-115664748D01*
X157726167Y-115665250D01*
X158257457Y-115445725D01*
X158664297Y-115039595D01*
X158884748Y-114508689D01*
X158885250Y-113933833D01*
X158665725Y-113402543D01*
X158259595Y-112995703D01*
X158200000Y-112970957D01*
X158200000Y-109506167D01*
X158494750Y-109506167D01*
X158714275Y-110037457D01*
X159120405Y-110444297D01*
X159651311Y-110664748D01*
X160226167Y-110665250D01*
X160757457Y-110445725D01*
X161164297Y-110039595D01*
X161384748Y-109508689D01*
X161385000Y-109220000D01*
X162366887Y-109220000D01*
X162476120Y-109769151D01*
X162787189Y-110234698D01*
X163070000Y-110423667D01*
X163070000Y-111826333D01*
X162787189Y-112015302D01*
X162476120Y-112480849D01*
X162366887Y-113030000D01*
X162476120Y-113579151D01*
X162787189Y-114044698D01*
X163252736Y-114355767D01*
X163801887Y-114465000D01*
X163858113Y-114465000D01*
X164407264Y-114355767D01*
X164872811Y-114044698D01*
X165183880Y-113579151D01*
X165293113Y-113030000D01*
X165183880Y-112480849D01*
X164872811Y-112015302D01*
X164590000Y-111826333D01*
X164590000Y-110423667D01*
X164872811Y-110234698D01*
X165183880Y-109769151D01*
X165293113Y-109220000D01*
X165183880Y-108670849D01*
X164872811Y-108205302D01*
X164407264Y-107894233D01*
X163858113Y-107785000D01*
X163801887Y-107785000D01*
X163252736Y-107894233D01*
X162787189Y-108205302D01*
X162476120Y-108670849D01*
X162366887Y-109220000D01*
X161385000Y-109220000D01*
X161385250Y-108933833D01*
X161165725Y-108402543D01*
X160759595Y-107995703D01*
X160228689Y-107775252D01*
X159653833Y-107774750D01*
X159122543Y-107994275D01*
X158715703Y-108400405D01*
X158495252Y-108931311D01*
X158494750Y-109506167D01*
X158200000Y-109506167D01*
X158200000Y-93064802D01*
X159287401Y-91977401D01*
X159452148Y-91730839D01*
X159510000Y-91440000D01*
X159510000Y-89250832D01*
X159764698Y-89080648D01*
X160020000Y-88698562D01*
X160275302Y-89080648D01*
X160740849Y-89391717D01*
X161290000Y-89500950D01*
X161839151Y-89391717D01*
X162304698Y-89080648D01*
X162557507Y-88702293D01*
X162905104Y-89134500D01*
X163398181Y-89404367D01*
X163480961Y-89421904D01*
X163703000Y-89299915D01*
X163703000Y-87757000D01*
X163683000Y-87757000D01*
X163683000Y-87503000D01*
X163703000Y-87503000D01*
X163703000Y-85960085D01*
X163957000Y-85960085D01*
X163957000Y-87503000D01*
X163977000Y-87503000D01*
X163977000Y-87757000D01*
X163957000Y-87757000D01*
X163957000Y-89299915D01*
X164179039Y-89421904D01*
X164261819Y-89404367D01*
X164754896Y-89134500D01*
X165102493Y-88702293D01*
X165355302Y-89080648D01*
X165610000Y-89250832D01*
X165610000Y-90805000D01*
X165667852Y-91095839D01*
X165832599Y-91342401D01*
X168150000Y-93659802D01*
X168150000Y-100015198D01*
X167102599Y-101062599D01*
X166937852Y-101309161D01*
X166880000Y-101600000D01*
X166880000Y-102235000D01*
X166937852Y-102525839D01*
X167102599Y-102772401D01*
X167515000Y-103184802D01*
X167515000Y-111125000D01*
X167572852Y-111415839D01*
X167737599Y-111662401D01*
X168785000Y-112709802D01*
X168785000Y-119380000D01*
X168842852Y-119670839D01*
X169007599Y-119917401D01*
X170690000Y-121599802D01*
X170690000Y-124517005D01*
X170435302Y-124687189D01*
X170124233Y-125152736D01*
X170015000Y-125701887D01*
X170015000Y-125758113D01*
X170124233Y-126307264D01*
X170435302Y-126772811D01*
X170900849Y-127083880D01*
X171450000Y-127193113D01*
X171999151Y-127083880D01*
X172464698Y-126772811D01*
X172775767Y-126307264D01*
X172834063Y-126014187D01*
X173824752Y-126014187D01*
X174042757Y-126541800D01*
X174446077Y-126945824D01*
X174973309Y-127164750D01*
X175544187Y-127165248D01*
X176071800Y-126947243D01*
X176475824Y-126543923D01*
X176694750Y-126016691D01*
X176695248Y-125445813D01*
X176477243Y-124918200D01*
X176073923Y-124514176D01*
X175546691Y-124295250D01*
X174975813Y-124294752D01*
X174448200Y-124512757D01*
X174044176Y-124916077D01*
X173825250Y-125443309D01*
X173824752Y-126014187D01*
X172834063Y-126014187D01*
X172885000Y-125758113D01*
X172885000Y-125701887D01*
X172775767Y-125152736D01*
X172464698Y-124687189D01*
X172210000Y-124517005D01*
X172210000Y-121285000D01*
X172152148Y-120994161D01*
X171987401Y-120747599D01*
X170357547Y-119117745D01*
X170621861Y-119117745D01*
X170695995Y-119363864D01*
X171233223Y-119556965D01*
X171803454Y-119529778D01*
X172204005Y-119363864D01*
X172278139Y-119117745D01*
X171450000Y-118289605D01*
X170621861Y-119117745D01*
X170357547Y-119117745D01*
X170305000Y-119065198D01*
X170305000Y-118896796D01*
X170442255Y-118938139D01*
X171270395Y-118110000D01*
X171629605Y-118110000D01*
X172457745Y-118938139D01*
X172703864Y-118864005D01*
X172896965Y-118326777D01*
X172869778Y-117756546D01*
X172703864Y-117355995D01*
X172457745Y-117281861D01*
X171629605Y-118110000D01*
X171270395Y-118110000D01*
X170442255Y-117281861D01*
X170305000Y-117323204D01*
X170305000Y-117102255D01*
X170621861Y-117102255D01*
X171450000Y-117930395D01*
X172278139Y-117102255D01*
X172204005Y-116856136D01*
X171666777Y-116663035D01*
X171096546Y-116690222D01*
X170695995Y-116856136D01*
X170621861Y-117102255D01*
X170305000Y-117102255D01*
X170305000Y-113914169D01*
X170636077Y-114245824D01*
X171163309Y-114464750D01*
X171174958Y-114464760D01*
X174057881Y-117347683D01*
X173934233Y-117532736D01*
X173825000Y-118081887D01*
X173825000Y-118138113D01*
X173934233Y-118687264D01*
X174245302Y-119152811D01*
X174710849Y-119463880D01*
X175260000Y-119573113D01*
X175809151Y-119463880D01*
X176274698Y-119152811D01*
X176585767Y-118687264D01*
X176695000Y-118138113D01*
X176695000Y-118081887D01*
X176585767Y-117532736D01*
X176274698Y-117067189D01*
X175809151Y-116756120D01*
X175567943Y-116708141D01*
X172676944Y-113817142D01*
X172884750Y-113316691D01*
X172885248Y-112745813D01*
X172667243Y-112218200D01*
X172263923Y-111814176D01*
X171736691Y-111595250D01*
X171725042Y-111595240D01*
X170305000Y-110175198D01*
X170305000Y-110104169D01*
X170636077Y-110435824D01*
X171163309Y-110654750D01*
X171734187Y-110655248D01*
X172261800Y-110437243D01*
X172665824Y-110033923D01*
X172884750Y-109506691D01*
X172885248Y-108935813D01*
X172667243Y-108408200D01*
X172263923Y-108004176D01*
X171736691Y-107785250D01*
X171165813Y-107784752D01*
X170638200Y-108002757D01*
X170305000Y-108335376D01*
X170305000Y-104325167D01*
X172419838Y-104325167D01*
X172561883Y-104668943D01*
X172824673Y-104932192D01*
X173168201Y-105074838D01*
X173215077Y-105074879D01*
X173865000Y-105724802D01*
X173865000Y-107315000D01*
X173922852Y-107605839D01*
X174087599Y-107852401D01*
X175131312Y-108896114D01*
X175066887Y-109220000D01*
X175176120Y-109769151D01*
X175487189Y-110234698D01*
X175952736Y-110545767D01*
X176501887Y-110655000D01*
X176558113Y-110655000D01*
X177107264Y-110545767D01*
X177572811Y-110234698D01*
X177675000Y-110081762D01*
X177675000Y-112168238D01*
X177572811Y-112015302D01*
X177107264Y-111704233D01*
X176558113Y-111595000D01*
X176501887Y-111595000D01*
X175952736Y-111704233D01*
X175487189Y-112015302D01*
X175176120Y-112480849D01*
X175066887Y-113030000D01*
X175176120Y-113579151D01*
X175487189Y-114044698D01*
X175952736Y-114355767D01*
X176501887Y-114465000D01*
X176558113Y-114465000D01*
X177107264Y-114355767D01*
X177572811Y-114044698D01*
X177675000Y-113891762D01*
X177675000Y-121605198D01*
X177660320Y-121619878D01*
X177614833Y-121619838D01*
X177271057Y-121761883D01*
X177007808Y-122024673D01*
X176865162Y-122368201D01*
X176864838Y-122740167D01*
X177006883Y-123083943D01*
X177269673Y-123347192D01*
X177613201Y-123489838D01*
X177985167Y-123490162D01*
X178328943Y-123348117D01*
X178592192Y-123085327D01*
X178734838Y-122741799D01*
X178734879Y-122694923D01*
X178972401Y-122457401D01*
X179137148Y-122210839D01*
X179195000Y-121920000D01*
X179195000Y-113314187D01*
X182714752Y-113314187D01*
X182932757Y-113841800D01*
X183336077Y-114245824D01*
X183863309Y-114464750D01*
X184434187Y-114465248D01*
X184961800Y-114247243D01*
X185365824Y-113843923D01*
X185584750Y-113316691D01*
X185585248Y-112745813D01*
X185367243Y-112218200D01*
X184963923Y-111814176D01*
X184436691Y-111595250D01*
X183865813Y-111594752D01*
X183338200Y-111812757D01*
X182934176Y-112216077D01*
X182715250Y-112743309D01*
X182714752Y-113314187D01*
X179195000Y-113314187D01*
X179195000Y-107315000D01*
X179137148Y-107024161D01*
X178972401Y-106777599D01*
X177943256Y-105748454D01*
X177964750Y-105696691D01*
X177965248Y-105125813D01*
X177747243Y-104598200D01*
X177343923Y-104194176D01*
X177290000Y-104171785D01*
X177290000Y-96070167D01*
X181944838Y-96070167D01*
X182086883Y-96413943D01*
X182349673Y-96677192D01*
X182693201Y-96819838D01*
X182740077Y-96819879D01*
X183390000Y-97469802D01*
X183390000Y-104206333D01*
X183107189Y-104395302D01*
X182796120Y-104860849D01*
X182686887Y-105410000D01*
X182796120Y-105959151D01*
X183107189Y-106424698D01*
X183390000Y-106613667D01*
X183390000Y-107981354D01*
X183338200Y-108002757D01*
X182934176Y-108406077D01*
X182715250Y-108933309D01*
X182714752Y-109504187D01*
X182932757Y-110031800D01*
X183336077Y-110435824D01*
X183863309Y-110654750D01*
X184434187Y-110655248D01*
X184961800Y-110437243D01*
X185365824Y-110033923D01*
X185584750Y-109506691D01*
X185585248Y-108935813D01*
X185367243Y-108408200D01*
X184963923Y-108004176D01*
X184910000Y-107981785D01*
X184910000Y-106613667D01*
X185192811Y-106424698D01*
X185503880Y-105959151D01*
X185613113Y-105410000D01*
X185503880Y-104860849D01*
X185192811Y-104395302D01*
X184910000Y-104206333D01*
X184910000Y-97155000D01*
X184852148Y-96864161D01*
X184852148Y-96864160D01*
X184687401Y-96617599D01*
X183815122Y-95745320D01*
X183815162Y-95699833D01*
X183673117Y-95356057D01*
X183410327Y-95092808D01*
X183066799Y-94950162D01*
X182694833Y-94949838D01*
X182351057Y-95091883D01*
X182087808Y-95354673D01*
X181945162Y-95698201D01*
X181944838Y-96070167D01*
X177290000Y-96070167D01*
X177290000Y-94615000D01*
X177232148Y-94324161D01*
X177232148Y-94324160D01*
X177067401Y-94077599D01*
X176195122Y-93205320D01*
X176195162Y-93159833D01*
X176053117Y-92816057D01*
X175790327Y-92552808D01*
X175446799Y-92410162D01*
X175074833Y-92409838D01*
X174731057Y-92551883D01*
X174467808Y-92814673D01*
X174325162Y-93158201D01*
X174324838Y-93530167D01*
X174466883Y-93873943D01*
X174729673Y-94137192D01*
X175073201Y-94279838D01*
X175120077Y-94279879D01*
X175770000Y-94929802D01*
X175770000Y-104171354D01*
X175718200Y-104192757D01*
X175314176Y-104596077D01*
X175185191Y-104906707D01*
X175162401Y-104872599D01*
X174290122Y-104000320D01*
X174290162Y-103954833D01*
X174148117Y-103611057D01*
X173885327Y-103347808D01*
X173541799Y-103205162D01*
X173169833Y-103204838D01*
X172826057Y-103346883D01*
X172562808Y-103609673D01*
X172420162Y-103953201D01*
X172419838Y-104325167D01*
X170305000Y-104325167D01*
X170305000Y-102235000D01*
X170247148Y-101944161D01*
X170082401Y-101697599D01*
X169845122Y-101460320D01*
X169845162Y-101414833D01*
X169703117Y-101071057D01*
X169468418Y-100835948D01*
X169612148Y-100620840D01*
X169670000Y-100330000D01*
X169670000Y-94145633D01*
X169993201Y-94279838D01*
X170365167Y-94280162D01*
X170708943Y-94138117D01*
X170972192Y-93875327D01*
X171114838Y-93531799D01*
X171115162Y-93159833D01*
X170973117Y-92816057D01*
X170710327Y-92552808D01*
X170366799Y-92410162D01*
X170319923Y-92410121D01*
X169670000Y-91760198D01*
X169670000Y-89250832D01*
X169924698Y-89080648D01*
X170180000Y-88698562D01*
X170435302Y-89080648D01*
X170690000Y-89250832D01*
X170690000Y-90170000D01*
X170747852Y-90460839D01*
X170912599Y-90707401D01*
X171149878Y-90944680D01*
X171149838Y-90990167D01*
X171291883Y-91333943D01*
X171554673Y-91597192D01*
X171898201Y-91739838D01*
X172270167Y-91740162D01*
X172613943Y-91598117D01*
X172877192Y-91335327D01*
X173019838Y-90991799D01*
X173020162Y-90619833D01*
X172878117Y-90276057D01*
X172615327Y-90012808D01*
X172271799Y-89870162D01*
X172224923Y-89870121D01*
X172210000Y-89855198D01*
X172210000Y-89250832D01*
X172464698Y-89080648D01*
X172775767Y-88615101D01*
X172885000Y-88065950D01*
X172885000Y-87194050D01*
X172775767Y-86644899D01*
X172464698Y-86179352D01*
X171999151Y-85868283D01*
X171450000Y-85759050D01*
X170900849Y-85868283D01*
X170435302Y-86179352D01*
X170180000Y-86561438D01*
X169924698Y-86179352D01*
X169459151Y-85868283D01*
X168910000Y-85759050D01*
X168360849Y-85868283D01*
X167895302Y-86179352D01*
X167640000Y-86561438D01*
X167384698Y-86179352D01*
X166919151Y-85868283D01*
X166370000Y-85759050D01*
X165820849Y-85868283D01*
X165355302Y-86179352D01*
X165102493Y-86557707D01*
X164754896Y-86125500D01*
X164261819Y-85855633D01*
X164179039Y-85838096D01*
X163957000Y-85960085D01*
X163703000Y-85960085D01*
X163480961Y-85838096D01*
X163398181Y-85855633D01*
X162905104Y-86125500D01*
X162557507Y-86557707D01*
X162304698Y-86179352D01*
X161839151Y-85868283D01*
X161290000Y-85759050D01*
X160740849Y-85868283D01*
X160275302Y-86179352D01*
X160020000Y-86561438D01*
X159764698Y-86179352D01*
X159299151Y-85868283D01*
X158750000Y-85759050D01*
X158200849Y-85868283D01*
X157735302Y-86179352D01*
X157480000Y-86561438D01*
X157224698Y-86179352D01*
X156759151Y-85868283D01*
X156210000Y-85759050D01*
X155660849Y-85868283D01*
X155195302Y-86179352D01*
X155065000Y-86374362D01*
X155065000Y-82229802D01*
X155578266Y-81716536D01*
X155660849Y-81771717D01*
X156210000Y-81880950D01*
X156759151Y-81771717D01*
X157224698Y-81460648D01*
X157480000Y-81078562D01*
X157735302Y-81460648D01*
X158200849Y-81771717D01*
X158750000Y-81880950D01*
X159299151Y-81771717D01*
X159764698Y-81460648D01*
X160020000Y-81078562D01*
X160275302Y-81460648D01*
X160740849Y-81771717D01*
X161290000Y-81880950D01*
X161839151Y-81771717D01*
X162304698Y-81460648D01*
X162560000Y-81078562D01*
X162815302Y-81460648D01*
X163280849Y-81771717D01*
X163830000Y-81880950D01*
X164379151Y-81771717D01*
X164844698Y-81460648D01*
X165100000Y-81078562D01*
X165355302Y-81460648D01*
X165820849Y-81771717D01*
X166370000Y-81880950D01*
X166919151Y-81771717D01*
X167384698Y-81460648D01*
X167640000Y-81078562D01*
X167895302Y-81460648D01*
X168360849Y-81771717D01*
X168910000Y-81880950D01*
X169459151Y-81771717D01*
X169924698Y-81460648D01*
X170022251Y-81314650D01*
X170046838Y-81445317D01*
X170185910Y-81661441D01*
X170398110Y-81806431D01*
X170650000Y-81857440D01*
X172250000Y-81857440D01*
X172485317Y-81813162D01*
X172701441Y-81674090D01*
X172846431Y-81461890D01*
X172897440Y-81210000D01*
X172897440Y-78810000D01*
X172853162Y-78574683D01*
X172714090Y-78358559D01*
X172501890Y-78213569D01*
X172250000Y-78162560D01*
X170650000Y-78162560D01*
X170414683Y-78206838D01*
X170198559Y-78345910D01*
X170053569Y-78558110D01*
X170023403Y-78707074D01*
X169924698Y-78559352D01*
X169459151Y-78248283D01*
X168910000Y-78139050D01*
X168360849Y-78248283D01*
X167895302Y-78559352D01*
X167640000Y-78941438D01*
X167384698Y-78559352D01*
X166919151Y-78248283D01*
X166370000Y-78139050D01*
X165820849Y-78248283D01*
X165355302Y-78559352D01*
X165100000Y-78941438D01*
X164844698Y-78559352D01*
X164379151Y-78248283D01*
X163830000Y-78139050D01*
X163280849Y-78248283D01*
X162815302Y-78559352D01*
X162560000Y-78941438D01*
X162304698Y-78559352D01*
X161839151Y-78248283D01*
X161290000Y-78139050D01*
X160740849Y-78248283D01*
X160275302Y-78559352D01*
X160020000Y-78941438D01*
X159764698Y-78559352D01*
X159299151Y-78248283D01*
X158750000Y-78139050D01*
X158200849Y-78248283D01*
X157735302Y-78559352D01*
X157480000Y-78941438D01*
X157224698Y-78559352D01*
X156759151Y-78248283D01*
X156210000Y-78139050D01*
X155660849Y-78248283D01*
X155195302Y-78559352D01*
X154884233Y-79024899D01*
X154775000Y-79574050D01*
X154775000Y-80370198D01*
X153767599Y-81377599D01*
X153602852Y-81624161D01*
X153545000Y-81915000D01*
X153087336Y-81915000D01*
X153192192Y-81810327D01*
X153334838Y-81466799D01*
X153335162Y-81094833D01*
X153193117Y-80751057D01*
X152930327Y-80487808D01*
X152586799Y-80345162D01*
X152214833Y-80344838D01*
X151871057Y-80486883D01*
X151607808Y-80749673D01*
X151465162Y-81093201D01*
X151465121Y-81140077D01*
X151227599Y-81377599D01*
X151062852Y-81624161D01*
X151005000Y-81915000D01*
X150125000Y-81915000D01*
X150125000Y-81523691D01*
X150028327Y-81290302D01*
X149849699Y-81111673D01*
X149616310Y-81015000D01*
X148875750Y-81015000D01*
X148717000Y-81173750D01*
X148463000Y-81173750D01*
X148304250Y-81015000D01*
X147563690Y-81015000D01*
X147330301Y-81111673D01*
X147151673Y-81290302D01*
X147055000Y-81523691D01*
X140750396Y-81523691D01*
X140856120Y-81453049D01*
X141210543Y-80922616D01*
X141335000Y-80296929D01*
X141335000Y-79723071D01*
X141210543Y-79097384D01*
X140856120Y-78566951D01*
X140325687Y-78212528D01*
X139700000Y-78088071D01*
X139074313Y-78212528D01*
X138543880Y-78566951D01*
X138419658Y-78752863D01*
X138223337Y-78505702D01*
X137662396Y-78194258D01*
X137540434Y-78169876D01*
X137287000Y-78289223D01*
X137033000Y-78289223D01*
X136779566Y-78169876D01*
X136657604Y-78194258D01*
X136096663Y-78505702D01*
X135900342Y-78752863D01*
X135776120Y-78566951D01*
X135245687Y-78212528D01*
X134620000Y-78088071D01*
X133994313Y-78212528D01*
X133463880Y-78566951D01*
X133109457Y-79097384D01*
X132985000Y-79723071D01*
X128470492Y-79723071D01*
X128497440Y-79590000D01*
X128497440Y-77890000D01*
X128453162Y-77654683D01*
X128314090Y-77438559D01*
X128101890Y-77293569D01*
X127850000Y-77242560D01*
X126150000Y-77242560D01*
X125914683Y-77286838D01*
X125698559Y-77425910D01*
X125553569Y-77638110D01*
X125539914Y-77705541D01*
X125510054Y-77660853D01*
X125474063Y-77636805D01*
X127590434Y-75520434D01*
X127647176Y-75435513D01*
X127771439Y-75249541D01*
X127835000Y-74930000D01*
X127835000Y-74882841D01*
X128050054Y-74739147D01*
X128079403Y-74695223D01*
X128151673Y-74869698D01*
X128330301Y-75048327D01*
X128563690Y-75145000D01*
X129254250Y-75145000D01*
X129413000Y-74986250D01*
X129413000Y-73787000D01*
X129667000Y-73787000D01*
X129667000Y-74986250D01*
X129825750Y-75145000D01*
X130516310Y-75145000D01*
X130749699Y-75048327D01*
X130928327Y-74869698D01*
X131025000Y-74636309D01*
X131025000Y-73945750D01*
X130866250Y-73787000D01*
X129667000Y-73787000D01*
X129413000Y-73787000D01*
X129393000Y-73787000D01*
X129393000Y-73533000D01*
X129413000Y-73533000D01*
X129413000Y-72333750D01*
X129667000Y-72333750D01*
X129667000Y-73533000D01*
X130866250Y-73533000D01*
X131025000Y-73374250D01*
X131025000Y-72683691D01*
X130928327Y-72450302D01*
X130749699Y-72271673D01*
X130516310Y-72175000D01*
X129825750Y-72175000D01*
X129667000Y-72333750D01*
X129413000Y-72333750D01*
X129254250Y-72175000D01*
X128563690Y-72175000D01*
X128330301Y-72271673D01*
X128151673Y-72450302D01*
X128079403Y-72624777D01*
X128050054Y-72580853D01*
X127568285Y-72258946D01*
X127000000Y-72145907D01*
X126431715Y-72258946D01*
X125949946Y-72580853D01*
X125628039Y-73062622D01*
X125515000Y-73630907D01*
X125515000Y-73689093D01*
X125628039Y-74257378D01*
X125949946Y-74739147D01*
X125985937Y-74763195D01*
X123869566Y-76879566D01*
X123688561Y-77150459D01*
X123625000Y-77470000D01*
X123625000Y-77517159D01*
X123409946Y-77660853D01*
X123190000Y-77990026D01*
X122970054Y-77660853D01*
X122488285Y-77338946D01*
X121920000Y-77225907D01*
X121351715Y-77338946D01*
X120869946Y-77660853D01*
X120548039Y-78142622D01*
X120435000Y-78710907D01*
X109571237Y-78710907D01*
X110000962Y-77934427D01*
X111118940Y-76279035D01*
X112369877Y-74751355D01*
X113753050Y-73356433D01*
X115268137Y-72099299D01*
X116914555Y-70985339D01*
X118682815Y-70023713D01*
X120556946Y-69226230D01*
X122520580Y-68604717D01*
X124557345Y-68170828D01*
X126651030Y-67936033D01*
X128785656Y-67911701D01*
X130945503Y-68109179D01*
X133115158Y-68539914D01*
X135279520Y-69215590D01*
X137423660Y-70148244D01*
X139532694Y-71350336D01*
X141591594Y-72834744D01*
X143585019Y-74614666D01*
X145497198Y-76703458D01*
X147326478Y-79133799D01*
X147354425Y-79172526D01*
X147355069Y-79173125D01*
X147355436Y-79173923D01*
X147387393Y-79217974D01*
X147388689Y-79219173D01*
X147389435Y-79220774D01*
X147421391Y-79264358D01*
X147423380Y-79266181D01*
X147424539Y-79268617D01*
X147456496Y-79311503D01*
X147459233Y-79313972D01*
X147460853Y-79317287D01*
X147492810Y-79359239D01*
X147496375Y-79362388D01*
X147498521Y-79366631D01*
X147530478Y-79407418D01*
X147534972Y-79411280D01*
X147537737Y-79416523D01*
X147569694Y-79455912D01*
X147575272Y-79460543D01*
X147578786Y-79466883D01*
X147610743Y-79504639D01*
X147617571Y-79510071D01*
X147621990Y-79517594D01*
X147653946Y-79553486D01*
X147662284Y-79559785D01*
X147667846Y-79568635D01*
X147699803Y-79602429D01*
X147709947Y-79609625D01*
X147716937Y-79619911D01*
X147748894Y-79651373D01*
X147761226Y-79659474D01*
X147770027Y-79671313D01*
X147801983Y-79700211D01*
X147816994Y-79709185D01*
X147828120Y-79722677D01*
X147860077Y-79748777D01*
X147878342Y-79758484D01*
X147892427Y-79773629D01*
X147924382Y-79796699D01*
X147946614Y-79806866D01*
X147964480Y-79823550D01*
X147996437Y-79843356D01*
X148023352Y-79853440D01*
X148045915Y-79871251D01*
X148077872Y-79887560D01*
X148110144Y-79896684D01*
X148138356Y-79914821D01*
X148170314Y-79927400D01*
X148208301Y-79934259D01*
X148242891Y-79951384D01*
X148274848Y-79960000D01*
X148318229Y-79962911D01*
X148359315Y-79977158D01*
X148391272Y-79981578D01*
X148438613Y-79978786D01*
X148485122Y-79988037D01*
X148517078Y-79988037D01*
X148563587Y-79978786D01*
X148610928Y-79981578D01*
X148642884Y-79977158D01*
X148683969Y-79962911D01*
X148727352Y-79960000D01*
X148759309Y-79951384D01*
X148793899Y-79934259D01*
X148831887Y-79927400D01*
X148863844Y-79914820D01*
X148892054Y-79896685D01*
X148924328Y-79887560D01*
X148956285Y-79871251D01*
X148978848Y-79853440D01*
X149005763Y-79843356D01*
X149037720Y-79823550D01*
X149055587Y-79806866D01*
X149077817Y-79796699D01*
X149109773Y-79773629D01*
X149123858Y-79758484D01*
X149142123Y-79748777D01*
X149174080Y-79722677D01*
X149185207Y-79709184D01*
X149200216Y-79700211D01*
X149232173Y-79671314D01*
X149240975Y-79659474D01*
X149253306Y-79651373D01*
X149285263Y-79619911D01*
X149292253Y-79609625D01*
X149302397Y-79602429D01*
X149334353Y-79568635D01*
X149339914Y-79559786D01*
X149348254Y-79553486D01*
X149380210Y-79517594D01*
X149384629Y-79510071D01*
X149391457Y-79504639D01*
X149423414Y-79466883D01*
X149426928Y-79460543D01*
X149432506Y-79455912D01*
X149464463Y-79416523D01*
X149467228Y-79411280D01*
X149471722Y-79407418D01*
X149503679Y-79366632D01*
X149505825Y-79362389D01*
X149509390Y-79359240D01*
X149541347Y-79317287D01*
X149542967Y-79313972D01*
X149545704Y-79311503D01*
X149577661Y-79268617D01*
X149578820Y-79266181D01*
X149580809Y-79264358D01*
X149612765Y-79220774D01*
X149613511Y-79219173D01*
X149614807Y-79217974D01*
X149646764Y-79173923D01*
X149647130Y-79173127D01*
X149647775Y-79172527D01*
X149675685Y-79133849D01*
X151505002Y-76703457D01*
X153417186Y-74614660D01*
X154095452Y-74009039D01*
X166248096Y-74009039D01*
X166408959Y-74397423D01*
X166784866Y-74812389D01*
X167290959Y-75051914D01*
X167513000Y-74930629D01*
X167513000Y-73787000D01*
X167767000Y-73787000D01*
X167767000Y-74930629D01*
X167989041Y-75051914D01*
X168495134Y-74812389D01*
X168871041Y-74397423D01*
X169031904Y-74009039D01*
X168996275Y-73944187D01*
X173824752Y-73944187D01*
X174042757Y-74471800D01*
X174446077Y-74875824D01*
X174973309Y-75094750D01*
X175544187Y-75095248D01*
X175598149Y-75072951D01*
X180850000Y-80324802D01*
X180850000Y-84527537D01*
X180817808Y-84559673D01*
X180675162Y-84903201D01*
X180674838Y-85275167D01*
X180781899Y-85534275D01*
X180692086Y-85534197D01*
X178987913Y-86238347D01*
X177682929Y-87541055D01*
X176975806Y-89243997D01*
X176974197Y-91087914D01*
X177678347Y-92792087D01*
X178981055Y-94097071D01*
X180683997Y-94804194D01*
X182527914Y-94805803D01*
X184232087Y-94101653D01*
X185537071Y-92798945D01*
X186244194Y-91096003D01*
X186245803Y-89252086D01*
X185541653Y-87547913D01*
X184238945Y-86242929D01*
X182536003Y-85535806D01*
X182437324Y-85535720D01*
X182544838Y-85276799D01*
X182545162Y-84904833D01*
X182403117Y-84561057D01*
X182370000Y-84527882D01*
X182370000Y-80010000D01*
X182312148Y-79719161D01*
X182147401Y-79472599D01*
X176673256Y-73998454D01*
X176694750Y-73946691D01*
X176695248Y-73375813D01*
X176477243Y-72848200D01*
X176073923Y-72444176D01*
X175546691Y-72225250D01*
X174975813Y-72224752D01*
X174448200Y-72442757D01*
X174044176Y-72846077D01*
X173825250Y-73373309D01*
X173824752Y-73944187D01*
X168996275Y-73944187D01*
X168909915Y-73787000D01*
X167767000Y-73787000D01*
X167513000Y-73787000D01*
X166370085Y-73787000D01*
X166248096Y-74009039D01*
X154095452Y-74009039D01*
X154877265Y-73310961D01*
X166248096Y-73310961D01*
X166370085Y-73533000D01*
X167513000Y-73533000D01*
X167513000Y-72389371D01*
X167767000Y-72389371D01*
X167767000Y-73533000D01*
X168909915Y-73533000D01*
X169031904Y-73310961D01*
X168871041Y-72922577D01*
X168495134Y-72507611D01*
X167989041Y-72268086D01*
X167767000Y-72389371D01*
X167513000Y-72389371D01*
X167290959Y-72268086D01*
X166784866Y-72507611D01*
X166408959Y-72922577D01*
X166248096Y-73310961D01*
X154877265Y-73310961D01*
X155410606Y-72834744D01*
X157469509Y-71350334D01*
X159578543Y-70148242D01*
X161722680Y-69215590D01*
X163887052Y-68539911D01*
X166056698Y-68109178D01*
X168216544Y-67911701D01*
X170351161Y-67936032D01*
M02*
